G04 start of page 8 for group -4079 idx -4079 *
G04 Title: (unknown), topsilk *
G04 Creator: pcb 20110918 *
G04 CreationDate: Mon 23 Feb 2015 09:14:10 PM GMT UTC *
G04 For: railfan *
G04 Format: Gerber/RS-274X *
G04 PCB-Dimensions: 265000 175000 *
G04 PCB-Coordinate-Origin: lower left *
%MOIN*%
%FSLAX25Y25*%
%LNTOPSILK*%
%ADD95C,0.0100*%
G54D95*X500Y500D02*X264500D01*
X180500Y16000D02*Y13000D01*
X179000Y14500D02*X182000D01*
X33000Y4500D02*X31500Y6000D01*
X33000Y4500D02*X31500Y3000D01*
X33000Y4500D02*X28000D01*
X21000Y41500D02*Y38500D01*
X19500Y40000D02*X22500D01*
X500Y174500D02*Y500D01*
X264500D02*Y174500D01*
X229500Y16000D02*Y13000D01*
X228000Y14500D02*X231000D01*
X243000Y108500D02*Y105500D01*
X264500Y174500D02*X500D01*
X241500Y107000D02*X244500D01*
X248000Y47500D02*Y44500D01*
X246500Y46000D02*X249500D01*
X254200Y116900D02*Y114500D01*
Y116900D02*X254800Y117500D01*
X256000D01*
X256600Y116900D02*X256000Y117500D01*
X256600Y116900D02*Y115100D01*
X254200D02*X259000D01*
X256600Y116060D02*X259000Y117500D01*
X254200Y121340D02*X254800Y121940D01*
X254200Y121340D02*Y119540D01*
X254800Y118940D02*X254200Y119540D01*
X254800Y118940D02*X256000D01*
X256600Y119540D01*
Y121340D02*Y119540D01*
Y121340D02*X257200Y121940D01*
X258400D01*
X259000Y121340D02*X258400Y121940D01*
X259000Y121340D02*Y119540D01*
X258400Y118940D02*X259000Y119540D01*
X254200Y125780D02*X254800Y126380D01*
X254200Y125780D02*Y123980D01*
X254800Y123380D02*X254200Y123980D01*
X254800Y123380D02*X256000D01*
X256600Y123980D01*
Y125780D02*Y123980D01*
Y125780D02*X257200Y126380D01*
X258400D01*
X259000Y125780D02*X258400Y126380D01*
X259000Y125780D02*Y123980D01*
X258400Y123380D02*X259000Y123980D01*
X254200Y129020D02*Y127820D01*
Y128420D02*X259000D01*
Y129020D02*Y127820D01*
X164000Y146500D02*X165000D01*
X164500D02*Y142500D01*
X164000D02*X165000D01*
X166200Y144000D02*Y143000D01*
Y144000D02*X166700Y144500D01*
X167700D01*
X168200Y144000D01*
Y143000D01*
X167700Y142500D02*X168200Y143000D01*
X166700Y142500D02*X167700D01*
X166200Y143000D02*X166700Y142500D01*
X169400Y144500D02*Y143000D01*
X169900Y142500D01*
X170400D01*
X170900Y143000D01*
Y144500D02*Y143000D01*
X171400Y142500D01*
X171900D01*
X172400Y143000D01*
Y144500D02*Y143000D01*
X175100Y144500D02*X175600Y144000D01*
X174100Y144500D02*X175100D01*
X173600Y144000D02*X174100Y144500D01*
X173600Y144000D02*Y143000D01*
X174100Y142500D01*
X175600Y144500D02*Y143000D01*
X176100Y142500D01*
X174100D02*X175100D01*
X175600Y143000D01*
X181100Y146500D02*X181600Y146000D01*
X179600Y146500D02*X181100D01*
X179100Y146000D02*X179600Y146500D01*
X179100Y146000D02*Y145000D01*
X179600Y144500D01*
X181100D01*
X181600Y144000D01*
Y143000D01*
X181100Y142500D02*X181600Y143000D01*
X179600Y142500D02*X181100D01*
X179100Y143000D02*X179600Y142500D01*
X183300Y144500D02*X184800D01*
X182800Y144000D02*X183300Y144500D01*
X182800Y144000D02*Y143000D01*
X183300Y142500D01*
X184800D01*
X187500Y144500D02*X188000Y144000D01*
X186500Y144500D02*X187500D01*
X186000Y144000D02*X186500Y144500D01*
X186000Y144000D02*Y143000D01*
X186500Y142500D01*
X188000Y144500D02*Y143000D01*
X188500Y142500D01*
X186500D02*X187500D01*
X188000Y143000D01*
X189700Y146500D02*Y143000D01*
X190200Y142500D01*
X191700D02*X193200D01*
X191200Y143000D02*X191700Y142500D01*
X191200Y144000D02*Y143000D01*
Y144000D02*X191700Y144500D01*
X192700D01*
X193200Y144000D01*
X191200Y143500D02*X193200D01*
Y144000D02*Y143500D01*
X196400Y146500D02*Y142500D01*
X195900D02*X196400Y143000D01*
X194900Y142500D02*X195900D01*
X194400Y143000D02*X194900Y142500D01*
X194400Y144000D02*Y143000D01*
Y144000D02*X194900Y144500D01*
X195900D01*
X196400Y144000D01*
X199400Y144700D02*X200900D01*
X199400Y142500D02*X201400D01*
X199400Y146500D02*Y142500D01*
Y146500D02*X201400D01*
X203100Y144000D02*Y142500D01*
Y144000D02*X203600Y144500D01*
X204100D01*
X204600Y144000D01*
Y142500D01*
X202600Y144500D02*X203100Y144000D01*
X207300Y144500D02*X207800Y144000D01*
X206300Y144500D02*X207300D01*
X205800Y144000D02*X206300Y144500D01*
X205800Y144000D02*Y143000D01*
X206300Y142500D01*
X207300D01*
X207800Y143000D01*
X205800Y141500D02*X206300Y141000D01*
X207300D01*
X207800Y141500D01*
Y144500D02*Y141500D01*
X209000Y145500D02*Y145400D01*
Y144000D02*Y142500D01*
X210500Y144000D02*Y142500D01*
Y144000D02*X211000Y144500D01*
X211500D01*
X212000Y144000D01*
Y142500D01*
X210000Y144500D02*X210500Y144000D01*
X213700Y142500D02*X215200D01*
X213200Y143000D02*X213700Y142500D01*
X213200Y144000D02*Y143000D01*
Y144000D02*X213700Y144500D01*
X214700D01*
X215200Y144000D01*
X213200Y143500D02*X215200D01*
Y144000D02*Y143500D01*
X216900Y142500D02*X218400D01*
X216400Y143000D02*X216900Y142500D01*
X216400Y144000D02*Y143000D01*
Y144000D02*X216900Y144500D01*
X217900D01*
X218400Y144000D01*
X216400Y143500D02*X218400D01*
Y144000D02*Y143500D01*
X220100Y144000D02*Y142500D01*
Y144000D02*X220600Y144500D01*
X221600D01*
X219600D02*X220100Y144000D01*
X222800Y145500D02*Y145400D01*
Y144000D02*Y142500D01*
X224300Y144000D02*Y142500D01*
Y144000D02*X224800Y144500D01*
X225300D01*
X225800Y144000D01*
Y142500D01*
X223800Y144500D02*X224300Y144000D01*
X228500Y144500D02*X229000Y144000D01*
X227500Y144500D02*X228500D01*
X227000Y144000D02*X227500Y144500D01*
X227000Y144000D02*Y143000D01*
X227500Y142500D01*
X228500D01*
X229000Y143000D01*
X227000Y141500D02*X227500Y141000D01*
X228500D01*
X229000Y141500D01*
Y144500D02*Y141500D01*
X182700Y130000D02*X184000D01*
X182000Y130700D02*X182700Y130000D01*
X182000Y133300D02*Y130700D01*
Y133300D02*X182700Y134000D01*
X184000D01*
X185900Y130000D02*X187200D01*
X185200Y130700D02*X185900Y130000D01*
X185200Y133300D02*Y130700D01*
Y133300D02*X185900Y134000D01*
X187200D01*
X190200Y130000D02*X192200D01*
X192700Y130500D01*
Y131700D02*Y130500D01*
X192200Y132200D02*X192700Y131700D01*
X190700Y132200D02*X192200D01*
X190700Y134000D02*Y130000D01*
X190200Y134000D02*X192200D01*
X192700Y133500D01*
Y132700D01*
X192200Y132200D02*X192700Y132700D01*
X193900Y134000D02*X194900Y132000D01*
X195900Y134000D01*
X194900Y132000D02*Y130000D01*
X197100Y132000D02*X199100D01*
X202300Y134000D02*X202800Y133500D01*
X200800Y134000D02*X202300D01*
X200300Y133500D02*X200800Y134000D01*
X200300Y133500D02*Y132500D01*
X200800Y132000D01*
X202300D01*
X202800Y131500D01*
Y130500D01*
X202300Y130000D02*X202800Y130500D01*
X200800Y130000D02*X202300D01*
X200300Y130500D02*X200800Y130000D01*
X204000Y133000D02*Y130000D01*
Y133000D02*X204700Y134000D01*
X205800D01*
X206500Y133000D01*
Y130000D01*
X204000Y132000D02*X206500D01*
X3000Y50900D02*X7800D01*
Y51500D02*Y49100D01*
X7200Y48500D01*
X6000D02*X7200D01*
X5400Y49100D02*X6000Y48500D01*
X5400Y50900D02*Y49100D01*
X3000Y47060D02*X7800D01*
X5400D02*X7800Y44660D01*
X5400Y47060D02*X3000Y44660D01*
X7800Y43220D02*Y40820D01*
X3000Y42020D02*X7800D01*
X3000Y68500D02*Y66100D01*
X3600Y65500D01*
X5040D01*
X5640Y66100D02*X5040Y65500D01*
X5640Y67900D02*Y66100D01*
X3000Y67900D02*X7800D01*
Y68500D02*Y66100D01*
X7200Y65500D01*
X6240D02*X7200D01*
X5640Y66100D02*X6240Y65500D01*
X255400Y64000D02*X259000D01*
X255400D02*X254200Y64840D01*
Y66160D02*Y64840D01*
Y66160D02*X255400Y67000D01*
X259000D01*
X256600D02*Y64000D01*
X254200Y70840D02*X254800Y71440D01*
X254200Y70840D02*Y69040D01*
X254800Y68440D02*X254200Y69040D01*
X254800Y68440D02*X256000D01*
X256600Y69040D01*
Y70840D02*Y69040D01*
Y70840D02*X257200Y71440D01*
X258400D01*
X259000Y70840D02*X258400Y71440D01*
X259000Y70840D02*Y69040D01*
X258400Y68440D02*X259000Y69040D01*
X254200Y75280D02*X254800Y75880D01*
X254200Y75280D02*Y73480D01*
X254800Y72880D02*X254200Y73480D01*
X254800Y72880D02*X256000D01*
X256600Y73480D01*
Y75280D02*Y73480D01*
Y75280D02*X257200Y75880D01*
X258400D01*
X259000Y75280D02*X258400Y75880D01*
X259000Y75280D02*Y73480D01*
X258400Y72880D02*X259000Y73480D01*
X254800Y77320D02*X258400D01*
X254800D02*X254200Y77920D01*
Y79120D02*Y77920D01*
Y79120D02*X254800Y79720D01*
X258400D01*
X259000Y79120D02*X258400Y79720D01*
X259000Y79120D02*Y77920D01*
X258400Y77320D02*X259000Y77920D01*
Y83560D02*Y82000D01*
X258160Y81160D02*X259000Y82000D01*
X255040Y81160D02*X258160D01*
X255040D02*X254200Y82000D01*
Y83560D02*Y82000D01*
X189000Y7800D02*X191400D01*
X189000D02*Y5400D01*
X189600Y6000D01*
X190800D01*
X191400Y5400D01*
Y3600D01*
X190800Y3000D02*X191400Y3600D01*
X189600Y3000D02*X190800D01*
X189000Y3600D02*X189600Y3000D01*
X192840Y7800D02*X194040Y3000D01*
X195240Y7800D01*
X212000Y7200D02*X212600Y7800D01*
X213800D01*
X214400Y7200D01*
X213800Y3000D02*X214400Y3600D01*
X212600Y3000D02*X213800D01*
X212000Y3600D02*X212600Y3000D01*
Y5640D02*X213800D01*
X214400Y7200D02*Y6240D01*
Y5040D02*Y3600D01*
Y5040D02*X213800Y5640D01*
X214400Y6240D02*X213800Y5640D01*
X215840Y3000D02*X216440D01*
X217880Y7200D02*X218480Y7800D01*
X219680D01*
X220280Y7200D01*
X219680Y3000D02*X220280Y3600D01*
X218480Y3000D02*X219680D01*
X217880Y3600D02*X218480Y3000D01*
Y5640D02*X219680D01*
X220280Y7200D02*Y6240D01*
Y5040D02*Y3600D01*
Y5040D02*X219680Y5640D01*
X220280Y6240D02*X219680Y5640D01*
X221720Y7800D02*X222920Y3000D01*
X224120Y7800D01*
X187000Y32000D02*Y28000D01*
Y32000D02*X188500Y30000D01*
X190000Y32000D01*
Y28000D01*
X191200Y32000D02*X193200D01*
X193700Y31500D01*
Y30500D01*
X193200Y30000D02*X193700Y30500D01*
X191700Y30000D02*X193200D01*
X191700Y32000D02*Y28000D01*
X192500Y30000D02*X193700Y28000D01*
X194900D02*X196900D01*
X197400Y28500D01*
Y29700D02*Y28500D01*
X196900Y30200D02*X197400Y29700D01*
X195400Y30200D02*X196900D01*
X195400Y32000D02*Y28000D01*
X194900Y32000D02*X196900D01*
X197400Y31500D01*
Y30700D01*
X196900Y30200D02*X197400Y30700D01*
X198600Y30000D02*X200600D01*
X201800Y31000D02*Y28000D01*
Y31000D02*X202500Y32000D01*
X203600D01*
X204300Y31000D01*
Y28000D01*
X201800Y30000D02*X204300D01*
X206000Y32000D02*Y28000D01*
X205500Y32000D02*X207500D01*
X208000Y31500D01*
Y30500D01*
X207500Y30000D02*X208000Y30500D01*
X206000Y30000D02*X207500D01*
X212800D02*X213800Y28000D01*
X214800Y30000D02*X213800Y28000D01*
X216000Y31500D02*X216500Y32000D01*
X217500D01*
X218000Y31500D01*
X217500Y28000D02*X218000Y28500D01*
X216500Y28000D02*X217500D01*
X216000Y28500D02*X216500Y28000D01*
Y30200D02*X217500D01*
X218000Y31500D02*Y30700D01*
Y29700D02*Y28500D01*
Y29700D02*X217500Y30200D01*
X218000Y30700D02*X217500Y30200D01*
X219200Y28000D02*X219700D01*
X220900Y28500D02*X221400Y28000D01*
X220900Y31500D02*Y28500D01*
Y31500D02*X221400Y32000D01*
X222400D01*
X222900Y31500D01*
Y28500D01*
X222400Y28000D02*X222900Y28500D01*
X221400Y28000D02*X222400D01*
X220900Y29000D02*X222900Y31000D01*
X194000Y36500D02*X194500Y36000D01*
X194000Y39500D02*X194500Y40000D01*
X194000Y39500D02*Y36500D01*
X196400Y36000D02*X197700D01*
X195700Y36700D02*X196400Y36000D01*
X195700Y39300D02*Y36700D01*
Y39300D02*X196400Y40000D01*
X197700D01*
X198900D02*X199400Y39500D01*
Y36500D01*
X198900Y36000D02*X199400Y36500D01*
X202400Y39500D02*X202900Y40000D01*
X204400D01*
X204900Y39500D01*
Y38500D01*
X202400Y36000D02*X204900Y38500D01*
X202400Y36000D02*X204900D01*
X206100Y36500D02*X206600Y36000D01*
X206100Y39500D02*Y36500D01*
Y39500D02*X206600Y40000D01*
X207600D01*
X208100Y39500D01*
Y36500D01*
X207600Y36000D02*X208100Y36500D01*
X206600Y36000D02*X207600D01*
X206100Y37000D02*X208100Y39000D01*
X209300Y39200D02*X210100Y40000D01*
Y36000D01*
X209300D02*X210800D01*
X212000Y40000D02*X214000D01*
X212000D02*Y38000D01*
X212500Y38500D01*
X213500D01*
X214000Y38000D01*
Y36500D01*
X213500Y36000D02*X214000Y36500D01*
X212500Y36000D02*X213500D01*
X212000Y36500D02*X212500Y36000D01*
X168000Y153000D02*Y149000D01*
Y150500D02*X168500Y151000D01*
X169500D01*
X170000Y150500D01*
Y149000D01*
X171700Y153000D02*Y149500D01*
X172200Y149000D01*
X171200Y151500D02*X172200D01*
X173700Y153000D02*Y149500D01*
X174200Y149000D01*
X173200Y151500D02*X174200D01*
X175700Y150500D02*Y147500D01*
X175200Y151000D02*X175700Y150500D01*
X176200Y151000D01*
X177200D01*
X177700Y150500D01*
Y149500D01*
X177200Y149000D02*X177700Y149500D01*
X176200Y149000D02*X177200D01*
X175700Y149500D02*X176200Y149000D01*
X178900Y151500D02*X179400D01*
X178900Y150500D02*X179400D01*
X180600Y149500D02*X183600Y152500D01*
X184800Y149500D02*X187800Y152500D01*
X189000Y152000D02*Y151900D01*
Y150500D02*Y149000D01*
X191500Y151000D02*X192000Y150500D01*
X190500Y151000D02*X191500D01*
X190000Y150500D02*X190500Y151000D01*
X190000Y150500D02*Y149500D01*
X190500Y149000D01*
X192000Y151000D02*Y149500D01*
X192500Y149000D01*
X190500D02*X191500D01*
X192000Y149500D01*
X194200Y149000D02*X195700D01*
X196200Y149500D01*
X195700Y150000D02*X196200Y149500D01*
X194200Y150000D02*X195700D01*
X193700Y150500D02*X194200Y150000D01*
X193700Y150500D02*X194200Y151000D01*
X195700D01*
X196200Y150500D01*
X193700Y149500D02*X194200Y149000D01*
X197900Y151000D02*X199400D01*
X197400Y150500D02*X197900Y151000D01*
X197400Y150500D02*Y149500D01*
X197900Y149000D01*
X199400D01*
X202100Y151000D02*X202600Y150500D01*
X201100Y151000D02*X202100D01*
X200600Y150500D02*X201100Y151000D01*
X200600Y150500D02*Y149500D01*
X201100Y149000D01*
X202600Y151000D02*Y149500D01*
X203100Y149000D01*
X201100D02*X202100D01*
X202600Y149500D01*
X204300Y153000D02*Y149500D01*
X204800Y149000D01*
X206300D02*X207800D01*
X205800Y149500D02*X206300Y149000D01*
X205800Y150500D02*Y149500D01*
Y150500D02*X206300Y151000D01*
X207300D01*
X207800Y150500D01*
X205800Y150000D02*X207800D01*
Y150500D02*Y150000D01*
X211000Y153000D02*Y149000D01*
X210500D02*X211000Y149500D01*
X209500Y149000D02*X210500D01*
X209000Y149500D02*X209500Y149000D01*
X209000Y150500D02*Y149500D01*
Y150500D02*X209500Y151000D01*
X210500D01*
X211000Y150500D01*
X212200Y149000D02*X212700D01*
X214400Y151000D02*X215900D01*
X213900Y150500D02*X214400Y151000D01*
X213900Y150500D02*Y149500D01*
X214400Y149000D01*
X215900D01*
X217100Y150500D02*Y149500D01*
Y150500D02*X217600Y151000D01*
X218600D01*
X219100Y150500D01*
Y149500D01*
X218600Y149000D02*X219100Y149500D01*
X217600Y149000D02*X218600D01*
X217100Y149500D02*X217600Y149000D01*
X220800Y150500D02*Y149000D01*
Y150500D02*X221300Y151000D01*
X221800D01*
X222300Y150500D01*
Y149000D01*
Y150500D02*X222800Y151000D01*
X223300D01*
X223800Y150500D01*
Y149000D01*
X220300Y151000D02*X220800Y150500D01*
X7800Y140500D02*X3000Y139300D01*
X7800Y138100D01*
Y136660D02*Y135460D01*
X3000Y136060D02*X7800D01*
X3000Y136660D02*Y135460D01*
Y134020D02*X7800D01*
X3000Y131020D01*
X7800D01*
Y111600D02*X7200Y111000D01*
X7800Y113400D02*Y111600D01*
X7200Y114000D02*X7800Y113400D01*
X3600Y114000D02*X7200D01*
X3600D02*X3000Y113400D01*
Y111600D01*
X3600Y111000D01*
X4800D01*
X5400Y111600D02*X4800Y111000D01*
X5400Y112800D02*Y111600D01*
X3000Y109560D02*X7800D01*
X3000Y106560D01*
X7800D01*
X3000Y104520D02*X7800D01*
Y102960D02*X6960Y102120D01*
X3840D02*X6960D01*
X3000Y102960D02*X3840Y102120D01*
X3000Y105120D02*Y102960D01*
X7800Y105120D02*Y102960D01*
X3000Y91500D02*X6600D01*
X7800Y90660D01*
Y89340D01*
X6600Y88500D01*
X3000D02*X6600D01*
X5400Y91500D02*Y88500D01*
X96626Y170835D02*Y125165D01*
X130090Y170835D02*Y125165D01*
X96626Y170835D02*X130090D01*
X96626Y125165D02*X130090D01*
X38500Y164300D02*Y144600D01*
X46500Y164300D02*Y144600D01*
X38500Y164300D02*X46500D01*
X38500Y144600D02*X46500D01*
X38500Y157500D02*X46500D01*
X54508Y139008D02*X61004D01*
X73996D02*X80492D01*
Y158496D02*Y139008D01*
X54508Y158496D02*Y139008D01*
X80492Y158496D02*X73996Y164992D01*
X54508Y158496D02*X61004Y164992D01*
X57500Y158000D02*X61500D01*
X59500Y160000D02*Y156000D01*
X11700Y115000D02*Y100000D01*
Y140000D02*Y130500D01*
X41700Y140000D02*Y122500D01*
X37300Y140000D02*Y122500D01*
X11700Y140000D02*X41700D01*
X11700Y100000D02*X32000D01*
X101107Y101255D02*X101893D01*
X101107Y95745D02*X101893D01*
X90715Y81785D02*Y46115D01*
Y81785D02*X129285D01*
Y43215D01*
X93615D02*X129285D01*
X93615D02*X90715Y46115D01*
X93615Y45115D02*G75*G03X93615Y45115I0J1000D01*G01*
X112948Y98220D02*X132634D01*
X112948Y117906D02*Y98220D01*
Y117906D02*X132634D01*
Y98220D01*
X134634Y96720D02*G75*G03X134634Y96720I-500J0D01*G01*
X91255Y151393D02*Y150607D01*
X85745Y151393D02*Y150607D01*
X100607Y115245D02*X101393D01*
X100607Y120755D02*X101393D01*
X85245Y119393D02*Y118607D01*
X90755Y119393D02*Y118607D01*
X37607Y45745D02*X38393D01*
X37607Y51255D02*X38393D01*
X18240Y48362D02*Y43638D01*
X10760Y48362D02*Y43638D01*
X99362Y1650D02*X144638D01*
X99362Y20350D02*Y1650D01*
Y20350D02*X144638D01*
Y1650D01*
X130107Y23745D02*X130893D01*
X130107Y29255D02*X130893D01*
X113107D02*X113893D01*
X113107Y23745D02*X113893D01*
X146693Y60000D02*Y55650D01*
X243307Y60000D02*Y55650D01*
X146693D02*X150000D01*
X243307D02*X240000D01*
X146693Y138642D02*X176890Y164351D01*
X243307Y138642D02*X213110Y164351D01*
X176890D02*X213110D01*
X146693Y34650D02*X150000D01*
X146693D02*Y45000D01*
X243307Y34650D02*X240000D01*
X243307D02*Y45000D01*
X173607Y108755D02*X174393D01*
X173607Y103245D02*X174393D01*
X173607Y96755D02*X174393D01*
X173607Y91245D02*X174393D01*
X172607Y40745D02*X173393D01*
X172607Y46255D02*X173393D01*
X200607Y97245D02*X201393D01*
X200607Y102755D02*X201393D01*
X252760Y105862D02*Y101138D01*
X260240Y105862D02*Y101138D01*
Y55362D02*Y50638D01*
X252760Y55362D02*Y50638D01*
X141107Y162245D02*X141893D01*
X141107Y167755D02*X141893D01*
X141107Y155755D02*X141893D01*
X141107Y150245D02*X141893D01*
X88000Y109500D02*Y90500D01*
X57000Y109500D02*X88000D01*
X57000D02*Y90500D01*
X75000D02*X88000D01*
X57000D02*X70000D01*
X75000D02*G75*G03X70000Y90500I-2500J0D01*G01*
X63771Y112750D02*X74401D01*
X63771Y131250D02*X74401D01*
X63771Y116000D02*Y112750D01*
Y131250D02*Y128000D01*
X74401Y112929D02*Y112750D01*
Y131250D02*Y131071D01*
X31500Y70000D02*X51800D01*
X31500Y130000D02*X51800D01*
Y70000D01*
X34500Y500D02*X64500D01*
Y20500D02*Y500D01*
X34500Y20500D02*X64500D01*
X34500D02*Y500D01*
X44500Y10500D02*Y500D01*
X34500Y10500D02*X44500D01*
X37607Y31255D02*X38393D01*
X37607Y25745D02*X38393D01*
X68745Y10893D02*Y10107D01*
X74255Y10893D02*Y10107D01*
X78745Y10893D02*Y10107D01*
X84255Y10893D02*Y10107D01*
X57500Y68500D02*X67500D01*
Y28500D02*X57500D01*
X67500Y68500D02*Y67500D01*
Y59500D02*Y47500D01*
Y39500D02*Y28500D01*
X57500D02*Y29500D01*
Y37500D02*Y49500D01*
Y57500D02*Y68500D01*
X55500Y70000D02*G75*G03X55500Y70000I500J0D01*G01*
X11700Y100000D02*Y85000D01*
Y69500D02*Y60000D01*
X41700Y77500D02*Y60000D01*
X37300Y77500D02*Y60000D01*
X11700D02*X41700D01*
X11700Y100000D02*X32000D01*
X62607Y78745D02*X63393D01*
X62607Y84255D02*X63393D01*
X37607Y35745D02*X38393D01*
X37607Y41255D02*X38393D01*
X208607Y44245D02*X209393D01*
X208607Y49755D02*X209393D01*
X230107D02*X230893D01*
X230107Y44245D02*X230893D01*
X149607Y53255D02*X150393D01*
X149607Y47745D02*X150393D01*
X167745Y22893D02*Y22107D01*
X173255Y22893D02*Y22107D01*
X163255Y22893D02*Y22107D01*
X157745Y22893D02*Y22107D01*
X189638Y10760D02*X194362D01*
X189638Y18240D02*X194362D01*
X215638D02*X220362D01*
X215638Y10760D02*X220362D01*
X115500Y150000D02*Y146500D01*
X116000Y146000D01*
X117000D01*
X117500Y146500D01*
Y150000D02*Y146500D01*
X118700Y147500D02*X120700Y150000D01*
X118700Y147500D02*X121200D01*
X120700Y150000D02*Y146000D01*
X40000Y170500D02*Y166500D01*
X41300Y170500D02*X42000Y169800D01*
Y167200D01*
X41300Y166500D02*X42000Y167200D01*
X39500Y166500D02*X41300D01*
X39500Y170500D02*X41300D01*
X43200Y168000D02*X45200Y170500D01*
X43200Y168000D02*X45700D01*
X45200Y170500D02*Y166500D01*
X74200Y151000D02*X75500D01*
X73500Y151700D02*X74200Y151000D01*
X73500Y154300D02*Y151700D01*
Y154300D02*X74200Y155000D01*
X75500D01*
X76700Y154200D02*X77500Y155000D01*
Y151000D01*
X76700D02*X78200D01*
X55842Y132911D02*Y129411D01*
X56342Y128911D01*
X57342D01*
X57842Y129411D01*
Y132911D02*Y129411D01*
X59042Y132411D02*X59542Y132911D01*
X60542D01*
X61042Y132411D01*
X60542Y128911D02*X61042Y129411D01*
X59542Y128911D02*X60542D01*
X59042Y129411D02*X59542Y128911D01*
Y131111D02*X60542D01*
X61042Y132411D02*Y131611D01*
Y130611D02*Y129411D01*
Y130611D02*X60542Y131111D01*
X61042Y131611D02*X60542Y131111D01*
X48000Y136800D02*Y136000D01*
X44500D02*X48000D01*
X44000Y136500D02*X44500Y136000D01*
X44000Y137000D02*Y136500D01*
X44500Y137500D02*X44000Y137000D01*
X44500Y137500D02*X45000D01*
X47200Y134800D02*X48000Y134000D01*
X44000D02*X48000D01*
X44000Y134800D02*Y133300D01*
X45700Y128000D02*X46500D01*
Y124500D01*
X46000Y124000D02*X46500Y124500D01*
X45500Y124000D02*X46000D01*
X45000Y124500D02*X45500Y124000D01*
X45000Y125000D02*Y124500D01*
X47700Y125500D02*X49700Y128000D01*
X47700Y125500D02*X50200D01*
X49700Y128000D02*Y124000D01*
X85007Y139150D02*X86307D01*
X84307Y139850D02*X85007Y139150D01*
X84307Y142450D02*Y139850D01*
Y142450D02*X85007Y143150D01*
X86307D01*
X87507Y142350D02*X88307Y143150D01*
Y139150D01*
X87507D02*X89007D01*
X90207Y140650D02*X92207Y143150D01*
X90207Y140650D02*X92707D01*
X92207Y143150D02*Y139150D01*
X86093Y127107D02*X87393D01*
X85393Y127807D02*X86093Y127107D01*
X85393Y130407D02*Y127807D01*
Y130407D02*X86093Y131107D01*
X87393D01*
X88593Y130607D02*X89093Y131107D01*
X90593D01*
X91093Y130607D01*
Y129607D01*
X88593Y127107D02*X91093Y129607D01*
X88593Y127107D02*X91093D01*
X99550Y103150D02*X100850D01*
X98850Y103850D02*X99550Y103150D01*
X98850Y106450D02*Y103850D01*
Y106450D02*X99550Y107150D01*
X100850D01*
X103550D02*X104050Y106650D01*
X102550Y107150D02*X103550D01*
X102050Y106650D02*X102550Y107150D01*
X102050Y106650D02*Y103650D01*
X102550Y103150D01*
X103550Y105350D02*X104050Y104850D01*
X102050Y105350D02*X103550D01*
X102550Y103150D02*X103550D01*
X104050Y103650D01*
Y104850D02*Y103650D01*
X107500Y64500D02*Y61000D01*
X108000Y60500D01*
X109000D01*
X109500Y61000D01*
Y64500D02*Y61000D01*
X110700Y63700D02*X111500Y64500D01*
Y60500D01*
X110700D02*X112200D01*
X131709Y123437D02*Y119937D01*
X132209Y119437D01*
X133209D01*
X133709Y119937D01*
Y123437D02*Y119937D01*
X134909Y123437D02*X136909D01*
X134909D02*Y121437D01*
X135409Y121937D01*
X136409D01*
X136909Y121437D01*
Y119937D01*
X136409Y119437D02*X136909Y119937D01*
X135409Y119437D02*X136409D01*
X134909Y119937D02*X135409Y119437D01*
X182878Y104150D02*X184178D01*
X182178Y104850D02*X182878Y104150D01*
X182178Y107450D02*Y104850D01*
Y107450D02*X182878Y108150D01*
X184178D01*
X185878Y104150D02*X187378Y106150D01*
Y107650D02*Y106150D01*
X186878Y108150D02*X187378Y107650D01*
X185878Y108150D02*X186878D01*
X185378Y107650D02*X185878Y108150D01*
X185378Y107650D02*Y106650D01*
X185878Y106150D01*
X187378D01*
X182878Y92150D02*X184178D01*
X182178Y92850D02*X182878Y92150D01*
X182178Y95450D02*Y92850D01*
Y95450D02*X182878Y96150D01*
X184178D01*
X185378Y92650D02*X185878Y92150D01*
X185378Y93450D02*Y92650D01*
Y93450D02*X186078Y94150D01*
X186678D01*
X187378Y93450D01*
Y92650D01*
X186878Y92150D02*X187378Y92650D01*
X185878Y92150D02*X186878D01*
X185378Y94850D02*X186078Y94150D01*
X185378Y95650D02*Y94850D01*
Y95650D02*X185878Y96150D01*
X186878D01*
X187378Y95650D01*
Y94850D01*
X186678Y94150D02*X187378Y94850D01*
X149850Y167150D02*X151850D01*
X152350Y166650D01*
Y165650D01*
X151850Y165150D02*X152350Y165650D01*
X150350Y165150D02*X151850D01*
X150350Y167150D02*Y163150D01*
X151150Y165150D02*X152350Y163150D01*
X154050D02*X156050Y167150D01*
X153550D02*X156050D01*
X149850Y155150D02*X151850D01*
X152350Y154650D01*
Y153650D01*
X151850Y153150D02*X152350Y153650D01*
X150350Y153150D02*X151850D01*
X150350Y155150D02*Y151150D01*
X151150Y153150D02*X152350Y151150D01*
X153550Y151650D02*X154050Y151150D01*
X153550Y152450D02*Y151650D01*
Y152450D02*X154250Y153150D01*
X154850D01*
X155550Y152450D01*
Y151650D01*
X155050Y151150D02*X155550Y151650D01*
X154050Y151150D02*X155050D01*
X153550Y153850D02*X154250Y153150D01*
X153550Y154650D02*Y153850D01*
Y154650D02*X154050Y155150D01*
X155050D01*
X155550Y154650D01*
Y153850D01*
X154850Y153150D02*X155550Y153850D01*
X245850Y101350D02*X249850D01*
X245850Y102650D02*X246550Y103350D01*
X249150D01*
X249850Y102650D02*X249150Y103350D01*
X249850Y102650D02*Y100850D01*
X245850Y102650D02*Y100850D01*
Y106050D02*X246350Y106550D01*
X245850Y106050D02*Y105050D01*
X246350Y104550D02*X245850Y105050D01*
X246350Y104550D02*X249350D01*
X249850Y105050D01*
X247650Y106050D02*X248150Y106550D01*
X247650Y106050D02*Y104550D01*
X249850Y106050D02*Y105050D01*
Y106050D02*X249350Y106550D01*
X248150D02*X249350D01*
X204500Y56000D02*X206500D01*
X207000Y55500D01*
Y54500D01*
X206500Y54000D02*X207000Y54500D01*
X205000Y54000D02*X206500D01*
X205000Y56000D02*Y52000D01*
X205800Y54000D02*X207000Y52000D01*
X208200Y55200D02*X209000Y56000D01*
Y52000D01*
X208200D02*X209700D01*
X210900Y55500D02*X211400Y56000D01*
X212900D01*
X213400Y55500D01*
Y54500D01*
X210900Y52000D02*X213400Y54500D01*
X210900Y52000D02*X213400D01*
X226000Y56000D02*X228000D01*
X228500Y55500D01*
Y54500D01*
X228000Y54000D02*X228500Y54500D01*
X226500Y54000D02*X228000D01*
X226500Y56000D02*Y52000D01*
X227300Y54000D02*X228500Y52000D01*
X229700Y55200D02*X230500Y56000D01*
Y52000D01*
X229700D02*X231200D01*
X232400Y55200D02*X233200Y56000D01*
Y52000D01*
X232400D02*X233900D01*
X158550Y48650D02*X159850D01*
X157850Y49350D02*X158550Y48650D01*
X157850Y51950D02*Y49350D01*
Y51950D02*X158550Y52650D01*
X159850D01*
X161550Y48650D02*X163550Y52650D01*
X161050D02*X163550D01*
X245850Y50850D02*X249850D01*
X245850Y52150D02*X246550Y52850D01*
X249150D01*
X249850Y52150D02*X249150Y52850D01*
X249850Y52150D02*Y50350D01*
X245850Y52150D02*Y50350D01*
Y56050D02*Y54050D01*
X247850D01*
X247350Y54550D01*
Y55550D02*Y54550D01*
Y55550D02*X247850Y56050D01*
X249350D01*
X249850Y55550D02*X249350Y56050D01*
X249850Y55550D02*Y54550D01*
X249350Y54050D02*X249850Y54550D01*
X170393Y52650D02*X172393D01*
X172893Y52150D01*
Y51150D01*
X172393Y50650D02*X172893Y51150D01*
X170893Y50650D02*X172393D01*
X170893Y52650D02*Y48650D01*
X171693Y50650D02*X172893Y48650D01*
X174093Y51850D02*X174893Y52650D01*
Y48650D01*
X174093D02*X175593D01*
X198436Y108650D02*X200436D01*
X200936Y108150D01*
Y107150D01*
X200436Y106650D02*X200936Y107150D01*
X198936Y106650D02*X200436D01*
X198936Y108650D02*Y104650D01*
X199736Y106650D02*X200936Y104650D01*
X202636D02*X204136Y106650D01*
Y108150D02*Y106650D01*
X203636Y108650D02*X204136Y108150D01*
X202636Y108650D02*X203636D01*
X202136Y108150D02*X202636Y108650D01*
X202136Y108150D02*Y107150D01*
X202636Y106650D01*
X204136D01*
X97636Y109236D02*X98936D01*
X96936Y109936D02*X97636Y109236D01*
X96936Y112536D02*Y109936D01*
Y112536D02*X97636Y113236D01*
X98936D01*
X100136Y112436D02*X100936Y113236D01*
Y109236D01*
X100136D02*X101636D01*
X102836Y113236D02*X104836D01*
X102836D02*Y111236D01*
X103336Y111736D01*
X104336D01*
X104836Y111236D01*
Y109736D01*
X104336Y109236D02*X104836Y109736D01*
X103336Y109236D02*X104336D01*
X102836Y109736D02*X103336Y109236D01*
X61050Y72150D02*X62350D01*
X60350Y72850D02*X61050Y72150D01*
X60350Y75450D02*Y72850D01*
Y75450D02*X61050Y76150D01*
X62350D01*
X63550D02*X65550D01*
X63550D02*Y74150D01*
X64050Y74650D01*
X65050D01*
X65550Y74150D01*
Y72650D01*
X65050Y72150D02*X65550Y72650D01*
X64050Y72150D02*X65050D01*
X63550Y72650D02*X64050Y72150D01*
X67507Y18150D02*X68807D01*
X66807Y18850D02*X67507Y18150D01*
X66807Y21450D02*Y18850D01*
Y21450D02*X67507Y22150D01*
X68807D01*
X70007Y21350D02*X70807Y22150D01*
Y18150D01*
X70007D02*X71507D01*
X72707Y18650D02*X73207Y18150D01*
X72707Y21650D02*Y18650D01*
Y21650D02*X73207Y22150D01*
X74207D01*
X74707Y21650D01*
Y18650D01*
X74207Y18150D02*X74707Y18650D01*
X73207Y18150D02*X74207D01*
X72707Y19150D02*X74707Y21150D01*
X78000Y22000D02*X80000D01*
X80500Y21500D01*
Y20500D01*
X80000Y20000D02*X80500Y20500D01*
X78500Y20000D02*X80000D01*
X78500Y22000D02*Y18000D01*
X79300Y20000D02*X80500Y18000D01*
X81700Y21200D02*X82500Y22000D01*
Y18000D01*
X81700D02*X83200D01*
X84400Y18500D02*X84900Y18000D01*
X84400Y21500D02*Y18500D01*
Y21500D02*X84900Y22000D01*
X85900D01*
X86400Y21500D01*
Y18500D01*
X85900Y18000D02*X86400Y18500D01*
X84900Y18000D02*X85900D01*
X84400Y19000D02*X86400Y21000D01*
X45500Y42000D02*X47500D01*
X48000Y41500D01*
Y40500D01*
X47500Y40000D02*X48000Y40500D01*
X46000Y40000D02*X47500D01*
X46000Y42000D02*Y38000D01*
X46800Y40000D02*X48000Y38000D01*
X50700Y42000D02*X51200Y41500D01*
X49700Y42000D02*X50700D01*
X49200Y41500D02*X49700Y42000D01*
X49200Y41500D02*Y38500D01*
X49700Y38000D01*
X50700Y40200D02*X51200Y39700D01*
X49200Y40200D02*X50700D01*
X49700Y38000D02*X50700D01*
X51200Y38500D01*
Y39700D02*Y38500D01*
X35000Y57500D02*X37000D01*
X37500Y57000D01*
Y56000D01*
X37000Y55500D02*X37500Y56000D01*
X35500Y55500D02*X37000D01*
X35500Y57500D02*Y53500D01*
X36300Y55500D02*X37500Y53500D01*
X38700Y57500D02*X40700D01*
X38700D02*Y55500D01*
X39200Y56000D01*
X40200D01*
X40700Y55500D01*
Y54000D01*
X40200Y53500D02*X40700Y54000D01*
X39200Y53500D02*X40200D01*
X38700Y54000D02*X39200Y53500D01*
X21264Y53650D02*Y49650D01*
X22564Y53650D02*X23264Y52950D01*
Y50350D01*
X22564Y49650D02*X23264Y50350D01*
X20764Y49650D02*X22564D01*
X20764Y53650D02*X22564D01*
X24464Y53150D02*X24964Y53650D01*
X26464D01*
X26964Y53150D01*
Y52150D01*
X24464Y49650D02*X26964Y52150D01*
X24464Y49650D02*X26964D01*
X45350Y28150D02*X47350D01*
X47850Y27650D01*
Y26650D01*
X47350Y26150D02*X47850Y26650D01*
X45850Y26150D02*X47350D01*
X45850Y28150D02*Y24150D01*
X46650Y26150D02*X47850Y24150D01*
X49050Y27650D02*X49550Y28150D01*
X51050D01*
X51550Y27650D01*
Y26650D01*
X49050Y24150D02*X51550Y26650D01*
X49050Y24150D02*X51550D01*
X70000Y88500D02*Y85000D01*
X70500Y84500D01*
X71500D01*
X72000Y85000D01*
Y88500D02*Y85000D01*
X73200Y88000D02*X73700Y88500D01*
X75200D01*
X75700Y88000D01*
Y87000D01*
X73200Y84500D02*X75700Y87000D01*
X73200Y84500D02*X75700D01*
X70700Y36000D02*X71500D01*
Y32500D01*
X71000Y32000D02*X71500Y32500D01*
X70500Y32000D02*X71000D01*
X70000Y32500D02*X70500Y32000D01*
X70000Y33000D02*Y32500D01*
X73200Y36000D02*Y32000D01*
X72700Y36000D02*X74700D01*
X75200Y35500D01*
Y34500D01*
X74700Y34000D02*X75200Y34500D01*
X73200Y34000D02*X74700D01*
X76400Y35500D02*X76900Y36000D01*
X78400D01*
X78900Y35500D01*
Y34500D01*
X76400Y32000D02*X78900Y34500D01*
X76400Y32000D02*X78900D01*
X80100D02*X82100D01*
X83300Y35500D02*X83800Y36000D01*
X84800D01*
X85300Y35500D01*
X84800Y32000D02*X85300Y32500D01*
X83800Y32000D02*X84800D01*
X83300Y32500D02*X83800Y32000D01*
Y34200D02*X84800D01*
X85300Y35500D02*Y34700D01*
Y33700D02*Y32500D01*
Y33700D02*X84800Y34200D01*
X85300Y34700D02*X84800Y34200D01*
X59200Y26500D02*X60000D01*
Y23000D01*
X59500Y22500D02*X60000Y23000D01*
X59000Y22500D02*X59500D01*
X58500Y23000D02*X59000Y22500D01*
X58500Y23500D02*Y23000D01*
X61200Y26000D02*X61700Y26500D01*
X62700D01*
X63200Y26000D01*
X62700Y22500D02*X63200Y23000D01*
X61700Y22500D02*X62700D01*
X61200Y23000D02*X61700Y22500D01*
Y24700D02*X62700D01*
X63200Y26000D02*Y25200D01*
Y24200D02*Y23000D01*
Y24200D02*X62700Y24700D01*
X63200Y25200D02*X62700Y24700D01*
X48000Y66300D02*Y65500D01*
X44500D02*X48000D01*
X44000Y66000D02*X44500Y65500D01*
X44000Y66500D02*Y66000D01*
X44500Y67000D02*X44000Y66500D01*
X44500Y67000D02*X45000D01*
X47500Y64300D02*X48000Y63800D01*
Y62300D01*
X47500Y61800D01*
X46500D02*X47500D01*
X44000Y64300D02*X46500Y61800D01*
X44000Y64300D02*Y61800D01*
X190040Y24150D02*Y20150D01*
X191340Y24150D02*X192040Y23450D01*
Y20850D01*
X191340Y20150D02*X192040Y20850D01*
X189540Y20150D02*X191340D01*
X189540Y24150D02*X191340D01*
X193240Y23350D02*X194040Y24150D01*
Y20150D01*
X193240D02*X194740D01*
X215350Y24150D02*Y20150D01*
X216650Y24150D02*X217350Y23450D01*
Y20850D01*
X216650Y20150D02*X217350Y20850D01*
X214850Y20150D02*X216650D01*
X214850Y24150D02*X216650D01*
X218550Y23650D02*X219050Y24150D01*
X220050D01*
X220550Y23650D01*
X220050Y20150D02*X220550Y20650D01*
X219050Y20150D02*X220050D01*
X218550Y20650D02*X219050Y20150D01*
Y22350D02*X220050D01*
X220550Y23650D02*Y22850D01*
Y21850D02*Y20650D01*
Y21850D02*X220050Y22350D01*
X220550Y22850D02*X220050Y22350D01*
X119783Y18500D02*X120783Y16500D01*
X121783Y18500D01*
X120783Y16500D02*Y14500D01*
X122983Y17700D02*X123783Y18500D01*
Y14500D01*
X122983D02*X124483D01*
X139550Y24150D02*X140850D01*
X138850Y24850D02*X139550Y24150D01*
X138850Y27450D02*Y24850D01*
Y27450D02*X139550Y28150D01*
X140850D01*
X142050Y27650D02*X142550Y28150D01*
X143550D01*
X144050Y27650D01*
X143550Y24150D02*X144050Y24650D01*
X142550Y24150D02*X143550D01*
X142050Y24650D02*X142550Y24150D01*
Y26350D02*X143550D01*
X144050Y27650D02*Y26850D01*
Y25850D02*Y24650D01*
Y25850D02*X143550Y26350D01*
X144050Y26850D02*X143550Y26350D01*
X100050Y24150D02*X101350D01*
X99350Y24850D02*X100050Y24150D01*
X99350Y27450D02*Y24850D01*
Y27450D02*X100050Y28150D01*
X101350D01*
X102550Y25650D02*X104550Y28150D01*
X102550Y25650D02*X105050D01*
X104550Y28150D02*Y24150D01*
X167764Y14150D02*X169764D01*
X170264Y13650D01*
Y12650D01*
X169764Y12150D02*X170264Y12650D01*
X168264Y12150D02*X169764D01*
X168264Y14150D02*Y10150D01*
X169064Y12150D02*X170264Y10150D01*
X171464Y11650D02*X173464Y14150D01*
X171464Y11650D02*X173964D01*
X173464Y14150D02*Y10150D01*
X157893Y14150D02*X159893D01*
X160393Y13650D01*
Y12650D01*
X159893Y12150D02*X160393Y12650D01*
X158393Y12150D02*X159893D01*
X158393Y14150D02*Y10150D01*
X159193Y12150D02*X160393Y10150D01*
X161593Y13650D02*X162093Y14150D01*
X163093D01*
X163593Y13650D01*
X163093Y10150D02*X163593Y10650D01*
X162093Y10150D02*X163093D01*
X161593Y10650D02*X162093Y10150D01*
Y12350D02*X163093D01*
X163593Y13650D02*Y12850D01*
Y11850D02*Y10650D01*
Y11850D02*X163093Y12350D01*
X163593Y12850D02*X163093Y12350D01*
M02*
