M48
INCH
T68C0.020
T67C0.128
T66C0.030
T65C0.048
T64C0.038
T63C0.129
T62C0.045
%
T68
X006050Y014250
X007450Y014250
X006050Y014700
X007450Y014700
X009800Y012350
X008700Y013550
X008250Y013550
X009600Y013550
X009150Y013550
X007850Y011150
X005450Y012400
X004900Y012150
X005450Y011900
X005450Y011400
X005450Y010900
X005950Y011400
X003446Y007300
X005950Y006350
X006400Y003350
X008800Y002400
X008800Y003750
X001450Y005750
X008750Y001050
X017050Y003300
X017050Y007150
X017750Y008850
X017550Y003300
X017050Y010000
X022350Y010394
X025650Y008850
X019100Y010000
X022350Y007244
X020500Y001450
X007900Y006150
X011000Y009300
X009050Y009250
X009050Y009750
X010850Y010900
X010500Y011200
X009050Y010750
X009050Y010250
X011050Y010450
X011050Y010000
X013550Y010000
X013700Y011050
X011050Y012050
X013550Y011600
X011050Y012450
X011550Y013100
X014500Y014000
X015900Y014750
X015900Y014300
X015900Y016550
X015900Y016100
X015900Y015650
X015900Y015200
X011100Y004650
X014100Y004675
X019500Y004700
X014650Y004350
X016000Y004350
X011945Y004650
X012750Y004990
X012260Y005350
X014100Y005305
X014100Y005750
X012650Y006650
X013100Y003782
X012200Y000500
X012200Y002550
X012200Y002100
X012650Y002100
X011750Y002100
T66
X003650Y011750
X004650Y011250
X003650Y010750
X004650Y010250
X003650Y009750
X004650Y009250
X003650Y008750
X004650Y008250
T64
X003950Y000550
X004950Y000550
X005950Y000550
X005950Y001550
X003950Y001550
X004950Y001550
T62
X010450Y013800
X010450Y014800
X010450Y015800
T65
X002450Y013000
X002450Y009000
X002450Y007000
X002450Y011000
T67
X001150Y012250
X001150Y007750
T63
X001700Y015800
X024800Y001700
X024800Y015800
X001700Y001700
M30
