G04 start of page 6 for group -4063 idx -4063 *
G04 Title: (unknown), componentmask *
G04 Creator: pcb 20110918 *
G04 CreationDate: Mon 23 Feb 2015 09:14:10 PM GMT UTC *
G04 For: railfan *
G04 Format: Gerber/RS-274X *
G04 PCB-Dimensions: 265000 175000 *
G04 PCB-Coordinate-Origin: lower left *
%MOIN*%
%FSLAX25Y25*%
%LNTOPMASK*%
%ADD87R,0.0438X0.0438*%
%ADD86R,0.1005X0.1005*%
%ADD85R,0.0300X0.0300*%
%ADD84R,0.0170X0.0170*%
%ADD83R,0.0847X0.0847*%
%ADD82R,0.0560X0.0560*%
%ADD81R,0.0622X0.0622*%
%ADD80R,0.0217X0.0217*%
%ADD79R,0.0410X0.0410*%
%ADD78R,0.0572X0.0572*%
%ADD77R,0.0690X0.0690*%
%ADD76R,0.0420X0.0420*%
%ADD75C,0.1500*%
%ADD74C,0.0760*%
%ADD73C,0.0860*%
%ADD72C,0.0660*%
%ADD71C,0.2997*%
%ADD70C,0.0001*%
%ADD69C,0.0900*%
G54D69*X104500Y138000D03*
Y148000D03*
G54D70*G36*
X100000Y162500D02*Y153500D01*
X109000D01*
Y162500D01*
X100000D01*
G37*
G54D71*X17000Y158000D03*
X248000Y17000D03*
Y158000D03*
G54D70*G36*
X36200Y8800D02*Y2200D01*
X42800D01*
Y8800D01*
X36200D01*
G37*
G54D72*X49500Y5500D03*
X59500D03*
Y15500D03*
G54D71*X17000Y17000D03*
G54D72*X39500Y15500D03*
X49500D03*
G54D73*X24500Y130000D03*
G54D74*X36500Y117500D03*
G54D75*X11500Y122500D03*
G54D73*X24500Y90000D03*
Y70000D03*
G54D75*X11500Y77500D03*
G54D73*X24500Y110000D03*
G54D74*X46500Y112500D03*
X36500Y107500D03*
X46500Y102500D03*
X36500Y97500D03*
X46500Y92500D03*
X36500Y87500D03*
X46500Y82500D03*
G54D76*X41900Y160900D02*X43100D01*
X41900Y148000D02*X43100D01*
G54D77*X67500Y164992D02*Y158693D01*
Y145307D02*Y139008D01*
G54D78*X88107Y154543D02*X88893D01*
X88107Y147457D02*X88893D01*
X145043Y165393D02*Y164607D01*
X137957Y165393D02*Y164607D01*
Y153393D02*Y152607D01*
X145043Y153393D02*Y152607D01*
G54D79*X143445Y135433D02*X148957D01*
X143445Y119685D02*X148957D01*
X143445Y103937D02*X148957D01*
X154429Y80315D02*X159941D01*
X154429Y96063D02*X159941D01*
X154429Y111811D02*X159941D01*
X154429Y127559D02*X159941D01*
X143445Y88189D02*X148957D01*
G54D78*X170457Y106393D02*Y105607D01*
X177543Y106393D02*Y105607D01*
X170457Y94393D02*Y93607D01*
X177543Y94393D02*Y93607D01*
G54D79*X143445Y72441D02*X148957D01*
X230059D02*X235571D01*
X154429Y64567D02*X159941D01*
G54D78*X146457Y50893D02*Y50107D01*
X153543Y50893D02*Y50107D01*
G54D80*X132472Y65649D02*X136898D01*
X132472Y68799D02*X136898D01*
X132472Y71948D02*X136898D01*
X132472Y75098D02*X136898D01*
G54D79*X230059Y88189D02*X235571D01*
X241043Y80315D02*X246555D01*
X241043Y96063D02*X246555D01*
X230059Y135433D02*X235571D01*
X230059Y119685D02*X235571D01*
X230059Y103937D02*X235571D01*
X241043Y111811D02*X246555D01*
X241043Y127559D02*X246555D01*
G54D78*X255319Y97595D02*X257681D01*
X255319Y109405D02*X257681D01*
X204543Y100393D02*Y99607D01*
X197457Y100393D02*Y99607D01*
G54D79*X241043Y64567D02*X246555D01*
G54D78*X212543Y47393D02*Y46607D01*
X205457Y47393D02*Y46607D01*
X226957Y47393D02*Y46607D01*
X234043Y47393D02*Y46607D01*
X255319Y58905D02*X257681D01*
G54D81*X255319Y47095D02*X257681D01*
G54D80*X94252Y40028D02*Y35602D01*
X97401Y40028D02*Y35602D01*
X100551Y40028D02*Y35602D01*
X103700Y40028D02*Y35602D01*
X106850Y40028D02*Y35602D01*
X110000Y40028D02*Y35602D01*
X113149Y40028D02*Y35602D01*
X132472Y56200D02*X136898D01*
X132472Y59350D02*X136898D01*
X132472Y62500D02*X136898D01*
X83102Y78248D02*X87528D01*
X83102Y75099D02*X87528D01*
X83102Y71949D02*X87528D01*
X83102Y68800D02*X87528D01*
X83102Y65650D02*X87528D01*
X83102Y62500D02*X87528D01*
X83102Y59351D02*X87528D01*
X83102Y56201D02*X87528D01*
X83102Y53052D02*X87528D01*
X83102Y49902D02*X87528D01*
X83102Y46752D02*X87528D01*
G54D82*X66260Y63500D02*X72913D01*
X52087Y53500D02*X58740D01*
X52087Y33500D02*X58740D01*
G54D78*X41543Y38893D02*Y38107D01*
Y48893D02*Y48107D01*
G54D82*X66260Y43500D02*X72913D01*
G54D78*X71107Y6957D02*X71893D01*
X71107Y14043D02*X71893D01*
X81107Y6957D02*X81893D01*
X81107Y14043D02*X81893D01*
X34457Y38893D02*Y38107D01*
Y48893D02*Y48107D01*
X13319Y51905D02*X15681D01*
X13319Y40095D02*X15681D01*
X34457Y28893D02*Y28107D01*
X41543Y28893D02*Y28107D01*
G54D80*X116299Y40028D02*Y35602D01*
X119448Y40028D02*Y35602D01*
X122598Y40028D02*Y35602D01*
X125748Y40028D02*Y35602D01*
X132472Y46752D02*X136898D01*
X132472Y49901D02*X136898D01*
X132472Y53051D02*X136898D01*
G54D83*X131843Y11000D02*X147591D01*
G54D78*X134043Y26893D02*Y26107D01*
X126957Y26893D02*Y26107D01*
G54D83*X96409Y11000D02*X112157D01*
G54D78*X109957Y26893D02*Y26107D01*
X117043Y26893D02*Y26107D01*
X170107Y18957D02*X170893D01*
X160107D02*X160893D01*
X197905Y15681D02*Y13319D01*
X186095Y15681D02*Y13319D01*
X212095Y15681D02*Y13319D01*
X223905Y15681D02*Y13319D01*
X170107Y26043D02*X170893D01*
X160107D02*X160893D01*
X176543Y43893D02*Y43107D01*
X169457Y43893D02*Y43107D01*
G54D80*X132472Y78248D02*X136898D01*
X125748Y89398D02*Y84972D01*
X122599Y89398D02*Y84972D01*
X119449Y89398D02*Y84972D01*
G54D78*X97957Y98893D02*Y98107D01*
X105043Y98893D02*Y98107D01*
G54D80*X103701Y89398D02*Y84972D01*
X100552Y89398D02*Y84972D01*
X97402Y89398D02*Y84972D01*
X94252Y89398D02*Y84972D01*
G54D78*X104543Y118393D02*Y117607D01*
X97457Y118393D02*Y117607D01*
G54D80*X116300Y89398D02*Y84972D01*
X113150Y89398D02*Y84972D01*
X110000Y89398D02*Y84972D01*
X106851Y89398D02*Y84972D01*
G54D84*X128460Y104126D02*X130704D01*
X125744Y102394D02*Y100150D01*
X128460Y106094D02*X130704D01*
G54D70*G36*
X123082Y107772D02*Y103944D01*
X126910D01*
Y107772D01*
X123082D01*
G37*
G54D84*X128460Y108063D02*X130704D01*
X128460Y110032D02*X130704D01*
X128460Y112000D02*X130704D01*
X125744Y115976D02*Y113732D01*
X119838Y115976D02*Y113732D01*
X114878Y108063D02*X117122D01*
X114878Y106094D02*X117122D01*
X114878Y104126D02*X117122D01*
X119838Y102394D02*Y100150D01*
G54D70*G36*
X118672Y107772D02*Y103944D01*
X122500D01*
Y107772D01*
X118672D01*
G37*
G54D84*X114878Y112000D02*X117122D01*
X114878Y110032D02*X117122D01*
G54D70*G36*
X123082Y112182D02*Y108354D01*
X126910D01*
Y112182D01*
X123082D01*
G37*
G36*
X118672D02*Y108354D01*
X122500D01*
Y112182D01*
X118672D01*
G37*
G36*
X118456Y112398D02*Y103728D01*
X127127D01*
Y112398D01*
X118456D01*
G37*
G54D85*X79500Y92500D02*X86000D01*
X79500Y97500D02*X86000D01*
X79500Y102500D02*X86000D01*
X79500Y107500D02*X86000D01*
X59000D02*X65500D01*
G54D86*X62471Y122000D02*X64361D01*
G54D85*X59000Y102500D02*X65500D01*
X59000Y97500D02*X65500D01*
X59000Y92500D02*X65500D01*
G54D78*X66543Y81893D02*Y81107D01*
X59457Y81893D02*Y81107D01*
G54D87*X73811Y116094D02*X77905D01*
X66095Y122000D02*X77905D01*
G54D70*G36*
X67242Y118695D02*X70506Y121959D01*
X72350Y120115D01*
X69086Y116851D01*
X67242Y118695D01*
G37*
G36*
X69086Y127149D02*X72350Y123885D01*
X70506Y122041D01*
X67242Y125305D01*
X69086Y127149D01*
G37*
G54D87*X73811Y127906D02*X77905D01*
G54D78*X87607Y115457D02*X88393D01*
X87607Y122543D02*X88393D01*
M02*
