G04 start of page 3 for group 1 idx 1 *
G04 Title: (unknown), bottom *
G04 Creator: pcb 20140316 *
G04 CreationDate: Thu 27 Apr 2017 04:48:59 AM GMT UTC *
G04 For: railfan *
G04 Format: Gerber/RS-274X *
G04 PCB-Dimensions (mil): 2650.00 1750.00 *
G04 PCB-Coordinate-Origin: lower left *
%MOIN*%
%FSLAX25Y25*%
%LNBOTTOM*%
%ADD57C,0.0300*%
%ADD56C,0.1280*%
%ADD55C,0.0480*%
%ADD54C,0.1285*%
%ADD53C,0.0450*%
%ADD52C,0.0200*%
%ADD51C,0.0360*%
%ADD50C,0.0700*%
%ADD49C,0.1440*%
%ADD48C,0.0800*%
%ADD47C,0.2937*%
%ADD46C,0.0787*%
%ADD45C,0.0350*%
%ADD44C,0.0100*%
%ADD43C,0.0150*%
%ADD42C,0.0001*%
G54D42*G36*
X85500Y90500D02*Y118500D01*
X112500D01*
Y90500D01*
X97500D01*
Y101941D01*
X97505Y102000D01*
X97486Y102235D01*
X97431Y102465D01*
X97341Y102683D01*
X97217Y102884D01*
X97064Y103064D01*
X97019Y103102D01*
X93233Y106889D01*
X93274Y107061D01*
X93300Y107500D01*
X93274Y107939D01*
X93171Y108368D01*
X93003Y108775D01*
X92772Y109151D01*
X92486Y109486D01*
X92151Y109772D01*
X91775Y110003D01*
X91368Y110171D01*
X90939Y110274D01*
X90500Y110309D01*
X90061Y110274D01*
X89632Y110171D01*
X89225Y110003D01*
X88849Y109772D01*
X88514Y109486D01*
X88228Y109151D01*
X87997Y108775D01*
X87829Y108368D01*
X87726Y107939D01*
X87691Y107500D01*
X87726Y107061D01*
X87829Y106632D01*
X87997Y106225D01*
X88228Y105849D01*
X88514Y105514D01*
X88849Y105228D01*
X89221Y105000D01*
X88849Y104772D01*
X88514Y104486D01*
X88228Y104151D01*
X87997Y103775D01*
X87829Y103368D01*
X87726Y102939D01*
X87691Y102500D01*
X87726Y102061D01*
X87829Y101632D01*
X87997Y101225D01*
X88228Y100849D01*
X88514Y100514D01*
X88849Y100228D01*
X89225Y99997D01*
X89632Y99829D01*
X90061Y99726D01*
X90500Y99691D01*
X90939Y99726D01*
X91111Y99767D01*
X92500Y98379D01*
Y94470D01*
X92486Y94486D01*
X92151Y94772D01*
X91775Y95003D01*
X91368Y95171D01*
X90939Y95274D01*
X90500Y95309D01*
X90061Y95274D01*
X89632Y95171D01*
X89225Y95003D01*
X88849Y94772D01*
X88514Y94486D01*
X88228Y94151D01*
X87997Y93775D01*
X87829Y93368D01*
X87726Y92939D01*
X87691Y92500D01*
X87726Y92061D01*
X87829Y91632D01*
X87997Y91225D01*
X88228Y90849D01*
X88514Y90514D01*
X88530Y90500D01*
X85500D01*
G37*
G36*
X104491Y126500D02*X112500D01*
Y102500D01*
X104491D01*
Y126500D01*
G37*
G36*
X109261Y168500D02*X112500D01*
Y129500D01*
X109261D01*
Y134433D01*
X109318Y134500D01*
X109806Y135296D01*
X110164Y136160D01*
X110382Y137068D01*
X110437Y138000D01*
X110382Y138932D01*
X110164Y139840D01*
X109806Y140704D01*
X109318Y141500D01*
X109261Y141567D01*
Y145183D01*
X109331Y145195D01*
X109480Y145246D01*
X109619Y145319D01*
X109745Y145413D01*
X109855Y145525D01*
X109946Y145654D01*
X110013Y145796D01*
X110204Y146328D01*
X110337Y146877D01*
X110417Y147436D01*
X110444Y148000D01*
X110417Y148564D01*
X110337Y149123D01*
X110204Y149672D01*
X110019Y150206D01*
X109950Y150348D01*
X109858Y150477D01*
X109748Y150591D01*
X109621Y150685D01*
X109481Y150759D01*
X109332Y150809D01*
X109261Y150821D01*
Y152240D01*
X109348Y152275D01*
X109616Y152440D01*
X109856Y152644D01*
X110060Y152884D01*
X110225Y153152D01*
X110345Y153443D01*
X110418Y153749D01*
X110437Y154063D01*
X110418Y162251D01*
X110345Y162557D01*
X110225Y162848D01*
X110060Y163116D01*
X109856Y163356D01*
X109616Y163560D01*
X109348Y163725D01*
X109261Y163760D01*
Y168500D01*
G37*
G36*
Y141567D02*X108711Y142211D01*
X108000Y142818D01*
X107321Y143235D01*
X107336Y143324D01*
X107338Y143482D01*
X107315Y143639D01*
X107268Y143790D01*
X107198Y143931D01*
X107107Y144061D01*
X106996Y144174D01*
X106870Y144268D01*
X106730Y144342D01*
X106580Y144392D01*
X106424Y144419D01*
X106266Y144421D01*
X106110Y144398D01*
X105960Y144348D01*
X105608Y144222D01*
X105244Y144134D01*
X104874Y144081D01*
X104500Y144063D01*
X104491Y144063D01*
Y151937D01*
X104500Y151937D01*
X104874Y151919D01*
X105244Y151866D01*
X105608Y151778D01*
X105961Y151656D01*
X106111Y151606D01*
X106266Y151583D01*
X106424Y151585D01*
X106579Y151612D01*
X106728Y151662D01*
X106867Y151736D01*
X106993Y151830D01*
X107103Y151942D01*
X107194Y152071D01*
X107198Y152078D01*
X108751Y152082D01*
X109057Y152155D01*
X109261Y152240D01*
Y150821D01*
X109176Y150836D01*
X109018Y150838D01*
X108861Y150815D01*
X108710Y150768D01*
X108569Y150698D01*
X108439Y150607D01*
X108326Y150496D01*
X108232Y150370D01*
X108158Y150230D01*
X108108Y150080D01*
X108081Y149924D01*
X108079Y149766D01*
X108102Y149610D01*
X108152Y149460D01*
X108278Y149108D01*
X108366Y148744D01*
X108419Y148374D01*
X108437Y148000D01*
X108419Y147626D01*
X108366Y147256D01*
X108278Y146892D01*
X108156Y146539D01*
X108106Y146389D01*
X108083Y146234D01*
X108085Y146076D01*
X108112Y145921D01*
X108162Y145772D01*
X108236Y145633D01*
X108330Y145507D01*
X108442Y145397D01*
X108571Y145306D01*
X108712Y145236D01*
X108862Y145189D01*
X109018Y145167D01*
X109175Y145168D01*
X109261Y145183D01*
Y141567D01*
G37*
G36*
Y129500D02*X104491D01*
Y132045D01*
X104500Y132045D01*
X105432Y132118D01*
X106340Y132336D01*
X107204Y132694D01*
X108000Y133182D01*
X108711Y133789D01*
X109261Y134433D01*
Y129500D01*
G37*
G36*
X104491Y168500D02*X109261D01*
Y163760D01*
X109057Y163845D01*
X108751Y163918D01*
X108437Y163937D01*
X104491Y163928D01*
Y168500D01*
G37*
G36*
X99739Y126500D02*X104491D01*
Y102500D01*
X99739D01*
Y126500D01*
G37*
G36*
Y134433D02*X100289Y133789D01*
X101000Y133182D01*
X101796Y132694D01*
X102660Y132336D01*
X103568Y132118D01*
X104491Y132045D01*
Y129500D01*
X99739D01*
Y134433D01*
G37*
G36*
Y152240D02*X99943Y152155D01*
X100249Y152082D01*
X100563Y152063D01*
X101804Y152066D01*
X101893Y151939D01*
X102004Y151826D01*
X102130Y151732D01*
X102270Y151658D01*
X102420Y151608D01*
X102576Y151581D01*
X102734Y151579D01*
X102890Y151602D01*
X103040Y151652D01*
X103392Y151778D01*
X103756Y151866D01*
X104126Y151919D01*
X104491Y151937D01*
Y144063D01*
X104126Y144081D01*
X103756Y144134D01*
X103392Y144222D01*
X103039Y144344D01*
X102889Y144394D01*
X102734Y144417D01*
X102576Y144415D01*
X102421Y144388D01*
X102272Y144338D01*
X102133Y144264D01*
X102007Y144170D01*
X101897Y144058D01*
X101806Y143929D01*
X101736Y143788D01*
X101689Y143638D01*
X101667Y143482D01*
X101668Y143325D01*
X101683Y143237D01*
X101000Y142818D01*
X100289Y142211D01*
X99739Y141567D01*
Y145179D01*
X99824Y145164D01*
X99982Y145162D01*
X100139Y145185D01*
X100290Y145232D01*
X100431Y145302D01*
X100561Y145393D01*
X100674Y145504D01*
X100768Y145630D01*
X100842Y145770D01*
X100892Y145920D01*
X100919Y146076D01*
X100921Y146234D01*
X100898Y146390D01*
X100848Y146540D01*
X100722Y146892D01*
X100634Y147256D01*
X100581Y147626D01*
X100563Y148000D01*
X100581Y148374D01*
X100634Y148744D01*
X100722Y149108D01*
X100844Y149461D01*
X100894Y149611D01*
X100917Y149766D01*
X100915Y149924D01*
X100888Y150079D01*
X100838Y150228D01*
X100764Y150367D01*
X100670Y150493D01*
X100558Y150603D01*
X100429Y150694D01*
X100288Y150764D01*
X100138Y150811D01*
X99982Y150833D01*
X99825Y150832D01*
X99739Y150817D01*
Y152240D01*
G37*
G36*
Y168500D02*X104491D01*
Y163928D01*
X100249Y163918D01*
X99943Y163845D01*
X99739Y163760D01*
Y168500D01*
G37*
G36*
X50220D02*X99739D01*
Y163760D01*
X99652Y163725D01*
X99384Y163560D01*
X99144Y163356D01*
X98940Y163116D01*
X98775Y162848D01*
X98655Y162557D01*
X98582Y162251D01*
X98563Y161937D01*
X98582Y153749D01*
X98655Y153443D01*
X98775Y153152D01*
X98940Y152884D01*
X99144Y152644D01*
X99384Y152440D01*
X99652Y152275D01*
X99739Y152240D01*
Y150817D01*
X99669Y150805D01*
X99520Y150754D01*
X99381Y150681D01*
X99255Y150587D01*
X99145Y150475D01*
X99054Y150346D01*
X98987Y150204D01*
X98796Y149672D01*
X98663Y149123D01*
X98583Y148564D01*
X98556Y148000D01*
X98583Y147436D01*
X98663Y146877D01*
X98796Y146328D01*
X98981Y145794D01*
X99050Y145652D01*
X99142Y145523D01*
X99252Y145409D01*
X99379Y145315D01*
X99519Y145241D01*
X99668Y145191D01*
X99739Y145179D01*
Y141567D01*
X99682Y141500D01*
X99194Y140704D01*
X98836Y139840D01*
X98618Y138932D01*
X98545Y138000D01*
X98618Y137068D01*
X98836Y136160D01*
X99194Y135296D01*
X99682Y134500D01*
X99739Y134433D01*
Y129500D01*
X81059D01*
X81000Y129505D01*
X80765Y129486D01*
X80535Y129431D01*
X80317Y129341D01*
X80116Y129217D01*
X80115Y129217D01*
X79936Y129064D01*
X79898Y129019D01*
X75481Y124602D01*
X75436Y124564D01*
X75283Y124384D01*
X75159Y124183D01*
X75069Y123965D01*
X75014Y123735D01*
X75014Y123735D01*
X74995Y123500D01*
X75000Y123441D01*
Y113365D01*
X74849Y113272D01*
X74514Y112986D01*
X74228Y112651D01*
X73997Y112275D01*
X73829Y111868D01*
X73726Y111439D01*
X73691Y111000D01*
X73726Y110561D01*
X73829Y110132D01*
X73997Y109725D01*
X74228Y109349D01*
X74514Y109014D01*
X74849Y108728D01*
X75225Y108497D01*
X75632Y108329D01*
X76061Y108226D01*
X76500Y108191D01*
X76939Y108226D01*
X77368Y108329D01*
X77775Y108497D01*
X78151Y108728D01*
X78486Y109014D01*
X78772Y109349D01*
X79003Y109725D01*
X79171Y110132D01*
X79274Y110561D01*
X79300Y111000D01*
X79274Y111439D01*
X79171Y111868D01*
X79003Y112275D01*
X78772Y112651D01*
X78486Y112986D01*
X78151Y113272D01*
X78000Y113365D01*
Y122879D01*
X81621Y126500D01*
X99739D01*
Y102500D01*
X97416D01*
X97341Y102683D01*
X97217Y102884D01*
X97064Y103064D01*
X97019Y103102D01*
X93233Y106889D01*
X93274Y107061D01*
X93300Y107500D01*
X93274Y107939D01*
X93171Y108368D01*
X93003Y108775D01*
X92772Y109151D01*
X92486Y109486D01*
X92151Y109772D01*
X91775Y110003D01*
X91368Y110171D01*
X90939Y110274D01*
X90500Y110309D01*
X90061Y110274D01*
X89632Y110171D01*
X89225Y110003D01*
X88849Y109772D01*
X88514Y109486D01*
X88228Y109151D01*
X87997Y108775D01*
X87829Y108368D01*
X87726Y107939D01*
X87691Y107500D01*
X87726Y107061D01*
X87829Y106632D01*
X87997Y106225D01*
X88228Y105849D01*
X88514Y105514D01*
X88849Y105228D01*
X89221Y105000D01*
X88849Y104772D01*
X88514Y104486D01*
X88228Y104151D01*
X87997Y103775D01*
X87829Y103368D01*
X87726Y102939D01*
X87691Y102500D01*
X51000D01*
X50958Y103206D01*
X50793Y103895D01*
X50522Y104549D01*
X50220Y105041D01*
Y110044D01*
X50271Y110083D01*
X50326Y110139D01*
X50370Y110204D01*
X50564Y110556D01*
X50721Y110926D01*
X50844Y111309D01*
X50933Y111700D01*
X50987Y112099D01*
X51004Y112500D01*
X50987Y112901D01*
X50933Y113300D01*
X50844Y113691D01*
X50721Y114074D01*
X50564Y114444D01*
X50374Y114798D01*
X50329Y114863D01*
X50274Y114920D01*
X50220Y114960D01*
Y168500D01*
G37*
G36*
X46502D02*X50220D01*
Y114960D01*
X50210Y114968D01*
X50140Y115004D01*
X50065Y115030D01*
X49987Y115044D01*
X49908Y115045D01*
X49829Y115033D01*
X49754Y115010D01*
X49683Y114975D01*
X49618Y114929D01*
X49561Y114874D01*
X49513Y114811D01*
X49476Y114741D01*
X49451Y114666D01*
X49437Y114588D01*
X49436Y114508D01*
X49448Y114430D01*
X49471Y114354D01*
X49507Y114284D01*
X49657Y114010D01*
X49779Y113723D01*
X49875Y113426D01*
X49944Y113121D01*
X49986Y112812D01*
X50000Y112500D01*
X49986Y112188D01*
X49944Y111879D01*
X49875Y111574D01*
X49779Y111277D01*
X49657Y110990D01*
X49510Y110714D01*
X49474Y110645D01*
X49451Y110569D01*
X49440Y110491D01*
X49441Y110413D01*
X49454Y110335D01*
X49480Y110261D01*
X49516Y110191D01*
X49564Y110128D01*
X49620Y110073D01*
X49684Y110028D01*
X49755Y109993D01*
X49830Y109970D01*
X49908Y109959D01*
X49987Y109960D01*
X50064Y109973D01*
X50139Y109999D01*
X50208Y110035D01*
X50220Y110044D01*
Y105041D01*
X50152Y105153D01*
X49692Y105692D01*
X49153Y106152D01*
X48549Y106522D01*
X47895Y106793D01*
X47206Y106958D01*
X46502Y107014D01*
Y107996D01*
X46901Y108013D01*
X47300Y108067D01*
X47691Y108156D01*
X48074Y108279D01*
X48444Y108436D01*
X48798Y108626D01*
X48863Y108671D01*
X48920Y108726D01*
X48968Y108790D01*
X49004Y108860D01*
X49030Y108935D01*
X49044Y109013D01*
X49045Y109092D01*
X49033Y109171D01*
X49010Y109246D01*
X48975Y109317D01*
X48929Y109382D01*
X48874Y109439D01*
X48811Y109487D01*
X48741Y109524D01*
X48666Y109549D01*
X48588Y109563D01*
X48508Y109564D01*
X48430Y109552D01*
X48354Y109529D01*
X48284Y109493D01*
X48010Y109343D01*
X47723Y109221D01*
X47426Y109125D01*
X47121Y109056D01*
X46812Y109014D01*
X46502Y109000D01*
Y116000D01*
X46812Y115986D01*
X47121Y115944D01*
X47426Y115875D01*
X47723Y115779D01*
X48010Y115657D01*
X48286Y115510D01*
X48355Y115474D01*
X48431Y115451D01*
X48509Y115440D01*
X48587Y115441D01*
X48665Y115454D01*
X48739Y115480D01*
X48809Y115516D01*
X48872Y115564D01*
X48927Y115620D01*
X48972Y115684D01*
X49007Y115755D01*
X49030Y115830D01*
X49041Y115908D01*
X49040Y115987D01*
X49027Y116064D01*
X49001Y116139D01*
X48965Y116208D01*
X48917Y116271D01*
X48861Y116326D01*
X48796Y116370D01*
X48444Y116564D01*
X48074Y116721D01*
X47691Y116844D01*
X47300Y116933D01*
X46901Y116987D01*
X46502Y117004D01*
Y168500D01*
G37*
G36*
X42780D02*X46502D01*
Y117004D01*
X46500Y117004D01*
X46099Y116987D01*
X45700Y116933D01*
X45309Y116844D01*
X44926Y116721D01*
X44556Y116564D01*
X44202Y116374D01*
X44137Y116329D01*
X44080Y116274D01*
X44032Y116210D01*
X43996Y116140D01*
X43970Y116065D01*
X43956Y115987D01*
X43955Y115908D01*
X43967Y115829D01*
X43990Y115754D01*
X44025Y115683D01*
X44071Y115618D01*
X44126Y115561D01*
X44189Y115513D01*
X44259Y115477D01*
X44334Y115451D01*
X44412Y115437D01*
X44492Y115436D01*
X44570Y115448D01*
X44646Y115471D01*
X44716Y115507D01*
X44990Y115657D01*
X45277Y115779D01*
X45574Y115875D01*
X45879Y115944D01*
X46188Y115986D01*
X46500Y116000D01*
X46502Y116000D01*
Y109000D01*
X46500Y109000D01*
X46188Y109014D01*
X45879Y109056D01*
X45574Y109125D01*
X45277Y109221D01*
X44990Y109343D01*
X44714Y109490D01*
X44645Y109526D01*
X44569Y109549D01*
X44491Y109560D01*
X44413Y109559D01*
X44335Y109546D01*
X44261Y109520D01*
X44191Y109484D01*
X44128Y109436D01*
X44073Y109380D01*
X44028Y109316D01*
X43993Y109245D01*
X43970Y109170D01*
X43959Y109092D01*
X43960Y109013D01*
X43973Y108936D01*
X43999Y108861D01*
X44035Y108792D01*
X44083Y108729D01*
X44139Y108674D01*
X44204Y108630D01*
X44556Y108436D01*
X44926Y108279D01*
X45309Y108156D01*
X45700Y108067D01*
X46099Y108013D01*
X46500Y107996D01*
X46502Y107996D01*
Y107014D01*
X46500Y107014D01*
X45794Y106958D01*
X45105Y106793D01*
X44451Y106522D01*
X43847Y106152D01*
X43308Y105692D01*
X42848Y105153D01*
X42780Y105041D01*
Y110040D01*
X42790Y110032D01*
X42860Y109996D01*
X42935Y109970D01*
X43013Y109956D01*
X43092Y109955D01*
X43171Y109967D01*
X43246Y109990D01*
X43317Y110025D01*
X43382Y110071D01*
X43439Y110126D01*
X43487Y110189D01*
X43524Y110259D01*
X43549Y110334D01*
X43563Y110412D01*
X43564Y110492D01*
X43552Y110570D01*
X43529Y110646D01*
X43493Y110716D01*
X43343Y110990D01*
X43221Y111277D01*
X43125Y111574D01*
X43056Y111879D01*
X43014Y112188D01*
X43000Y112500D01*
X43014Y112812D01*
X43056Y113121D01*
X43125Y113426D01*
X43221Y113723D01*
X43343Y114010D01*
X43490Y114286D01*
X43526Y114355D01*
X43549Y114431D01*
X43560Y114509D01*
X43559Y114587D01*
X43546Y114665D01*
X43520Y114739D01*
X43484Y114809D01*
X43436Y114872D01*
X43380Y114927D01*
X43316Y114972D01*
X43245Y115007D01*
X43170Y115030D01*
X43092Y115041D01*
X43013Y115040D01*
X42936Y115027D01*
X42861Y115001D01*
X42792Y114965D01*
X42780Y114956D01*
Y168500D01*
G37*
G36*
X36493D02*X42780D01*
Y114956D01*
X42729Y114917D01*
X42674Y114861D01*
X42630Y114796D01*
X42436Y114444D01*
X42279Y114074D01*
X42156Y113691D01*
X42067Y113300D01*
X42013Y112901D01*
X41996Y112500D01*
X42013Y112099D01*
X42067Y111700D01*
X42156Y111309D01*
X42279Y110926D01*
X42436Y110556D01*
X42626Y110202D01*
X42671Y110137D01*
X42726Y110080D01*
X42780Y110040D01*
Y105041D01*
X42478Y104549D01*
X42207Y103895D01*
X42042Y103206D01*
X41986Y102500D01*
X36493D01*
Y102987D01*
X36500Y102986D01*
X37206Y103042D01*
X37895Y103207D01*
X38549Y103478D01*
X39153Y103848D01*
X39692Y104308D01*
X40152Y104847D01*
X40522Y105451D01*
X40793Y106105D01*
X40958Y106794D01*
X41000Y107500D01*
X40958Y108206D01*
X40793Y108895D01*
X40522Y109549D01*
X40152Y110153D01*
X39692Y110692D01*
X39153Y111152D01*
X38549Y111522D01*
X37895Y111793D01*
X37206Y111958D01*
X36500Y112014D01*
X36493Y112013D01*
Y112987D01*
X36500Y112986D01*
X37206Y113042D01*
X37895Y113207D01*
X38549Y113478D01*
X39153Y113848D01*
X39692Y114308D01*
X40152Y114847D01*
X40522Y115451D01*
X40793Y116105D01*
X40958Y116794D01*
X41000Y117500D01*
X40958Y118206D01*
X40793Y118895D01*
X40522Y119549D01*
X40152Y120153D01*
X39692Y120692D01*
X39153Y121152D01*
X38549Y121522D01*
X37895Y121793D01*
X37206Y121958D01*
X36500Y122014D01*
X36493Y122013D01*
Y168500D01*
G37*
G36*
X28993Y147892D02*X29728Y148753D01*
X31018Y150858D01*
X31962Y153138D01*
X32539Y155539D01*
X32684Y158000D01*
X32539Y160461D01*
X31962Y162862D01*
X31018Y165142D01*
X29728Y167247D01*
X28993Y168108D01*
Y168500D01*
X36493D01*
Y122013D01*
X35794Y121958D01*
X35105Y121793D01*
X34451Y121522D01*
X33847Y121152D01*
X33308Y120692D01*
X32848Y120153D01*
X32478Y119549D01*
X32207Y118895D01*
X32042Y118206D01*
X31986Y117500D01*
X32042Y116794D01*
X32207Y116105D01*
X32478Y115451D01*
X32848Y114847D01*
X33308Y114308D01*
X33847Y113848D01*
X34451Y113478D01*
X35105Y113207D01*
X35794Y113042D01*
X36493Y112987D01*
Y112013D01*
X35794Y111958D01*
X35105Y111793D01*
X34451Y111522D01*
X33847Y111152D01*
X33308Y110692D01*
X32848Y110153D01*
X32478Y109549D01*
X32207Y108895D01*
X32042Y108206D01*
X31986Y107500D01*
X32042Y106794D01*
X32207Y106105D01*
X32478Y105451D01*
X32848Y104847D01*
X33308Y104308D01*
X33847Y103848D01*
X34451Y103478D01*
X35105Y103207D01*
X35794Y103042D01*
X36493Y102987D01*
Y102500D01*
X28993D01*
Y107145D01*
X29078Y107181D01*
X29179Y107243D01*
X29269Y107319D01*
X29345Y107409D01*
X29405Y107511D01*
X29622Y107980D01*
X29789Y108469D01*
X29909Y108972D01*
X29982Y109484D01*
X30006Y110000D01*
X29982Y110516D01*
X29909Y111028D01*
X29789Y111531D01*
X29622Y112020D01*
X29410Y112492D01*
X29349Y112593D01*
X29272Y112684D01*
X29182Y112761D01*
X29080Y112823D01*
X28993Y112860D01*
Y126805D01*
X29416Y127495D01*
X29747Y128295D01*
X29949Y129137D01*
X30000Y130000D01*
X29949Y130863D01*
X29747Y131705D01*
X29416Y132505D01*
X28993Y133195D01*
Y147892D01*
G37*
G36*
Y102500D02*X24492D01*
Y104494D01*
X24500Y104494D01*
X25016Y104518D01*
X25528Y104591D01*
X26031Y104711D01*
X26520Y104878D01*
X26992Y105090D01*
X27093Y105151D01*
X27184Y105228D01*
X27261Y105318D01*
X27323Y105420D01*
X27369Y105529D01*
X27397Y105645D01*
X27406Y105763D01*
X27397Y105881D01*
X27370Y105997D01*
X27324Y106107D01*
X27262Y106208D01*
X27186Y106298D01*
X27095Y106376D01*
X26994Y106438D01*
X26885Y106484D01*
X26769Y106511D01*
X26651Y106521D01*
X26532Y106512D01*
X26417Y106484D01*
X26308Y106437D01*
X25968Y106279D01*
X25612Y106158D01*
X25247Y106070D01*
X24875Y106018D01*
X24500Y106000D01*
X24492Y106000D01*
Y114000D01*
X24500Y114000D01*
X24875Y113982D01*
X25247Y113930D01*
X25612Y113842D01*
X25968Y113721D01*
X26310Y113567D01*
X26418Y113520D01*
X26533Y113493D01*
X26651Y113483D01*
X26768Y113493D01*
X26883Y113521D01*
X26992Y113566D01*
X27093Y113628D01*
X27182Y113705D01*
X27259Y113795D01*
X27320Y113895D01*
X27365Y114004D01*
X27393Y114119D01*
X27402Y114237D01*
X27392Y114355D01*
X27365Y114469D01*
X27319Y114578D01*
X27257Y114679D01*
X27181Y114769D01*
X27091Y114845D01*
X26989Y114905D01*
X26520Y115122D01*
X26031Y115289D01*
X25528Y115409D01*
X25016Y115482D01*
X24500Y115506D01*
X24492Y115506D01*
Y124484D01*
X24500Y124483D01*
X25363Y124551D01*
X26205Y124753D01*
X27005Y125084D01*
X27743Y125537D01*
X28401Y126099D01*
X28963Y126757D01*
X28993Y126805D01*
Y112860D01*
X28971Y112869D01*
X28855Y112897D01*
X28737Y112906D01*
X28619Y112897D01*
X28503Y112870D01*
X28393Y112824D01*
X28292Y112762D01*
X28202Y112686D01*
X28124Y112595D01*
X28062Y112494D01*
X28016Y112385D01*
X27989Y112269D01*
X27979Y112151D01*
X27988Y112032D01*
X28016Y111917D01*
X28063Y111808D01*
X28221Y111468D01*
X28342Y111112D01*
X28430Y110747D01*
X28482Y110375D01*
X28500Y110000D01*
X28482Y109625D01*
X28430Y109253D01*
X28342Y108888D01*
X28221Y108532D01*
X28067Y108190D01*
X28020Y108082D01*
X27993Y107967D01*
X27983Y107849D01*
X27993Y107732D01*
X28021Y107617D01*
X28066Y107508D01*
X28128Y107407D01*
X28205Y107318D01*
X28295Y107241D01*
X28395Y107180D01*
X28504Y107135D01*
X28619Y107107D01*
X28737Y107098D01*
X28855Y107108D01*
X28969Y107135D01*
X28993Y107145D01*
Y102500D01*
G37*
G36*
Y168108D02*X28658Y168500D01*
X28993D01*
Y168108D01*
G37*
G36*
X24492Y144196D02*X26247Y145272D01*
X28124Y146876D01*
X28993Y147892D01*
Y133195D01*
X28963Y133243D01*
X28401Y133901D01*
X27743Y134463D01*
X27005Y134916D01*
X26205Y135247D01*
X25363Y135449D01*
X24500Y135517D01*
X24492Y135516D01*
Y144196D01*
G37*
G36*
X20007Y126805D02*X20037Y126757D01*
X20599Y126099D01*
X21257Y125537D01*
X21995Y125084D01*
X22795Y124753D01*
X23637Y124551D01*
X24492Y124484D01*
Y115506D01*
X23984Y115482D01*
X23472Y115409D01*
X22969Y115289D01*
X22480Y115122D01*
X22008Y114910D01*
X21907Y114849D01*
X21816Y114772D01*
X21739Y114682D01*
X21677Y114580D01*
X21631Y114471D01*
X21603Y114355D01*
X21594Y114237D01*
X21603Y114119D01*
X21630Y114003D01*
X21676Y113893D01*
X21738Y113792D01*
X21814Y113702D01*
X21905Y113624D01*
X22006Y113562D01*
X22115Y113516D01*
X22231Y113489D01*
X22349Y113479D01*
X22468Y113488D01*
X22583Y113516D01*
X22692Y113563D01*
X23032Y113721D01*
X23388Y113842D01*
X23753Y113930D01*
X24125Y113982D01*
X24492Y114000D01*
Y106000D01*
X24125Y106018D01*
X23753Y106070D01*
X23388Y106158D01*
X23032Y106279D01*
X22690Y106433D01*
X22582Y106480D01*
X22467Y106507D01*
X22349Y106517D01*
X22232Y106507D01*
X22117Y106479D01*
X22008Y106434D01*
X21907Y106372D01*
X21818Y106295D01*
X21741Y106205D01*
X21680Y106105D01*
X21635Y105996D01*
X21607Y105881D01*
X21598Y105763D01*
X21608Y105645D01*
X21635Y105531D01*
X21681Y105422D01*
X21743Y105321D01*
X21819Y105231D01*
X21909Y105155D01*
X22011Y105095D01*
X22480Y104878D01*
X22969Y104711D01*
X23472Y104591D01*
X23984Y104518D01*
X24492Y104494D01*
Y102500D01*
X20007D01*
Y107140D01*
X20029Y107131D01*
X20145Y107103D01*
X20263Y107094D01*
X20381Y107103D01*
X20497Y107130D01*
X20607Y107176D01*
X20708Y107238D01*
X20798Y107314D01*
X20876Y107405D01*
X20938Y107506D01*
X20984Y107615D01*
X21011Y107731D01*
X21021Y107849D01*
X21012Y107968D01*
X20984Y108083D01*
X20937Y108192D01*
X20779Y108532D01*
X20658Y108888D01*
X20570Y109253D01*
X20518Y109625D01*
X20500Y110000D01*
X20518Y110375D01*
X20570Y110747D01*
X20658Y111112D01*
X20779Y111468D01*
X20933Y111810D01*
X20980Y111918D01*
X21007Y112033D01*
X21017Y112151D01*
X21007Y112268D01*
X20979Y112383D01*
X20934Y112492D01*
X20872Y112593D01*
X20795Y112682D01*
X20705Y112759D01*
X20605Y112820D01*
X20496Y112865D01*
X20381Y112893D01*
X20263Y112902D01*
X20145Y112892D01*
X20031Y112865D01*
X20007Y112855D01*
Y126805D01*
G37*
G36*
Y142592D02*X21862Y143038D01*
X24142Y143982D01*
X24492Y144196D01*
Y135516D01*
X23637Y135449D01*
X22795Y135247D01*
X21995Y134916D01*
X21257Y134463D01*
X20599Y133901D01*
X20037Y133243D01*
X20007Y133195D01*
Y142592D01*
G37*
G36*
X17000Y102500D02*Y116414D01*
X17316Y116684D01*
X18154Y117665D01*
X18829Y118766D01*
X19323Y119958D01*
X19624Y121213D01*
X19700Y122500D01*
X19624Y123787D01*
X19323Y125042D01*
X18829Y126234D01*
X18154Y127335D01*
X17316Y128316D01*
X17000Y128586D01*
Y142268D01*
X19461Y142461D01*
X20007Y142592D01*
Y133195D01*
X19584Y132505D01*
X19253Y131705D01*
X19051Y130863D01*
X18983Y130000D01*
X19051Y129137D01*
X19253Y128295D01*
X19584Y127495D01*
X20007Y126805D01*
Y112855D01*
X19922Y112819D01*
X19821Y112757D01*
X19731Y112681D01*
X19655Y112591D01*
X19595Y112489D01*
X19378Y112020D01*
X19211Y111531D01*
X19091Y111028D01*
X19018Y110516D01*
X18994Y110000D01*
X19018Y109484D01*
X19091Y108972D01*
X19211Y108469D01*
X19378Y107980D01*
X19590Y107508D01*
X19651Y107407D01*
X19728Y107316D01*
X19818Y107239D01*
X19920Y107177D01*
X20007Y107140D01*
Y102500D01*
X17000D01*
G37*
G36*
X109000Y93000D02*Y126500D01*
X117941D01*
X118000Y126495D01*
X118235Y126514D01*
X118235Y126514D01*
X118465Y126569D01*
X118683Y126659D01*
X118884Y126783D01*
X119064Y126936D01*
X119102Y126981D01*
X124019Y131898D01*
X124064Y131936D01*
X124217Y132115D01*
X124217Y132116D01*
X124341Y132317D01*
X124431Y132535D01*
X124486Y132765D01*
X124505Y133000D01*
X124500Y133059D01*
Y143500D01*
X136000D01*
Y105309D01*
X135561Y105274D01*
X135132Y105171D01*
X134725Y105003D01*
X134349Y104772D01*
X134014Y104486D01*
X133728Y104151D01*
X133497Y103775D01*
X133329Y103368D01*
X133226Y102939D01*
X133191Y102500D01*
X133226Y102061D01*
X133329Y101632D01*
X133497Y101225D01*
X133728Y100849D01*
X134014Y100514D01*
X134349Y100228D01*
X134725Y99997D01*
X135132Y99829D01*
X135561Y99726D01*
X136000Y99691D01*
Y95616D01*
X135868Y95671D01*
X135439Y95774D01*
X135000Y95809D01*
X134561Y95774D01*
X134132Y95671D01*
X133725Y95503D01*
X133349Y95272D01*
X133094Y95054D01*
X133003Y95275D01*
X132772Y95651D01*
X132486Y95986D01*
X132151Y96272D01*
X131775Y96503D01*
X131368Y96671D01*
X130939Y96774D01*
X130500Y96809D01*
X130061Y96774D01*
X129632Y96671D01*
X129225Y96503D01*
X128849Y96272D01*
X128594Y96054D01*
X128503Y96275D01*
X128272Y96651D01*
X127986Y96986D01*
X127651Y97272D01*
X127275Y97503D01*
X126868Y97671D01*
X126439Y97774D01*
X126000Y97809D01*
X125561Y97774D01*
X125132Y97671D01*
X124725Y97503D01*
X124349Y97272D01*
X124094Y97054D01*
X124003Y97275D01*
X123772Y97651D01*
X123486Y97986D01*
X123151Y98272D01*
X122775Y98503D01*
X122368Y98671D01*
X121939Y98774D01*
X121500Y98809D01*
X121061Y98774D01*
X120632Y98671D01*
X120225Y98503D01*
X119849Y98272D01*
X119594Y98054D01*
X119503Y98275D01*
X119272Y98651D01*
X118986Y98986D01*
X118651Y99272D01*
X118275Y99503D01*
X117868Y99671D01*
X117439Y99774D01*
X117000Y99809D01*
X116561Y99774D01*
X116132Y99671D01*
X115725Y99503D01*
X115349Y99272D01*
X115014Y98986D01*
X114728Y98651D01*
X114497Y98275D01*
X114329Y97868D01*
X114226Y97439D01*
X114191Y97000D01*
X114226Y96561D01*
X114329Y96132D01*
X114497Y95725D01*
X114728Y95349D01*
X115014Y95014D01*
X115349Y94728D01*
X115500Y94635D01*
Y94059D01*
X115495Y94000D01*
X115514Y93765D01*
X115569Y93535D01*
X115659Y93317D01*
X115783Y93116D01*
X115881Y93000D01*
X109000D01*
G37*
G36*
X103500Y129500D02*Y132134D01*
X103568Y132118D01*
X104500Y132045D01*
X105432Y132118D01*
X106340Y132336D01*
X107204Y132694D01*
X108000Y133182D01*
X108711Y133789D01*
X109318Y134500D01*
X109806Y135296D01*
X110164Y136160D01*
X110382Y137068D01*
X110437Y138000D01*
X110382Y138932D01*
X110164Y139840D01*
X109806Y140704D01*
X109318Y141500D01*
X108711Y142211D01*
X108000Y142818D01*
X107321Y143235D01*
X107336Y143324D01*
X107338Y143482D01*
X107315Y143639D01*
X107268Y143790D01*
X107198Y143931D01*
X107107Y144061D01*
X106996Y144174D01*
X106870Y144268D01*
X106730Y144342D01*
X106580Y144392D01*
X106424Y144419D01*
X106266Y144421D01*
X106110Y144398D01*
X105960Y144348D01*
X105608Y144222D01*
X105244Y144134D01*
X104874Y144081D01*
X104500Y144063D01*
X104126Y144081D01*
X103756Y144134D01*
X103500Y144196D01*
Y147500D01*
X108401D01*
X108366Y147256D01*
X108278Y146892D01*
X108156Y146539D01*
X108106Y146389D01*
X108083Y146234D01*
X108085Y146076D01*
X108112Y145921D01*
X108162Y145772D01*
X108236Y145633D01*
X108330Y145507D01*
X108442Y145397D01*
X108571Y145306D01*
X108712Y145236D01*
X108862Y145189D01*
X109018Y145167D01*
X109175Y145168D01*
X109331Y145195D01*
X109480Y145246D01*
X109619Y145319D01*
X109745Y145413D01*
X109855Y145525D01*
X109946Y145654D01*
X110013Y145796D01*
X110204Y146328D01*
X110337Y146877D01*
X110417Y147436D01*
X110420Y147500D01*
X121500D01*
Y133621D01*
X117379Y129500D01*
X103500D01*
G37*
G36*
X129000Y53500D02*X125398D01*
X125372Y53939D01*
X125269Y54368D01*
X125101Y54775D01*
X124870Y55151D01*
X124584Y55486D01*
X124249Y55772D01*
X123873Y56003D01*
X123466Y56171D01*
X123037Y56274D01*
X122598Y56309D01*
X122159Y56274D01*
X121730Y56171D01*
X121323Y56003D01*
X120947Y55772D01*
X120612Y55486D01*
X120326Y55151D01*
X120233Y55000D01*
X119121D01*
X97957Y76164D01*
Y98500D01*
X114635D01*
X114497Y98275D01*
X114329Y97868D01*
X114226Y97439D01*
X114191Y97000D01*
X114226Y96561D01*
X114329Y96132D01*
X114497Y95725D01*
X114728Y95349D01*
X115014Y95014D01*
X115349Y94728D01*
X115500Y94635D01*
Y94059D01*
X115495Y94000D01*
X115514Y93765D01*
X115569Y93535D01*
X115659Y93317D01*
X115783Y93116D01*
X115936Y92936D01*
X115981Y92898D01*
X127898Y80981D01*
X127936Y80936D01*
X128115Y80783D01*
X128116Y80783D01*
X128317Y80659D01*
X128535Y80569D01*
X128765Y80514D01*
X129000Y80495D01*
Y53500D01*
G37*
G36*
X116500Y10500D02*Y29500D01*
X128379D01*
X129500Y28379D01*
Y10500D01*
X116500D01*
G37*
G36*
X49510Y90714D02*X49496Y90686D01*
Y94306D01*
X49507Y94284D01*
X49657Y94010D01*
X49779Y93723D01*
X49875Y93426D01*
X49944Y93121D01*
X49986Y92812D01*
X50000Y92500D01*
X49986Y92188D01*
X49944Y91879D01*
X49875Y91574D01*
X49779Y91277D01*
X49657Y90990D01*
X49510Y90714D01*
G37*
G36*
X49496Y110000D02*X49741D01*
X49755Y109993D01*
X49830Y109970D01*
X49908Y109959D01*
X49987Y109960D01*
X50064Y109973D01*
X50139Y109999D01*
X50141Y110000D01*
X73884D01*
X73997Y109725D01*
X74228Y109349D01*
X74514Y109014D01*
X74849Y108728D01*
X75225Y108497D01*
X75632Y108329D01*
X76061Y108226D01*
X76500Y108191D01*
X76939Y108226D01*
X77368Y108329D01*
X77775Y108497D01*
X78151Y108728D01*
X78486Y109014D01*
X78772Y109349D01*
X79003Y109725D01*
X79116Y110000D01*
X89221D01*
X88849Y109772D01*
X88514Y109486D01*
X88228Y109151D01*
X87997Y108775D01*
X87829Y108368D01*
X87726Y107939D01*
X87691Y107500D01*
X87726Y107061D01*
X87829Y106632D01*
X87997Y106225D01*
X88228Y105849D01*
X88514Y105514D01*
X88849Y105228D01*
X89221Y105000D01*
X88849Y104772D01*
X88514Y104486D01*
X88228Y104151D01*
X87997Y103775D01*
X87829Y103368D01*
X87726Y102939D01*
X87691Y102500D01*
X87726Y102061D01*
X87829Y101632D01*
X87997Y101225D01*
X88228Y100849D01*
X88514Y100514D01*
X88849Y100228D01*
X89225Y99997D01*
X89632Y99829D01*
X90061Y99726D01*
X90500Y99691D01*
X90939Y99726D01*
X91111Y99767D01*
X92500Y98379D01*
Y94470D01*
X92486Y94486D01*
X92151Y94772D01*
X91775Y95003D01*
X91368Y95171D01*
X90939Y95274D01*
X90500Y95309D01*
X90061Y95274D01*
X89632Y95171D01*
X89225Y95003D01*
X88849Y94772D01*
X88514Y94486D01*
X88228Y94151D01*
X87997Y93775D01*
X87829Y93368D01*
X87726Y92939D01*
X87691Y92500D01*
X87726Y92061D01*
X87829Y91632D01*
X87997Y91225D01*
X88228Y90849D01*
X88514Y90514D01*
X88849Y90228D01*
X89000Y90135D01*
Y75507D01*
X88995Y75448D01*
X89014Y75213D01*
X89069Y74983D01*
X89159Y74765D01*
X89283Y74564D01*
X89436Y74384D01*
X89481Y74346D01*
X116715Y47111D01*
X116674Y46939D01*
X116639Y46500D01*
X116674Y46061D01*
X116777Y45632D01*
X116946Y45225D01*
X117176Y44849D01*
X117462Y44514D01*
X117797Y44228D01*
X118000Y44103D01*
Y40559D01*
X117995Y40500D01*
X118014Y40265D01*
X118069Y40035D01*
X118159Y39817D01*
X118283Y39616D01*
X118436Y39436D01*
X118481Y39398D01*
X118500Y39379D01*
Y10500D01*
X49496D01*
Y16500D01*
X81941D01*
X82000Y16495D01*
X82235Y16514D01*
X82235Y16514D01*
X82465Y16569D01*
X82683Y16659D01*
X82884Y16783D01*
X83064Y16936D01*
X83102Y16981D01*
X87889Y21767D01*
X88061Y21726D01*
X88500Y21691D01*
X88939Y21726D01*
X89368Y21829D01*
X89775Y21997D01*
X90151Y22228D01*
X90486Y22514D01*
X90772Y22849D01*
X91003Y23225D01*
X91171Y23632D01*
X91274Y24061D01*
X91300Y24500D01*
X91274Y24939D01*
X91171Y25368D01*
X91003Y25775D01*
X90772Y26151D01*
X90486Y26486D01*
X90151Y26772D01*
X89775Y27003D01*
X89368Y27171D01*
X88939Y27274D01*
X88500Y27309D01*
X88061Y27274D01*
X87632Y27171D01*
X87225Y27003D01*
X86849Y26772D01*
X86514Y26486D01*
X86228Y26151D01*
X85997Y25775D01*
X85829Y25368D01*
X85726Y24939D01*
X85691Y24500D01*
X85726Y24061D01*
X85767Y23889D01*
X81379Y19500D01*
X49496D01*
Y57107D01*
X61063Y68674D01*
X61151Y68728D01*
X61486Y69014D01*
X61772Y69349D01*
X62003Y69725D01*
X62171Y70132D01*
X62274Y70561D01*
X62300Y71000D01*
X62274Y71439D01*
X62171Y71868D01*
X62003Y72275D01*
X61772Y72651D01*
X61486Y72986D01*
X61151Y73272D01*
X60775Y73503D01*
X60368Y73671D01*
X59939Y73774D01*
X59500Y73809D01*
X59061Y73774D01*
X58632Y73671D01*
X58225Y73503D01*
X57849Y73272D01*
X57514Y72986D01*
X57228Y72651D01*
X57174Y72563D01*
X49496Y64885D01*
Y79141D01*
X49692Y79308D01*
X50152Y79847D01*
X50522Y80451D01*
X50793Y81105D01*
X50958Y81794D01*
X51000Y82500D01*
X50958Y83206D01*
X50793Y83895D01*
X50522Y84549D01*
X50152Y85153D01*
X49692Y85692D01*
X49496Y85859D01*
Y90230D01*
X49516Y90191D01*
X49564Y90128D01*
X49620Y90073D01*
X49684Y90028D01*
X49755Y89993D01*
X49830Y89970D01*
X49908Y89959D01*
X49987Y89960D01*
X50064Y89973D01*
X50139Y89999D01*
X50208Y90035D01*
X50271Y90083D01*
X50326Y90139D01*
X50370Y90204D01*
X50564Y90556D01*
X50721Y90926D01*
X50844Y91309D01*
X50933Y91700D01*
X50987Y92099D01*
X51004Y92500D01*
X50987Y92901D01*
X50933Y93300D01*
X50844Y93691D01*
X50721Y94074D01*
X50564Y94444D01*
X50374Y94798D01*
X50329Y94863D01*
X50274Y94920D01*
X50210Y94968D01*
X50140Y95004D01*
X50065Y95030D01*
X49987Y95044D01*
X49908Y95045D01*
X49829Y95033D01*
X49754Y95010D01*
X49683Y94975D01*
X49618Y94929D01*
X49561Y94874D01*
X49513Y94811D01*
X49496Y94777D01*
Y99141D01*
X49692Y99308D01*
X50152Y99847D01*
X50522Y100451D01*
X50793Y101105D01*
X50958Y101794D01*
X51000Y102500D01*
X50958Y103206D01*
X50793Y103895D01*
X50522Y104549D01*
X50152Y105153D01*
X49692Y105692D01*
X49496Y105859D01*
Y110000D01*
G37*
G36*
X46502Y16032D02*X46772Y16349D01*
X46865Y16500D01*
X49496D01*
Y10500D01*
X46502D01*
Y16032D01*
G37*
G36*
Y54113D02*X49496Y57107D01*
Y19500D01*
X46865D01*
X46772Y19651D01*
X46502Y19968D01*
Y54113D01*
G37*
G36*
Y77986D02*X47206Y78042D01*
X47895Y78207D01*
X48549Y78478D01*
X49153Y78848D01*
X49496Y79141D01*
Y64885D01*
X46502Y61891D01*
Y77986D01*
G37*
G36*
Y97986D02*X47206Y98042D01*
X47895Y98207D01*
X48549Y98478D01*
X49153Y98848D01*
X49496Y99141D01*
Y94777D01*
X49476Y94741D01*
X49451Y94666D01*
X49437Y94588D01*
X49436Y94508D01*
X49448Y94430D01*
X49471Y94354D01*
X49496Y94306D01*
Y90686D01*
X49474Y90645D01*
X49451Y90569D01*
X49440Y90491D01*
X49441Y90413D01*
X49454Y90335D01*
X49480Y90261D01*
X49496Y90230D01*
Y85859D01*
X49153Y86152D01*
X48549Y86522D01*
X47895Y86793D01*
X47206Y86958D01*
X46502Y87014D01*
Y87996D01*
X46901Y88013D01*
X47300Y88067D01*
X47691Y88156D01*
X48074Y88279D01*
X48444Y88436D01*
X48798Y88626D01*
X48863Y88671D01*
X48920Y88726D01*
X48968Y88790D01*
X49004Y88860D01*
X49030Y88935D01*
X49044Y89013D01*
X49045Y89092D01*
X49033Y89171D01*
X49010Y89246D01*
X48975Y89317D01*
X48929Y89382D01*
X48874Y89439D01*
X48811Y89487D01*
X48741Y89524D01*
X48666Y89549D01*
X48588Y89563D01*
X48508Y89564D01*
X48430Y89552D01*
X48354Y89529D01*
X48284Y89493D01*
X48010Y89343D01*
X47723Y89221D01*
X47426Y89125D01*
X47121Y89056D01*
X46812Y89014D01*
X46502Y89000D01*
Y96000D01*
X46812Y95986D01*
X47121Y95944D01*
X47426Y95875D01*
X47723Y95779D01*
X48010Y95657D01*
X48286Y95510D01*
X48355Y95474D01*
X48431Y95451D01*
X48509Y95440D01*
X48587Y95441D01*
X48665Y95454D01*
X48739Y95480D01*
X48809Y95516D01*
X48872Y95564D01*
X48927Y95620D01*
X48972Y95684D01*
X49007Y95755D01*
X49030Y95830D01*
X49041Y95908D01*
X49040Y95987D01*
X49027Y96064D01*
X49001Y96139D01*
X48965Y96208D01*
X48917Y96271D01*
X48861Y96326D01*
X48796Y96370D01*
X48444Y96564D01*
X48074Y96721D01*
X47691Y96844D01*
X47300Y96933D01*
X46901Y96987D01*
X46502Y97004D01*
Y97986D01*
G37*
G36*
Y110000D02*X49496D01*
Y105859D01*
X49153Y106152D01*
X48549Y106522D01*
X47895Y106793D01*
X47206Y106958D01*
X46502Y107014D01*
Y107996D01*
X46901Y108013D01*
X47300Y108067D01*
X47691Y108156D01*
X48074Y108279D01*
X48444Y108436D01*
X48798Y108626D01*
X48863Y108671D01*
X48920Y108726D01*
X48968Y108790D01*
X49004Y108860D01*
X49030Y108935D01*
X49044Y109013D01*
X49045Y109092D01*
X49033Y109171D01*
X49010Y109246D01*
X48975Y109317D01*
X48929Y109382D01*
X48874Y109439D01*
X48811Y109487D01*
X48741Y109524D01*
X48666Y109549D01*
X48588Y109563D01*
X48508Y109564D01*
X48430Y109552D01*
X48354Y109529D01*
X48284Y109493D01*
X48010Y109343D01*
X47723Y109221D01*
X47426Y109125D01*
X47121Y109056D01*
X46812Y109014D01*
X46502Y109000D01*
Y110000D01*
G37*
G36*
X42780Y15787D02*X42849Y15728D01*
X43225Y15497D01*
X43632Y15329D01*
X44061Y15226D01*
X44500Y15191D01*
X44939Y15226D01*
X45368Y15329D01*
X45775Y15497D01*
X46151Y15728D01*
X46486Y16014D01*
X46502Y16032D01*
Y10500D01*
X42780D01*
Y15787D01*
G37*
G36*
Y50391D02*X46502Y54113D01*
Y19968D01*
X46486Y19986D01*
X46151Y20272D01*
X45775Y20503D01*
X45368Y20671D01*
X44939Y20774D01*
X44500Y20809D01*
X44061Y20774D01*
X43632Y20671D01*
X43225Y20503D01*
X42849Y20272D01*
X42780Y20213D01*
Y50391D01*
G37*
G36*
Y79959D02*X42848Y79847D01*
X43308Y79308D01*
X43847Y78848D01*
X44451Y78478D01*
X45105Y78207D01*
X45794Y78042D01*
X46500Y77986D01*
X46502Y77986D01*
Y61891D01*
X42780Y58169D01*
Y79959D01*
G37*
G36*
Y99959D02*X42848Y99847D01*
X43308Y99308D01*
X43847Y98848D01*
X44451Y98478D01*
X45105Y98207D01*
X45794Y98042D01*
X46500Y97986D01*
X46502Y97986D01*
Y97004D01*
X46500Y97004D01*
X46099Y96987D01*
X45700Y96933D01*
X45309Y96844D01*
X44926Y96721D01*
X44556Y96564D01*
X44202Y96374D01*
X44137Y96329D01*
X44080Y96274D01*
X44032Y96210D01*
X43996Y96140D01*
X43970Y96065D01*
X43956Y95987D01*
X43955Y95908D01*
X43967Y95829D01*
X43990Y95754D01*
X44025Y95683D01*
X44071Y95618D01*
X44126Y95561D01*
X44189Y95513D01*
X44259Y95476D01*
X44334Y95451D01*
X44412Y95437D01*
X44492Y95436D01*
X44570Y95448D01*
X44646Y95471D01*
X44716Y95507D01*
X44990Y95657D01*
X45277Y95779D01*
X45574Y95875D01*
X45879Y95944D01*
X46188Y95986D01*
X46500Y96000D01*
X46502Y96000D01*
Y89000D01*
X46500Y89000D01*
X46188Y89014D01*
X45879Y89056D01*
X45574Y89125D01*
X45277Y89221D01*
X44990Y89343D01*
X44714Y89490D01*
X44645Y89526D01*
X44569Y89549D01*
X44491Y89560D01*
X44413Y89559D01*
X44335Y89546D01*
X44261Y89520D01*
X44191Y89484D01*
X44128Y89436D01*
X44073Y89380D01*
X44028Y89316D01*
X43993Y89245D01*
X43970Y89170D01*
X43959Y89092D01*
X43960Y89013D01*
X43973Y88936D01*
X43999Y88861D01*
X44035Y88792D01*
X44083Y88729D01*
X44139Y88674D01*
X44204Y88630D01*
X44556Y88436D01*
X44926Y88279D01*
X45309Y88156D01*
X45700Y88067D01*
X46099Y88013D01*
X46500Y87996D01*
X46502Y87996D01*
Y87014D01*
X46500Y87014D01*
X45794Y86958D01*
X45105Y86793D01*
X44451Y86522D01*
X43847Y86152D01*
X43308Y85692D01*
X42848Y85153D01*
X42780Y85041D01*
Y90040D01*
X42790Y90032D01*
X42860Y89996D01*
X42935Y89970D01*
X43013Y89956D01*
X43092Y89955D01*
X43171Y89967D01*
X43246Y89990D01*
X43317Y90025D01*
X43382Y90071D01*
X43439Y90126D01*
X43487Y90189D01*
X43524Y90259D01*
X43549Y90334D01*
X43563Y90412D01*
X43564Y90492D01*
X43552Y90570D01*
X43529Y90646D01*
X43493Y90716D01*
X43343Y90990D01*
X43221Y91277D01*
X43125Y91574D01*
X43056Y91879D01*
X43014Y92188D01*
X43000Y92500D01*
X43014Y92812D01*
X43056Y93121D01*
X43125Y93426D01*
X43221Y93723D01*
X43343Y94010D01*
X43490Y94286D01*
X43526Y94355D01*
X43549Y94431D01*
X43560Y94509D01*
X43559Y94587D01*
X43546Y94665D01*
X43520Y94739D01*
X43484Y94809D01*
X43436Y94872D01*
X43380Y94927D01*
X43316Y94972D01*
X43245Y95007D01*
X43170Y95030D01*
X43092Y95041D01*
X43013Y95040D01*
X42936Y95027D01*
X42861Y95001D01*
X42792Y94965D01*
X42780Y94956D01*
Y99959D01*
G37*
G36*
Y110000D02*X42851D01*
X42860Y109996D01*
X42935Y109970D01*
X43013Y109956D01*
X43092Y109955D01*
X43171Y109967D01*
X43246Y109990D01*
X43267Y110000D01*
X46502D01*
Y109000D01*
X46500Y109000D01*
X46188Y109014D01*
X45879Y109056D01*
X45574Y109125D01*
X45277Y109221D01*
X44990Y109343D01*
X44714Y109490D01*
X44645Y109526D01*
X44569Y109549D01*
X44491Y109560D01*
X44413Y109559D01*
X44335Y109546D01*
X44261Y109520D01*
X44191Y109484D01*
X44128Y109436D01*
X44073Y109380D01*
X44028Y109316D01*
X43993Y109245D01*
X43970Y109170D01*
X43959Y109092D01*
X43960Y109013D01*
X43973Y108936D01*
X43999Y108861D01*
X44035Y108792D01*
X44083Y108729D01*
X44139Y108674D01*
X44204Y108630D01*
X44556Y108436D01*
X44926Y108279D01*
X45309Y108156D01*
X45700Y108067D01*
X46099Y108013D01*
X46500Y107996D01*
X46502Y107996D01*
Y107014D01*
X46500Y107014D01*
X45794Y106958D01*
X45105Y106793D01*
X44451Y106522D01*
X43847Y106152D01*
X43308Y105692D01*
X42848Y105153D01*
X42780Y105041D01*
Y110000D01*
G37*
G36*
X36493Y102987D02*X36500Y102986D01*
X37206Y103042D01*
X37895Y103207D01*
X38549Y103478D01*
X39153Y103848D01*
X39692Y104308D01*
X40152Y104847D01*
X40522Y105451D01*
X40793Y106105D01*
X40958Y106794D01*
X41000Y107500D01*
X40958Y108206D01*
X40793Y108895D01*
X40522Y109549D01*
X40246Y110000D01*
X42780D01*
Y105041D01*
X42478Y104549D01*
X42207Y103895D01*
X42042Y103206D01*
X41986Y102500D01*
X42042Y101794D01*
X42207Y101105D01*
X42478Y100451D01*
X42780Y99959D01*
Y94956D01*
X42729Y94917D01*
X42674Y94861D01*
X42630Y94796D01*
X42436Y94444D01*
X42279Y94074D01*
X42156Y93691D01*
X42067Y93300D01*
X42013Y92901D01*
X41996Y92500D01*
X42013Y92099D01*
X42067Y91700D01*
X42156Y91309D01*
X42279Y90926D01*
X42436Y90556D01*
X42626Y90202D01*
X42671Y90137D01*
X42726Y90080D01*
X42780Y90040D01*
Y85041D01*
X42478Y84549D01*
X42207Y83895D01*
X42042Y83206D01*
X41986Y82500D01*
X42042Y81794D01*
X42207Y81105D01*
X42478Y80451D01*
X42780Y79959D01*
Y58169D01*
X37632Y53021D01*
X37549Y52951D01*
X37268Y52621D01*
X37042Y52252D01*
X36877Y51852D01*
X36775Y51432D01*
X36775Y51431D01*
X36742Y51000D01*
X36750Y50892D01*
Y40540D01*
X36726Y40439D01*
X36691Y40000D01*
X36726Y39561D01*
X36829Y39132D01*
X36997Y38725D01*
X37228Y38349D01*
X37514Y38014D01*
X37849Y37728D01*
X38225Y37497D01*
X38632Y37329D01*
X39061Y37226D01*
X39500Y37191D01*
X39939Y37226D01*
X40368Y37329D01*
X40775Y37497D01*
X41151Y37728D01*
X41486Y38014D01*
X41772Y38349D01*
X42003Y38725D01*
X42171Y39132D01*
X42274Y39561D01*
X42300Y40000D01*
X42274Y40439D01*
X42250Y40540D01*
Y49861D01*
X42780Y50391D01*
Y20213D01*
X42514Y19986D01*
X42228Y19651D01*
X41997Y19275D01*
X41829Y18868D01*
X41726Y18439D01*
X41691Y18000D01*
X41726Y17561D01*
X41829Y17132D01*
X41997Y16725D01*
X42228Y16349D01*
X42514Y16014D01*
X42780Y15787D01*
Y10500D01*
X36493D01*
Y72209D01*
X36503Y72225D01*
X36671Y72632D01*
X36774Y73061D01*
X36800Y73500D01*
X36774Y73939D01*
X36671Y74368D01*
X36503Y74775D01*
X36493Y74791D01*
Y82987D01*
X36500Y82986D01*
X37206Y83042D01*
X37895Y83207D01*
X38549Y83478D01*
X39153Y83848D01*
X39692Y84308D01*
X40152Y84847D01*
X40522Y85451D01*
X40793Y86105D01*
X40958Y86794D01*
X41000Y87500D01*
X40958Y88206D01*
X40793Y88895D01*
X40522Y89549D01*
X40152Y90153D01*
X39692Y90692D01*
X39153Y91152D01*
X38549Y91522D01*
X37895Y91793D01*
X37206Y91958D01*
X36500Y92014D01*
X36493Y92013D01*
Y92987D01*
X36500Y92986D01*
X37206Y93042D01*
X37895Y93207D01*
X38549Y93478D01*
X39153Y93848D01*
X39692Y94308D01*
X40152Y94847D01*
X40522Y95451D01*
X40793Y96105D01*
X40958Y96794D01*
X41000Y97500D01*
X40958Y98206D01*
X40793Y98895D01*
X40522Y99549D01*
X40152Y100153D01*
X39692Y100692D01*
X39153Y101152D01*
X38549Y101522D01*
X37895Y101793D01*
X37206Y101958D01*
X36500Y102014D01*
X36493Y102013D01*
Y102987D01*
G37*
G36*
Y10500D02*X35000D01*
Y23941D01*
X35005Y24000D01*
X34986Y24235D01*
X34931Y24465D01*
X34841Y24683D01*
X34717Y24884D01*
X34564Y25064D01*
X34519Y25102D01*
X27892Y31730D01*
Y65664D01*
X28401Y66099D01*
X28963Y66757D01*
X29416Y67495D01*
X29747Y68295D01*
X29949Y69137D01*
X30000Y70000D01*
X29949Y70863D01*
X29747Y71705D01*
X29416Y72505D01*
X28963Y73243D01*
X28401Y73901D01*
X27892Y74336D01*
Y77464D01*
X31266Y74105D01*
X31226Y73939D01*
X31191Y73500D01*
X31226Y73061D01*
X31329Y72632D01*
X31497Y72225D01*
X31728Y71849D01*
X32014Y71514D01*
X32349Y71228D01*
X32725Y70997D01*
X33132Y70829D01*
X33561Y70726D01*
X34000Y70691D01*
X34439Y70726D01*
X34868Y70829D01*
X35275Y70997D01*
X35651Y71228D01*
X35986Y71514D01*
X36272Y71849D01*
X36493Y72209D01*
Y10500D01*
G37*
G36*
X27892Y110000D02*X28500D01*
X28482Y109625D01*
X28430Y109253D01*
X28342Y108888D01*
X28221Y108532D01*
X28067Y108190D01*
X28020Y108082D01*
X27993Y107967D01*
X27983Y107849D01*
X27993Y107732D01*
X28021Y107617D01*
X28066Y107508D01*
X28128Y107407D01*
X28205Y107318D01*
X28295Y107241D01*
X28395Y107180D01*
X28504Y107135D01*
X28619Y107107D01*
X28737Y107098D01*
X28855Y107108D01*
X28969Y107135D01*
X29078Y107181D01*
X29179Y107243D01*
X29269Y107319D01*
X29345Y107409D01*
X29405Y107511D01*
X29622Y107980D01*
X29789Y108469D01*
X29909Y108972D01*
X29982Y109484D01*
X30006Y110000D01*
X32754D01*
X32478Y109549D01*
X32207Y108895D01*
X32042Y108206D01*
X31986Y107500D01*
X32042Y106794D01*
X32207Y106105D01*
X32478Y105451D01*
X32848Y104847D01*
X33308Y104308D01*
X33847Y103848D01*
X34451Y103478D01*
X35105Y103207D01*
X35794Y103042D01*
X36493Y102987D01*
Y102013D01*
X35794Y101958D01*
X35105Y101793D01*
X34451Y101522D01*
X33847Y101152D01*
X33308Y100692D01*
X32848Y100153D01*
X32478Y99549D01*
X32207Y98895D01*
X32042Y98206D01*
X31986Y97500D01*
X32042Y96794D01*
X32207Y96105D01*
X32478Y95451D01*
X32848Y94847D01*
X33308Y94308D01*
X33847Y93848D01*
X34451Y93478D01*
X35105Y93207D01*
X35794Y93042D01*
X36493Y92987D01*
Y92013D01*
X35794Y91958D01*
X35105Y91793D01*
X34451Y91522D01*
X33847Y91152D01*
X33308Y90692D01*
X32848Y90153D01*
X32478Y89549D01*
X32207Y88895D01*
X32042Y88206D01*
X31986Y87500D01*
X32042Y86794D01*
X32207Y86105D01*
X32478Y85451D01*
X32848Y84847D01*
X33308Y84308D01*
X33847Y83848D01*
X34451Y83478D01*
X35105Y83207D01*
X35794Y83042D01*
X36493Y82987D01*
Y74791D01*
X36272Y75151D01*
X35986Y75486D01*
X35651Y75772D01*
X35275Y76003D01*
X34868Y76171D01*
X34439Y76274D01*
X34000Y76309D01*
X33561Y76274D01*
X33382Y76231D01*
X27892Y81697D01*
Y85664D01*
X28401Y86099D01*
X28963Y86757D01*
X29416Y87495D01*
X29747Y88295D01*
X29949Y89137D01*
X30000Y90000D01*
X29949Y90863D01*
X29747Y91705D01*
X29416Y92505D01*
X28963Y93243D01*
X28401Y93901D01*
X27892Y94336D01*
Y110000D01*
G37*
G36*
Y81697D02*X26000Y83580D01*
Y84704D01*
X26205Y84753D01*
X27005Y85084D01*
X27743Y85537D01*
X27892Y85664D01*
Y81697D01*
G37*
G36*
X24502Y64483D02*X25363Y64551D01*
X26205Y64753D01*
X27005Y65084D01*
X27743Y65537D01*
X27892Y65664D01*
Y31730D01*
X24502Y35119D01*
Y64483D01*
G37*
G36*
Y80838D02*X27892Y77464D01*
Y74336D01*
X27743Y74463D01*
X27005Y74916D01*
X26205Y75247D01*
X25363Y75449D01*
X24502Y75517D01*
Y80838D01*
G37*
G36*
Y110000D02*X27892D01*
Y94336D01*
X27743Y94463D01*
X27005Y94916D01*
X26205Y95247D01*
X25363Y95449D01*
X24502Y95517D01*
Y104494D01*
X25016Y104518D01*
X25528Y104591D01*
X26031Y104711D01*
X26520Y104878D01*
X26992Y105090D01*
X27093Y105151D01*
X27184Y105228D01*
X27261Y105318D01*
X27323Y105420D01*
X27369Y105529D01*
X27397Y105645D01*
X27406Y105763D01*
X27397Y105881D01*
X27370Y105997D01*
X27324Y106107D01*
X27262Y106208D01*
X27186Y106298D01*
X27095Y106376D01*
X26994Y106438D01*
X26885Y106484D01*
X26769Y106511D01*
X26651Y106521D01*
X26532Y106512D01*
X26417Y106484D01*
X26308Y106437D01*
X25968Y106279D01*
X25612Y106158D01*
X25247Y106070D01*
X24875Y106018D01*
X24502Y106000D01*
Y110000D01*
G37*
G36*
X17000D02*X18994D01*
X19018Y109484D01*
X19091Y108972D01*
X19211Y108469D01*
X19378Y107980D01*
X19590Y107508D01*
X19651Y107407D01*
X19728Y107316D01*
X19818Y107239D01*
X19920Y107177D01*
X20029Y107131D01*
X20145Y107103D01*
X20263Y107094D01*
X20381Y107103D01*
X20497Y107130D01*
X20607Y107176D01*
X20708Y107238D01*
X20798Y107314D01*
X20876Y107405D01*
X20938Y107506D01*
X20984Y107615D01*
X21011Y107731D01*
X21021Y107849D01*
X21012Y107968D01*
X20984Y108083D01*
X20937Y108192D01*
X20779Y108532D01*
X20658Y108888D01*
X20570Y109253D01*
X20518Y109625D01*
X20500Y110000D01*
X24502D01*
Y106000D01*
X24500Y106000D01*
X24125Y106018D01*
X23753Y106070D01*
X23388Y106158D01*
X23032Y106279D01*
X22690Y106433D01*
X22582Y106480D01*
X22467Y106507D01*
X22349Y106517D01*
X22232Y106507D01*
X22117Y106479D01*
X22008Y106434D01*
X21907Y106372D01*
X21818Y106295D01*
X21741Y106205D01*
X21680Y106105D01*
X21635Y105996D01*
X21607Y105881D01*
X21598Y105763D01*
X21608Y105645D01*
X21635Y105531D01*
X21681Y105422D01*
X21743Y105321D01*
X21819Y105231D01*
X21909Y105155D01*
X22011Y105095D01*
X22480Y104878D01*
X22969Y104711D01*
X23472Y104591D01*
X23984Y104518D01*
X24500Y104494D01*
X24502Y104494D01*
Y95517D01*
X24500Y95517D01*
X23637Y95449D01*
X22795Y95247D01*
X21995Y94916D01*
X21257Y94463D01*
X20599Y93901D01*
X20037Y93243D01*
X19584Y92505D01*
X19253Y91705D01*
X19051Y90863D01*
X18983Y90000D01*
X19051Y89137D01*
X19253Y88295D01*
X19584Y87495D01*
X20037Y86757D01*
X20599Y86099D01*
X21257Y85537D01*
X21995Y85084D01*
X22795Y84753D01*
X23000Y84704D01*
Y83014D01*
X22995Y82954D01*
X23013Y82734D01*
X23014Y82722D01*
X23014Y82720D01*
X23014Y82718D01*
X23042Y82606D01*
X23069Y82492D01*
X23070Y82490D01*
X23070Y82489D01*
X23115Y82382D01*
X23159Y82274D01*
X23160Y82272D01*
X23161Y82271D01*
X23222Y82172D01*
X23283Y82073D01*
X23284Y82071D01*
X23285Y82070D01*
X23293Y82061D01*
X23436Y81893D01*
X23482Y81854D01*
X24502Y80838D01*
Y75517D01*
X24500Y75517D01*
X23637Y75449D01*
X22795Y75247D01*
X21995Y74916D01*
X21257Y74463D01*
X20599Y73901D01*
X20037Y73243D01*
X19584Y72505D01*
X19253Y71705D01*
X19051Y70863D01*
X18983Y70000D01*
X19051Y69137D01*
X19253Y68295D01*
X19584Y67495D01*
X20037Y66757D01*
X20599Y66099D01*
X21257Y65537D01*
X21995Y65084D01*
X22795Y64753D01*
X23637Y64551D01*
X24500Y64483D01*
X24502Y64483D01*
Y35119D01*
X17000Y42621D01*
Y54221D01*
X17003Y54225D01*
X17171Y54632D01*
X17274Y55061D01*
X17300Y55500D01*
X17274Y55939D01*
X17171Y56368D01*
X17003Y56775D01*
X17000Y56779D01*
Y71414D01*
X17316Y71684D01*
X18154Y72665D01*
X18829Y73766D01*
X19323Y74958D01*
X19624Y76213D01*
X19700Y77500D01*
X19624Y78787D01*
X19323Y80042D01*
X18829Y81234D01*
X18154Y82335D01*
X17316Y83316D01*
X17000Y83586D01*
Y110000D01*
G37*
G36*
X109261Y168500D02*X155500D01*
Y140000D01*
X124500D01*
Y155635D01*
X124651Y155728D01*
X124986Y156014D01*
X125272Y156349D01*
X125503Y156725D01*
X125671Y157132D01*
X125774Y157561D01*
X125800Y158000D01*
X125774Y158439D01*
X125671Y158868D01*
X125503Y159275D01*
X125272Y159651D01*
X124986Y159986D01*
X124651Y160272D01*
X124275Y160503D01*
X123868Y160671D01*
X123439Y160774D01*
X123000Y160809D01*
X122561Y160774D01*
X122132Y160671D01*
X121725Y160503D01*
X121349Y160272D01*
X121014Y159986D01*
X120728Y159651D01*
X120497Y159275D01*
X120329Y158868D01*
X120226Y158439D01*
X120191Y158000D01*
X120226Y157561D01*
X120329Y157132D01*
X120497Y156725D01*
X120728Y156349D01*
X121014Y156014D01*
X121349Y155728D01*
X121500Y155635D01*
Y140000D01*
X110098D01*
X109806Y140704D01*
X109318Y141500D01*
X109261Y141567D01*
Y145183D01*
X109331Y145195D01*
X109480Y145246D01*
X109619Y145319D01*
X109745Y145413D01*
X109855Y145525D01*
X109946Y145654D01*
X110013Y145796D01*
X110204Y146328D01*
X110337Y146877D01*
X110417Y147436D01*
X110444Y148000D01*
X110417Y148564D01*
X110337Y149123D01*
X110204Y149672D01*
X110019Y150206D01*
X109950Y150348D01*
X109858Y150477D01*
X109748Y150591D01*
X109621Y150685D01*
X109481Y150759D01*
X109332Y150809D01*
X109261Y150821D01*
Y152240D01*
X109348Y152275D01*
X109616Y152440D01*
X109856Y152644D01*
X110060Y152884D01*
X110225Y153152D01*
X110345Y153443D01*
X110418Y153749D01*
X110437Y154063D01*
X110418Y162251D01*
X110345Y162557D01*
X110225Y162848D01*
X110060Y163116D01*
X109856Y163356D01*
X109616Y163560D01*
X109348Y163725D01*
X109261Y163760D01*
Y168500D01*
G37*
G36*
Y141567D02*X108711Y142211D01*
X108000Y142818D01*
X107321Y143235D01*
X107336Y143324D01*
X107338Y143482D01*
X107315Y143639D01*
X107268Y143790D01*
X107198Y143931D01*
X107107Y144061D01*
X106996Y144174D01*
X106870Y144268D01*
X106730Y144342D01*
X106580Y144392D01*
X106424Y144419D01*
X106266Y144421D01*
X106110Y144398D01*
X105960Y144348D01*
X105608Y144222D01*
X105244Y144134D01*
X104874Y144081D01*
X104500Y144063D01*
Y151937D01*
X104874Y151919D01*
X105244Y151866D01*
X105608Y151778D01*
X105961Y151656D01*
X106111Y151606D01*
X106266Y151583D01*
X106424Y151585D01*
X106579Y151612D01*
X106728Y151662D01*
X106867Y151736D01*
X106993Y151830D01*
X107103Y151942D01*
X107194Y152071D01*
X107198Y152078D01*
X108751Y152082D01*
X109057Y152155D01*
X109261Y152240D01*
Y150821D01*
X109176Y150836D01*
X109018Y150838D01*
X108861Y150815D01*
X108710Y150768D01*
X108569Y150698D01*
X108439Y150607D01*
X108326Y150496D01*
X108232Y150370D01*
X108158Y150230D01*
X108108Y150080D01*
X108081Y149924D01*
X108079Y149766D01*
X108102Y149610D01*
X108152Y149460D01*
X108278Y149108D01*
X108366Y148744D01*
X108419Y148374D01*
X108437Y148000D01*
X108419Y147626D01*
X108366Y147256D01*
X108278Y146892D01*
X108156Y146539D01*
X108106Y146389D01*
X108083Y146234D01*
X108085Y146076D01*
X108112Y145921D01*
X108162Y145772D01*
X108236Y145633D01*
X108330Y145507D01*
X108442Y145397D01*
X108571Y145306D01*
X108712Y145236D01*
X108862Y145189D01*
X109018Y145167D01*
X109175Y145168D01*
X109261Y145183D01*
Y141567D01*
G37*
G36*
X104500Y168500D02*X109261D01*
Y163760D01*
X109057Y163845D01*
X108751Y163918D01*
X108437Y163937D01*
X104500Y163928D01*
Y168500D01*
G37*
G54D43*X195000Y95500D02*Y51000D01*
G54D44*X190000Y78000D02*Y49000D01*
X187500Y77000D02*Y48000D01*
X175000Y93000D02*X190000Y78000D01*
X175000Y89500D02*X187500Y77000D01*
X201500Y44000D02*X205000Y40500D01*
X213500Y116500D02*Y61000D01*
X217000Y124500D02*Y56000D01*
X233500Y128000D02*Y57500D01*
X215000Y45000D02*Y40500D01*
X199500Y106000D02*X205500Y112000D01*
X185000Y45500D02*Y75500D01*
X182500Y43050D02*Y74000D01*
X175000Y77500D02*Y40500D01*
X221500Y28500D02*Y135000D01*
X225000Y13500D02*Y131500D01*
X130500Y94000D02*Y91000D01*
X130000Y84500D02*X134000D01*
X126000Y92000D02*Y95000D01*
X121500Y96000D02*Y93000D01*
X130000Y84500D01*
X117000Y97000D02*Y94000D01*
X129000Y82000D01*
X127500Y42075D02*Y49901D01*
X118000Y128000D02*X123000Y133000D01*
Y158000D02*Y133000D01*
X135000Y93000D02*X175000D01*
X132000Y89500D02*X175000D01*
X185000Y75500D02*X173500Y87000D01*
X182500Y74000D02*X172000Y84500D01*
X170500Y82000D02*X173000Y79500D01*
X170500Y82000D02*X175000Y77500D01*
X173500Y87000D02*X131000D01*
X130000Y84500D02*X172000D01*
X129000Y82000D02*X170500D01*
G54D43*X171000Y51000D02*X159500Y62500D01*
X148000D01*
X170500Y100000D02*X190500D01*
X195000Y95500D01*
G54D44*X157185Y106000D02*X199500D01*
X153000Y119685D02*X210315D01*
X213500Y116500D01*
X163984Y127559D02*X213941D01*
X217000Y124500D01*
X185000Y115652D02*X144152D01*
X139000Y110500D01*
Y105500D01*
X136000Y102500D01*
D03*
X190000Y49000D02*X192500Y46500D01*
X213500D01*
X215000Y45000D01*
X187500Y48000D02*X191500Y44000D01*
X201500D01*
X190000Y40500D02*X185000Y45500D01*
X190000Y40500D02*X195000D01*
X182500Y43000D03*
X185000Y40500D01*
X171000Y10000D02*X221500D01*
X225000Y13500D01*
X171000Y25500D02*X218500D01*
X221500Y28500D01*
X90500Y75448D02*Y92500D01*
X92500Y76500D02*Y89500D01*
X94000Y91000D01*
X127500Y49901D02*X119099D01*
X92500Y76500D01*
X122598Y53500D02*X118500D01*
X96000Y76000D01*
X119448Y46500D02*X90500Y75448D01*
X119500Y46500D02*Y40500D01*
X130000Y5000D02*X133000Y8000D01*
Y27000D01*
X119500Y40500D01*
X130000Y5000D02*X35500D01*
X44500Y18000D02*X82000D01*
X88500Y24500D01*
X130500Y91000D02*X132000Y89500D01*
X131000Y87000D02*X126000Y92000D01*
X130500Y39075D02*X127500Y42075D01*
X34000Y73500D02*X24500Y82957D01*
Y90000D01*
X14500Y55500D02*Y43000D01*
X33500Y24000D01*
G54D45*X39500Y40000D02*Y51000D01*
X59500Y71000D01*
G54D44*X33500Y24000D02*Y7000D01*
X35500Y5000D01*
X94000Y91000D02*Y99000D01*
X96000Y76000D02*Y102000D01*
X94000Y99000D02*X90500Y102500D01*
X96000Y102000D02*X90500Y107500D01*
X76500Y111000D02*Y123500D01*
X81000Y128000D01*
X118000D02*X81000D01*
G54D46*X104500Y138000D03*
Y148000D03*
G54D42*G36*
X100563Y161937D02*Y154063D01*
X108437D01*
Y161937D01*
X100563D01*
G37*
G54D47*X17000Y158000D03*
G54D48*X24500Y130000D03*
Y110000D03*
G54D49*X11500Y122500D03*
G54D50*X36500Y117500D03*
X46500Y112500D03*
Y102500D03*
Y92500D03*
Y82500D03*
X36500Y107500D03*
Y97500D03*
Y87500D03*
G54D47*X17000Y17000D03*
G54D48*X24500Y90000D03*
Y70000D03*
G54D49*X11500Y77500D03*
G54D47*X248000Y17000D03*
Y158000D03*
G54D51*X60500Y142500D03*
X74500D03*
X60500Y147000D03*
X74500D03*
X54500Y124000D03*
Y119000D03*
Y114000D03*
X49000Y121500D03*
X54500Y109000D03*
X59500Y114000D03*
X76500Y111000D03*
X59500Y87500D03*
X54500Y82500D03*
Y87500D03*
X34000Y73500D03*
X77000Y61500D03*
X111000Y46500D03*
X59500Y71000D03*
X14500Y55500D03*
X119448Y46500D03*
X122000Y25500D03*
Y21000D03*
X117500D03*
X126500D03*
X130500Y39075D03*
X127500Y49901D03*
X122598Y53500D03*
X126500Y66500D03*
X39500Y40000D03*
X44500Y18000D03*
X63500Y40500D03*
Y45000D03*
X88500Y24500D03*
X64500Y31500D03*
X67000Y14000D03*
X90500Y107500D03*
Y102500D03*
Y92500D03*
Y97500D03*
X117000Y97000D03*
X121500Y96000D03*
X126000Y95000D03*
X130500Y94000D03*
X135000Y93000D03*
X105000Y105000D03*
X195000Y51000D03*
X213500Y61000D03*
X217000Y56000D03*
X233500Y57500D03*
X215000Y40500D03*
X205000D03*
X195000D03*
X185000D03*
X172000Y10000D03*
Y25500D03*
X175000Y40500D03*
X171000Y51000D03*
X148000Y62500D03*
X87000Y135500D03*
X82500D03*
X96000D03*
X91500D03*
X170500Y100000D03*
X153000Y119685D03*
X163984Y127559D03*
X157185Y106000D03*
X152500Y143000D03*
X205500Y112000D03*
X190500Y100000D03*
X185000Y115652D03*
X148000Y143000D03*
X143500D03*
X136000Y102500D03*
X123000Y158000D03*
X139000Y143000D03*
X233500Y128000D03*
X225000Y131500D03*
X221500Y135000D03*
X98000Y123500D03*
X97457Y112043D03*
X101000Y108500D03*
X108000Y109500D03*
G54D52*G54D53*G54D54*G54D55*G54D56*G54D57*G54D54*G54D55*G54D56*G54D54*M02*
