G04 start of page 10 for group -4015 idx -4015 *
G04 Title: (unknown), toppaste *
G04 Creator: pcb 20140316 *
G04 CreationDate: Thu 27 Apr 2017 04:48:59 AM GMT UTC *
G04 For: railfan *
G04 Format: Gerber/RS-274X *
G04 PCB-Dimensions (mil): 2650.00 1750.00 *
G04 PCB-Coordinate-Origin: lower left *
%MOIN*%
%FSLAX25Y25*%
%LNTOPPASTE*%
%ADD102R,0.0440X0.0440*%
%ADD101R,0.0500X0.0500*%
%ADD100R,0.0350X0.0350*%
%ADD99R,0.0167X0.0167*%
%ADD98R,0.0787X0.0787*%
%ADD97C,0.0001*%
%ADD96R,0.0945X0.0945*%
%ADD95R,0.0378X0.0378*%
%ADD94R,0.0200X0.0200*%
%ADD93R,0.0157X0.0157*%
%ADD92R,0.0512X0.0512*%
%ADD91R,0.0630X0.0630*%
%ADD90R,0.0360X0.0360*%
G54D90*X41900Y160900D02*X43100D01*
X41900Y148000D02*X43100D01*
G54D91*X67500Y164992D02*Y158693D01*
Y145307D02*Y139008D01*
G54D92*X97957Y98893D02*Y98107D01*
X105043Y98893D02*Y98107D01*
G54D93*X94252Y40028D02*Y35602D01*
X97401Y40028D02*Y35602D01*
X100551Y40028D02*Y35602D01*
X103700Y40028D02*Y35602D01*
X106850Y40028D02*Y35602D01*
X110000Y40028D02*Y35602D01*
X113149Y40028D02*Y35602D01*
X116299Y40028D02*Y35602D01*
X119448Y40028D02*Y35602D01*
X122598Y40028D02*Y35602D01*
X125748Y40028D02*Y35602D01*
X132472Y46752D02*X136898D01*
X132472Y49901D02*X136898D01*
X132472Y53051D02*X136898D01*
X132472Y56200D02*X136898D01*
X132472Y59350D02*X136898D01*
X132472Y62500D02*X136898D01*
X132472Y65649D02*X136898D01*
X132472Y68799D02*X136898D01*
X132472Y71948D02*X136898D01*
X132472Y75098D02*X136898D01*
X132472Y78248D02*X136898D01*
X125748Y89398D02*Y84972D01*
X122599Y89398D02*Y84972D01*
X119449Y89398D02*Y84972D01*
X116300Y89398D02*Y84972D01*
X113150Y89398D02*Y84972D01*
X110000Y89398D02*Y84972D01*
X106851Y89398D02*Y84972D01*
X103701Y89398D02*Y84972D01*
X100552Y89398D02*Y84972D01*
X97402Y89398D02*Y84972D01*
X94252Y89398D02*Y84972D01*
X83102Y78248D02*X87528D01*
X83102Y75099D02*X87528D01*
X83102Y71949D02*X87528D01*
X83102Y68800D02*X87528D01*
X83102Y65650D02*X87528D01*
X83102Y62500D02*X87528D01*
X83102Y59351D02*X87528D01*
X83102Y56201D02*X87528D01*
X83102Y53052D02*X87528D01*
X83102Y49902D02*X87528D01*
X83102Y46752D02*X87528D01*
G54D94*X79500Y92500D02*X86000D01*
X79500Y97500D02*X86000D01*
X79500Y102500D02*X86000D01*
X79500Y107500D02*X86000D01*
X59000D02*X65500D01*
X59000Y102500D02*X65500D01*
X59000Y97500D02*X65500D01*
X59000Y92500D02*X65500D01*
G54D95*X73811Y116094D02*X77905D01*
X66095Y122000D02*X77905D01*
G54D96*X62471D02*X64361D01*
G54D97*G36*
X67666Y118695D02*X70506Y121535D01*
X71926Y120115D01*
X69086Y117275D01*
X67666Y118695D01*
G37*
G36*
X69086Y126725D02*X71926Y123885D01*
X70506Y122465D01*
X67666Y125305D01*
X69086Y126725D01*
G37*
G54D95*X73811Y127906D02*X77905D01*
G54D92*X88107Y154543D02*X88893D01*
X88107Y147457D02*X88893D01*
X104543Y118393D02*Y117607D01*
X97457Y118393D02*Y117607D01*
X87607Y115457D02*X88393D01*
X87607Y122543D02*X88393D01*
X66543Y82893D02*Y82107D01*
X59457Y82893D02*Y82107D01*
X72107Y6957D02*X72893D01*
X72107Y14043D02*X72893D01*
X145043Y165393D02*Y164607D01*
X137957Y165393D02*Y164607D01*
Y151393D02*Y150607D01*
X145043Y151393D02*Y150607D01*
X82607Y6957D02*X83393D01*
X82607Y14043D02*X83393D01*
X27457Y40393D02*Y39607D01*
X34543Y40393D02*Y39607D01*
G54D98*X131843Y11000D02*X147591D01*
X96409D02*X112157D01*
G54D92*X134043Y26893D02*Y26107D01*
X126957Y26893D02*Y26107D01*
X109957Y26893D02*Y26107D01*
X117043Y26893D02*Y26107D01*
X170457Y106393D02*Y105607D01*
X177543Y106393D02*Y105607D01*
X170457Y94393D02*Y93607D01*
X177543Y94393D02*Y93607D01*
G54D94*X202000Y51000D02*X208500D01*
X202000Y56000D02*X208500D01*
X202000Y61000D02*X208500D01*
X202000Y66000D02*X208500D01*
X202000Y71000D02*X208500D01*
X202000Y76000D02*X208500D01*
X202000Y81000D02*X208500D01*
X181500D02*X188000D01*
X181500Y76000D02*X188000D01*
X181500Y71000D02*X188000D01*
X181500Y66000D02*X188000D01*
X181500Y61000D02*X188000D01*
X181500Y56000D02*X188000D01*
X181500Y51000D02*X188000D01*
G54D99*X190276Y116587D02*Y114717D01*
X193425Y116587D02*Y114717D01*
X196575Y116587D02*Y114717D01*
X199724Y116587D02*Y114717D01*
Y123283D02*Y121413D01*
X196575Y123283D02*Y121413D01*
X193425Y123283D02*Y121413D01*
X190276Y123283D02*Y121413D01*
X33217Y53075D02*X35087D01*
X33217Y49925D02*X35087D01*
X39913D02*X41783D01*
X39913Y53075D02*X41783D01*
X136217Y39075D02*X138087D01*
X136217Y35925D02*X138087D01*
X142913D02*X144783D01*
X142913Y39075D02*X144783D01*
G54D92*X14107Y49543D02*X14893D01*
X14107Y42457D02*X14893D01*
G54D100*X143445Y135433D02*X148957D01*
X143445Y119685D02*X148957D01*
X143445Y103937D02*X148957D01*
X143445Y88189D02*X148957D01*
X143445Y72441D02*X148957D01*
X154429Y64567D02*X159941D01*
X154429Y80315D02*X159941D01*
X154429Y96063D02*X159941D01*
X154429Y111811D02*X159941D01*
X154429Y127559D02*X159941D01*
X230059Y135433D02*X235571D01*
X230059Y119685D02*X235571D01*
X230059Y103937D02*X235571D01*
X230059Y88189D02*X235571D01*
X230059Y72441D02*X235571D01*
X241043Y64567D02*X246555D01*
X241043Y80315D02*X246555D01*
X241043Y96063D02*X246555D01*
X241043Y111811D02*X246555D01*
X241043Y127559D02*X246555D01*
G54D101*X65760Y71000D02*X72413D01*
X51587Y61000D02*X58240D01*
X65760Y51000D02*X72413D01*
X51587Y41000D02*X58240D01*
X39500Y14004D02*Y4516D01*
X49500Y14004D02*Y4516D01*
X59500Y14004D02*Y4516D01*
Y31484D02*Y21996D01*
X49500Y31484D02*Y21996D01*
X39500Y31484D02*Y21996D01*
G54D92*X256107Y50457D02*X256893D01*
X256107Y57543D02*X256893D01*
X256107Y101457D02*X256893D01*
X256107Y108543D02*X256893D01*
G54D102*X220000Y43050D02*Y37850D01*
Y9150D02*Y3950D01*
X210000Y43050D02*Y37850D01*
Y9150D02*Y3950D01*
X200000Y43050D02*Y37850D01*
Y9150D02*Y3950D01*
X190000Y43050D02*Y37850D01*
Y9150D02*Y3950D01*
X180000Y43050D02*Y37850D01*
Y9150D02*Y3950D01*
G54D92*X158957Y25893D02*Y25107D01*
X166043Y25893D02*Y25107D01*
X158957Y10393D02*Y9607D01*
X166043Y10393D02*Y9607D01*
X114107Y102457D02*X114893D01*
X114107Y109543D02*X114893D01*
M02*
