G04 start of page 12 for group -3984 idx -3984 *
G04 Title: (unknown), fab *
G04 Creator: pcb 20140316 *
G04 CreationDate: Thu 27 Apr 2017 04:48:59 AM GMT UTC *
G04 For: railfan *
G04 Format: Gerber/RS-274X *
G04 PCB-Dimensions (mil): 2650.00 1750.00 *
G04 PCB-Coordinate-Origin: lower left *
%MOIN*%
%FSLAX25Y25*%
%LNFAB*%
%ADD107C,0.0100*%
%ADD106C,0.0075*%
%ADD105C,0.0060*%
%ADD104C,0.0001*%
%ADD103R,0.0080X0.0080*%
G54D103*X17000Y158000D02*Y154800D01*
G54D104*G36*
X16454Y158147D02*X19920Y160146D01*
X20320Y159453D01*
X16853Y157454D01*
X16454Y158147D01*
G37*
G36*
X17147Y157454D02*X13680Y159453D01*
X14080Y160146D01*
X17546Y158147D01*
X17147Y157454D01*
G37*
G54D103*X15400Y158000D02*G75*G03X18600Y158000I1600J0D01*G01*
G75*G03X15400Y158000I-1600J0D01*G01*
X17000Y17000D02*Y13800D01*
G54D104*G36*
X16454Y17147D02*X19920Y19146D01*
X20320Y18453D01*
X16853Y16454D01*
X16454Y17147D01*
G37*
G36*
X17147Y16454D02*X13680Y18453D01*
X14080Y19146D01*
X17546Y17147D01*
X17147Y16454D01*
G37*
G54D103*X15400Y17000D02*G75*G03X18600Y17000I1600J0D01*G01*
G75*G03X15400Y17000I-1600J0D01*G01*
X248000D02*Y13800D01*
G54D104*G36*
X247454Y17147D02*X250920Y19146D01*
X251320Y18453D01*
X247853Y16454D01*
X247454Y17147D01*
G37*
G36*
X248147Y16454D02*X244680Y18453D01*
X245080Y19146D01*
X248546Y17147D01*
X248147Y16454D01*
G37*
G54D103*X246400Y17000D02*G75*G03X249600Y17000I1600J0D01*G01*
G75*G03X246400Y17000I-1600J0D01*G01*
X248000Y158000D02*Y154800D01*
G54D104*G36*
X247454Y158147D02*X250920Y160146D01*
X251320Y159453D01*
X247853Y157454D01*
X247454Y158147D01*
G37*
G36*
X248147Y157454D02*X244680Y159453D01*
X245080Y160146D01*
X248546Y158147D01*
X248147Y157454D01*
G37*
G54D103*X246400Y158000D02*G75*G03X249600Y158000I1600J0D01*G01*
G75*G03X246400Y158000I-1600J0D01*G01*
X15000Y186250D02*Y183050D01*
G54D104*G36*
X14454Y186397D02*X17920Y188396D01*
X18320Y187703D01*
X14853Y185704D01*
X14454Y186397D01*
G37*
G36*
X15147Y185704D02*X11680Y187703D01*
X12080Y188396D01*
X15546Y186397D01*
X15147Y185704D01*
G37*
G54D103*X13400Y186250D02*G75*G03X16600Y186250I1600J0D01*G01*
G75*G03X13400Y186250I-1600J0D01*G01*
G54D105*X135000Y188500D02*X136500Y185500D01*
X138000Y188500D01*
X136500Y185500D02*Y182500D01*
X139800Y185800D02*X142050D01*
X139800Y182500D02*X142800D01*
X139800Y188500D02*Y182500D01*
Y188500D02*X142800D01*
X147600D02*X148350Y187750D01*
X145350Y188500D02*X147600D01*
X144600Y187750D02*X145350Y188500D01*
X144600Y187750D02*Y186250D01*
X145350Y185500D01*
X147600D01*
X148350Y184750D01*
Y183250D01*
X147600Y182500D02*X148350Y183250D01*
X145350Y182500D02*X147600D01*
X144600Y183250D02*X145350Y182500D01*
X98000Y184750D02*X101000Y188500D01*
X98000Y184750D02*X101750D01*
X101000Y188500D02*Y182500D01*
X45000Y183250D02*X45750Y182500D01*
X45000Y187750D02*Y183250D01*
Y187750D02*X45750Y188500D01*
X47250D01*
X48000Y187750D01*
Y183250D01*
X47250Y182500D02*X48000Y183250D01*
X45750Y182500D02*X47250D01*
X45000Y184000D02*X48000Y187000D01*
X49800Y182500D02*X50550D01*
X52350Y187300D02*X53550Y188500D01*
Y182500D01*
X52350D02*X54600D01*
X56400Y187750D02*X57150Y188500D01*
X59400D01*
X60150Y187750D01*
Y186250D01*
X56400Y182500D02*X60150Y186250D01*
X56400Y182500D02*X60150D01*
X62700D02*X64950Y185500D01*
Y187750D02*Y185500D01*
X64200Y188500D02*X64950Y187750D01*
X62700Y188500D02*X64200D01*
X61950Y187750D02*X62700Y188500D01*
X61950Y187750D02*Y186250D01*
X62700Y185500D01*
X64950D01*
X9900Y124100D02*X13100D01*
X9900D02*Y120900D01*
X13100D01*
Y124100D02*Y120900D01*
X9900Y79100D02*X13100D01*
X9900D02*Y75900D01*
X13100D01*
Y79100D02*Y75900D01*
X13400Y202850D02*X16600D01*
X13400D02*Y199650D01*
X16600D01*
Y202850D02*Y199650D01*
X135000Y203500D02*X136500Y200500D01*
X138000Y203500D01*
X136500Y200500D02*Y197500D01*
X139800Y200800D02*X142050D01*
X139800Y197500D02*X142800D01*
X139800Y203500D02*Y197500D01*
Y203500D02*X142800D01*
X147600D02*X148350Y202750D01*
X145350Y203500D02*X147600D01*
X144600Y202750D02*X145350Y203500D01*
X144600Y202750D02*Y201250D01*
X145350Y200500D01*
X147600D01*
X148350Y199750D01*
Y198250D01*
X147600Y197500D02*X148350Y198250D01*
X145350Y197500D02*X147600D01*
X144600Y198250D02*X145350Y197500D01*
X98000Y202750D02*X98750Y203500D01*
X101000D01*
X101750Y202750D01*
Y201250D01*
X98000Y197500D02*X101750Y201250D01*
X98000Y197500D02*X101750D01*
X45000Y198250D02*X45750Y197500D01*
X45000Y202750D02*Y198250D01*
Y202750D02*X45750Y203500D01*
X47250D01*
X48000Y202750D01*
Y198250D01*
X47250Y197500D02*X48000Y198250D01*
X45750Y197500D02*X47250D01*
X45000Y199000D02*X48000Y202000D01*
X49800Y197500D02*X50550D01*
X52350Y202300D02*X53550Y203500D01*
Y197500D01*
X52350D02*X54600D01*
X56400Y202750D02*X57150Y203500D01*
X59400D01*
X60150Y202750D01*
Y201250D01*
X56400Y197500D02*X60150Y201250D01*
X56400Y197500D02*X60150D01*
X61950Y198250D02*X62700Y197500D01*
X61950Y199450D02*Y198250D01*
Y199450D02*X63000Y200500D01*
X63900D01*
X64950Y199450D01*
Y198250D01*
X64200Y197500D02*X64950Y198250D01*
X62700Y197500D02*X64200D01*
X61950Y201550D02*X63000Y200500D01*
X61950Y202750D02*Y201550D01*
Y202750D02*X62700Y203500D01*
X64200D01*
X64950Y202750D01*
Y201550D01*
X63900Y200500D02*X64950Y201550D01*
X23700Y130000D02*G75*G03X25300Y130000I800J0D01*G01*
G75*G03X23700Y130000I-800J0D01*G01*
Y110000D02*G75*G03X25300Y110000I800J0D01*G01*
G75*G03X23700Y110000I-800J0D01*G01*
Y90000D02*G75*G03X25300Y90000I800J0D01*G01*
G75*G03X23700Y90000I-800J0D01*G01*
Y70000D02*G75*G03X25300Y70000I800J0D01*G01*
G75*G03X23700Y70000I-800J0D01*G01*
X14200Y216250D02*G75*G03X15800Y216250I800J0D01*G01*
G75*G03X14200Y216250I-800J0D01*G01*
X135000Y218500D02*X136500Y215500D01*
X138000Y218500D01*
X136500Y215500D02*Y212500D01*
X139800Y215800D02*X142050D01*
X139800Y212500D02*X142800D01*
X139800Y218500D02*Y212500D01*
Y218500D02*X142800D01*
X147600D02*X148350Y217750D01*
X145350Y218500D02*X147600D01*
X144600Y217750D02*X145350Y218500D01*
X144600Y217750D02*Y216250D01*
X145350Y215500D01*
X147600D01*
X148350Y214750D01*
Y213250D01*
X147600Y212500D02*X148350Y213250D01*
X145350Y212500D02*X147600D01*
X144600Y213250D02*X145350Y212500D01*
X98000Y214750D02*X101000Y218500D01*
X98000Y214750D02*X101750D01*
X101000Y218500D02*Y212500D01*
X45000Y213250D02*X45750Y212500D01*
X45000Y217750D02*Y213250D01*
Y217750D02*X45750Y218500D01*
X47250D01*
X48000Y217750D01*
Y213250D01*
X47250Y212500D02*X48000Y213250D01*
X45750Y212500D02*X47250D01*
X45000Y214000D02*X48000Y217000D01*
X49800Y212500D02*X50550D01*
X52350Y213250D02*X53100Y212500D01*
X52350Y217750D02*Y213250D01*
Y217750D02*X53100Y218500D01*
X54600D01*
X55350Y217750D01*
Y213250D01*
X54600Y212500D02*X55350Y213250D01*
X53100Y212500D02*X54600D01*
X52350Y214000D02*X55350Y217000D01*
X57150Y214750D02*X60150Y218500D01*
X57150Y214750D02*X60900D01*
X60150Y218500D02*Y212500D01*
X62700Y213250D02*X63450Y212500D01*
X62700Y214450D02*Y213250D01*
Y214450D02*X63750Y215500D01*
X64650D01*
X65700Y214450D01*
Y213250D01*
X64950Y212500D02*X65700Y213250D01*
X63450Y212500D02*X64950D01*
X62700Y216550D02*X63750Y215500D01*
X62700Y217750D02*Y216550D01*
Y217750D02*X63450Y218500D01*
X64950D01*
X65700Y217750D01*
Y216550D01*
X64650Y215500D02*X65700Y216550D01*
X103300Y139200D02*X105700Y136800D01*
X103300D02*X105700Y139200D01*
X103300Y149200D02*X105700Y146800D01*
X103300D02*X105700Y149200D01*
X103300Y159200D02*X105700Y156800D01*
X103300D02*X105700Y159200D01*
X13800Y232450D02*X16200Y230050D01*
X13800D02*X16200Y232450D01*
X135000Y233500D02*X136500Y230500D01*
X138000Y233500D01*
X136500Y230500D02*Y227500D01*
X139800Y230800D02*X142050D01*
X139800Y227500D02*X142800D01*
X139800Y233500D02*Y227500D01*
Y233500D02*X142800D01*
X147600D02*X148350Y232750D01*
X145350Y233500D02*X147600D01*
X144600Y232750D02*X145350Y233500D01*
X144600Y232750D02*Y231250D01*
X145350Y230500D01*
X147600D01*
X148350Y229750D01*
Y228250D01*
X147600Y227500D02*X148350Y228250D01*
X145350Y227500D02*X147600D01*
X144600Y228250D02*X145350Y227500D01*
X98000Y232750D02*X98750Y233500D01*
X100250D01*
X101000Y232750D01*
X100250Y227500D02*X101000Y228250D01*
X98750Y227500D02*X100250D01*
X98000Y228250D02*X98750Y227500D01*
Y230800D02*X100250D01*
X101000Y232750D02*Y231550D01*
Y230050D02*Y228250D01*
Y230050D02*X100250Y230800D01*
X101000Y231550D02*X100250Y230800D01*
X45000Y228250D02*X45750Y227500D01*
X45000Y232750D02*Y228250D01*
Y232750D02*X45750Y233500D01*
X47250D01*
X48000Y232750D01*
Y228250D01*
X47250Y227500D02*X48000Y228250D01*
X45750Y227500D02*X47250D01*
X45000Y229000D02*X48000Y232000D01*
X49800Y227500D02*X50550D01*
X52350Y228250D02*X53100Y227500D01*
X52350Y232750D02*Y228250D01*
Y232750D02*X53100Y233500D01*
X54600D01*
X55350Y232750D01*
Y228250D01*
X54600Y227500D02*X55350Y228250D01*
X53100Y227500D02*X54600D01*
X52350Y229000D02*X55350Y232000D01*
X57150Y229750D02*X60150Y233500D01*
X57150Y229750D02*X60900D01*
X60150Y233500D02*Y227500D01*
X62700Y233500D02*X65700D01*
X62700D02*Y230500D01*
X63450Y231250D01*
X64950D01*
X65700Y230500D01*
Y228250D01*
X64950Y227500D02*X65700Y228250D01*
X63450Y227500D02*X64950D01*
X62700Y228250D02*X63450Y227500D01*
X36500Y119100D02*Y115900D01*
X34900Y117500D02*X38100D01*
X46500Y114100D02*Y110900D01*
X44900Y112500D02*X48100D01*
X36500Y109100D02*Y105900D01*
X34900Y107500D02*X38100D01*
X46500Y104100D02*Y100900D01*
X44900Y102500D02*X48100D01*
X36500Y99100D02*Y95900D01*
X34900Y97500D02*X38100D01*
X46500Y94100D02*Y90900D01*
X44900Y92500D02*X48100D01*
X36500Y89100D02*Y85900D01*
X34900Y87500D02*X38100D01*
X46500Y84100D02*Y80900D01*
X44900Y82500D02*X48100D01*
X15000Y247850D02*Y244650D01*
X13400Y246250D02*X16600D01*
X135000Y248500D02*X136500Y245500D01*
X138000Y248500D01*
X136500Y245500D02*Y242500D01*
X139800Y245800D02*X142050D01*
X139800Y242500D02*X142800D01*
X139800Y248500D02*Y242500D01*
Y248500D02*X142800D01*
X147600D02*X148350Y247750D01*
X145350Y248500D02*X147600D01*
X144600Y247750D02*X145350Y248500D01*
X144600Y247750D02*Y246250D01*
X145350Y245500D01*
X147600D01*
X148350Y244750D01*
Y243250D01*
X147600Y242500D02*X148350Y243250D01*
X145350Y242500D02*X147600D01*
X144600Y243250D02*X145350Y242500D01*
X98000Y243250D02*X98750Y242500D01*
X98000Y244450D02*Y243250D01*
Y244450D02*X99050Y245500D01*
X99950D01*
X101000Y244450D01*
Y243250D01*
X100250Y242500D02*X101000Y243250D01*
X98750Y242500D02*X100250D01*
X98000Y246550D02*X99050Y245500D01*
X98000Y247750D02*Y246550D01*
Y247750D02*X98750Y248500D01*
X100250D01*
X101000Y247750D01*
Y246550D01*
X99950Y245500D02*X101000Y246550D01*
X45000Y243250D02*X45750Y242500D01*
X45000Y247750D02*Y243250D01*
Y247750D02*X45750Y248500D01*
X47250D01*
X48000Y247750D01*
Y243250D01*
X47250Y242500D02*X48000Y243250D01*
X45750Y242500D02*X47250D01*
X45000Y244000D02*X48000Y247000D01*
X49800Y242500D02*X50550D01*
X52350Y243250D02*X53100Y242500D01*
X52350Y247750D02*Y243250D01*
Y247750D02*X53100Y248500D01*
X54600D01*
X55350Y247750D01*
Y243250D01*
X54600Y242500D02*X55350Y243250D01*
X53100Y242500D02*X54600D01*
X52350Y244000D02*X55350Y247000D01*
X57150Y247750D02*X57900Y248500D01*
X59400D01*
X60150Y247750D01*
X59400Y242500D02*X60150Y243250D01*
X57900Y242500D02*X59400D01*
X57150Y243250D02*X57900Y242500D01*
Y245800D02*X59400D01*
X60150Y247750D02*Y246550D01*
Y245050D02*Y243250D01*
Y245050D02*X59400Y245800D01*
X60150Y246550D02*X59400Y245800D01*
X61950Y243250D02*X62700Y242500D01*
X61950Y247750D02*Y243250D01*
Y247750D02*X62700Y248500D01*
X64200D01*
X64950Y247750D01*
Y243250D01*
X64200Y242500D02*X64950Y243250D01*
X62700Y242500D02*X64200D01*
X61950Y244000D02*X64950Y247000D01*
X60500Y142500D02*Y140900D01*
Y142500D02*X61887Y143300D01*
X60500Y142500D02*X59113Y143300D01*
X74500Y142500D02*Y140900D01*
Y142500D02*X75887Y143300D01*
X74500Y142500D02*X73113Y143300D01*
X60500Y147000D02*Y145400D01*
Y147000D02*X61887Y147800D01*
X60500Y147000D02*X59113Y147800D01*
X74500Y147000D02*Y145400D01*
Y147000D02*X75887Y147800D01*
X74500Y147000D02*X73113Y147800D01*
X34000Y73500D02*Y71900D01*
Y73500D02*X35387Y74300D01*
X34000Y73500D02*X32613Y74300D01*
X77000Y61500D02*Y59900D01*
Y61500D02*X78387Y62300D01*
X77000Y61500D02*X75613Y62300D01*
X111000Y46500D02*Y44900D01*
Y46500D02*X112387Y47300D01*
X111000Y46500D02*X109613Y47300D01*
X14500Y55500D02*Y53900D01*
Y55500D02*X15887Y56300D01*
X14500Y55500D02*X13113Y56300D01*
X119448Y46500D02*Y44900D01*
Y46500D02*X120835Y47300D01*
X119448Y46500D02*X118061Y47300D01*
X127500Y49901D02*Y48301D01*
Y49901D02*X128887Y50701D01*
X127500Y49901D02*X126113Y50701D01*
X90500Y107500D02*Y105900D01*
Y107500D02*X91887Y108300D01*
X90500Y107500D02*X89113Y108300D01*
X90500Y102500D02*Y100900D01*
Y102500D02*X91887Y103300D01*
X90500Y102500D02*X89113Y103300D01*
X90500Y92500D02*Y90900D01*
Y92500D02*X91887Y93300D01*
X90500Y92500D02*X89113Y93300D01*
X122598Y53500D02*Y51900D01*
Y53500D02*X123985Y54300D01*
X122598Y53500D02*X121211Y54300D01*
X90500Y97500D02*Y95900D01*
Y97500D02*X91887Y98300D01*
X90500Y97500D02*X89113Y98300D01*
X126500Y66500D02*Y64900D01*
Y66500D02*X127887Y67300D01*
X126500Y66500D02*X125113Y67300D01*
X122000Y25500D02*Y23900D01*
Y25500D02*X123387Y26300D01*
X122000Y25500D02*X120613Y26300D01*
X122000Y21000D02*Y19400D01*
Y21000D02*X123387Y21800D01*
X122000Y21000D02*X120613Y21800D01*
X117500Y21000D02*Y19400D01*
Y21000D02*X118887Y21800D01*
X117500Y21000D02*X116113Y21800D01*
X126500Y21000D02*Y19400D01*
Y21000D02*X127887Y21800D01*
X126500Y21000D02*X125113Y21800D01*
X54500Y124000D02*Y122400D01*
Y124000D02*X55887Y124800D01*
X54500Y124000D02*X53113Y124800D01*
X54500Y119000D02*Y117400D01*
Y119000D02*X55887Y119800D01*
X54500Y119000D02*X53113Y119800D01*
X54500Y114000D02*Y112400D01*
Y114000D02*X55887Y114800D01*
X54500Y114000D02*X53113Y114800D01*
X49000Y121500D02*Y119900D01*
Y121500D02*X50387Y122300D01*
X49000Y121500D02*X47613Y122300D01*
X54500Y109000D02*Y107400D01*
Y109000D02*X55887Y109800D01*
X54500Y109000D02*X53113Y109800D01*
X59500Y114000D02*Y112400D01*
Y114000D02*X60887Y114800D01*
X59500Y114000D02*X58113Y114800D01*
X87000Y135500D02*Y133900D01*
Y135500D02*X88387Y136300D01*
X87000Y135500D02*X85613Y136300D01*
X82500Y135500D02*Y133900D01*
Y135500D02*X83887Y136300D01*
X82500Y135500D02*X81113Y136300D01*
X96000Y135500D02*Y133900D01*
Y135500D02*X97387Y136300D01*
X96000Y135500D02*X94613Y136300D01*
X91500Y135500D02*Y133900D01*
Y135500D02*X92887Y136300D01*
X91500Y135500D02*X90113Y136300D01*
X59500Y87500D02*Y85900D01*
Y87500D02*X60887Y88300D01*
X59500Y87500D02*X58113Y88300D01*
X54500Y82500D02*Y80900D01*
Y82500D02*X55887Y83300D01*
X54500Y82500D02*X53113Y83300D01*
X54500Y87500D02*Y85900D01*
Y87500D02*X55887Y88300D01*
X54500Y87500D02*X53113Y88300D01*
X39500Y40000D02*Y38400D01*
Y40000D02*X40887Y40800D01*
X39500Y40000D02*X38113Y40800D01*
X59500Y71000D02*Y69400D01*
Y71000D02*X60887Y71800D01*
X59500Y71000D02*X58113Y71800D01*
X63500Y40500D02*Y38900D01*
Y40500D02*X64887Y41300D01*
X63500Y40500D02*X62113Y41300D01*
X63500Y45000D02*Y43400D01*
Y45000D02*X64887Y45800D01*
X63500Y45000D02*X62113Y45800D01*
X44500Y18000D02*Y16400D01*
Y18000D02*X45887Y18800D01*
X44500Y18000D02*X43113Y18800D01*
X88500Y24500D02*Y22900D01*
Y24500D02*X89887Y25300D01*
X88500Y24500D02*X87113Y25300D01*
X64500Y31500D02*Y29900D01*
Y31500D02*X65887Y32300D01*
X64500Y31500D02*X63113Y32300D01*
X195000Y51000D02*Y49400D01*
Y51000D02*X196387Y51800D01*
X195000Y51000D02*X193613Y51800D01*
X170500Y100000D02*Y98400D01*
Y100000D02*X171887Y100800D01*
X170500Y100000D02*X169113Y100800D01*
X117000Y97000D02*Y95400D01*
Y97000D02*X118387Y97800D01*
X117000Y97000D02*X115613Y97800D01*
X121500Y96000D02*Y94400D01*
Y96000D02*X122887Y96800D01*
X121500Y96000D02*X120113Y96800D01*
X126000Y95000D02*Y93400D01*
Y95000D02*X127387Y95800D01*
X126000Y95000D02*X124613Y95800D01*
X130500Y94000D02*Y92400D01*
Y94000D02*X131887Y94800D01*
X130500Y94000D02*X129113Y94800D01*
X135000Y93000D02*Y91400D01*
Y93000D02*X136387Y93800D01*
X135000Y93000D02*X133613Y93800D01*
X153000Y119685D02*Y118085D01*
Y119685D02*X154387Y120485D01*
X153000Y119685D02*X151613Y120485D01*
X213500Y61000D02*Y59400D01*
Y61000D02*X214887Y61800D01*
X213500Y61000D02*X212113Y61800D01*
X163984Y127559D02*Y125959D01*
Y127559D02*X165371Y128359D01*
X163984Y127559D02*X162598Y128359D01*
X217000Y56000D02*Y54400D01*
Y56000D02*X218387Y56800D01*
X217000Y56000D02*X215613Y56800D01*
X152500Y143000D02*Y141400D01*
Y143000D02*X153887Y143800D01*
X152500Y143000D02*X151113Y143800D01*
X233500Y128000D02*Y126400D01*
Y128000D02*X234887Y128800D01*
X233500Y128000D02*X232113Y128800D01*
X233500Y57500D02*Y55900D01*
Y57500D02*X234887Y58300D01*
X233500Y57500D02*X232113Y58300D01*
X215000Y40500D02*Y38900D01*
Y40500D02*X216387Y41300D01*
X215000Y40500D02*X213613Y41300D01*
X205000Y40500D02*Y38900D01*
Y40500D02*X206387Y41300D01*
X205000Y40500D02*X203613Y41300D01*
X195000Y40500D02*Y38900D01*
Y40500D02*X196387Y41300D01*
X195000Y40500D02*X193613Y41300D01*
X185000Y40500D02*Y38900D01*
Y40500D02*X186387Y41300D01*
X185000Y40500D02*X183613Y41300D01*
X175000Y40500D02*Y38900D01*
Y40500D02*X176387Y41300D01*
X175000Y40500D02*X173613Y41300D01*
X171000Y51000D02*Y49400D01*
Y51000D02*X172387Y51800D01*
X171000Y51000D02*X169613Y51800D01*
X130500Y39075D02*Y37475D01*
Y39075D02*X131887Y39875D01*
X130500Y39075D02*X129113Y39875D01*
X157185Y106000D02*Y104400D01*
Y106000D02*X158572Y106800D01*
X157185Y106000D02*X155798Y106800D01*
X205500Y112000D02*Y110400D01*
Y112000D02*X206887Y112800D01*
X205500Y112000D02*X204113Y112800D01*
X190500Y100000D02*Y98400D01*
Y100000D02*X191887Y100800D01*
X190500Y100000D02*X189113Y100800D01*
X185000Y115652D02*Y114052D01*
Y115652D02*X186387Y116452D01*
X185000Y115652D02*X183613Y116452D01*
X136000Y102500D02*Y100900D01*
Y102500D02*X137387Y103300D01*
X136000Y102500D02*X134613Y103300D01*
X225000Y131500D02*Y129900D01*
Y131500D02*X226387Y132300D01*
X225000Y131500D02*X223613Y132300D01*
X221500Y135000D02*Y133400D01*
Y135000D02*X222887Y135800D01*
X221500Y135000D02*X220113Y135800D01*
X148000Y62500D02*Y60900D01*
Y62500D02*X149387Y63300D01*
X148000Y62500D02*X146613Y63300D01*
X67000Y14000D02*Y12400D01*
Y14000D02*X68387Y14800D01*
X67000Y14000D02*X65613Y14800D01*
X172000Y10000D02*Y8400D01*
Y10000D02*X173387Y10800D01*
X172000Y10000D02*X170613Y10800D01*
X172000Y25500D02*Y23900D01*
Y25500D02*X173387Y26300D01*
X172000Y25500D02*X170613Y26300D01*
X98000Y123500D02*Y121900D01*
Y123500D02*X99387Y124300D01*
X98000Y123500D02*X96613Y124300D01*
X97457Y112043D02*Y110443D01*
Y112043D02*X98844Y112843D01*
X97457Y112043D02*X96070Y112843D01*
X105000Y105000D02*Y103400D01*
Y105000D02*X106387Y105800D01*
X105000Y105000D02*X103613Y105800D01*
X101000Y108500D02*Y106900D01*
Y108500D02*X102387Y109300D01*
X101000Y108500D02*X99613Y109300D01*
X108000Y109500D02*Y107900D01*
Y109500D02*X109387Y110300D01*
X108000Y109500D02*X106613Y110300D01*
X76500Y111000D02*Y109400D01*
Y111000D02*X77887Y111800D01*
X76500Y111000D02*X75113Y111800D01*
X123000Y158000D02*Y156400D01*
Y158000D02*X124387Y158800D01*
X123000Y158000D02*X121613Y158800D01*
X148000Y143000D02*Y141400D01*
Y143000D02*X149387Y143800D01*
X148000Y143000D02*X146613Y143800D01*
X143500Y143000D02*Y141400D01*
Y143000D02*X144887Y143800D01*
X143500Y143000D02*X142113Y143800D01*
X139000Y143000D02*Y141400D01*
Y143000D02*X140387Y143800D01*
X139000Y143000D02*X137613Y143800D01*
X15000Y261250D02*Y259650D01*
Y261250D02*X16387Y262050D01*
X15000Y261250D02*X13613Y262050D01*
X135000Y263500D02*X136500Y260500D01*
X138000Y263500D01*
X136500Y260500D02*Y257500D01*
X139800Y260800D02*X142050D01*
X139800Y257500D02*X142800D01*
X139800Y263500D02*Y257500D01*
Y263500D02*X142800D01*
X147600D02*X148350Y262750D01*
X145350Y263500D02*X147600D01*
X144600Y262750D02*X145350Y263500D01*
X144600Y262750D02*Y261250D01*
X145350Y260500D01*
X147600D01*
X148350Y259750D01*
Y258250D01*
X147600Y257500D02*X148350Y258250D01*
X145350Y257500D02*X147600D01*
X144600Y258250D02*X145350Y257500D01*
X98000Y258250D02*X98750Y257500D01*
X98000Y259450D02*Y258250D01*
Y259450D02*X99050Y260500D01*
X99950D01*
X101000Y259450D01*
Y258250D01*
X100250Y257500D02*X101000Y258250D01*
X98750Y257500D02*X100250D01*
X98000Y261550D02*X99050Y260500D01*
X98000Y262750D02*Y261550D01*
Y262750D02*X98750Y263500D01*
X100250D01*
X101000Y262750D01*
Y261550D01*
X99950Y260500D02*X101000Y261550D01*
X102800Y262750D02*X103550Y263500D01*
X105800D01*
X106550Y262750D01*
Y261250D01*
X102800Y257500D02*X106550Y261250D01*
X102800Y257500D02*X106550D01*
X45000Y258250D02*X45750Y257500D01*
X45000Y262750D02*Y258250D01*
Y262750D02*X45750Y263500D01*
X47250D01*
X48000Y262750D01*
Y258250D01*
X47250Y257500D02*X48000Y258250D01*
X45750Y257500D02*X47250D01*
X45000Y259000D02*X48000Y262000D01*
X49800Y257500D02*X50550D01*
X52350Y258250D02*X53100Y257500D01*
X52350Y262750D02*Y258250D01*
Y262750D02*X53100Y263500D01*
X54600D01*
X55350Y262750D01*
Y258250D01*
X54600Y257500D02*X55350Y258250D01*
X53100Y257500D02*X54600D01*
X52350Y259000D02*X55350Y262000D01*
X57150Y262750D02*X57900Y263500D01*
X60150D01*
X60900Y262750D01*
Y261250D01*
X57150Y257500D02*X60900Y261250D01*
X57150Y257500D02*X60900D01*
X62700Y258250D02*X63450Y257500D01*
X62700Y262750D02*Y258250D01*
Y262750D02*X63450Y263500D01*
X64950D01*
X65700Y262750D01*
Y258250D01*
X64950Y257500D02*X65700Y258250D01*
X63450Y257500D02*X64950D01*
X62700Y259000D02*X65700Y262000D01*
X3000Y278500D02*X3750Y277750D01*
X750Y278500D02*X3000D01*
X0Y277750D02*X750Y278500D01*
X0Y277750D02*Y276250D01*
X750Y275500D01*
X3000D01*
X3750Y274750D01*
Y273250D01*
X3000Y272500D02*X3750Y273250D01*
X750Y272500D02*X3000D01*
X0Y273250D02*X750Y272500D01*
X5550Y275500D02*Y273250D01*
X6300Y272500D01*
X8550Y275500D02*Y271000D01*
X7800Y270250D02*X8550Y271000D01*
X6300Y270250D02*X7800D01*
X5550Y271000D02*X6300Y270250D01*
Y272500D02*X7800D01*
X8550Y273250D01*
X11100Y274750D02*Y272500D01*
Y274750D02*X11850Y275500D01*
X12600D01*
X13350Y274750D01*
Y272500D01*
Y274750D02*X14100Y275500D01*
X14850D01*
X15600Y274750D01*
Y272500D01*
X10350Y275500D02*X11100Y274750D01*
X17400Y278500D02*Y272500D01*
Y273250D02*X18150Y272500D01*
X19650D01*
X20400Y273250D01*
Y274750D02*Y273250D01*
X19650Y275500D02*X20400Y274750D01*
X18150Y275500D02*X19650D01*
X17400Y274750D02*X18150Y275500D01*
X22200Y274750D02*Y273250D01*
Y274750D02*X22950Y275500D01*
X24450D01*
X25200Y274750D01*
Y273250D01*
X24450Y272500D02*X25200Y273250D01*
X22950Y272500D02*X24450D01*
X22200Y273250D02*X22950Y272500D01*
X27000Y278500D02*Y273250D01*
X27750Y272500D01*
X0Y269250D02*X29250D01*
X41750Y278500D02*Y272500D01*
X43700Y278500D02*X44750Y277450D01*
Y273550D01*
X43700Y272500D02*X44750Y273550D01*
X41000Y272500D02*X43700D01*
X41000Y278500D02*X43700D01*
G54D106*X46550Y277000D02*Y276850D01*
G54D105*Y274750D02*Y272500D01*
X50300Y275500D02*X51050Y274750D01*
X48800Y275500D02*X50300D01*
X48050Y274750D02*X48800Y275500D01*
X48050Y274750D02*Y273250D01*
X48800Y272500D01*
X51050Y275500D02*Y273250D01*
X51800Y272500D01*
X48800D02*X50300D01*
X51050Y273250D01*
X54350Y274750D02*Y272500D01*
Y274750D02*X55100Y275500D01*
X55850D01*
X56600Y274750D01*
Y272500D01*
Y274750D02*X57350Y275500D01*
X58100D01*
X58850Y274750D01*
Y272500D01*
X53600Y275500D02*X54350Y274750D01*
X60650Y272500D02*X61400D01*
X65900Y273250D02*X66650Y272500D01*
X65900Y277750D02*X66650Y278500D01*
X65900Y277750D02*Y273250D01*
X68450Y278500D02*X69950D01*
X69200D02*Y272500D01*
X68450D02*X69950D01*
X72500Y274750D02*Y272500D01*
Y274750D02*X73250Y275500D01*
X74000D01*
X74750Y274750D01*
Y272500D01*
X71750Y275500D02*X72500Y274750D01*
X77300Y275500D02*X79550D01*
X76550Y274750D02*X77300Y275500D01*
X76550Y274750D02*Y273250D01*
X77300Y272500D01*
X79550D01*
X81350Y278500D02*Y272500D01*
Y274750D02*X82100Y275500D01*
X83600D01*
X84350Y274750D01*
Y272500D01*
X86150Y278500D02*X86900Y277750D01*
Y273250D01*
X86150Y272500D02*X86900Y273250D01*
X41000Y269250D02*X88700D01*
X96050Y272500D02*X98000D01*
X95000Y273550D02*X96050Y272500D01*
X95000Y277450D02*Y273550D01*
Y277450D02*X96050Y278500D01*
X98000D01*
X99800Y274750D02*Y273250D01*
Y274750D02*X100550Y275500D01*
X102050D01*
X102800Y274750D01*
Y273250D01*
X102050Y272500D02*X102800Y273250D01*
X100550Y272500D02*X102050D01*
X99800Y273250D02*X100550Y272500D01*
X104600Y275500D02*Y273250D01*
X105350Y272500D01*
X106850D01*
X107600Y273250D01*
Y275500D02*Y273250D01*
X110150Y274750D02*Y272500D01*
Y274750D02*X110900Y275500D01*
X111650D01*
X112400Y274750D01*
Y272500D01*
X109400Y275500D02*X110150Y274750D01*
X114950Y278500D02*Y273250D01*
X115700Y272500D01*
X114200Y276250D02*X115700D01*
X95000Y269250D02*X117200D01*
X130750Y278500D02*Y272500D01*
X130000Y278500D02*X133000D01*
X133750Y277750D01*
Y276250D01*
X133000Y275500D02*X133750Y276250D01*
X130750Y275500D02*X133000D01*
X135550Y278500D02*Y273250D01*
X136300Y272500D01*
X140050Y275500D02*X140800Y274750D01*
X138550Y275500D02*X140050D01*
X137800Y274750D02*X138550Y275500D01*
X137800Y274750D02*Y273250D01*
X138550Y272500D01*
X140800Y275500D02*Y273250D01*
X141550Y272500D01*
X138550D02*X140050D01*
X140800Y273250D01*
X144100Y278500D02*Y273250D01*
X144850Y272500D01*
X143350Y276250D02*X144850D01*
X147100Y272500D02*X149350D01*
X146350Y273250D02*X147100Y272500D01*
X146350Y274750D02*Y273250D01*
Y274750D02*X147100Y275500D01*
X148600D01*
X149350Y274750D01*
X146350Y274000D02*X149350D01*
Y274750D02*Y274000D01*
X154150Y278500D02*Y272500D01*
X153400D02*X154150Y273250D01*
X151900Y272500D02*X153400D01*
X151150Y273250D02*X151900Y272500D01*
X151150Y274750D02*Y273250D01*
Y274750D02*X151900Y275500D01*
X153400D01*
X154150Y274750D01*
X157450Y275500D02*Y274750D01*
Y273250D02*Y272500D01*
X155950Y277750D02*Y277000D01*
Y277750D02*X156700Y278500D01*
X158200D01*
X158950Y277750D01*
Y277000D01*
X157450Y275500D02*X158950Y277000D01*
X130000Y269250D02*X160750D01*
X0Y293500D02*X3000D01*
X1500D02*Y287500D01*
X4800Y293500D02*Y287500D01*
Y289750D02*X5550Y290500D01*
X7050D01*
X7800Y289750D01*
Y287500D01*
X10350D02*X12600D01*
X9600Y288250D02*X10350Y287500D01*
X9600Y289750D02*Y288250D01*
Y289750D02*X10350Y290500D01*
X11850D01*
X12600Y289750D01*
X9600Y289000D02*X12600D01*
Y289750D02*Y289000D01*
X15150Y289750D02*Y287500D01*
Y289750D02*X15900Y290500D01*
X17400D01*
X14400D02*X15150Y289750D01*
X19950Y287500D02*X22200D01*
X19200Y288250D02*X19950Y287500D01*
X19200Y289750D02*Y288250D01*
Y289750D02*X19950Y290500D01*
X21450D01*
X22200Y289750D01*
X19200Y289000D02*X22200D01*
Y289750D02*Y289000D01*
X28950Y290500D02*X29700Y289750D01*
X27450Y290500D02*X28950D01*
X26700Y289750D02*X27450Y290500D01*
X26700Y289750D02*Y288250D01*
X27450Y287500D01*
X29700Y290500D02*Y288250D01*
X30450Y287500D01*
X27450D02*X28950D01*
X29700Y288250D01*
X33000Y289750D02*Y287500D01*
Y289750D02*X33750Y290500D01*
X35250D01*
X32250D02*X33000Y289750D01*
X37800Y287500D02*X40050D01*
X37050Y288250D02*X37800Y287500D01*
X37050Y289750D02*Y288250D01*
Y289750D02*X37800Y290500D01*
X39300D01*
X40050Y289750D01*
X37050Y289000D02*X40050D01*
Y289750D02*Y289000D01*
X46800Y293500D02*X47550Y292750D01*
X45300Y293500D02*X46800D01*
X44550Y292750D02*X45300Y293500D01*
X44550Y292750D02*Y288250D01*
X45300Y287500D01*
X46800Y290800D02*X47550Y290050D01*
X44550Y290800D02*X46800D01*
X45300Y287500D02*X46800D01*
X47550Y288250D01*
Y290050D02*Y288250D01*
X55050Y293500D02*Y287500D01*
X54300D02*X55050Y288250D01*
X52800Y287500D02*X54300D01*
X52050Y288250D02*X52800Y287500D01*
X52050Y289750D02*Y288250D01*
Y289750D02*X52800Y290500D01*
X54300D01*
X55050Y289750D01*
G54D106*X56850Y292000D02*Y291850D01*
G54D105*Y289750D02*Y287500D01*
X59100Y292750D02*Y287500D01*
Y292750D02*X59850Y293500D01*
X60600D01*
X58350Y290500D02*X59850D01*
X62850Y292750D02*Y287500D01*
Y292750D02*X63600Y293500D01*
X64350D01*
X62100Y290500D02*X63600D01*
X66600Y287500D02*X68850D01*
X65850Y288250D02*X66600Y287500D01*
X65850Y289750D02*Y288250D01*
Y289750D02*X66600Y290500D01*
X68100D01*
X68850Y289750D01*
X65850Y289000D02*X68850D01*
Y289750D02*Y289000D01*
X71400Y289750D02*Y287500D01*
Y289750D02*X72150Y290500D01*
X73650D01*
X70650D02*X71400Y289750D01*
X76200Y287500D02*X78450D01*
X75450Y288250D02*X76200Y287500D01*
X75450Y289750D02*Y288250D01*
Y289750D02*X76200Y290500D01*
X77700D01*
X78450Y289750D01*
X75450Y289000D02*X78450D01*
Y289750D02*Y289000D01*
X81000Y289750D02*Y287500D01*
Y289750D02*X81750Y290500D01*
X82500D01*
X83250Y289750D01*
Y287500D01*
X80250Y290500D02*X81000Y289750D01*
X85800Y293500D02*Y288250D01*
X86550Y287500D01*
X85050Y291250D02*X86550D01*
X93750Y293500D02*Y287500D01*
X93000D02*X93750Y288250D01*
X91500Y287500D02*X93000D01*
X90750Y288250D02*X91500Y287500D01*
X90750Y289750D02*Y288250D01*
Y289750D02*X91500Y290500D01*
X93000D01*
X93750Y289750D01*
X96300D02*Y287500D01*
Y289750D02*X97050Y290500D01*
X98550D01*
X95550D02*X96300Y289750D01*
G54D106*X100350Y292000D02*Y291850D01*
G54D105*Y289750D02*Y287500D01*
X101850Y293500D02*Y288250D01*
X102600Y287500D01*
X104100Y293500D02*Y288250D01*
X104850Y287500D01*
X109800D02*X112050D01*
X112800Y288250D01*
X112050Y289000D02*X112800Y288250D01*
X109800Y289000D02*X112050D01*
X109050Y289750D02*X109800Y289000D01*
X109050Y289750D02*X109800Y290500D01*
X112050D01*
X112800Y289750D01*
X109050Y288250D02*X109800Y287500D01*
G54D106*X114600Y292000D02*Y291850D01*
G54D105*Y289750D02*Y287500D01*
X116100Y290500D02*X119100D01*
X116100Y287500D02*X119100Y290500D01*
X116100Y287500D02*X119100D01*
X121650D02*X123900D01*
X120900Y288250D02*X121650Y287500D01*
X120900Y289750D02*Y288250D01*
Y289750D02*X121650Y290500D01*
X123150D01*
X123900Y289750D01*
X120900Y289000D02*X123900D01*
Y289750D02*Y289000D01*
X126450Y287500D02*X128700D01*
X129450Y288250D01*
X128700Y289000D02*X129450Y288250D01*
X126450Y289000D02*X128700D01*
X125700Y289750D02*X126450Y289000D01*
X125700Y289750D02*X126450Y290500D01*
X128700D01*
X129450Y289750D01*
X125700Y288250D02*X126450Y287500D01*
X133950Y290500D02*Y288250D01*
X134700Y287500D01*
X136200D01*
X136950Y288250D01*
Y290500D02*Y288250D01*
X139500Y287500D02*X141750D01*
X142500Y288250D01*
X141750Y289000D02*X142500Y288250D01*
X139500Y289000D02*X141750D01*
X138750Y289750D02*X139500Y289000D01*
X138750Y289750D02*X139500Y290500D01*
X141750D01*
X142500Y289750D01*
X138750Y288250D02*X139500Y287500D01*
X145050D02*X147300D01*
X144300Y288250D02*X145050Y287500D01*
X144300Y289750D02*Y288250D01*
Y289750D02*X145050Y290500D01*
X146550D01*
X147300Y289750D01*
X144300Y289000D02*X147300D01*
Y289750D02*Y289000D01*
X152100Y293500D02*Y287500D01*
X151350D02*X152100Y288250D01*
X149850Y287500D02*X151350D01*
X149100Y288250D02*X149850Y287500D01*
X149100Y289750D02*Y288250D01*
Y289750D02*X149850Y290500D01*
X151350D01*
X152100Y289750D01*
G54D106*X156600Y292000D02*Y291850D01*
G54D105*Y289750D02*Y287500D01*
X158850Y289750D02*Y287500D01*
Y289750D02*X159600Y290500D01*
X160350D01*
X161100Y289750D01*
Y287500D01*
X158100Y290500D02*X158850Y289750D01*
X166350Y293500D02*Y288250D01*
X167100Y287500D01*
X165600Y291250D02*X167100D01*
X168600Y293500D02*Y287500D01*
Y289750D02*X169350Y290500D01*
X170850D01*
X171600Y289750D01*
Y287500D01*
G54D106*X173400Y292000D02*Y291850D01*
G54D105*Y289750D02*Y287500D01*
X175650D02*X177900D01*
X178650Y288250D01*
X177900Y289000D02*X178650Y288250D01*
X175650Y289000D02*X177900D01*
X174900Y289750D02*X175650Y289000D01*
X174900Y289750D02*X175650Y290500D01*
X177900D01*
X178650Y289750D01*
X174900Y288250D02*X175650Y287500D01*
X183150Y293500D02*Y288250D01*
X183900Y287500D01*
X187650Y290500D02*X188400Y289750D01*
X186150Y290500D02*X187650D01*
X185400Y289750D02*X186150Y290500D01*
X185400Y289750D02*Y288250D01*
X186150Y287500D01*
X188400Y290500D02*Y288250D01*
X189150Y287500D01*
X186150D02*X187650D01*
X188400Y288250D01*
X190950Y290500D02*Y288250D01*
X191700Y287500D01*
X193950Y290500D02*Y286000D01*
X193200Y285250D02*X193950Y286000D01*
X191700Y285250D02*X193200D01*
X190950Y286000D02*X191700Y285250D01*
Y287500D02*X193200D01*
X193950Y288250D01*
X195750Y289750D02*Y288250D01*
Y289750D02*X196500Y290500D01*
X198000D01*
X198750Y289750D01*
Y288250D01*
X198000Y287500D02*X198750Y288250D01*
X196500Y287500D02*X198000D01*
X195750Y288250D02*X196500Y287500D01*
X200550Y290500D02*Y288250D01*
X201300Y287500D01*
X202800D01*
X203550Y288250D01*
Y290500D02*Y288250D01*
X206100Y293500D02*Y288250D01*
X206850Y287500D01*
X205350Y291250D02*X206850D01*
X208350Y286000D02*X209850Y287500D01*
X214350Y292300D02*X215550Y293500D01*
Y287500D01*
X214350D02*X216600D01*
X218400Y288250D02*X219150Y287500D01*
X218400Y292750D02*Y288250D01*
Y292750D02*X219150Y293500D01*
X220650D01*
X221400Y292750D01*
Y288250D01*
X220650Y287500D02*X221400Y288250D01*
X219150Y287500D02*X220650D01*
X218400Y289000D02*X221400Y292000D01*
X223200Y292750D02*X223950Y293500D01*
X225450D01*
X226200Y292750D01*
X225450Y287500D02*X226200Y288250D01*
X223950Y287500D02*X225450D01*
X223200Y288250D02*X223950Y287500D01*
Y290800D02*X225450D01*
X226200Y292750D02*Y291550D01*
Y290050D02*Y288250D01*
Y290050D02*X225450Y290800D01*
X226200Y291550D02*X225450Y290800D01*
X230700Y293500D02*Y287500D01*
Y289750D02*X231450Y290500D01*
X232950D01*
X233700Y289750D01*
Y287500D01*
X235500Y289750D02*Y288250D01*
Y289750D02*X236250Y290500D01*
X237750D01*
X238500Y289750D01*
Y288250D01*
X237750Y287500D02*X238500Y288250D01*
X236250Y287500D02*X237750D01*
X235500Y288250D02*X236250Y287500D01*
X240300Y293500D02*Y288250D01*
X241050Y287500D01*
X243300D02*X245550D01*
X242550Y288250D02*X243300Y287500D01*
X242550Y289750D02*Y288250D01*
Y289750D02*X243300Y290500D01*
X244800D01*
X245550Y289750D01*
X242550Y289000D02*X245550D01*
Y289750D02*Y289000D01*
X248100Y287500D02*X250350D01*
X251100Y288250D01*
X250350Y289000D02*X251100Y288250D01*
X248100Y289000D02*X250350D01*
X247350Y289750D02*X248100Y289000D01*
X247350Y289750D02*X248100Y290500D01*
X250350D01*
X251100Y289750D01*
X247350Y288250D02*X248100Y287500D01*
X256350Y293500D02*Y288250D01*
X257100Y287500D01*
X255600Y291250D02*X257100D01*
X258600Y289750D02*Y288250D01*
Y289750D02*X259350Y290500D01*
X260850D01*
X261600Y289750D01*
Y288250D01*
X260850Y287500D02*X261600Y288250D01*
X259350Y287500D02*X260850D01*
X258600Y288250D02*X259350Y287500D01*
X264150Y293500D02*Y288250D01*
X264900Y287500D01*
X263400Y291250D02*X264900D01*
X268650Y290500D02*X269400Y289750D01*
X267150Y290500D02*X268650D01*
X266400Y289750D02*X267150Y290500D01*
X266400Y289750D02*Y288250D01*
X267150Y287500D01*
X269400Y290500D02*Y288250D01*
X270150Y287500D01*
X267150D02*X268650D01*
X269400Y288250D01*
X271950Y293500D02*Y288250D01*
X272700Y287500D01*
G54D107*X0Y175000D02*X265000D01*
Y0D01*
X0D02*Y175000D01*
X265000Y0D02*X0D01*
G54D105*X46175Y-9500D02*X49175D01*
X49925Y-8750D01*
Y-6950D02*Y-8750D01*
X49175Y-6200D02*X49925Y-6950D01*
X46925Y-6200D02*X49175D01*
X46925Y-3500D02*Y-9500D01*
X46175Y-3500D02*X49175D01*
X49925Y-4250D01*
Y-5450D01*
X49175Y-6200D02*X49925Y-5450D01*
X51725Y-7250D02*Y-8750D01*
Y-7250D02*X52475Y-6500D01*
X53975D01*
X54725Y-7250D01*
Y-8750D01*
X53975Y-9500D02*X54725Y-8750D01*
X52475Y-9500D02*X53975D01*
X51725Y-8750D02*X52475Y-9500D01*
X58775Y-6500D02*X59525Y-7250D01*
X57275Y-6500D02*X58775D01*
X56525Y-7250D02*X57275Y-6500D01*
X56525Y-7250D02*Y-8750D01*
X57275Y-9500D01*
X59525Y-6500D02*Y-8750D01*
X60275Y-9500D01*
X57275D02*X58775D01*
X59525Y-8750D01*
X62825Y-7250D02*Y-9500D01*
Y-7250D02*X63575Y-6500D01*
X65075D01*
X62075D02*X62825Y-7250D01*
X69875Y-3500D02*Y-9500D01*
X69125D02*X69875Y-8750D01*
X67625Y-9500D02*X69125D01*
X66875Y-8750D02*X67625Y-9500D01*
X66875Y-7250D02*Y-8750D01*
Y-7250D02*X67625Y-6500D01*
X69125D01*
X69875Y-7250D01*
X74375D02*Y-8750D01*
Y-7250D02*X75125Y-6500D01*
X76625D01*
X77375Y-7250D01*
Y-8750D01*
X76625Y-9500D02*X77375Y-8750D01*
X75125Y-9500D02*X76625D01*
X74375Y-8750D02*X75125Y-9500D01*
X79175Y-6500D02*Y-8750D01*
X79925Y-9500D01*
X81425D01*
X82175Y-8750D01*
Y-6500D02*Y-8750D01*
X84725Y-3500D02*Y-8750D01*
X85475Y-9500D01*
X83975Y-5750D02*X85475D01*
X86975Y-3500D02*Y-8750D01*
X87725Y-9500D01*
G54D106*X89225Y-5000D02*Y-5150D01*
G54D105*Y-7250D02*Y-9500D01*
X91475Y-7250D02*Y-9500D01*
Y-7250D02*X92225Y-6500D01*
X92975D01*
X93725Y-7250D01*
Y-9500D01*
X90725Y-6500D02*X91475Y-7250D01*
X96275Y-9500D02*X98525D01*
X95525Y-8750D02*X96275Y-9500D01*
X95525Y-7250D02*Y-8750D01*
Y-7250D02*X96275Y-6500D01*
X97775D01*
X98525Y-7250D01*
X95525Y-8000D02*X98525D01*
Y-7250D02*Y-8000D01*
G54D106*X103025Y-5000D02*Y-5150D01*
G54D105*Y-7250D02*Y-9500D01*
X105275D02*X107525D01*
X108275Y-8750D01*
X107525Y-8000D02*X108275Y-8750D01*
X105275Y-8000D02*X107525D01*
X104525Y-7250D02*X105275Y-8000D01*
X104525Y-7250D02*X105275Y-6500D01*
X107525D01*
X108275Y-7250D01*
X104525Y-8750D02*X105275Y-9500D01*
X113525Y-3500D02*Y-8750D01*
X114275Y-9500D01*
X112775Y-5750D02*X114275D01*
X115775Y-3500D02*Y-9500D01*
Y-7250D02*X116525Y-6500D01*
X118025D01*
X118775Y-7250D01*
Y-9500D01*
X121325D02*X123575D01*
X120575Y-8750D02*X121325Y-9500D01*
X120575Y-7250D02*Y-8750D01*
Y-7250D02*X121325Y-6500D01*
X122825D01*
X123575Y-7250D01*
X120575Y-8000D02*X123575D01*
Y-7250D02*Y-8000D01*
X128825Y-6500D02*X131075D01*
X128075Y-7250D02*X128825Y-6500D01*
X128075Y-7250D02*Y-8750D01*
X128825Y-9500D01*
X131075D01*
X133625D02*X135875D01*
X132875Y-8750D02*X133625Y-9500D01*
X132875Y-7250D02*Y-8750D01*
Y-7250D02*X133625Y-6500D01*
X135125D01*
X135875Y-7250D01*
X132875Y-8000D02*X135875D01*
Y-7250D02*Y-8000D01*
X138425Y-7250D02*Y-9500D01*
Y-7250D02*X139175Y-6500D01*
X139925D01*
X140675Y-7250D01*
Y-9500D01*
X137675Y-6500D02*X138425Y-7250D01*
X143225Y-3500D02*Y-8750D01*
X143975Y-9500D01*
X142475Y-5750D02*X143975D01*
X146225Y-9500D02*X148475D01*
X145475Y-8750D02*X146225Y-9500D01*
X145475Y-7250D02*Y-8750D01*
Y-7250D02*X146225Y-6500D01*
X147725D01*
X148475Y-7250D01*
X145475Y-8000D02*X148475D01*
Y-7250D02*Y-8000D01*
X151025Y-7250D02*Y-9500D01*
Y-7250D02*X151775Y-6500D01*
X153275D01*
X150275D02*X151025Y-7250D01*
X155075Y-3500D02*Y-8750D01*
X155825Y-9500D01*
G54D106*X157325Y-5000D02*Y-5150D01*
G54D105*Y-7250D02*Y-9500D01*
X159575Y-7250D02*Y-9500D01*
Y-7250D02*X160325Y-6500D01*
X161075D01*
X161825Y-7250D01*
Y-9500D01*
X158825Y-6500D02*X159575Y-7250D01*
X164375Y-9500D02*X166625D01*
X163625Y-8750D02*X164375Y-9500D01*
X163625Y-7250D02*Y-8750D01*
Y-7250D02*X164375Y-6500D01*
X165875D01*
X166625Y-7250D01*
X163625Y-8000D02*X166625D01*
Y-7250D02*Y-8000D01*
X171125Y-7250D02*Y-8750D01*
Y-7250D02*X171875Y-6500D01*
X173375D01*
X174125Y-7250D01*
Y-8750D01*
X173375Y-9500D02*X174125Y-8750D01*
X171875Y-9500D02*X173375D01*
X171125Y-8750D02*X171875Y-9500D01*
X176675Y-4250D02*Y-9500D01*
Y-4250D02*X177425Y-3500D01*
X178175D01*
X175925Y-6500D02*X177425D01*
X183125Y-3500D02*Y-8750D01*
X183875Y-9500D01*
X182375Y-5750D02*X183875D01*
X185375Y-3500D02*Y-9500D01*
Y-7250D02*X186125Y-6500D01*
X187625D01*
X188375Y-7250D01*
Y-9500D01*
G54D106*X190175Y-5000D02*Y-5150D01*
G54D105*Y-7250D02*Y-9500D01*
X192425D02*X194675D01*
X195425Y-8750D01*
X194675Y-8000D02*X195425Y-8750D01*
X192425Y-8000D02*X194675D01*
X191675Y-7250D02*X192425Y-8000D01*
X191675Y-7250D02*X192425Y-6500D01*
X194675D01*
X195425Y-7250D01*
X191675Y-8750D02*X192425Y-9500D01*
X200675Y-7250D02*Y-11750D01*
X199925Y-6500D02*X200675Y-7250D01*
X201425Y-6500D01*
X202925D01*
X203675Y-7250D01*
Y-8750D01*
X202925Y-9500D02*X203675Y-8750D01*
X201425Y-9500D02*X202925D01*
X200675Y-8750D02*X201425Y-9500D01*
X207725Y-6500D02*X208475Y-7250D01*
X206225Y-6500D02*X207725D01*
X205475Y-7250D02*X206225Y-6500D01*
X205475Y-7250D02*Y-8750D01*
X206225Y-9500D01*
X208475Y-6500D02*Y-8750D01*
X209225Y-9500D01*
X206225D02*X207725D01*
X208475Y-8750D01*
X211775Y-3500D02*Y-8750D01*
X212525Y-9500D01*
X211025Y-5750D02*X212525D01*
X214025Y-3500D02*Y-9500D01*
Y-7250D02*X214775Y-6500D01*
X216275D01*
X217025Y-7250D01*
Y-9500D01*
X200750Y203500D02*Y197500D01*
X202700Y203500D02*X203750Y202450D01*
Y198550D01*
X202700Y197500D02*X203750Y198550D01*
X200000Y197500D02*X202700D01*
X200000Y203500D02*X202700D01*
X207800Y200500D02*X208550Y199750D01*
X206300Y200500D02*X207800D01*
X205550Y199750D02*X206300Y200500D01*
X205550Y199750D02*Y198250D01*
X206300Y197500D01*
X208550Y200500D02*Y198250D01*
X209300Y197500D01*
X206300D02*X207800D01*
X208550Y198250D01*
X211850Y203500D02*Y198250D01*
X212600Y197500D01*
X211100Y201250D02*X212600D01*
X214850Y197500D02*X217100D01*
X214100Y198250D02*X214850Y197500D01*
X214100Y199750D02*Y198250D01*
Y199750D02*X214850Y200500D01*
X216350D01*
X217100Y199750D01*
X214100Y199000D02*X217100D01*
Y199750D02*Y199000D01*
X218900Y201250D02*X219650D01*
X218900Y199750D02*X219650D01*
X224150Y203500D02*X227150D01*
X225650D02*Y197500D01*
X228950Y203500D02*Y197500D01*
Y199750D02*X229700Y200500D01*
X231200D01*
X231950Y199750D01*
Y197500D01*
X233750Y200500D02*Y198250D01*
X234500Y197500D01*
X236000D01*
X236750Y198250D01*
Y200500D02*Y198250D01*
X241250Y202750D02*X242000Y203500D01*
X244250D01*
X245000Y202750D01*
Y201250D01*
X241250Y197500D02*X245000Y201250D01*
X241250Y197500D02*X245000D01*
X247550D02*X250550Y203500D01*
X246800D02*X250550D01*
X255050Y202000D02*Y197500D01*
Y202000D02*X256100Y203500D01*
X257750D01*
X258800Y202000D01*
Y197500D01*
X255050Y200500D02*X258800D01*
X261350Y199750D02*Y195250D01*
X260600Y200500D02*X261350Y199750D01*
X262100Y200500D01*
X263600D01*
X264350Y199750D01*
Y198250D01*
X263600Y197500D02*X264350Y198250D01*
X262100Y197500D02*X263600D01*
X261350Y198250D02*X262100Y197500D01*
X266900Y199750D02*Y197500D01*
Y199750D02*X267650Y200500D01*
X269150D01*
X266150D02*X266900Y199750D01*
X273650Y202750D02*X274400Y203500D01*
X276650D01*
X277400Y202750D01*
Y201250D01*
X273650Y197500D02*X277400Y201250D01*
X273650Y197500D02*X277400D01*
X279200Y198250D02*X279950Y197500D01*
X279200Y202750D02*Y198250D01*
Y202750D02*X279950Y203500D01*
X281450D01*
X282200Y202750D01*
Y198250D01*
X281450Y197500D02*X282200Y198250D01*
X279950Y197500D02*X281450D01*
X279200Y199000D02*X282200Y202000D01*
X284000Y202300D02*X285200Y203500D01*
Y197500D01*
X284000D02*X286250D01*
X288800D02*X291800Y203500D01*
X288050D02*X291800D01*
X296300Y198250D02*X297050Y197500D01*
X296300Y202750D02*Y198250D01*
Y202750D02*X297050Y203500D01*
X298550D01*
X299300Y202750D01*
Y198250D01*
X298550Y197500D02*X299300Y198250D01*
X297050Y197500D02*X298550D01*
X296300Y199000D02*X299300Y202000D01*
X301100Y199750D02*X304100Y203500D01*
X301100Y199750D02*X304850D01*
X304100Y203500D02*Y197500D01*
X306650Y201250D02*X307400D01*
X306650Y199750D02*X307400D01*
X309200D02*X312200Y203500D01*
X309200Y199750D02*X312950D01*
X312200Y203500D02*Y197500D01*
X314750Y198250D02*X315500Y197500D01*
X314750Y199450D02*Y198250D01*
Y199450D02*X315800Y200500D01*
X316700D01*
X317750Y199450D01*
Y198250D01*
X317000Y197500D02*X317750Y198250D01*
X315500Y197500D02*X317000D01*
X314750Y201550D02*X315800Y200500D01*
X314750Y202750D02*Y201550D01*
Y202750D02*X315500Y203500D01*
X317000D01*
X317750Y202750D01*
Y201550D01*
X316700Y200500D02*X317750Y201550D01*
X319550Y201250D02*X320300D01*
X319550Y199750D02*X320300D01*
X322100Y203500D02*X325100D01*
X322100D02*Y200500D01*
X322850Y201250D01*
X324350D01*
X325100Y200500D01*
Y198250D01*
X324350Y197500D02*X325100Y198250D01*
X322850Y197500D02*X324350D01*
X322100Y198250D02*X322850Y197500D01*
X327650D02*X329900Y200500D01*
Y202750D02*Y200500D01*
X329150Y203500D02*X329900Y202750D01*
X327650Y203500D02*X329150D01*
X326900Y202750D02*X327650Y203500D01*
X326900Y202750D02*Y201250D01*
X327650Y200500D01*
X329900D01*
X334400Y202000D02*Y197500D01*
Y202000D02*X335450Y203500D01*
X337100D01*
X338150Y202000D01*
Y197500D01*
X334400Y200500D02*X338150D01*
X339950Y203500D02*Y197500D01*
Y203500D02*X342200Y200500D01*
X344450Y203500D01*
Y197500D01*
X351950Y203500D02*X352700Y202750D01*
X349700Y203500D02*X351950D01*
X348950Y202750D02*X349700Y203500D01*
X348950Y202750D02*Y198250D01*
X349700Y197500D01*
X351950D01*
X352700Y198250D01*
Y199750D02*Y198250D01*
X351950Y200500D02*X352700Y199750D01*
X350450Y200500D02*X351950D01*
X354500Y203500D02*Y197500D01*
Y203500D02*X356750Y200500D01*
X359000Y203500D01*
Y197500D01*
X360800Y203500D02*X363800D01*
X362300D02*Y197500D01*
X368300Y203500D02*Y198250D01*
X369050Y197500D01*
X370550D01*
X371300Y198250D01*
Y203500D02*Y198250D01*
X373100Y203500D02*X376100D01*
X374600D02*Y197500D01*
X378950D02*X380900D01*
X377900Y198550D02*X378950Y197500D01*
X377900Y202450D02*Y198550D01*
Y202450D02*X378950Y203500D01*
X380900D01*
X200000Y217000D02*Y212500D01*
Y217000D02*X201050Y218500D01*
X202700D01*
X203750Y217000D01*
Y212500D01*
X200000Y215500D02*X203750D01*
X205550D02*Y213250D01*
X206300Y212500D01*
X207800D01*
X208550Y213250D01*
Y215500D02*Y213250D01*
X211100Y218500D02*Y213250D01*
X211850Y212500D01*
X210350Y216250D02*X211850D01*
X213350Y218500D02*Y212500D01*
Y214750D02*X214100Y215500D01*
X215600D01*
X216350Y214750D01*
Y212500D01*
X218150Y214750D02*Y213250D01*
Y214750D02*X218900Y215500D01*
X220400D01*
X221150Y214750D01*
Y213250D01*
X220400Y212500D02*X221150Y213250D01*
X218900Y212500D02*X220400D01*
X218150Y213250D02*X218900Y212500D01*
X223700Y214750D02*Y212500D01*
Y214750D02*X224450Y215500D01*
X225950D01*
X222950D02*X223700Y214750D01*
X227750Y216250D02*X228500D01*
X227750Y214750D02*X228500D01*
X233000Y218500D02*Y212500D01*
Y218500D02*X235250Y215500D01*
X237500Y218500D01*
Y212500D01*
G54D106*X239300Y217000D02*Y216850D01*
G54D105*Y214750D02*Y212500D01*
X241550Y215500D02*X243800D01*
X240800Y214750D02*X241550Y215500D01*
X240800Y214750D02*Y213250D01*
X241550Y212500D01*
X243800D01*
X245600Y218500D02*Y212500D01*
Y214750D02*X246350Y215500D01*
X247850D01*
X248600Y214750D01*
Y212500D01*
X252650Y215500D02*X253400Y214750D01*
X251150Y215500D02*X252650D01*
X250400Y214750D02*X251150Y215500D01*
X250400Y214750D02*Y213250D01*
X251150Y212500D01*
X253400Y215500D02*Y213250D01*
X254150Y212500D01*
X251150D02*X252650D01*
X253400Y213250D01*
X256700Y212500D02*X258950D01*
X255950Y213250D02*X256700Y212500D01*
X255950Y214750D02*Y213250D01*
Y214750D02*X256700Y215500D01*
X258200D01*
X258950Y214750D01*
X255950Y214000D02*X258950D01*
Y214750D02*Y214000D01*
X260750Y218500D02*Y213250D01*
X261500Y212500D01*
X266450Y218500D02*Y212500D01*
X265700Y218500D02*X268700D01*
X269450Y217750D01*
Y216250D01*
X268700Y215500D02*X269450Y216250D01*
X266450Y215500D02*X268700D01*
X272000Y212500D02*X274250D01*
X271250Y213250D02*X272000Y212500D01*
X271250Y214750D02*Y213250D01*
Y214750D02*X272000Y215500D01*
X273500D01*
X274250Y214750D01*
X271250Y214000D02*X274250D01*
Y214750D02*Y214000D01*
X276800Y218500D02*Y213250D01*
X277550Y212500D01*
X276050Y216250D02*X277550D01*
X279800Y212500D02*X282050D01*
X279050Y213250D02*X279800Y212500D01*
X279050Y214750D02*Y213250D01*
Y214750D02*X279800Y215500D01*
X281300D01*
X282050Y214750D01*
X279050Y214000D02*X282050D01*
Y214750D02*Y214000D01*
X284600Y214750D02*Y212500D01*
Y214750D02*X285350Y215500D01*
X286850D01*
X283850D02*X284600Y214750D01*
X289400Y212500D02*X291650D01*
X292400Y213250D01*
X291650Y214000D02*X292400Y213250D01*
X289400Y214000D02*X291650D01*
X288650Y214750D02*X289400Y214000D01*
X288650Y214750D02*X289400Y215500D01*
X291650D01*
X292400Y214750D01*
X288650Y213250D02*X289400Y212500D01*
X294950D02*X297200D01*
X294200Y213250D02*X294950Y212500D01*
X294200Y214750D02*Y213250D01*
Y214750D02*X294950Y215500D01*
X296450D01*
X297200Y214750D01*
X294200Y214000D02*X297200D01*
Y214750D02*Y214000D01*
X299750Y214750D02*Y212500D01*
Y214750D02*X300500Y215500D01*
X301250D01*
X302000Y214750D01*
Y212500D01*
X299000Y215500D02*X299750Y214750D01*
X200000Y233500D02*X203000D01*
X201500D02*Y227500D01*
G54D106*X204800Y232000D02*Y231850D01*
G54D105*Y229750D02*Y227500D01*
X207050Y233500D02*Y228250D01*
X207800Y227500D01*
X206300Y231250D02*X207800D01*
X209300Y233500D02*Y228250D01*
X210050Y227500D01*
X212300D02*X214550D01*
X211550Y228250D02*X212300Y227500D01*
X211550Y229750D02*Y228250D01*
Y229750D02*X212300Y230500D01*
X213800D01*
X214550Y229750D01*
X211550Y229000D02*X214550D01*
Y229750D02*Y229000D01*
X216350Y231250D02*X217100D01*
X216350Y229750D02*X217100D01*
X221600Y228250D02*X222350Y227500D01*
X221600Y232750D02*X222350Y233500D01*
X221600Y232750D02*Y228250D01*
X224150Y230500D02*Y228250D01*
X224900Y227500D01*
X226400D01*
X227150Y228250D01*
Y230500D02*Y228250D01*
X229700Y229750D02*Y227500D01*
Y229750D02*X230450Y230500D01*
X231200D01*
X231950Y229750D01*
Y227500D01*
X228950Y230500D02*X229700Y229750D01*
X233750Y233500D02*Y227500D01*
Y229750D02*X236000Y227500D01*
X233750Y229750D02*X235250Y231250D01*
X238550Y229750D02*Y227500D01*
Y229750D02*X239300Y230500D01*
X240050D01*
X240800Y229750D01*
Y227500D01*
X237800Y230500D02*X238550Y229750D01*
X242600D02*Y228250D01*
Y229750D02*X243350Y230500D01*
X244850D01*
X245600Y229750D01*
Y228250D01*
X244850Y227500D02*X245600Y228250D01*
X243350Y227500D02*X244850D01*
X242600Y228250D02*X243350Y227500D01*
X247400Y230500D02*Y228250D01*
X248150Y227500D01*
X248900D01*
X249650Y228250D01*
Y230500D02*Y228250D01*
X250400Y227500D01*
X251150D01*
X251900Y228250D01*
Y230500D02*Y228250D01*
X254450Y229750D02*Y227500D01*
Y229750D02*X255200Y230500D01*
X255950D01*
X256700Y229750D01*
Y227500D01*
X253700Y230500D02*X254450Y229750D01*
X258500Y233500D02*X259250Y232750D01*
Y228250D01*
X258500Y227500D02*X259250Y228250D01*
X263750Y230500D02*X266750D01*
X271250Y233500D02*Y227500D01*
Y233500D02*X274250D01*
X271250Y230800D02*X273500D01*
X278300Y230500D02*X279050Y229750D01*
X276800Y230500D02*X278300D01*
X276050Y229750D02*X276800Y230500D01*
X276050Y229750D02*Y228250D01*
X276800Y227500D01*
X279050Y230500D02*Y228250D01*
X279800Y227500D01*
X276800D02*X278300D01*
X279050Y228250D01*
X281600Y233500D02*Y227500D01*
Y228250D02*X282350Y227500D01*
X283850D01*
X284600Y228250D01*
Y229750D02*Y228250D01*
X283850Y230500D02*X284600Y229750D01*
X282350Y230500D02*X283850D01*
X281600Y229750D02*X282350Y230500D01*
X287150Y229750D02*Y227500D01*
Y229750D02*X287900Y230500D01*
X289400D01*
X286400D02*X287150Y229750D01*
G54D106*X291200Y232000D02*Y231850D01*
G54D105*Y229750D02*Y227500D01*
X293450Y230500D02*X295700D01*
X292700Y229750D02*X293450Y230500D01*
X292700Y229750D02*Y228250D01*
X293450Y227500D01*
X295700D01*
X299750Y230500D02*X300500Y229750D01*
X298250Y230500D02*X299750D01*
X297500Y229750D02*X298250Y230500D01*
X297500Y229750D02*Y228250D01*
X298250Y227500D01*
X300500Y230500D02*Y228250D01*
X301250Y227500D01*
X298250D02*X299750D01*
X300500Y228250D01*
X303800Y233500D02*Y228250D01*
X304550Y227500D01*
X303050Y231250D02*X304550D01*
G54D106*X306050Y232000D02*Y231850D01*
G54D105*Y229750D02*Y227500D01*
X307550Y229750D02*Y228250D01*
Y229750D02*X308300Y230500D01*
X309800D01*
X310550Y229750D01*
Y228250D01*
X309800Y227500D02*X310550Y228250D01*
X308300Y227500D02*X309800D01*
X307550Y228250D02*X308300Y227500D01*
X313100Y229750D02*Y227500D01*
Y229750D02*X313850Y230500D01*
X314600D01*
X315350Y229750D01*
Y227500D01*
X312350Y230500D02*X313100Y229750D01*
X320600Y233500D02*Y227500D01*
X322550Y233500D02*X323600Y232450D01*
Y228550D01*
X322550Y227500D02*X323600Y228550D01*
X319850Y227500D02*X322550D01*
X319850Y233500D02*X322550D01*
X326150Y229750D02*Y227500D01*
Y229750D02*X326900Y230500D01*
X328400D01*
X325400D02*X326150Y229750D01*
X332450Y230500D02*X333200Y229750D01*
X330950Y230500D02*X332450D01*
X330200Y229750D02*X330950Y230500D01*
X330200Y229750D02*Y228250D01*
X330950Y227500D01*
X333200Y230500D02*Y228250D01*
X333950Y227500D01*
X330950D02*X332450D01*
X333200Y228250D01*
X335750Y230500D02*Y228250D01*
X336500Y227500D01*
X337250D01*
X338000Y228250D01*
Y230500D02*Y228250D01*
X338750Y227500D01*
X339500D01*
X340250Y228250D01*
Y230500D02*Y228250D01*
G54D106*X342050Y232000D02*Y231850D01*
G54D105*Y229750D02*Y227500D01*
X344300Y229750D02*Y227500D01*
Y229750D02*X345050Y230500D01*
X345800D01*
X346550Y229750D01*
Y227500D01*
X343550Y230500D02*X344300Y229750D01*
X350600Y230500D02*X351350Y229750D01*
X349100Y230500D02*X350600D01*
X348350Y229750D02*X349100Y230500D01*
X348350Y229750D02*Y228250D01*
X349100Y227500D01*
X350600D01*
X351350Y228250D01*
X348350Y226000D02*X349100Y225250D01*
X350600D01*
X351350Y226000D01*
Y230500D02*Y226000D01*
M02*
