G04 start of page 8 for group -4079 idx -4079 *
G04 Title: (unknown), topsilk *
G04 Creator: pcb 20140316 *
G04 CreationDate: Thu 27 Apr 2017 04:48:59 AM GMT UTC *
G04 For: railfan *
G04 Format: Gerber/RS-274X *
G04 PCB-Dimensions (mil): 2650.00 1750.00 *
G04 PCB-Coordinate-Origin: lower left *
%MOIN*%
%FSLAX25Y25*%
%LNTOPSILK*%
%ADD89C,0.0100*%
G54D89*X264500Y500D02*Y174500D01*
X251500Y63000D02*Y60000D01*
X250000Y61500D02*X253000D01*
X251500Y114000D02*Y111000D01*
X250000Y112500D02*X253000D01*
X264500Y174500D02*X500D01*
Y500D02*X264500D01*
X170500Y16000D02*Y13000D01*
X169000Y14500D02*X172000D01*
X170500Y31500D02*Y28500D01*
X169000Y30000D02*X172000D01*
X154000Y15000D02*X155500Y13500D01*
X212500Y51000D02*X214000Y52500D01*
X212500Y51000D02*X217500D01*
X212500D02*X214000Y49500D01*
X224000Y47000D02*Y49121D01*
Y47000D02*X226121D01*
X224000D02*X227535Y50535D01*
X500Y174500D02*Y500D01*
X14500Y38500D02*Y35500D01*
X13000Y37000D02*X16000D01*
X32000Y3500D02*X30500Y5000D01*
X32000Y3500D02*X30500Y2000D01*
X32000Y3500D02*X27000D01*
X88500Y41000D02*Y38879D01*
X86379Y41000D02*X88500D01*
X84965Y37465D01*
X254200Y116900D02*Y114500D01*
Y116900D02*X254800Y117500D01*
X256000D01*
X256600Y116900D02*X256000Y117500D01*
X256600Y116900D02*Y115100D01*
X254200D02*X259000D01*
X256600Y116060D02*X259000Y117500D01*
X254200Y121340D02*X254800Y121940D01*
X254200Y121340D02*Y119540D01*
X254800Y118940D02*X254200Y119540D01*
X254800Y118940D02*X256000D01*
X256600Y119540D01*
Y121340D02*Y119540D01*
Y121340D02*X257200Y121940D01*
X258400D01*
X259000Y121340D02*X258400Y121940D01*
X259000Y121340D02*Y119540D01*
X258400Y118940D02*X259000Y119540D01*
X254200Y125780D02*X254800Y126380D01*
X254200Y125780D02*Y123980D01*
X254800Y123380D02*X254200Y123980D01*
X254800Y123380D02*X256000D01*
X256600Y123980D01*
Y125780D02*Y123980D01*
Y125780D02*X257200Y126380D01*
X258400D01*
X259000Y125780D02*X258400Y126380D01*
X259000Y125780D02*Y123980D01*
X258400Y123380D02*X259000Y123980D01*
X254200Y129020D02*Y127820D01*
Y128420D02*X259000D01*
Y129020D02*Y127820D01*
X255400Y64000D02*X259000D01*
X255400D02*X254200Y64840D01*
Y66160D02*Y64840D01*
Y66160D02*X255400Y67000D01*
X259000D01*
X256600D02*Y64000D01*
X254200Y70840D02*X254800Y71440D01*
X254200Y70840D02*Y69040D01*
X254800Y68440D02*X254200Y69040D01*
X254800Y68440D02*X256000D01*
X256600Y69040D01*
Y70840D02*Y69040D01*
Y70840D02*X257200Y71440D01*
X258400D01*
X259000Y70840D02*X258400Y71440D01*
X259000Y70840D02*Y69040D01*
X258400Y68440D02*X259000Y69040D01*
X254200Y75280D02*X254800Y75880D01*
X254200Y75280D02*Y73480D01*
X254800Y72880D02*X254200Y73480D01*
X254800Y72880D02*X256000D01*
X256600Y73480D01*
Y75280D02*Y73480D01*
Y75280D02*X257200Y75880D01*
X258400D01*
X259000Y75280D02*X258400Y75880D01*
X259000Y75280D02*Y73480D01*
X258400Y72880D02*X259000Y73480D01*
X254800Y77320D02*X258400D01*
X254800D02*X254200Y77920D01*
Y79120D02*Y77920D01*
Y79120D02*X254800Y79720D01*
X258400D01*
X259000Y79120D02*X258400Y79720D01*
X259000Y79120D02*Y77920D01*
X258400Y77320D02*X259000Y77920D01*
Y83560D02*Y82000D01*
X258160Y81160D02*X259000Y82000D01*
X255040Y81160D02*X258160D01*
X255040D02*X254200Y82000D01*
Y83560D02*Y82000D01*
X164000Y146500D02*X165000D01*
X164500D02*Y142500D01*
X164000D02*X165000D01*
X166200Y144000D02*Y143000D01*
Y144000D02*X166700Y144500D01*
X167700D01*
X168200Y144000D01*
Y143000D01*
X167700Y142500D02*X168200Y143000D01*
X166700Y142500D02*X167700D01*
X166200Y143000D02*X166700Y142500D01*
X169400Y144500D02*Y143000D01*
X169900Y142500D01*
X170400D01*
X170900Y143000D01*
Y144500D02*Y143000D01*
X171400Y142500D01*
X171900D01*
X172400Y143000D01*
Y144500D02*Y143000D01*
X175100Y144500D02*X175600Y144000D01*
X174100Y144500D02*X175100D01*
X173600Y144000D02*X174100Y144500D01*
X173600Y144000D02*Y143000D01*
X174100Y142500D01*
X175600Y144500D02*Y143000D01*
X176100Y142500D01*
X174100D02*X175100D01*
X175600Y143000D01*
X181100Y146500D02*X181600Y146000D01*
X179600Y146500D02*X181100D01*
X179100Y146000D02*X179600Y146500D01*
X179100Y146000D02*Y145000D01*
X179600Y144500D01*
X181100D01*
X181600Y144000D01*
Y143000D01*
X181100Y142500D02*X181600Y143000D01*
X179600Y142500D02*X181100D01*
X179100Y143000D02*X179600Y142500D01*
X183300Y144500D02*X184800D01*
X182800Y144000D02*X183300Y144500D01*
X182800Y144000D02*Y143000D01*
X183300Y142500D01*
X184800D01*
X187500Y144500D02*X188000Y144000D01*
X186500Y144500D02*X187500D01*
X186000Y144000D02*X186500Y144500D01*
X186000Y144000D02*Y143000D01*
X186500Y142500D01*
X188000Y144500D02*Y143000D01*
X188500Y142500D01*
X186500D02*X187500D01*
X188000Y143000D01*
X189700Y146500D02*Y143000D01*
X190200Y142500D01*
X191700D02*X193200D01*
X191200Y143000D02*X191700Y142500D01*
X191200Y144000D02*Y143000D01*
Y144000D02*X191700Y144500D01*
X192700D01*
X193200Y144000D01*
X191200Y143500D02*X193200D01*
Y144000D02*Y143500D01*
X196400Y146500D02*Y142500D01*
X195900D02*X196400Y143000D01*
X194900Y142500D02*X195900D01*
X194400Y143000D02*X194900Y142500D01*
X194400Y144000D02*Y143000D01*
Y144000D02*X194900Y144500D01*
X195900D01*
X196400Y144000D01*
X199400Y144700D02*X200900D01*
X199400Y142500D02*X201400D01*
X199400Y146500D02*Y142500D01*
Y146500D02*X201400D01*
X203100Y144000D02*Y142500D01*
Y144000D02*X203600Y144500D01*
X204100D01*
X204600Y144000D01*
Y142500D01*
X202600Y144500D02*X203100Y144000D01*
X207300Y144500D02*X207800Y144000D01*
X206300Y144500D02*X207300D01*
X205800Y144000D02*X206300Y144500D01*
X205800Y144000D02*Y143000D01*
X206300Y142500D01*
X207300D01*
X207800Y143000D01*
X205800Y141500D02*X206300Y141000D01*
X207300D01*
X207800Y141500D01*
Y144500D02*Y141500D01*
X209000Y145500D02*Y145400D01*
Y144000D02*Y142500D01*
X210500Y144000D02*Y142500D01*
Y144000D02*X211000Y144500D01*
X211500D01*
X212000Y144000D01*
Y142500D01*
X210000Y144500D02*X210500Y144000D01*
X213700Y142500D02*X215200D01*
X213200Y143000D02*X213700Y142500D01*
X213200Y144000D02*Y143000D01*
Y144000D02*X213700Y144500D01*
X214700D01*
X215200Y144000D01*
X213200Y143500D02*X215200D01*
Y144000D02*Y143500D01*
X216900Y142500D02*X218400D01*
X216400Y143000D02*X216900Y142500D01*
X216400Y144000D02*Y143000D01*
Y144000D02*X216900Y144500D01*
X217900D01*
X218400Y144000D01*
X216400Y143500D02*X218400D01*
Y144000D02*Y143500D01*
X220100Y144000D02*Y142500D01*
Y144000D02*X220600Y144500D01*
X221600D01*
X219600D02*X220100Y144000D01*
X222800Y145500D02*Y145400D01*
Y144000D02*Y142500D01*
X224300Y144000D02*Y142500D01*
Y144000D02*X224800Y144500D01*
X225300D01*
X225800Y144000D01*
Y142500D01*
X223800Y144500D02*X224300Y144000D01*
X228500Y144500D02*X229000Y144000D01*
X227500Y144500D02*X228500D01*
X227000Y144000D02*X227500Y144500D01*
X227000Y144000D02*Y143000D01*
X227500Y142500D01*
X228500D01*
X229000Y143000D01*
X227000Y141500D02*X227500Y141000D01*
X228500D01*
X229000Y141500D01*
Y144500D02*Y141500D01*
X168000Y153000D02*Y149000D01*
Y150500D02*X168500Y151000D01*
X169500D01*
X170000Y150500D01*
Y149000D01*
X171700Y153000D02*Y149500D01*
X172200Y149000D01*
X171200Y151500D02*X172200D01*
X173700Y153000D02*Y149500D01*
X174200Y149000D01*
X173200Y151500D02*X174200D01*
X175700Y150500D02*Y147500D01*
X175200Y151000D02*X175700Y150500D01*
X176200Y151000D01*
X177200D01*
X177700Y150500D01*
Y149500D01*
X177200Y149000D02*X177700Y149500D01*
X176200Y149000D02*X177200D01*
X175700Y149500D02*X176200Y149000D01*
X178900Y151500D02*X179400D01*
X178900Y150500D02*X179400D01*
X180600Y149500D02*X183600Y152500D01*
X184800Y149500D02*X187800Y152500D01*
X189000Y152000D02*Y151900D01*
Y150500D02*Y149000D01*
X191500Y151000D02*X192000Y150500D01*
X190500Y151000D02*X191500D01*
X190000Y150500D02*X190500Y151000D01*
X190000Y150500D02*Y149500D01*
X190500Y149000D01*
X192000Y151000D02*Y149500D01*
X192500Y149000D01*
X190500D02*X191500D01*
X192000Y149500D01*
X194200Y149000D02*X195700D01*
X196200Y149500D01*
X195700Y150000D02*X196200Y149500D01*
X194200Y150000D02*X195700D01*
X193700Y150500D02*X194200Y150000D01*
X193700Y150500D02*X194200Y151000D01*
X195700D01*
X196200Y150500D01*
X193700Y149500D02*X194200Y149000D01*
X197900Y151000D02*X199400D01*
X197400Y150500D02*X197900Y151000D01*
X197400Y150500D02*Y149500D01*
X197900Y149000D01*
X199400D01*
X202100Y151000D02*X202600Y150500D01*
X201100Y151000D02*X202100D01*
X200600Y150500D02*X201100Y151000D01*
X200600Y150500D02*Y149500D01*
X201100Y149000D01*
X202600Y151000D02*Y149500D01*
X203100Y149000D01*
X201100D02*X202100D01*
X202600Y149500D01*
X204300Y153000D02*Y149500D01*
X204800Y149000D01*
X206300D02*X207800D01*
X205800Y149500D02*X206300Y149000D01*
X205800Y150500D02*Y149500D01*
Y150500D02*X206300Y151000D01*
X207300D01*
X207800Y150500D01*
X205800Y150000D02*X207800D01*
Y150500D02*Y150000D01*
X211000Y153000D02*Y149000D01*
X210500D02*X211000Y149500D01*
X209500Y149000D02*X210500D01*
X209000Y149500D02*X209500Y149000D01*
X209000Y150500D02*Y149500D01*
Y150500D02*X209500Y151000D01*
X210500D01*
X211000Y150500D01*
X212200Y149000D02*X212700D01*
X214400Y151000D02*X215900D01*
X213900Y150500D02*X214400Y151000D01*
X213900Y150500D02*Y149500D01*
X214400Y149000D01*
X215900D01*
X217100Y150500D02*Y149500D01*
Y150500D02*X217600Y151000D01*
X218600D01*
X219100Y150500D01*
Y149500D01*
X218600Y149000D02*X219100Y149500D01*
X217600Y149000D02*X218600D01*
X217100Y149500D02*X217600Y149000D01*
X220800Y150500D02*Y149000D01*
Y150500D02*X221300Y151000D01*
X221800D01*
X222300Y150500D01*
Y149000D01*
Y150500D02*X222800Y151000D01*
X223300D01*
X223800Y150500D01*
Y149000D01*
X220300Y151000D02*X220800Y150500D01*
X182700Y133500D02*X184000D01*
X182000Y134200D02*X182700Y133500D01*
X182000Y136800D02*Y134200D01*
Y136800D02*X182700Y137500D01*
X184000D01*
X185900Y133500D02*X187200D01*
X185200Y134200D02*X185900Y133500D01*
X185200Y136800D02*Y134200D01*
Y136800D02*X185900Y137500D01*
X187200D01*
X190200Y133500D02*X192200D01*
X192700Y134000D01*
Y135200D02*Y134000D01*
X192200Y135700D02*X192700Y135200D01*
X190700Y135700D02*X192200D01*
X190700Y137500D02*Y133500D01*
X190200Y137500D02*X192200D01*
X192700Y137000D01*
Y136200D01*
X192200Y135700D02*X192700Y136200D01*
X193900Y137500D02*X194900Y135500D01*
X195900Y137500D01*
X194900Y135500D02*Y133500D01*
X197100Y135500D02*X199100D01*
X202300Y137500D02*X202800Y137000D01*
X200800Y137500D02*X202300D01*
X200300Y137000D02*X200800Y137500D01*
X200300Y137000D02*Y136000D01*
X200800Y135500D01*
X202300D01*
X202800Y135000D01*
Y134000D01*
X202300Y133500D02*X202800Y134000D01*
X200800Y133500D02*X202300D01*
X200300Y134000D02*X200800Y133500D01*
X204000Y136500D02*Y133500D01*
Y136500D02*X204700Y137500D01*
X205800D01*
X206500Y136500D01*
Y133500D01*
X204000Y135500D02*X206500D01*
X3500Y50400D02*X8300D01*
Y51000D02*Y48600D01*
X7700Y48000D01*
X6500D02*X7700D01*
X5900Y48600D02*X6500Y48000D01*
X5900Y50400D02*Y48600D01*
X3500Y46560D02*X8300D01*
X5900D02*X8300Y44160D01*
X5900Y46560D02*X3500Y44160D01*
X8300Y42720D02*Y40320D01*
X3500Y41520D02*X8300D01*
X7800Y140500D02*X3000Y139300D01*
X7800Y138100D01*
Y136660D02*Y135460D01*
X3000Y136060D02*X7800D01*
X3000Y136660D02*Y135460D01*
Y134020D02*X7800D01*
X3000Y131020D01*
X7800D01*
Y111600D02*X7200Y111000D01*
X7800Y113400D02*Y111600D01*
X7200Y114000D02*X7800Y113400D01*
X3600Y114000D02*X7200D01*
X3600D02*X3000Y113400D01*
Y111600D01*
X3600Y111000D01*
X4800D01*
X5400Y111600D02*X4800Y111000D01*
X5400Y112800D02*Y111600D01*
X3000Y109560D02*X7800D01*
X3000Y106560D01*
X7800D01*
X3000Y104520D02*X7800D01*
Y102960D02*X6960Y102120D01*
X3840D02*X6960D01*
X3000Y102960D02*X3840Y102120D01*
X3000Y105120D02*Y102960D01*
X7800Y105120D02*Y102960D01*
X3000Y91500D02*X6600D01*
X7800Y90660D01*
Y89340D01*
X6600Y88500D01*
X3000D02*X6600D01*
X5400Y91500D02*Y88500D01*
X3000Y68500D02*Y66100D01*
X3600Y65500D01*
X5040D01*
X5640Y66100D02*X5040Y65500D01*
X5640Y67900D02*Y66100D01*
X3000Y67900D02*X7800D01*
Y68500D02*Y66100D01*
X7200Y65500D01*
X6240D02*X7200D01*
X5640Y66100D02*X6240Y65500D01*
X161000Y171500D02*Y167500D01*
Y171500D02*X162500Y169500D01*
X164000Y171500D01*
Y167500D01*
X165200Y171500D02*X167200D01*
X167700Y171000D01*
Y170000D01*
X167200Y169500D02*X167700Y170000D01*
X165700Y169500D02*X167200D01*
X165700Y171500D02*Y167500D01*
X166500Y169500D02*X167700Y167500D01*
X168900D02*X170900D01*
X171400Y168000D01*
Y169200D02*Y168000D01*
X170900Y169700D02*X171400Y169200D01*
X169400Y169700D02*X170900D01*
X169400Y171500D02*Y167500D01*
X168900Y171500D02*X170900D01*
X171400Y171000D01*
Y170200D01*
X170900Y169700D02*X171400Y170200D01*
X172600Y169500D02*X174600D01*
X175800Y170500D02*Y167500D01*
Y170500D02*X176500Y171500D01*
X177600D01*
X178300Y170500D01*
Y167500D01*
X175800Y169500D02*X178300D01*
X180000Y171500D02*Y167500D01*
X179500Y171500D02*X181500D01*
X182000Y171000D01*
Y170000D01*
X181500Y169500D02*X182000Y170000D01*
X180000Y169500D02*X181500D01*
X186800D02*X187800Y167500D01*
X188800Y169500D02*X187800Y167500D01*
X190000Y171000D02*X190500Y171500D01*
X191500D01*
X192000Y171000D01*
X191500Y167500D02*X192000Y168000D01*
X190500Y167500D02*X191500D01*
X190000Y168000D02*X190500Y167500D01*
Y169700D02*X191500D01*
X192000Y171000D02*Y170200D01*
Y169200D02*Y168000D01*
Y169200D02*X191500Y169700D01*
X192000Y170200D02*X191500Y169700D01*
X193200Y167500D02*X193700D01*
X194900Y170700D02*X195700Y171500D01*
Y167500D01*
X194900D02*X196400D01*
X209500Y168000D02*X210000Y167500D01*
X209500Y171000D02*X210000Y171500D01*
X209500Y171000D02*Y168000D01*
X211900Y167500D02*X213200D01*
X211200Y168200D02*X211900Y167500D01*
X211200Y170800D02*Y168200D01*
Y170800D02*X211900Y171500D01*
X213200D01*
X214400D02*X214900Y171000D01*
Y168000D01*
X214400Y167500D02*X214900Y168000D01*
X217900Y171000D02*X218400Y171500D01*
X219900D01*
X220400Y171000D01*
Y170000D01*
X217900Y167500D02*X220400Y170000D01*
X217900Y167500D02*X220400D01*
X221600Y168000D02*X222100Y167500D01*
X221600Y171000D02*Y168000D01*
Y171000D02*X222100Y171500D01*
X223100D01*
X223600Y171000D01*
Y168000D01*
X223100Y167500D02*X223600Y168000D01*
X222100Y167500D02*X223100D01*
X221600Y168500D02*X223600Y170500D01*
X224800Y170700D02*X225600Y171500D01*
Y167500D01*
X224800D02*X226300D01*
X228000D02*X230000Y171500D01*
X227500D02*X230000D01*
X160500Y34030D02*X162440D01*
X160500D02*Y32090D01*
X160985Y32575D01*
X161955D01*
X162440Y32090D01*
Y30635D01*
X161955Y30150D02*X162440Y30635D01*
X160985Y30150D02*X161955D01*
X160500Y30635D02*X160985Y30150D01*
X163604Y34030D02*X164574Y30150D01*
X165544Y34030D01*
X158000Y18045D02*X158485Y18530D01*
X159455D01*
X159940Y18045D01*
X159455Y14650D02*X159940Y15135D01*
X158485Y14650D02*X159455D01*
X158000Y15135D02*X158485Y14650D01*
Y16784D02*X159455D01*
X159940Y18045D02*Y17269D01*
Y16299D02*Y15135D01*
Y16299D02*X159455Y16784D01*
X159940Y17269D02*X159455Y16784D01*
X161104Y14650D02*X161589D01*
X162753Y18045D02*X163238Y18530D01*
X164208D01*
X164693Y18045D01*
X164208Y14650D02*X164693Y15135D01*
X163238Y14650D02*X164208D01*
X162753Y15135D02*X163238Y14650D01*
Y16784D02*X164208D01*
X164693Y18045D02*Y17269D01*
Y16299D02*Y15135D01*
Y16299D02*X164208Y16784D01*
X164693Y17269D02*X164208Y16784D01*
X165857Y18530D02*X166827Y14650D01*
X167797Y18530D01*
X30607Y42755D02*X31393D01*
X30607Y37245D02*X31393D01*
X34500Y28000D02*Y8000D01*
X64500Y28000D02*Y8000D01*
X34500Y28000D02*X35500D01*
X63500D02*X64500D01*
X63500Y8000D02*X64500D01*
X34500D02*X35500D01*
X33000Y6000D02*G75*G03X33000Y6000I0J500D01*G01*
X88000Y109500D02*Y90500D01*
X57000Y109500D02*X88000D01*
X57000D02*Y90500D01*
X75000D02*X88000D01*
X57000D02*X70000D01*
X75000D02*G75*G03X70000Y90500I-2500J0D01*G01*
X63771Y112750D02*X74401D01*
X63771Y131250D02*X74401D01*
X63771Y116000D02*Y112750D01*
Y131250D02*Y128000D01*
X74401Y112929D02*Y112750D01*
Y131250D02*Y131071D01*
X11700Y100000D02*Y85000D01*
Y69500D02*Y60000D01*
X41700Y77500D02*Y60000D01*
X37300Y77500D02*Y60000D01*
X11700D02*X41700D01*
X11700Y100000D02*X32000D01*
X31500Y70000D02*X51800D01*
X31500Y130000D02*X51800D01*
Y70000D01*
X62607Y79745D02*X63393D01*
X62607Y85255D02*X63393D01*
X69745Y10893D02*Y10107D01*
X75255Y10893D02*Y10107D01*
X31201Y55241D02*X43799D01*
Y47759D01*
X31201D01*
Y55241D01*
X17255Y46393D02*Y45607D01*
X11745Y46393D02*Y45607D01*
X57000Y76000D02*X67000D01*
Y36000D02*X57000D01*
X67000Y76000D02*Y75000D01*
Y67000D02*Y55000D01*
Y47000D02*Y36000D01*
X57000D02*Y37000D01*
Y45000D02*Y57000D01*
Y65000D02*Y76000D01*
X55000Y77500D02*G75*G03X55000Y77500I500J0D01*G01*
X11700Y115000D02*Y100000D01*
Y140000D02*Y130500D01*
X41700Y140000D02*Y122500D01*
X37300Y140000D02*Y122500D01*
X11700Y140000D02*X41700D01*
X11700Y100000D02*X32000D01*
X96626Y170835D02*Y125165D01*
X130090Y170835D02*Y125165D01*
X96626Y170835D02*X130090D01*
X96626Y125165D02*X130090D01*
X38500Y164300D02*Y144600D01*
X46500Y164300D02*Y144600D01*
X38500Y164300D02*X46500D01*
X38500Y144600D02*X46500D01*
X38500Y157500D02*X46500D01*
X54508Y139008D02*X61004D01*
X73996D02*X80492D01*
Y158496D02*Y139008D01*
X54508Y158496D02*Y139008D01*
X80492Y158496D02*X73996Y164992D01*
X54508Y158496D02*X61004Y164992D01*
X57500Y158000D02*X61500D01*
X59500Y160000D02*Y156000D01*
X91255Y151393D02*Y150607D01*
X85745Y151393D02*Y150607D01*
X100607Y115245D02*X101393D01*
X100607Y120755D02*X101393D01*
X85245Y119393D02*Y118607D01*
X90755Y119393D02*Y118607D01*
X141107Y162245D02*X141893D01*
X141107Y167755D02*X141893D01*
X141107Y153755D02*X141893D01*
X141107Y148245D02*X141893D01*
X188110Y125299D02*Y112701D01*
Y125299D02*X201890D01*
Y112701D01*
X188110D02*X201890D01*
X253745Y54393D02*Y53607D01*
X259255Y54393D02*Y53607D01*
X177000Y33500D02*Y13500D01*
X223000D01*
X177000Y33500D02*X223000D01*
Y13500D01*
X221000Y23500D01*
X223000Y33500D02*X221000Y23500D01*
X101107Y101255D02*X101893D01*
X101107Y95745D02*X101893D01*
X90715Y81785D02*Y46115D01*
Y81785D02*X129285D01*
Y43215D01*
X93615D02*X129285D01*
X93615D02*X90715Y46115D01*
X93615Y45115D02*G75*G03X93615Y45115I0J1000D01*G01*
X130107Y23745D02*X130893D01*
X130107Y29255D02*X130893D01*
X113107D02*X113893D01*
X113107Y23745D02*X113893D01*
X111745Y106393D02*Y105607D01*
X117255Y106393D02*Y105607D01*
X80245Y10893D02*Y10107D01*
X85755Y10893D02*Y10107D01*
X99362Y1650D02*X144638D01*
X99362Y20350D02*Y1650D01*
Y20350D02*X144638D01*
Y1650D01*
X162107Y12755D02*X162893D01*
X162107Y7245D02*X162893D01*
X173607Y108755D02*X174393D01*
X173607Y103245D02*X174393D01*
X173607Y96755D02*X174393D01*
X173607Y91245D02*X174393D01*
X210500Y83000D02*Y49000D01*
X179500Y83000D02*X210500D01*
X179500D02*Y49000D01*
X197500D02*X210500D01*
X179500D02*X192500D01*
X197500D02*G75*G03X192500Y49000I-2500J0D01*G01*
X134201Y41241D02*X146799D01*
Y33759D01*
X134201D01*
Y41241D01*
X162107Y28255D02*X162893D01*
X162107Y22745D02*X162893D01*
X146693Y60000D02*Y55650D01*
X243307Y60000D02*Y55650D01*
X146693D02*X150000D01*
X243307D02*X240000D01*
X146693Y138642D02*X176890Y164351D01*
X243307Y138642D02*X213110Y164351D01*
X176890D02*X213110D01*
X146693Y34650D02*X150000D01*
X146693D02*Y45000D01*
X243307Y34650D02*X240000D01*
X243307D02*Y45000D01*
X253745Y105393D02*Y104607D01*
X259255Y105393D02*Y104607D01*
X124000Y123000D02*Y119500D01*
X124500Y119000D01*
X125500D01*
X126000Y119500D01*
Y123000D02*Y119500D01*
X127200Y120500D02*X129200Y123000D01*
X127200Y120500D02*X129700D01*
X129200Y123000D02*Y119000D01*
X132000Y88000D02*Y84500D01*
X132500Y84000D01*
X133500D01*
X134000Y84500D01*
Y88000D02*Y84500D01*
X135200Y87200D02*X136000Y88000D01*
Y84000D01*
X135200D02*X136700D01*
X109700Y116000D02*X111000D01*
X109000Y116700D02*X109700Y116000D01*
X109000Y119300D02*Y116700D01*
Y119300D02*X109700Y120000D01*
X111000D01*
X112200Y119200D02*X113000Y120000D01*
Y116000D01*
X112200D02*X113700D01*
X114900Y119500D02*X115400Y120000D01*
X116900D01*
X117400Y119500D01*
Y118500D01*
X114900Y116000D02*X117400Y118500D01*
X114900Y116000D02*X117400D01*
X86093Y127107D02*X87393D01*
X85393Y127807D02*X86093Y127107D01*
X85393Y130407D02*Y127807D01*
Y130407D02*X86093Y131107D01*
X87393D01*
X88593Y130607D02*X89093Y131107D01*
X90593D01*
X91093Y130607D01*
Y129607D01*
X88593Y127107D02*X91093Y129607D01*
X88593Y127107D02*X91093D01*
X120050Y105650D02*X121350D01*
X119350Y106350D02*X120050Y105650D01*
X119350Y108950D02*Y106350D01*
Y108950D02*X120050Y109650D01*
X121350D01*
X123050Y105650D02*X125050Y109650D01*
X122550D02*X125050D01*
X55842Y132911D02*Y129411D01*
X56342Y128911D01*
X57342D01*
X57842Y129411D01*
Y132911D02*Y129411D01*
X59042Y132411D02*X59542Y132911D01*
X60542D01*
X61042Y132411D01*
X60542Y128911D02*X61042Y129411D01*
X59542Y128911D02*X60542D01*
X59042Y129411D02*X59542Y128911D01*
Y131111D02*X60542D01*
X61042Y132411D02*Y131611D01*
Y130611D02*Y129411D01*
Y130611D02*X60542Y131111D01*
X61042Y131611D02*X60542Y131111D01*
X48000Y136800D02*Y136000D01*
X44500D02*X48000D01*
X44000Y136500D02*X44500Y136000D01*
X44000Y137000D02*Y136500D01*
X44500Y137500D02*X44000Y137000D01*
X44500Y137500D02*X45000D01*
X47200Y134800D02*X48000Y134000D01*
X44000D02*X48000D01*
X44000Y134800D02*Y133300D01*
X47500Y66300D02*Y65500D01*
X44000D02*X47500D01*
X43500Y66000D02*X44000Y65500D01*
X43500Y66500D02*Y66000D01*
X44000Y67000D02*X43500Y66500D01*
X44000Y67000D02*X44500D01*
X47000Y64300D02*X47500Y63800D01*
Y62300D01*
X47000Y61800D01*
X46000D02*X47000D01*
X43500Y64300D02*X46000Y61800D01*
X43500Y64300D02*Y61800D01*
X45700Y128000D02*X46500D01*
Y124500D01*
X46000Y124000D02*X46500Y124500D01*
X45500Y124000D02*X46000D01*
X45000Y124500D02*X45500Y124000D01*
X45000Y125000D02*Y124500D01*
X47700Y125500D02*X49700Y128000D01*
X47700Y125500D02*X50200D01*
X49700Y128000D02*Y124000D01*
X95050Y103150D02*X96350D01*
X94350Y103850D02*X95050Y103150D01*
X94350Y106450D02*Y103850D01*
Y106450D02*X95050Y107150D01*
X96350D01*
X99050D02*X99550Y106650D01*
X98050Y107150D02*X99050D01*
X97550Y106650D02*X98050Y107150D01*
X97550Y106650D02*Y103650D01*
X98050Y103150D01*
X99050Y105350D02*X99550Y104850D01*
X97550Y105350D02*X99050D01*
X98050Y103150D02*X99050D01*
X99550Y103650D01*
Y104850D02*Y103650D01*
X79500Y88500D02*Y85000D01*
X80000Y84500D01*
X81000D01*
X81500Y85000D01*
Y88500D02*Y85000D01*
X82700Y88000D02*X83200Y88500D01*
X84700D01*
X85200Y88000D01*
Y87000D01*
X82700Y84500D02*X85200Y87000D01*
X82700Y84500D02*X85200D01*
X71550Y80650D02*X72850D01*
X70850Y81350D02*X71550Y80650D01*
X70850Y83950D02*Y81350D01*
Y83950D02*X71550Y84650D01*
X72850D01*
X74050D02*X76050D01*
X74050D02*Y82650D01*
X74550Y83150D01*
X75550D01*
X76050Y82650D01*
Y81150D01*
X75550Y80650D02*X76050Y81150D01*
X74550Y80650D02*X75550D01*
X74050Y81150D02*X74550Y80650D01*
X182878Y104150D02*X184178D01*
X182178Y104850D02*X182878Y104150D01*
X182178Y107450D02*Y104850D01*
Y107450D02*X182878Y108150D01*
X184178D01*
X185878Y104150D02*X187378Y106150D01*
Y107650D02*Y106150D01*
X186878Y108150D02*X187378Y107650D01*
X185878Y108150D02*X186878D01*
X185378Y107650D02*X185878Y108150D01*
X185378Y107650D02*Y106650D01*
X185878Y106150D01*
X187378D01*
X182878Y92150D02*X184178D01*
X182178Y92850D02*X182878Y92150D01*
X182178Y95450D02*Y92850D01*
Y95450D02*X182878Y96150D01*
X184178D01*
X185378Y92650D02*X185878Y92150D01*
X185378Y93450D02*Y92650D01*
Y93450D02*X186078Y94150D01*
X186678D01*
X187378Y93450D01*
Y92650D01*
X186878Y92150D02*X187378Y92650D01*
X185878Y92150D02*X186878D01*
X185378Y94850D02*X186078Y94150D01*
X185378Y95650D02*Y94850D01*
Y95650D02*X185878Y96150D01*
X186878D01*
X187378Y95650D01*
Y94850D01*
X186678Y94150D02*X187378Y94850D01*
X192500Y89000D02*Y85500D01*
X193000Y85000D01*
X194000D01*
X194500Y85500D01*
Y89000D02*Y85500D01*
X195700Y89000D02*X197700D01*
X195700D02*Y87000D01*
X196200Y87500D01*
X197200D01*
X197700Y87000D01*
Y85500D01*
X197200Y85000D02*X197700Y85500D01*
X196200Y85000D02*X197200D01*
X195700Y85500D02*X196200Y85000D01*
X204304Y120948D02*X206304D01*
X206804Y120448D01*
Y119448D01*
X206304Y118948D02*X206804Y119448D01*
X204804Y118948D02*X206304D01*
X204804Y120948D02*Y116948D01*
X205604Y118948D02*X206804Y116948D01*
X208004Y120148D02*X208804Y120948D01*
Y116948D01*
X208004D02*X209504D01*
X247350Y102350D02*X251350D01*
X247350Y103650D02*X248050Y104350D01*
X250650D01*
X251350Y103650D02*X250650Y104350D01*
X251350Y103650D02*Y101850D01*
X247350Y103650D02*Y101850D01*
Y107050D02*X247850Y107550D01*
X247350Y107050D02*Y106050D01*
X247850Y105550D02*X247350Y106050D01*
X247850Y105550D02*X250850D01*
X251350Y106050D01*
X249150Y107050D02*X249650Y107550D01*
X249150Y107050D02*Y105550D01*
X251350Y107050D02*Y106050D01*
Y107050D02*X250850Y107550D01*
X249650D02*X250850D01*
X46000Y53000D02*X48000D01*
X48500Y52500D01*
Y51500D01*
X48000Y51000D02*X48500Y51500D01*
X46500Y51000D02*X48000D01*
X46500Y53000D02*Y49000D01*
X47300Y51000D02*X48500Y49000D01*
X49700Y50500D02*X51700Y53000D01*
X49700Y50500D02*X52200D01*
X51700Y53000D02*Y49000D01*
X40000Y170500D02*Y166500D01*
X41300Y170500D02*X42000Y169800D01*
Y167200D01*
X41300Y166500D02*X42000Y167200D01*
X39500Y166500D02*X41300D01*
X39500Y170500D02*X41300D01*
X43200Y168000D02*X45200Y170500D01*
X43200Y168000D02*X45700D01*
X45200Y170500D02*Y166500D01*
X79700Y163000D02*X81000D01*
X79000Y163700D02*X79700Y163000D01*
X79000Y166300D02*Y163700D01*
Y166300D02*X79700Y167000D01*
X81000D01*
X82200Y166200D02*X83000Y167000D01*
Y163000D01*
X82200D02*X83700D01*
X86007Y139150D02*X87307D01*
X85307Y139850D02*X86007Y139150D01*
X85307Y142450D02*Y139850D01*
Y142450D02*X86007Y143150D01*
X87307D01*
X88507Y142350D02*X89307Y143150D01*
Y139150D01*
X88507D02*X90007D01*
X91207Y142350D02*X92007Y143150D01*
Y139150D01*
X91207D02*X92707D01*
X149350Y167150D02*X151350D01*
X151850Y166650D01*
Y165650D01*
X151350Y165150D02*X151850Y165650D01*
X149850Y165150D02*X151350D01*
X149850Y167150D02*Y163150D01*
X150650Y165150D02*X151850Y163150D01*
X153050Y167150D02*X155050D01*
X153050D02*Y165150D01*
X153550Y165650D01*
X154550D01*
X155050Y165150D01*
Y163650D01*
X154550Y163150D02*X155050Y163650D01*
X153550Y163150D02*X154550D01*
X153050Y163650D02*X153550Y163150D01*
X149350Y153150D02*X151350D01*
X151850Y152650D01*
Y151650D01*
X151350Y151150D02*X151850Y151650D01*
X149850Y151150D02*X151350D01*
X149850Y153150D02*Y149150D01*
X150650Y151150D02*X151850Y149150D01*
X154550Y153150D02*X155050Y152650D01*
X153550Y153150D02*X154550D01*
X153050Y152650D02*X153550Y153150D01*
X153050Y152650D02*Y149650D01*
X153550Y149150D01*
X154550Y151350D02*X155050Y150850D01*
X153050Y151350D02*X154550D01*
X153550Y149150D02*X154550D01*
X155050Y149650D01*
Y150850D02*Y149650D01*
X27350Y35150D02*X29350D01*
X29850Y34650D01*
Y33650D01*
X29350Y33150D02*X29850Y33650D01*
X27850Y33150D02*X29350D01*
X27850Y35150D02*Y31150D01*
X28650Y33150D02*X29850Y31150D01*
X31050Y34650D02*X31550Y35150D01*
X33050D01*
X33550Y34650D01*
Y33650D01*
X31050Y31150D02*X33550Y33650D01*
X31050Y31150D02*X33550D01*
X247350Y51350D02*X251350D01*
X247350Y52650D02*X248050Y53350D01*
X250650D01*
X251350Y52650D02*X250650Y53350D01*
X251350Y52650D02*Y50850D01*
X247350Y52650D02*Y50850D01*
Y56550D02*Y54550D01*
X249350D01*
X248850Y55050D01*
Y56050D02*Y55050D01*
Y56050D02*X249350Y56550D01*
X250850D01*
X251350Y56050D02*X250850Y56550D01*
X251350Y56050D02*Y55050D01*
X250850Y54550D02*X251350Y55050D01*
X226000Y21000D02*X226500Y21500D01*
X226000Y21000D02*Y19500D01*
X226500Y19000D02*X226000Y19500D01*
X226500Y19000D02*X227500D01*
X228000Y19500D01*
Y21000D02*Y19500D01*
Y21000D02*X228500Y21500D01*
X229500D01*
X230000Y21000D02*X229500Y21500D01*
X230000Y21000D02*Y19500D01*
X229500Y19000D02*X230000Y19500D01*
X226000Y22700D02*X228000D01*
X230000Y23200D01*
X228000Y24200D01*
X230000Y25200D01*
X228000Y25700D01*
X226000D02*X228000D01*
X226800Y26900D02*X226000Y27700D01*
X230000D01*
Y28400D02*Y26900D01*
X68507Y18150D02*X69807D01*
X67807Y18850D02*X68507Y18150D01*
X67807Y21450D02*Y18850D01*
Y21450D02*X68507Y22150D01*
X69807D01*
X71007Y21350D02*X71807Y22150D01*
Y18150D01*
X71007D02*X72507D01*
X73707Y18650D02*X74207Y18150D01*
X73707Y21650D02*Y18650D01*
Y21650D02*X74207Y22150D01*
X75207D01*
X75707Y21650D01*
Y18650D01*
X75207Y18150D02*X75707Y18650D01*
X74207Y18150D02*X75207D01*
X73707Y19150D02*X75707Y21150D01*
X80500Y22000D02*X82500D01*
X83000Y21500D01*
Y20500D01*
X82500Y20000D02*X83000Y20500D01*
X81000Y20000D02*X82500D01*
X81000Y22000D02*Y18000D01*
X81800Y20000D02*X83000Y18000D01*
X84700D02*X86700Y22000D01*
X84200D02*X86700D01*
X119783Y16500D02*X120783Y14500D01*
X121783Y16500D01*
X120783Y14500D02*Y12500D01*
X122983Y15700D02*X123783Y16500D01*
Y12500D01*
X122983D02*X124483D01*
X139050Y24650D02*X140350D01*
X138350Y25350D02*X139050Y24650D01*
X138350Y27950D02*Y25350D01*
Y27950D02*X139050Y28650D01*
X140350D01*
X141550Y28150D02*X142050Y28650D01*
X143050D01*
X143550Y28150D01*
X143050Y24650D02*X143550Y25150D01*
X142050Y24650D02*X143050D01*
X141550Y25150D02*X142050Y24650D01*
Y26850D02*X143050D01*
X143550Y28150D02*Y27350D01*
Y26350D02*Y25150D01*
Y26350D02*X143050Y26850D01*
X143550Y27350D02*X143050Y26850D01*
X100550Y24650D02*X101850D01*
X99850Y25350D02*X100550Y24650D01*
X99850Y27950D02*Y25350D01*
Y27950D02*X100550Y28650D01*
X101850D01*
X103050Y26150D02*X105050Y28650D01*
X103050Y26150D02*X105550D01*
X105050Y28650D02*Y24650D01*
X67200Y30000D02*X68000D01*
Y26500D01*
X67500Y26000D02*X68000Y26500D01*
X67000Y26000D02*X67500D01*
X66500Y26500D02*X67000Y26000D01*
X66500Y27000D02*Y26500D01*
X69200Y29500D02*X69700Y30000D01*
X70700D01*
X71200Y29500D01*
X70700Y26000D02*X71200Y26500D01*
X69700Y26000D02*X70700D01*
X69200Y26500D02*X69700Y26000D01*
Y28200D02*X70700D01*
X71200Y29500D02*Y28700D01*
Y27700D02*Y26500D01*
Y27700D02*X70700Y28200D01*
X71200Y28700D02*X70700Y28200D01*
X148500Y40500D02*X150500D01*
X151000Y40000D01*
Y39000D01*
X150500Y38500D02*X151000Y39000D01*
X149000Y38500D02*X150500D01*
X149000Y40500D02*Y36500D01*
X149800Y38500D02*X151000Y36500D01*
X152200Y40000D02*X152700Y40500D01*
X153700D01*
X154200Y40000D01*
X153700Y36500D02*X154200Y37000D01*
X152700Y36500D02*X153700D01*
X152200Y37000D02*X152700Y36500D01*
Y38700D02*X153700D01*
X154200Y40000D02*Y39200D01*
Y38200D02*Y37000D01*
Y38200D02*X153700Y38700D01*
X154200Y39200D02*X153700Y38700D01*
X149893Y28150D02*Y24150D01*
X151193Y28150D02*X151893Y27450D01*
Y24850D01*
X151193Y24150D02*X151893Y24850D01*
X149393Y24150D02*X151193D01*
X149393Y28150D02*X151193D01*
X153093Y27350D02*X153893Y28150D01*
Y24150D01*
X153093D02*X154593D01*
X149888Y20660D02*Y16700D01*
X151175Y20660D02*X151868Y19967D01*
Y17393D01*
X151175Y16700D02*X151868Y17393D01*
X149393Y16700D02*X151175D01*
X149393Y20660D02*X151175D01*
X153056Y20165D02*X153551Y20660D01*
X154541D01*
X155036Y20165D01*
X154541Y16700D02*X155036Y17195D01*
X153551Y16700D02*X154541D01*
X153056Y17195D02*X153551Y16700D01*
Y18878D02*X154541D01*
X155036Y20165D02*Y19373D01*
Y18383D02*Y17195D01*
Y18383D02*X154541Y18878D01*
X155036Y19373D02*X154541Y18878D01*
X19500Y49500D02*X23500D01*
Y48200D02*X22800Y47500D01*
X20200D02*X22800D01*
X19500Y48200D02*X20200Y47500D01*
X19500Y50000D02*Y48200D01*
X23500Y50000D02*Y48200D01*
X23000Y46300D02*X23500Y45800D01*
Y44300D01*
X23000Y43800D01*
X22000D02*X23000D01*
X19500Y46300D02*X22000Y43800D01*
X19500Y46300D02*Y43800D01*
X70200Y43500D02*X71000D01*
Y40000D01*
X70500Y39500D02*X71000Y40000D01*
X70000Y39500D02*X70500D01*
X69500Y40000D02*X70000Y39500D01*
X69500Y40500D02*Y40000D01*
X72700Y43500D02*Y39500D01*
X72200Y43500D02*X74200D01*
X74700Y43000D01*
Y42000D01*
X74200Y41500D02*X74700Y42000D01*
X72700Y41500D02*X74200D01*
X75900Y42700D02*X76700Y43500D01*
Y39500D01*
X75900D02*X77400D01*
M02*
