M48
INCH
T64C0.020
T63C0.030
T62C0.128
T61C0.048
T60C0.129
T59C0.045
%
T64
X001450Y005550
X003400Y007350
X003950Y004000
X004450Y001800
X004900Y012150
X005450Y012400
X005450Y011900
X005450Y011400
X005450Y010900
X005450Y008750
X005450Y008250
X005950Y011400
X005950Y008750
X005950Y007100
X006050Y014700
X006050Y014250
X006350Y004500
X006350Y004050
X006450Y003150
X006700Y001400
X007450Y014700
X007450Y014250
X007650Y011100
X007700Y006150
X008250Y013550
X008700Y013550
X008850Y002450
X009050Y010750
X009050Y010250
X009050Y009750
X009050Y009250
X009150Y013550
X009600Y013550
X009746Y011204
X009800Y012350
X010100Y010850
X010500Y010500
X010800Y010950
X011100Y004650
X011700Y009700
X011750Y002100
X011945Y004650
X012150Y009600
X012200Y002550
X012200Y002100
X012260Y005350
X012300Y015800
X012600Y009500
X012650Y006650
X012650Y002100
X012750Y004990
X013050Y009400
X013050Y003908
X013500Y009300
X013600Y010250
X013900Y014300
X014350Y014300
X014800Y014300
X014800Y006250
X015250Y014300
X015300Y011969
X015719Y010600
X016398Y012756
X017050Y010000
X017100Y005100
X017200Y002550
X017200Y001000
X017500Y004050
X018500Y011565
X018500Y004050
X019050Y010000
X019500Y005100
X019500Y004050
X020500Y004050
X020550Y011200
X021350Y006100
X021500Y004050
X021700Y005600
X022150Y013500
X022500Y013150
X023350Y012800
X023350Y005750
T63
X003650Y011750
X003650Y010750
X003650Y009750
X003650Y008750
X004650Y011250
X004650Y010250
X004650Y009250
X004650Y008250
T59
X010450Y015800
X010450Y014800
X010450Y013800
T61
X002450Y013000
X002450Y011000
X002450Y009000
X002450Y007000
T62
X001150Y012250
X001150Y007750
T60
X001700Y015800
X001700Y001700
X024800Y015800
X024800Y001700
M30
