G04 start of page 9 for group -4015 idx -4015 *
G04 Title: (unknown), toppaste *
G04 Creator: pcb 20110918 *
G04 CreationDate: Thu 28 Mar 2013 10:59:42 PM GMT UTC *
G04 For: railfan *
G04 Format: Gerber/RS-274X *
G04 PCB-Dimensions: 300000 200000 *
G04 PCB-Coordinate-Origin: lower left *
%MOIN*%
%FSLAX25Y25*%
%LNTOPPASTE*%
%ADD95C,0.0001*%
%ADD94R,0.0945X0.0945*%
%ADD93R,0.0378X0.0378*%
%ADD92R,0.0340X0.0340*%
%ADD91R,0.0360X0.0360*%
%ADD90R,0.0630X0.0630*%
%ADD89R,0.0157X0.0157*%
%ADD88R,0.0512X0.0512*%
G54D88*X121595Y176181D02*Y173819D01*
X133405Y176181D02*Y173819D01*
X151414Y32393D02*Y31607D01*
X158500Y32393D02*Y31607D01*
X155000Y21393D02*Y20607D01*
X147914Y21393D02*Y20607D01*
G54D89*X137252Y45028D02*Y40602D01*
X140401Y45028D02*Y40602D01*
X143551Y45028D02*Y40602D01*
X146700Y45028D02*Y40602D01*
X149850Y45028D02*Y40602D01*
X153000Y45028D02*Y40602D01*
X156149Y45028D02*Y40602D01*
X159299Y45028D02*Y40602D01*
X162448Y45028D02*Y40602D01*
X165598Y45028D02*Y40602D01*
X168748Y45028D02*Y40602D01*
X175472Y51752D02*X179898D01*
X175472Y54901D02*X179898D01*
X175472Y58051D02*X179898D01*
X175472Y61200D02*X179898D01*
X175472Y64350D02*X179898D01*
X175472Y67500D02*X179898D01*
X175472Y70649D02*X179898D01*
X175472Y73799D02*X179898D01*
X175472Y76948D02*X179898D01*
X175472Y80098D02*X179898D01*
X175472Y83248D02*X179898D01*
X168748Y94398D02*Y89972D01*
X165599Y94398D02*Y89972D01*
X162449Y94398D02*Y89972D01*
X159300Y94398D02*Y89972D01*
X156150Y94398D02*Y89972D01*
X153000Y94398D02*Y89972D01*
X149851Y94398D02*Y89972D01*
X146701Y94398D02*Y89972D01*
X143552Y94398D02*Y89972D01*
X140402Y94398D02*Y89972D01*
X137252Y94398D02*Y89972D01*
X126102Y83248D02*X130528D01*
X126102Y80099D02*X130528D01*
X126102Y76949D02*X130528D01*
X126102Y73800D02*X130528D01*
X126102Y70650D02*X130528D01*
X126102Y67500D02*X130528D01*
X126102Y64351D02*X130528D01*
X126102Y61201D02*X130528D01*
X126102Y58052D02*X130528D01*
X126102Y54902D02*X130528D01*
X126102Y51752D02*X130528D01*
G54D88*X105107Y170957D02*X105893D01*
X105107Y178043D02*X105893D01*
X157586Y120393D02*Y119607D01*
X150500Y120393D02*Y119607D01*
X116607Y72500D02*X117393D01*
X116607Y65414D02*X117393D01*
X155043Y10393D02*Y9607D01*
X147957Y10393D02*Y9607D01*
X227543Y127393D02*Y126607D01*
X220457Y127393D02*Y126607D01*
G54D90*X69193Y181000D02*X75492D01*
X49508D02*X55807D01*
G54D88*X55107Y96414D02*X55893D01*
X55107Y103500D02*X55893D01*
X253607Y159457D02*X254393D01*
X253607Y166543D02*X254393D01*
X95043Y48393D02*Y47607D01*
X87957Y48393D02*Y47607D01*
G54D91*X67900Y153600D02*Y152400D01*
X55000Y153600D02*Y152400D01*
G54D92*X233900Y55600D02*X234500D01*
X233900Y63400D02*X234500D01*
X225700Y59500D02*X226300D01*
G54D88*X90457Y88893D02*Y88107D01*
X97543Y88893D02*Y88107D01*
X121607Y126000D02*X122393D01*
X121607Y133086D02*X122393D01*
X152043Y161393D02*Y160607D01*
X144957Y161393D02*Y160607D01*
X8650Y80000D02*X9436D01*
X8650Y72914D02*X9436D01*
G54D93*X97406Y124905D02*Y120811D01*
X91500Y124905D02*Y113095D01*
G54D94*Y111361D02*Y109471D01*
G54D95*G36*
X93385Y118926D02*X96225Y116086D01*
X94805Y114666D01*
X91965Y117506D01*
X93385Y118926D01*
G37*
G36*
X86775Y116086D02*X89615Y118926D01*
X91035Y117506D01*
X88195Y114666D01*
X86775Y116086D01*
G37*
G54D93*X85594Y124905D02*Y120811D01*
G54D88*X213607Y172914D02*X214393D01*
X213607Y180000D02*X214393D01*
X198107Y172914D02*X198893D01*
X198107Y180000D02*X198893D01*
X188607Y67457D02*X189393D01*
X188607Y74543D02*X189393D01*
X290405Y152681D02*Y150319D01*
X278595Y152681D02*Y150319D01*
X87607Y170957D02*X88393D01*
X87607Y178043D02*X88393D01*
X77043Y88893D02*Y88107D01*
X69957Y88893D02*Y88107D01*
X9319Y47638D02*X11681D01*
X9319Y59448D02*X11681D01*
X77043Y48393D02*Y47607D01*
X69957Y48393D02*Y47607D01*
X290405Y115681D02*Y113319D01*
X278595Y115681D02*Y113319D01*
X55107Y114000D02*X55893D01*
X55107Y121086D02*X55893D01*
X52607Y26457D02*X53393D01*
X52607Y33543D02*X53393D01*
X45457Y11350D02*Y10564D01*
X52543Y11350D02*Y10564D01*
X55107Y139000D02*X55893D01*
X55107Y131914D02*X55893D01*
X41607Y26457D02*X42393D01*
X41607Y33543D02*X42393D01*
X131043Y161393D02*Y160607D01*
X123957Y161393D02*Y160607D01*
X157586Y109393D02*Y108607D01*
X150500Y109393D02*Y108607D01*
G54D92*X260400Y73600D02*X261000D01*
X260400Y81400D02*X261000D01*
X252200Y77500D02*X252800D01*
G54D88*X202414Y67893D02*Y67107D01*
X209500Y67893D02*Y67107D01*
G54D92*X260400Y55600D02*X261000D01*
X260400Y63400D02*X261000D01*
X252200Y59500D02*X252800D01*
G54D88*X274107Y81086D02*X274893D01*
X274107Y74000D02*X274893D01*
X274107Y62586D02*X274893D01*
X274107Y55500D02*X274893D01*
G54D92*X233900Y73600D02*X234500D01*
X233900Y81400D02*X234500D01*
X225700Y77500D02*X226300D01*
G54D88*X202601Y77575D02*Y76789D01*
X209687Y77575D02*Y76789D01*
X121595Y190181D02*Y187819D01*
X133405Y190181D02*Y187819D01*
M02*
