G04 start of page 7 for group -4079 idx -4079 *
G04 Title: (unknown), topsilk *
G04 Creator: pcb 20110918 *
G04 CreationDate: Thu 28 Mar 2013 10:59:42 PM GMT UTC *
G04 For: railfan *
G04 Format: Gerber/RS-274X *
G04 PCB-Dimensions: 300000 200000 *
G04 PCB-Coordinate-Origin: lower left *
%MOIN*%
%FSLAX25Y25*%
%LNTOPSILK*%
%ADD87C,0.0100*%
G54D87*X500Y199500D02*Y500D01*
X17000Y60500D02*Y58500D01*
X16000Y59500D02*X18000D01*
X500Y199500D02*X299500D01*
X133500Y183000D02*Y181000D01*
X103000Y28500D02*Y30000D01*
Y28500D02*X104500D01*
X103000D02*X106000Y31500D01*
X500Y500D02*X299500D01*
X132500Y182000D02*X134500D01*
X277000Y145000D02*Y143000D01*
X276000Y144000D02*X278000D01*
X299500Y500D02*Y199500D01*
X277000Y108000D02*Y106000D01*
X276000Y107000D02*X278000D01*
X247000Y8340D02*Y7120D01*
X248220Y5900D01*
X249440Y7120D01*
Y8340D02*Y7120D01*
X250904Y10170D02*X251514Y10780D01*
X253344D01*
X253954Y10170D01*
Y8950D01*
X250904Y5900D02*X253954Y8950D01*
X250904Y5900D02*X253954D01*
X255418D02*X256028D01*
X257492Y6510D02*X258102Y5900D01*
X257492Y10170D02*Y6510D01*
Y10170D02*X258102Y10780D01*
X259322D01*
X259932Y10170D01*
Y6510D01*
X259322Y5900D02*X259932Y6510D01*
X258102Y5900D02*X259322D01*
X257492Y7120D02*X259932Y9560D01*
X274500Y125170D02*Y120900D01*
Y125170D02*X275110Y125780D01*
X276940D01*
X277550Y125170D01*
Y120900D01*
X274500Y123340D02*X277550D01*
X281454Y125780D02*X282064Y125170D01*
X279624Y125780D02*X281454D01*
X279014Y125170D02*X279624Y125780D01*
X279014Y125170D02*Y123950D01*
X279624Y123340D01*
X281454D01*
X282064Y122730D01*
Y121510D01*
X281454Y120900D02*X282064Y121510D01*
X279624Y120900D02*X281454D01*
X279014Y121510D02*X279624Y120900D01*
X285968Y125780D02*X286578Y125170D01*
X284138Y125780D02*X285968D01*
X283528Y125170D02*X284138Y125780D01*
X283528Y125170D02*Y123950D01*
X284138Y123340D01*
X285968D01*
X286578Y122730D01*
Y121510D01*
X285968Y120900D02*X286578Y121510D01*
X284138Y120900D02*X285968D01*
X283528Y121510D02*X284138Y120900D01*
X288042Y125170D02*Y121510D01*
Y125170D02*X288652Y125780D01*
X289872D01*
X290482Y125170D01*
Y121510D01*
X289872Y120900D02*X290482Y121510D01*
X288652Y120900D02*X289872D01*
X288042Y121510D02*X288652Y120900D01*
X292556D02*X294386D01*
X291946Y121510D02*X292556Y120900D01*
X291946Y125170D02*Y121510D01*
Y125170D02*X292556Y125780D01*
X294386D01*
X6120Y161500D02*X9780D01*
X6120D02*X4900Y160280D01*
X6120Y159060D01*
X9780D01*
Y157596D02*Y156376D01*
X4900Y156986D02*X9780D01*
X4900Y157596D02*Y156376D01*
Y154912D02*X9780D01*
X9170D02*X9780D01*
X9170D02*X6120Y151862D01*
X4900D02*X9780D01*
Y139560D02*X9170Y138950D01*
X9780Y141390D02*Y139560D01*
X9170Y142000D02*X9780Y141390D01*
X5510Y142000D02*X9170D01*
X5510D02*X4900Y141390D01*
Y139560D01*
X5510Y138950D01*
X6730D01*
X7340Y139560D02*X6730Y138950D01*
X7340Y140780D02*Y139560D01*
X4900Y137486D02*X9780D01*
X9170D02*X9780D01*
X9170D02*X6120Y134436D01*
X4900D02*X9780D01*
X4900Y132362D02*X9780D01*
Y130532D02*X9170Y129922D01*
X5510D02*X9170D01*
X4900Y130532D02*X5510Y129922D01*
X4900Y132972D02*Y130532D01*
X9780Y132972D02*Y130532D01*
X5610Y42280D02*Y37400D01*
X5000Y42280D02*X7440D01*
X8050Y41670D01*
Y40450D01*
X7440Y39840D02*X8050Y40450D01*
X5610Y39840D02*X7440D01*
X9514Y42280D02*Y37400D01*
Y39840D02*X11954Y42280D01*
X9514Y39840D02*X11954Y37400D01*
X13418Y42280D02*X15858D01*
X14638D02*Y37400D01*
X4900Y98000D02*Y95560D01*
X5510Y94950D01*
X6730D01*
X7340Y95560D02*X6730Y94950D01*
X7340Y97390D02*Y95560D01*
X4900Y97390D02*X9780D01*
Y98000D02*Y95560D01*
X9170Y94950D01*
X7950D02*X9170D01*
X7340Y95560D02*X7950Y94950D01*
X4900Y117500D02*X9170D01*
X9780Y116890D01*
Y115060D01*
X9170Y114450D01*
X4900D02*X9170D01*
X7340Y117500D02*Y114450D01*
X138000Y176670D02*X138610Y177280D01*
X139830D01*
X140440Y176670D01*
Y173010D01*
X139830Y172400D02*X140440Y173010D01*
X138610Y172400D02*X139830D01*
X138000Y173010D02*X138610Y172400D01*
Y174840D02*X140440D01*
X141904Y172400D02*X142514D01*
X143978Y176670D02*X144588Y177280D01*
X145808D01*
X146418Y176670D01*
Y173010D01*
X145808Y172400D02*X146418Y173010D01*
X144588Y172400D02*X145808D01*
X143978Y173010D02*X144588Y172400D01*
Y174840D02*X146418D01*
X147882Y177280D02*Y173620D01*
X149102Y172400D01*
X150322Y173620D01*
Y177280D02*Y173620D01*
X138000Y191280D02*X140440D01*
X138000D02*Y188840D01*
X138610Y189450D01*
X139830D01*
X140440Y188840D01*
Y187010D01*
X139830Y186400D02*X140440Y187010D01*
X138610Y186400D02*X139830D01*
X138000Y187010D02*X138610Y186400D01*
X141904Y191280D02*Y187620D01*
X143124Y186400D01*
X144344Y187620D01*
Y191280D02*Y187620D01*
X210500Y31500D02*Y27500D01*
Y29000D02*X211000Y29500D01*
X212000D01*
X212500Y29000D01*
Y27500D01*
X214200Y31500D02*Y28000D01*
X214700Y27500D01*
X213700Y30000D02*X214700D01*
X216200Y31500D02*Y28000D01*
X216700Y27500D01*
X215700Y30000D02*X216700D01*
X218200Y29000D02*Y26000D01*
X217700Y29500D02*X218200Y29000D01*
X218700Y29500D01*
X219700D01*
X220200Y29000D01*
Y28000D01*
X219700Y27500D02*X220200Y28000D01*
X218700Y27500D02*X219700D01*
X218200Y28000D02*X218700Y27500D01*
X221400Y30000D02*X221900D01*
X221400Y29000D02*X221900D01*
X223100Y28000D02*X226100Y31000D01*
X227300Y28000D02*X230300Y31000D01*
X231500Y30500D02*Y30000D01*
Y29000D02*Y27500D01*
X234000Y29500D02*X234500Y29000D01*
X233000Y29500D02*X234000D01*
X232500Y29000D02*X233000Y29500D01*
X232500Y29000D02*Y28000D01*
X233000Y27500D01*
X234500Y29500D02*Y28000D01*
X235000Y27500D01*
X233000D02*X234000D01*
X234500Y28000D01*
X236700Y27500D02*X238200D01*
X238700Y28000D01*
X238200Y28500D02*X238700Y28000D01*
X236700Y28500D02*X238200D01*
X236200Y29000D02*X236700Y28500D01*
X236200Y29000D02*X236700Y29500D01*
X238200D01*
X238700Y29000D01*
X236200Y28000D02*X236700Y27500D01*
X240400Y29500D02*X241900D01*
X239900Y29000D02*X240400Y29500D01*
X239900Y29000D02*Y28000D01*
X240400Y27500D01*
X241900D01*
X244600Y29500D02*X245100Y29000D01*
X243600Y29500D02*X244600D01*
X243100Y29000D02*X243600Y29500D01*
X243100Y29000D02*Y28000D01*
X243600Y27500D01*
X245100Y29500D02*Y28000D01*
X245600Y27500D01*
X243600D02*X244600D01*
X245100Y28000D01*
X246800Y31500D02*Y28000D01*
X247300Y27500D01*
X248800D02*X250300D01*
X248300Y28000D02*X248800Y27500D01*
X248300Y29000D02*Y28000D01*
Y29000D02*X248800Y29500D01*
X249800D01*
X250300Y29000D01*
X248300Y28500D02*X250300D01*
Y29000D02*Y28500D01*
X253500Y31500D02*Y27500D01*
X253000D02*X253500Y28000D01*
X252000Y27500D02*X253000D01*
X251500Y28000D02*X252000Y27500D01*
X251500Y29000D02*Y28000D01*
Y29000D02*X252000Y29500D01*
X253000D01*
X253500Y29000D01*
X254700Y27500D02*X255200D01*
X256900Y29500D02*X258400D01*
X256400Y29000D02*X256900Y29500D01*
X256400Y29000D02*Y28000D01*
X256900Y27500D01*
X258400D01*
X259600Y29000D02*Y28000D01*
Y29000D02*X260100Y29500D01*
X261100D01*
X261600Y29000D01*
Y28000D01*
X261100Y27500D02*X261600Y28000D01*
X260100Y27500D02*X261100D01*
X259600Y28000D02*X260100Y27500D01*
X263300Y29000D02*Y27500D01*
Y29000D02*X263800Y29500D01*
X264300D01*
X264800Y29000D01*
Y27500D01*
Y29000D02*X265300Y29500D01*
X265800D01*
X266300Y29000D01*
Y27500D01*
X262800Y29500D02*X263300Y29000D01*
X214414Y10780D02*Y5900D01*
Y10780D02*X216244Y8950D01*
X218074Y10780D01*
Y5900D01*
X219538Y10780D02*X221978D01*
X222588Y10170D01*
Y8950D01*
X221978Y8340D02*X222588Y8950D01*
X220148Y8340D02*X221978D01*
X220148Y10780D02*Y5900D01*
Y8340D02*X222588Y5900D01*
X224052D02*X226492D01*
X227102Y6510D01*
Y7730D02*Y6510D01*
X226492Y8340D02*X227102Y7730D01*
X224662Y8340D02*X226492D01*
X224662Y10780D02*Y5900D01*
X224052Y10780D02*X226492D01*
X227102Y10170D01*
Y8950D01*
X226492Y8340D02*X227102Y8950D01*
X228566Y8340D02*X231006D01*
X232470Y10170D02*Y5900D01*
Y10170D02*X233080Y10780D01*
X234910D01*
X235520Y10170D01*
Y5900D01*
X232470Y8340D02*X235520D01*
X237594Y10780D02*Y5900D01*
X236984Y10780D02*X239424D01*
X240034Y10170D01*
Y8950D01*
X239424Y8340D02*X240034Y8950D01*
X237594Y8340D02*X239424D01*
X214500Y15010D02*X215110Y14400D01*
X214500Y18670D02*X215110Y19280D01*
X214500Y18670D02*Y15010D01*
X217184Y14400D02*X219014D01*
X216574Y15010D02*X217184Y14400D01*
X216574Y18670D02*Y15010D01*
Y18670D02*X217184Y19280D01*
X219014D01*
X220478D02*X221088Y18670D01*
Y15010D01*
X220478Y14400D02*X221088Y15010D01*
X224748Y18670D02*X225358Y19280D01*
X227188D01*
X227798Y18670D01*
Y17450D01*
X224748Y14400D02*X227798Y17450D01*
X224748Y14400D02*X227798D01*
X229262Y15010D02*X229872Y14400D01*
X229262Y18670D02*Y15010D01*
Y18670D02*X229872Y19280D01*
X231092D01*
X231702Y18670D01*
Y15010D01*
X231092Y14400D02*X231702Y15010D01*
X229872Y14400D02*X231092D01*
X229262Y15620D02*X231702Y18060D01*
X233776Y14400D02*X234996D01*
X234386Y19280D02*Y14400D01*
X233166Y18060D02*X234386Y19280D01*
X236460Y18670D02*X237070Y19280D01*
X238900D01*
X239510Y18670D01*
Y17450D01*
X236460Y14400D02*X239510Y17450D01*
X236460Y14400D02*X239510D01*
X277000Y162780D02*X279440D01*
X280050Y162170D01*
Y160950D01*
X279440Y160340D02*X280050Y160950D01*
X277610Y160340D02*X279440D01*
X277610Y162780D02*Y157900D01*
Y160340D02*X280050Y157900D01*
X283954Y162780D02*X284564Y162170D01*
X282124Y162780D02*X283954D01*
X281514Y162170D02*X282124Y162780D01*
X281514Y162170D02*Y160950D01*
X282124Y160340D01*
X283954D01*
X284564Y159730D01*
Y158510D01*
X283954Y157900D02*X284564Y158510D01*
X282124Y157900D02*X283954D01*
X281514Y158510D02*X282124Y157900D01*
X288468Y162780D02*X289078Y162170D01*
X286638Y162780D02*X288468D01*
X286028Y162170D02*X286638Y162780D01*
X286028Y162170D02*Y160950D01*
X286638Y160340D01*
X288468D01*
X289078Y159730D01*
Y158510D01*
X288468Y157900D02*X289078Y158510D01*
X286638Y157900D02*X288468D01*
X286028Y158510D02*X286638Y157900D01*
X290542Y162780D02*X291762D01*
X291152D02*Y157900D01*
X290542D02*X291762D01*
X208000Y41500D02*X209000D01*
X208500D02*Y37500D01*
X208000D02*X209000D01*
X210200Y39000D02*Y38000D01*
Y39000D02*X210700Y39500D01*
X211700D01*
X212200Y39000D01*
Y38000D01*
X211700Y37500D02*X212200Y38000D01*
X210700Y37500D02*X211700D01*
X210200Y38000D02*X210700Y37500D01*
X213400Y39500D02*Y38000D01*
X213900Y37500D01*
X214400D01*
X214900Y38000D01*
Y39500D02*Y38000D01*
X215400Y37500D01*
X215900D01*
X216400Y38000D01*
Y39500D02*Y38000D01*
X219100Y39500D02*X219600Y39000D01*
X218100Y39500D02*X219100D01*
X217600Y39000D02*X218100Y39500D01*
X217600Y39000D02*Y38000D01*
X218100Y37500D01*
X219600Y39500D02*Y38000D01*
X220100Y37500D01*
X218100D02*X219100D01*
X219600Y38000D01*
X225100Y41500D02*X225600Y41000D01*
X223600Y41500D02*X225100D01*
X223100Y41000D02*X223600Y41500D01*
X223100Y41000D02*Y40000D01*
X223600Y39500D01*
X225100D01*
X225600Y39000D01*
Y38000D01*
X225100Y37500D02*X225600Y38000D01*
X223600Y37500D02*X225100D01*
X223100Y38000D02*X223600Y37500D01*
X227300Y39500D02*X228800D01*
X226800Y39000D02*X227300Y39500D01*
X226800Y39000D02*Y38000D01*
X227300Y37500D01*
X228800D01*
X231500Y39500D02*X232000Y39000D01*
X230500Y39500D02*X231500D01*
X230000Y39000D02*X230500Y39500D01*
X230000Y39000D02*Y38000D01*
X230500Y37500D01*
X232000Y39500D02*Y38000D01*
X232500Y37500D01*
X230500D02*X231500D01*
X232000Y38000D01*
X233700Y41500D02*Y38000D01*
X234200Y37500D01*
X235700D02*X237200D01*
X235200Y38000D02*X235700Y37500D01*
X235200Y39000D02*Y38000D01*
Y39000D02*X235700Y39500D01*
X236700D01*
X237200Y39000D01*
X235200Y38500D02*X237200D01*
Y39000D02*Y38500D01*
X240400Y41500D02*Y37500D01*
X239900D02*X240400Y38000D01*
X238900Y37500D02*X239900D01*
X238400Y38000D02*X238900Y37500D01*
X238400Y39000D02*Y38000D01*
Y39000D02*X238900Y39500D01*
X239900D01*
X240400Y39000D01*
X243400Y39500D02*X244900D01*
X243400Y37500D02*X245400D01*
X243400Y41500D02*Y37500D01*
Y41500D02*X245400D01*
X247100Y39000D02*Y37500D01*
Y39000D02*X247600Y39500D01*
X248100D01*
X248600Y39000D01*
Y37500D01*
X246600Y39500D02*X247100Y39000D01*
X251300Y39500D02*X251800Y39000D01*
X250300Y39500D02*X251300D01*
X249800Y39000D02*X250300Y39500D01*
X249800Y39000D02*Y38000D01*
X250300Y37500D01*
X251300D01*
X251800Y38000D01*
X249800Y36500D02*X250300Y36000D01*
X251300D01*
X251800Y36500D01*
Y39500D02*Y36500D01*
X253000Y40500D02*Y40000D01*
Y39000D02*Y37500D01*
X254500Y39000D02*Y37500D01*
Y39000D02*X255000Y39500D01*
X255500D01*
X256000Y39000D01*
Y37500D01*
X254000Y39500D02*X254500Y39000D01*
X257700Y37500D02*X259200D01*
X257200Y38000D02*X257700Y37500D01*
X257200Y39000D02*Y38000D01*
Y39000D02*X257700Y39500D01*
X258700D01*
X259200Y39000D01*
X257200Y38500D02*X259200D01*
Y39000D02*Y38500D01*
X260900Y37500D02*X262400D01*
X260400Y38000D02*X260900Y37500D01*
X260400Y39000D02*Y38000D01*
Y39000D02*X260900Y39500D01*
X261900D01*
X262400Y39000D01*
X260400Y38500D02*X262400D01*
Y39000D02*Y38500D01*
X264100Y39000D02*Y37500D01*
Y39000D02*X264600Y39500D01*
X265600D01*
X263600D02*X264100Y39000D01*
X266800Y40500D02*Y40000D01*
Y39000D02*Y37500D01*
X268300Y39000D02*Y37500D01*
Y39000D02*X268800Y39500D01*
X269300D01*
X269800Y39000D01*
Y37500D01*
X267800Y39500D02*X268300Y39000D01*
X272500Y39500D02*X273000Y39000D01*
X271500Y39500D02*X272500D01*
X271000Y39000D02*X271500Y39500D01*
X271000Y39000D02*Y38000D01*
X271500Y37500D01*
X272500D01*
X273000Y38000D01*
X271000Y36500D02*X271500Y36000D01*
X272500D01*
X273000Y36500D01*
Y39500D02*Y36500D01*
X125138Y171260D02*X129862D01*
X125138Y178740D02*X129862D01*
X108255Y174893D02*Y174107D01*
X102745Y174893D02*Y174107D01*
X66500Y189000D02*X70500D01*
X68500Y191000D02*Y187000D01*
X68996Y193992D02*X75492Y187496D01*
X68996Y168008D02*X75492Y174504D01*
X49508Y193992D02*X68996D01*
X49508Y168008D02*X68996D01*
X49508Y174504D02*Y168008D01*
Y193992D02*Y187496D01*
X90755Y174893D02*Y174107D01*
X85245Y174893D02*Y174107D01*
X125138Y185260D02*X129862D01*
X125138Y192740D02*X129862D01*
X256755Y163393D02*Y162607D01*
X251245Y163393D02*Y162607D01*
X282138Y155240D02*X286862D01*
X282138Y147760D02*X286862D01*
X282138Y118240D02*X286862D01*
X282138Y110760D02*X286862D01*
X272414Y167417D02*Y131197D01*
X246705Y101000D02*X272414Y131197D01*
X246705Y197614D02*X272414Y167417D01*
X163713Y197614D02*Y101000D01*
X142714Y103307D02*Y101000D01*
X153496D01*
X142714Y195307D02*Y197614D01*
X153496D01*
X163713Y101000D02*X246705D01*
X163713Y197614D02*X246705D01*
X216755Y176850D02*Y176064D01*
X211245Y176850D02*Y176064D01*
X201255Y176850D02*Y176064D01*
X195745Y176850D02*Y176064D01*
X153650Y111755D02*X154436D01*
X153650Y106245D02*X154436D01*
X148107Y163755D02*X148893D01*
X148107Y158245D02*X148893D01*
X127107Y163755D02*X127893D01*
X127107Y158245D02*X127893D01*
X82250Y121401D02*X82429D01*
X100571D02*X100750D01*
X82250Y110771D02*X85500D01*
X97500D02*X100750D01*
X82250Y121401D02*Y110771D01*
X100750Y121401D02*Y110771D01*
X58255Y117936D02*Y117150D01*
X52745Y117936D02*Y117150D01*
Y135850D02*Y135064D01*
X58255Y135850D02*Y135064D01*
X75500Y135500D02*Y165500D01*
X116500D02*Y135500D01*
X75500Y158500D02*X116500D01*
Y165500D02*X75500D01*
X116500Y135500D02*X75500D01*
X13700Y126000D02*X43700D01*
X13700Y166000D02*X43700D01*
X39300D02*Y126000D01*
X43700Y166000D02*Y126000D01*
X13700Y166000D02*Y126000D01*
X55755Y30393D02*Y29607D01*
X50245Y30393D02*Y29607D01*
X48607Y8202D02*X49393D01*
X48607Y13712D02*X49393D01*
X44755Y30393D02*Y29607D01*
X39245Y30393D02*Y29607D01*
X114245Y69350D02*Y68564D01*
X119755Y69350D02*Y68564D01*
X98500Y68000D02*Y78000D01*
X88500Y68000D02*X98500D01*
Y78000D02*X88500D01*
X98500Y58000D02*Y78000D01*
X88500Y58000D02*X98500D01*
X88500Y78000D02*Y58000D01*
X78500Y68000D02*Y78000D01*
X68500Y68000D02*X78500D01*
Y78000D02*X68500D01*
X78500Y58000D02*Y78000D01*
X68500Y58000D02*X78500D01*
X68500Y78000D02*Y58000D01*
X6288Y76850D02*Y76064D01*
X11798Y76850D02*Y76064D01*
X14240Y55905D02*Y51181D01*
X6760Y55905D02*Y51181D01*
X20000Y81500D02*Y66500D01*
Y56500D02*Y41500D01*
Y81500D02*X60000D01*
Y41500D01*
X20000D02*X60000D01*
X20000Y56500D02*G75*G03X20000Y66500I0J5000D01*G01*
X92000Y17500D02*X102000D01*
X92000Y27500D02*Y17500D01*
X102000Y27500D02*Y7500D01*
X72000D02*X102000D01*
X72000Y27500D02*Y7500D01*
Y27500D02*X102000D01*
X91107Y50755D02*X91893D01*
X91107Y45245D02*X91893D01*
X73107Y50755D02*X73893D01*
X73107Y45245D02*X73893D01*
X122000Y17500D02*Y27500D01*
X112000Y17500D02*X122000D01*
Y27500D02*X112000D01*
X122000Y7500D02*Y27500D01*
X112000Y7500D02*X122000D01*
X112000Y27500D02*Y7500D01*
X153650Y122755D02*X154436D01*
X153650Y117245D02*X154436D01*
X223607Y129755D02*X224393D01*
X223607Y124245D02*X224393D01*
X127000Y111000D02*Y101000D01*
Y111000D02*X137000D01*
X127000Y101000D02*X137000D01*
X127000Y121000D02*Y101000D01*
Y121000D02*X137000D01*
Y101000D01*
X124755Y129936D02*Y129150D01*
X119245Y129936D02*Y129150D01*
X154564Y29245D02*X155350D01*
X154564Y34755D02*X155350D01*
X136615Y48215D02*X133715Y51115D01*
X136615Y48215D02*X172285D01*
Y86785D02*Y48215D01*
X133715Y86785D02*X172285D01*
X133715D02*Y51115D01*
X136615Y50115D02*G75*G03X136615Y50115I0J1000D01*G01*
X191755Y71393D02*Y70607D01*
X186245Y71393D02*Y70607D01*
X64500Y157000D02*Y149000D01*
X51600Y157000D02*Y149000D01*
X71300Y157000D02*Y149000D01*
X51600D02*X71300D01*
X51600Y157000D02*X71300D01*
X58255Y100350D02*Y99564D01*
X52745Y100350D02*Y99564D01*
X13700Y86000D02*X43700D01*
X13700Y126000D02*X43700D01*
X39300D02*Y86000D01*
X43700Y126000D02*Y86000D01*
X13700Y126000D02*Y86000D01*
X93607Y85745D02*X94393D01*
X93607Y91255D02*X94393D01*
X73107D02*X73893D01*
X73107Y85745D02*X73893D01*
X249700Y83900D02*Y71100D01*
Y83900D02*X263600D01*
Y71100D01*
X249700D02*X263600D01*
X249700Y65900D02*Y53100D01*
Y65900D02*X263600D01*
Y53100D01*
X249700D02*X263600D01*
X271745Y77936D02*Y77150D01*
X277255Y77936D02*Y77150D01*
X271745Y59436D02*Y58650D01*
X277255Y59436D02*Y58650D01*
X223200Y83900D02*Y71100D01*
Y83900D02*X237100D01*
Y71100D01*
X223200D02*X237100D01*
X205751Y74427D02*X206537D01*
X205751Y79937D02*X206537D01*
X151064Y23755D02*X151850D01*
X151064Y18245D02*X151850D01*
X172902Y30646D02*X198886D01*
X172902Y11354D02*X198886D01*
G75*G03X198886Y30646I0J9646D01*G01*
X172902D02*G75*G03X172902Y11354I0J-9646D01*G01*
X223200Y65900D02*Y53100D01*
Y65900D02*X237100D01*
Y53100D01*
X223200D02*X237100D01*
X205564Y64745D02*X206350D01*
X205564Y70255D02*X206350D01*
X151107Y12755D02*X151893D01*
X151107Y7245D02*X151893D01*
X112500Y177000D02*Y173000D01*
X114000Y177000D02*X114500Y176500D01*
Y173500D01*
X114000Y173000D02*X114500Y173500D01*
X112000Y173000D02*X114000D01*
X112000Y177000D02*X114000D01*
X115700Y176500D02*X116200Y177000D01*
X117200D01*
X117700Y176500D01*
Y173500D01*
X117200Y173000D02*X117700Y173500D01*
X116200Y173000D02*X117200D01*
X115700Y173500D02*X116200Y173000D01*
Y175000D02*X117700D01*
X76314Y168000D02*X77814D01*
X75814Y168500D02*X76314Y168000D01*
X75814Y171500D02*Y168500D01*
Y171500D02*X76314Y172000D01*
X77814D01*
X79514Y168000D02*X80514D01*
X80014Y172000D02*Y168000D01*
X79014Y171000D02*X80014Y172000D01*
X103000Y182000D02*X104500D01*
X102500Y182500D02*X103000Y182000D01*
X102500Y185500D02*Y182500D01*
Y185500D02*X103000Y186000D01*
X104500D01*
X106200Y182000D02*X107200D01*
X106700Y186000D02*Y182000D01*
X105700Y185000D02*X106700Y186000D01*
X108400D02*X110400D01*
X108400D02*Y184000D01*
X108900Y184500D01*
X109900D01*
X110400Y184000D01*
Y182500D01*
X109900Y182000D02*X110400Y182500D01*
X108900Y182000D02*X109900D01*
X108400Y182500D02*X108900Y182000D01*
X84000D02*X85500D01*
X83500Y182500D02*X84000Y182000D01*
X83500Y185500D02*Y182500D01*
Y185500D02*X84000Y186000D01*
X85500D01*
X87200Y182000D02*X88200D01*
X87700Y186000D02*Y182000D01*
X86700Y185000D02*X87700Y186000D01*
X89400Y184000D02*X91400Y186000D01*
X89400Y184000D02*X91900D01*
X91400Y186000D02*Y182000D01*
X113000Y192000D02*Y188000D01*
X114500Y192000D02*X115000Y191500D01*
Y188500D01*
X114500Y188000D02*X115000Y188500D01*
X112500Y188000D02*X114500D01*
X112500Y192000D02*X114500D01*
X116700Y188000D02*X117700D01*
X117200Y192000D02*Y188000D01*
X116200Y191000D02*X117200Y192000D01*
X13850Y75193D02*X15350D01*
X13350Y75693D02*X13850Y75193D01*
X13350Y78693D02*Y75693D01*
Y78693D02*X13850Y79193D01*
X15350D01*
X16550D02*X18550D01*
X16550D02*Y77193D01*
X17050Y77693D01*
X18050D01*
X18550Y77193D01*
Y75693D01*
X18050Y75193D02*X18550Y75693D01*
X17050Y75193D02*X18050D01*
X16550Y75693D02*X17050Y75193D01*
X7543Y68000D02*Y64000D01*
X9043Y68000D02*X9543Y67500D01*
Y64500D01*
X9043Y64000D02*X9543Y64500D01*
X7043Y64000D02*X9043D01*
X7043Y68000D02*X9043D01*
X10743Y67500D02*X11243Y68000D01*
X12743D01*
X13243Y67500D01*
Y66500D01*
X10743Y64000D02*X13243Y66500D01*
X10743Y64000D02*X13243D01*
X35000Y12957D02*X37000D01*
X37500Y12457D01*
Y11457D01*
X37000Y10957D02*X37500Y11457D01*
X35500Y10957D02*X37000D01*
X35500Y12957D02*Y8957D01*
Y10957D02*X37500Y8957D01*
X38700Y12457D02*X39200Y12957D01*
X40700D01*
X41200Y12457D01*
Y11457D01*
X38700Y8957D02*X41200Y11457D01*
X38700Y8957D02*X41200D01*
X37850Y18064D02*X39350D01*
X37350Y18564D02*X37850Y18064D01*
X37350Y21564D02*Y18564D01*
Y21564D02*X37850Y22064D01*
X39350D01*
X41050Y18064D02*X42050D01*
X41550Y22064D02*Y18064D01*
X40550Y21064D02*X41550Y22064D01*
X43250Y21564D02*X43750Y22064D01*
X44750D01*
X45250Y21564D01*
Y18564D01*
X44750Y18064D02*X45250Y18564D01*
X43750Y18064D02*X44750D01*
X43250Y18564D02*X43750Y18064D01*
Y20064D02*X45250D01*
X240592Y165150D02*X242592D01*
X243092Y164650D01*
Y163650D01*
X242592Y163150D02*X243092Y163650D01*
X241092Y163150D02*X242592D01*
X241092Y165150D02*Y161150D01*
Y163150D02*X243092Y161150D01*
X244792D02*X245792D01*
X245292Y165150D02*Y161150D01*
X244292Y164150D02*X245292Y165150D01*
X246992D02*X248992D01*
X246992D02*Y163150D01*
X247492Y163650D01*
X248492D01*
X248992Y163150D01*
Y161650D01*
X248492Y161150D02*X248992Y161650D01*
X247492Y161150D02*X248492D01*
X246992Y161650D02*X247492Y161150D01*
X146000Y156500D02*X148000D01*
X148500Y156000D01*
Y155000D01*
X148000Y154500D02*X148500Y155000D01*
X146500Y154500D02*X148000D01*
X146500Y156500D02*Y152500D01*
Y154500D02*X148500Y152500D01*
X150200D02*X151200D01*
X150700Y156500D02*Y152500D01*
X149700Y155500D02*X150700Y156500D01*
X141579Y107020D02*X143079D01*
X141079Y107520D02*X141579Y107020D01*
X141079Y110520D02*Y107520D01*
Y110520D02*X141579Y111020D01*
X143079D01*
X144279Y107020D02*X146279Y109020D01*
Y110520D02*Y109020D01*
X145779Y111020D02*X146279Y110520D01*
X144779Y111020D02*X145779D01*
X144279Y110520D02*X144779Y111020D01*
X144279Y110520D02*Y109520D01*
X144779Y109020D01*
X146279D01*
X210350Y164607D02*X211850D01*
X209850Y165107D02*X210350Y164607D01*
X209850Y168107D02*Y165107D01*
Y168107D02*X210350Y168607D01*
X211850D01*
X213550Y164607D02*X214550D01*
X214050Y168607D02*Y164607D01*
X213050Y167607D02*X214050Y168607D01*
X215750Y168107D02*X216250Y168607D01*
X217750D01*
X218250Y168107D01*
Y167107D01*
X215750Y164607D02*X218250Y167107D01*
X215750Y164607D02*X218250D01*
X195221Y164564D02*X196721D01*
X194721Y165064D02*X195221Y164564D01*
X194721Y168064D02*Y165064D01*
Y168064D02*X195221Y168564D01*
X196721D01*
X198421Y164564D02*X199421D01*
X198921Y168564D02*Y164564D01*
X197921Y167564D02*X198921Y168564D01*
X201121Y164564D02*X202121D01*
X201621Y168564D02*Y164564D01*
X200621Y167564D02*X201621Y168564D01*
X186893Y79193D02*X188393D01*
X186393Y79693D02*X186893Y79193D01*
X186393Y82693D02*Y79693D01*
Y82693D02*X186893Y83193D01*
X188393D01*
X189593Y79193D02*X192093Y81693D01*
Y83193D02*Y81693D01*
X189593Y83193D02*X192093D01*
X254200Y89400D02*Y86400D01*
Y89400D02*X254700Y89900D01*
X255700D01*
X256200Y89400D01*
Y86400D01*
X255700Y85900D02*X256200Y86400D01*
X254700Y85900D02*X255700D01*
X254200Y86400D02*X254700Y85900D01*
X255200Y86900D02*X256200Y85900D01*
X257400Y89400D02*X257900Y89900D01*
X259400D01*
X259900Y89400D01*
Y88400D01*
X257400Y85900D02*X259900Y88400D01*
X257400Y85900D02*X259900D01*
X228300Y89600D02*Y86600D01*
Y89600D02*X228800Y90100D01*
X229800D01*
X230300Y89600D01*
Y86600D01*
X229800Y86100D02*X230300Y86600D01*
X228800Y86100D02*X229800D01*
X228300Y86600D02*X228800Y86100D01*
X229300Y87100D02*X230300Y86100D01*
X232000D02*X233000D01*
X232500Y90100D02*Y86100D01*
X231500Y89100D02*X232500Y90100D01*
X201494Y85832D02*X203494D01*
X203994Y85332D01*
Y84332D01*
X203494Y83832D02*X203994Y84332D01*
X201994Y83832D02*X203494D01*
X201994Y85832D02*Y81832D01*
Y83832D02*X203994Y81832D01*
X205694D02*X206694D01*
X206194Y85832D02*Y81832D01*
X205194Y84832D02*X206194Y85832D01*
X207894Y85332D02*X208394Y85832D01*
X209894D01*
X210394Y85332D01*
Y84332D01*
X207894Y81832D02*X210394Y84332D01*
X207894Y81832D02*X210394D01*
X141307Y117978D02*X142807D01*
X140807Y118478D02*X141307Y117978D01*
X140807Y121478D02*Y118478D01*
Y121478D02*X141307Y121978D01*
X142807D01*
X145507D02*X146007Y121478D01*
X144507Y121978D02*X145507D01*
X144007Y121478D02*X144507Y121978D01*
X144007Y121478D02*Y118478D01*
X144507Y117978D01*
X145507Y119978D02*X146007Y119478D01*
X144007Y119978D02*X145507D01*
X144507Y117978D02*X145507D01*
X146007Y118478D01*
Y119478D02*Y118478D01*
X219393Y136193D02*X221393D01*
X221893Y135693D01*
Y134693D01*
X221393Y134193D02*X221893Y134693D01*
X219893Y134193D02*X221393D01*
X219893Y136193D02*Y132193D01*
Y134193D02*X221893Y132193D01*
X223593D02*X224593D01*
X224093Y136193D02*Y132193D01*
X223093Y135193D02*X224093Y136193D01*
X225793Y134193D02*X227793Y136193D01*
X225793Y134193D02*X228293D01*
X227793Y136193D02*Y132193D01*
X49500Y124000D02*Y122500D01*
X46000D02*X49500D01*
X45500Y123000D02*X46000Y122500D01*
X45500Y123500D02*Y123000D01*
X46000Y124000D02*X45500Y123500D01*
X49000Y121300D02*X49500Y120800D01*
Y119300D01*
X49000Y118800D01*
X48000D02*X49000D01*
X45500Y121300D02*X48000Y118800D01*
X45500Y121300D02*Y118800D01*
X111436Y124150D02*X112936D01*
X110936Y124650D02*X111436Y124150D01*
X110936Y127650D02*Y124650D01*
Y127650D02*X111436Y128150D01*
X112936D01*
X114136Y127650D02*X114636Y128150D01*
X116136D01*
X116636Y127650D01*
Y126650D01*
X114136Y124150D02*X116636Y126650D01*
X114136Y124150D02*X116636D01*
X76000Y133500D02*Y130000D01*
X76500Y129500D01*
X77500D01*
X78000Y130000D01*
Y133500D02*Y130000D01*
X79200Y131500D02*X81200Y133500D01*
X79200Y131500D02*X81700D01*
X81200Y133500D02*Y129500D01*
X113893Y56650D02*X115393D01*
X113393Y57150D02*X113893Y56650D01*
X113393Y60150D02*Y57150D01*
Y60150D02*X113893Y60650D01*
X115393D01*
X117093Y56650D02*X118093D01*
X117593Y60650D02*Y56650D01*
X116593Y59650D02*X117593Y60650D01*
X119293Y57150D02*X119793Y56650D01*
X119293Y60150D02*Y57150D01*
Y60150D02*X119793Y60650D01*
X120793D01*
X121293Y60150D01*
Y57150D01*
X120793Y56650D02*X121293Y57150D01*
X119793Y56650D02*X120793D01*
X119293Y57650D02*X121293Y59650D01*
X104500Y78000D02*Y76500D01*
X101000D02*X104500D01*
X100500Y77000D02*X101000Y76500D01*
X100500Y77500D02*Y77000D01*
X101000Y78000D02*X100500Y77500D01*
Y74800D02*X104500D01*
Y75300D02*Y73300D01*
X104000Y72800D01*
X103000D02*X104000D01*
X102500Y73300D02*X103000Y72800D01*
X102500Y74800D02*Y73300D01*
X104000Y71600D02*X104500Y71100D01*
Y70100D01*
X104000Y69600D01*
X101000D02*X104000D01*
X100500Y70100D02*X101000Y69600D01*
X100500Y71100D02*Y70100D01*
X101000Y71600D02*X100500Y71100D01*
X102500D02*Y69600D01*
X84500Y78000D02*Y76500D01*
X81000D02*X84500D01*
X80500Y77000D02*X81000Y76500D01*
X80500Y77500D02*Y77000D01*
X81000Y78000D02*X80500Y77500D01*
Y74800D02*X84500D01*
Y75300D02*Y73300D01*
X84000Y72800D01*
X83000D02*X84000D01*
X82500Y73300D02*X83000Y72800D01*
X82500Y74800D02*Y73300D01*
Y71600D02*X84500Y69600D01*
X82500Y71600D02*Y69100D01*
X80500Y69600D02*X84500D01*
X95500Y33500D02*X97000D01*
Y30000D01*
X96500Y29500D02*X97000Y30000D01*
X96000Y29500D02*X96500D01*
X95500Y30000D02*X96000Y29500D01*
X98200Y33000D02*X98700Y33500D01*
X99700D01*
X100200Y33000D01*
Y30000D01*
X99700Y29500D02*X100200Y30000D01*
X98700Y29500D02*X99700D01*
X98200Y30000D02*X98700Y29500D01*
Y31500D02*X100200D01*
X89000Y43000D02*X91000D01*
X91500Y42500D01*
Y41500D01*
X91000Y41000D02*X91500Y41500D01*
X89500Y41000D02*X91000D01*
X89500Y43000D02*Y39000D01*
Y41000D02*X91500Y39000D01*
X92700Y42500D02*X93200Y43000D01*
X94200D01*
X94700Y42500D01*
Y39500D01*
X94200Y39000D02*X94700Y39500D01*
X93200Y39000D02*X94200D01*
X92700Y39500D02*X93200Y39000D01*
Y41000D02*X94700D01*
X128000Y26500D02*Y25000D01*
X124500D02*X128000D01*
X124000Y25500D02*X124500Y25000D01*
X124000Y26000D02*Y25500D01*
X124500Y26500D02*X124000Y26000D01*
Y23300D02*X128000D01*
Y23800D02*Y21800D01*
X127500Y21300D01*
X126500D02*X127500D01*
X126000Y21800D02*X126500Y21300D01*
X126000Y23300D02*Y21800D01*
X127500Y20100D02*X128000Y19600D01*
Y18100D01*
X127500Y17600D01*
X126500D02*X127500D01*
X124000Y20100D02*X126500Y17600D01*
X124000Y20100D02*Y17600D01*
X60307Y103150D02*X62307D01*
X62807Y102650D01*
Y101650D01*
X62307Y101150D02*X62807Y101650D01*
X60807Y101150D02*X62307D01*
X60807Y103150D02*Y99150D01*
Y101150D02*X62807Y99150D01*
X64007Y99650D02*X64507Y99150D01*
X64007Y100650D02*Y99650D01*
Y100650D02*X64507Y101150D01*
X65507D01*
X66007Y100650D01*
Y99650D01*
X65507Y99150D02*X66007Y99650D01*
X64507Y99150D02*X65507D01*
X64007Y101650D02*X64507Y101150D01*
X64007Y102650D02*Y101650D01*
Y102650D02*X64507Y103150D01*
X65507D01*
X66007Y102650D01*
Y101650D01*
X65507Y101150D02*X66007Y101650D01*
X91000Y97000D02*X93000D01*
X93500Y96500D01*
Y95500D01*
X93000Y95000D02*X93500Y95500D01*
X91500Y95000D02*X93000D01*
X91500Y97000D02*Y93000D01*
Y95000D02*X93500Y93000D01*
X94700Y97000D02*X96700D01*
X94700D02*Y95000D01*
X95200Y95500D01*
X96200D01*
X96700Y95000D01*
Y93500D01*
X96200Y93000D02*X96700Y93500D01*
X95200Y93000D02*X96200D01*
X94700Y93500D02*X95200Y93000D01*
X79342Y108500D02*Y105000D01*
X79842Y104500D01*
X80842D01*
X81342Y105000D01*
Y108500D02*Y105000D01*
X82542Y108000D02*X83042Y108500D01*
X84042D01*
X84542Y108000D01*
Y105000D01*
X84042Y104500D02*X84542Y105000D01*
X83042Y104500D02*X84042D01*
X82542Y105000D02*X83042Y104500D01*
Y106500D02*X84542D01*
X70500Y97000D02*X72500D01*
X73000Y96500D01*
Y95500D01*
X72500Y95000D02*X73000Y95500D01*
X71000Y95000D02*X72500D01*
X71000Y97000D02*Y93000D01*
Y95000D02*X73000Y93000D01*
X75700Y97000D02*X76200Y96500D01*
X74700Y97000D02*X75700D01*
X74200Y96500D02*X74700Y97000D01*
X74200Y96500D02*Y93500D01*
X74700Y93000D01*
X75700Y95000D02*X76200Y94500D01*
X74200Y95000D02*X75700D01*
X74700Y93000D02*X75700D01*
X76200Y93500D01*
Y94500D02*Y93500D01*
X49500Y87500D02*Y87000D01*
X52000Y84500D01*
Y83500D01*
X49500Y84500D02*Y83500D01*
Y84500D02*X52000Y87000D01*
Y87500D02*Y87000D01*
X53200Y87500D02*Y84000D01*
X53700Y83500D01*
X54700D01*
X55200Y84000D01*
Y87500D02*Y84000D01*
X56400Y87000D02*X56900Y87500D01*
X58400D01*
X58900Y87000D01*
Y86000D01*
X56400Y83500D02*X58900Y86000D01*
X56400Y83500D02*X58900D01*
X70500Y43000D02*X72500D01*
X73000Y42500D01*
Y41500D01*
X72500Y41000D02*X73000Y41500D01*
X71000Y41000D02*X72500D01*
X71000Y43000D02*Y39000D01*
Y41000D02*X73000Y39000D01*
X74200Y41000D02*X76200Y43000D01*
X74200Y41000D02*X76700D01*
X76200Y43000D02*Y39000D01*
X49436Y22150D02*X51436D01*
X51936Y21650D01*
Y20650D01*
X51436Y20150D02*X51936Y20650D01*
X49936Y20150D02*X51436D01*
X49936Y22150D02*Y18150D01*
Y20150D02*X51936Y18150D01*
X53636D02*X54636D01*
X54136Y22150D02*Y18150D01*
X53136Y21150D02*X54136Y22150D01*
X55836Y21650D02*X56336Y22150D01*
X57336D01*
X57836Y21650D01*
Y18650D01*
X57336Y18150D02*X57836Y18650D01*
X56336Y18150D02*X57336D01*
X55836Y18650D02*X56336Y18150D01*
Y20150D02*X57836D01*
X116500Y106500D02*X118000D01*
Y103000D01*
X117500Y102500D02*X118000Y103000D01*
X117000Y102500D02*X117500D01*
X116500Y103000D02*X117000Y102500D01*
X119700Y106500D02*Y102500D01*
X119200Y106500D02*X121200D01*
X121700Y106000D01*
Y105000D01*
X121200Y104500D02*X121700Y105000D01*
X119700Y104500D02*X121200D01*
X123400Y102500D02*X124400D01*
X123900Y106500D02*Y102500D01*
X122900Y105500D02*X123900Y106500D01*
X59000Y163000D02*Y159000D01*
X60500Y163000D02*X61000Y162500D01*
Y159500D01*
X60500Y159000D02*X61000Y159500D01*
X58500Y159000D02*X60500D01*
X58500Y163000D02*X60500D01*
X62200Y161000D02*X64200Y163000D01*
X62200Y161000D02*X64700D01*
X64200Y163000D02*Y159000D01*
X60436Y119150D02*X62436D01*
X62936Y118650D01*
Y117650D01*
X62436Y117150D02*X62936Y117650D01*
X60936Y117150D02*X62436D01*
X60936Y119150D02*Y115150D01*
Y117150D02*X62936Y115150D01*
X64136D02*X66636Y117650D01*
Y119150D02*Y117650D01*
X64136Y119150D02*X66636D01*
X60350Y137150D02*X62350D01*
X62850Y136650D01*
Y135650D01*
X62350Y135150D02*X62850Y135650D01*
X60850Y135150D02*X62350D01*
X60850Y137150D02*Y133150D01*
Y135150D02*X62850Y133150D01*
X64050D02*X66050Y135150D01*
Y136650D02*Y135150D01*
X65550Y137150D02*X66050Y136650D01*
X64550Y137150D02*X65550D01*
X64050Y136650D02*X64550Y137150D01*
X64050Y136650D02*Y135650D01*
X64550Y135150D01*
X66050D01*
X123000Y156000D02*X125000D01*
X125500Y155500D01*
Y154500D01*
X125000Y154000D02*X125500Y154500D01*
X123500Y154000D02*X125000D01*
X123500Y156000D02*Y152000D01*
Y154000D02*X125500Y152000D01*
X127200D02*X128200D01*
X127700Y156000D02*Y152000D01*
X126700Y155000D02*X127700Y156000D01*
X129400Y152500D02*X129900Y152000D01*
X129400Y155500D02*Y152500D01*
Y155500D02*X129900Y156000D01*
X130900D01*
X131400Y155500D01*
Y152500D01*
X130900Y152000D02*X131400Y152500D01*
X129900Y152000D02*X130900D01*
X129400Y153000D02*X131400Y155000D01*
X49500Y164500D02*Y163000D01*
X46000D02*X49500D01*
X45500Y163500D02*X46000Y163000D01*
X45500Y164000D02*Y163500D01*
X46000Y164500D02*X45500Y164000D01*
Y161300D02*Y160300D01*
Y160800D02*X49500D01*
X48500Y161800D02*X49500Y160800D01*
X141307Y30150D02*X142807D01*
X140807Y30650D02*X141307Y30150D01*
X140807Y33650D02*Y30650D01*
Y33650D02*X141307Y34150D01*
X142807D01*
X144007Y30650D02*X144507Y30150D01*
X144007Y31650D02*Y30650D01*
Y31650D02*X144507Y32150D01*
X145507D01*
X146007Y31650D01*
Y30650D01*
X145507Y30150D02*X146007Y30650D01*
X144507Y30150D02*X145507D01*
X144007Y32650D02*X144507Y32150D01*
X144007Y33650D02*Y32650D01*
Y33650D02*X144507Y34150D01*
X145507D01*
X146007Y33650D01*
Y32650D01*
X145507Y32150D02*X146007Y32650D01*
X137828Y19000D02*X139328D01*
X137328Y19500D02*X137828Y19000D01*
X137328Y22500D02*Y19500D01*
Y22500D02*X137828Y23000D01*
X139328D01*
X140528Y22500D02*X141028Y23000D01*
X142028D01*
X142528Y22500D01*
Y19500D01*
X142028Y19000D02*X142528Y19500D01*
X141028Y19000D02*X142028D01*
X140528Y19500D02*X141028Y19000D01*
Y21000D02*X142528D01*
X189051Y9000D02*Y8500D01*
X190051Y7500D01*
X191051Y8500D01*
Y9000D02*Y8500D01*
X190051Y7500D02*Y5000D01*
X192751D02*X193751D01*
X193251Y9000D02*Y5000D01*
X192251Y8000D02*X193251Y9000D01*
X174500Y45500D02*Y42000D01*
X175000Y41500D01*
X176000D01*
X176500Y42000D01*
Y45500D02*Y42000D01*
X178200Y41500D02*X179200D01*
X178700Y45500D02*Y41500D01*
X177700Y44500D02*X178700Y45500D01*
X137871Y8000D02*X139371D01*
X137371Y8500D02*X137871Y8000D01*
X137371Y11500D02*Y8500D01*
Y11500D02*X137871Y12000D01*
X139371D01*
X140571Y10000D02*X142571Y12000D01*
X140571Y10000D02*X143071D01*
X142571Y12000D02*Y8000D01*
X268811Y153606D02*X269311D01*
X268811D02*X266311Y151106D01*
X265311D02*X266311D01*
X265311Y153606D02*X266311D01*
X268811Y151106D01*
X269311D01*
X265811Y149906D02*X269311D01*
X265811D02*X265311Y149406D01*
Y148406D01*
X265811Y147906D01*
X269311D01*
Y146706D02*Y144706D01*
X267311Y146706D02*X269311D01*
X267311D02*X267811Y146206D01*
Y145206D01*
X267311Y144706D01*
X265811D02*X267311D01*
X265311Y145206D02*X265811Y144706D01*
X265311Y146206D02*Y145206D01*
X265811Y146706D02*X265311Y146206D01*
X282040Y145650D02*Y141650D01*
X283540Y145650D02*X284040Y145150D01*
Y142150D01*
X283540Y141650D02*X284040Y142150D01*
X281540Y141650D02*X283540D01*
X281540Y145650D02*X283540D01*
X286740D02*X287240Y145150D01*
X285740Y145650D02*X286740D01*
X285240Y145150D02*X285740Y145650D01*
X285240Y145150D02*Y142150D01*
X285740Y141650D01*
X286740Y143650D02*X287240Y143150D01*
X285240Y143650D02*X286740D01*
X285740Y141650D02*X286740D01*
X287240Y142150D01*
Y143150D02*Y142150D01*
X282350Y108650D02*Y104650D01*
X283850Y108650D02*X284350Y108150D01*
Y105150D01*
X283850Y104650D02*X284350Y105150D01*
X281850Y104650D02*X283850D01*
X281850Y108650D02*X283850D01*
X285550D02*X287550D01*
X285550D02*Y106650D01*
X286050Y107150D01*
X287050D01*
X287550Y106650D01*
Y105150D01*
X287050Y104650D02*X287550Y105150D01*
X286050Y104650D02*X287050D01*
X285550Y105150D02*X286050Y104650D01*
X279850Y75479D02*Y73479D01*
Y75479D02*X280350Y75979D01*
X281350D01*
X281850Y75479D02*X281350Y75979D01*
X281850Y75479D02*Y73979D01*
X279850D02*X283850D01*
X281850D02*X283850Y75979D01*
Y78679D02*Y77679D01*
X279850Y78179D02*X283850D01*
X280850Y77179D02*X279850Y78179D01*
Y81379D02*X280350Y81879D01*
X279850Y81379D02*Y80379D01*
X280350Y79879D02*X279850Y80379D01*
X280350Y79879D02*X283350D01*
X283850Y80379D01*
X281850Y81379D02*X282350Y81879D01*
X281850Y81379D02*Y79879D01*
X283850Y81379D02*Y80379D01*
Y81379D02*X283350Y81879D01*
X282350D02*X283350D01*
X279936Y57721D02*Y55721D01*
Y57721D02*X280436Y58221D01*
X281436D01*
X281936Y57721D02*X281436Y58221D01*
X281936Y57721D02*Y56221D01*
X279936D02*X283936D01*
X281936D02*X283936Y58221D01*
Y60921D02*Y59921D01*
X279936Y60421D02*X283936D01*
X280936Y59421D02*X279936Y60421D01*
X283936Y63621D02*Y62621D01*
X279936Y63121D02*X283936D01*
X280936Y62121D02*X279936Y63121D01*
X228488Y50348D02*Y47348D01*
Y50348D02*X228988Y50848D01*
X229988D01*
X230488Y50348D01*
Y47348D01*
X229988Y46848D02*X230488Y47348D01*
X228988Y46848D02*X229988D01*
X228488Y47348D02*X228988Y46848D01*
X229488Y47848D02*X230488Y46848D01*
X231688Y50348D02*X232188Y50848D01*
X233188D01*
X233688Y50348D01*
Y47348D01*
X233188Y46848D02*X233688Y47348D01*
X232188Y46848D02*X233188D01*
X231688Y47348D02*X232188Y46848D01*
Y48848D02*X233688D01*
X254188Y50248D02*Y47248D01*
Y50248D02*X254688Y50748D01*
X255688D01*
X256188Y50248D01*
Y47248D01*
X255688Y46748D02*X256188Y47248D01*
X254688Y46748D02*X255688D01*
X254188Y47248D02*X254688Y46748D01*
X255188Y47748D02*X256188Y46748D01*
X257388Y48748D02*X259388Y50748D01*
X257388Y48748D02*X259888D01*
X259388Y50748D02*Y46748D01*
X201307Y62650D02*X203307D01*
X203807Y62150D01*
Y61150D01*
X203307Y60650D02*X203807Y61150D01*
X201807Y60650D02*X203307D01*
X201807Y62650D02*Y58650D01*
Y60650D02*X203807Y58650D01*
X205507D02*X206507D01*
X206007Y62650D02*Y58650D01*
X205007Y61650D02*X206007Y62650D01*
X207707Y58650D02*X210207Y61150D01*
Y62650D02*Y61150D01*
X207707Y62650D02*X210207D01*
M02*
