G04 start of page 6 for group -4062 idx -4062 *
G04 Title: (unknown), soldermask *
G04 Creator: pcb 20110918 *
G04 CreationDate: Thu 28 Mar 2013 10:59:42 PM GMT UTC *
G04 For: railfan *
G04 Format: Gerber/RS-274X *
G04 PCB-Dimensions: 300000 200000 *
G04 PCB-Coordinate-Origin: lower left *
%MOIN*%
%FSLAX25Y25*%
%LNBOTTOMMASK*%
%ADD86C,0.0907*%
%ADD85C,0.0900*%
%ADD84C,0.0860*%
%ADD83C,0.0660*%
%ADD82C,0.0760*%
%ADD81C,0.0700*%
%ADD80C,0.0001*%
%ADD79C,0.2997*%
G54D79*X283000Y183000D03*
G54D80*G36*
X239996Y196114D02*Y189114D01*
X246996D01*
Y196114D01*
X239996D01*
G37*
G54D81*X235622Y192614D03*
X227748D03*
X219874D03*
X212000D03*
X204126D03*
X243496Y106000D03*
X235622D03*
X227748D03*
X219874D03*
X212000D03*
X204126D03*
G54D80*G36*
X172488Y24800D02*Y17200D01*
X180088D01*
Y24800D01*
X172488D01*
G37*
G54D82*X195500Y21000D03*
G54D80*G36*
X93700Y25800D02*Y19200D01*
X100300D01*
Y25800D01*
X93700D01*
G37*
G54D83*X87000Y22500D03*
X77000D03*
G54D80*G36*
X113700Y25800D02*Y19200D01*
X120300D01*
Y25800D01*
X113700D01*
G37*
G54D83*X97000Y12500D03*
G54D80*G36*
X90200Y76300D02*Y69700D01*
X96800D01*
Y76300D01*
X90200D01*
G37*
G54D83*X93500Y63000D03*
X87000Y12500D03*
X77000D03*
G54D80*G36*
X70200Y76300D02*Y69700D01*
X76800D01*
Y76300D01*
X70200D01*
G37*
G54D83*X73500Y63000D03*
G54D79*X283000Y17000D03*
G54D83*X117000Y12500D03*
G54D81*X196252Y192614D03*
X188378D03*
X180504D03*
X172630D03*
X196252Y106000D03*
X188378D03*
X180504D03*
G54D79*X17000Y17000D03*
G54D84*X26500Y96000D03*
G54D80*G36*
X21700Y49800D02*Y43200D01*
X28300D01*
Y49800D01*
X21700D01*
G37*
G54D83*X25000Y76500D03*
X35000Y46500D03*
Y76500D03*
X45000Y46500D03*
X55000D03*
Y76500D03*
X45000D03*
G54D81*X172630Y106000D03*
G54D80*G36*
X128700Y109300D02*Y102700D01*
X135300D01*
Y109300D01*
X128700D01*
G37*
G54D83*X132000Y116000D03*
G54D85*X106000Y146500D03*
X96000D03*
G54D80*G36*
X81500Y151000D02*Y142000D01*
X90500D01*
Y151000D01*
X81500D01*
G37*
G54D79*X17000Y183000D03*
G54D80*G36*
X22200Y120300D02*Y111700D01*
X30800D01*
Y120300D01*
X22200D01*
G37*
G36*
Y160300D02*Y151700D01*
X30800D01*
Y160300D01*
X22200D01*
G37*
G54D84*X26500Y136000D03*
G54D86*X96000Y150437D02*Y142563D01*
X106000Y150437D02*Y142563D01*
X86000Y150437D02*Y142563D01*
M02*
