M48
INCH
T64C0.020
T63C0.045
T62C0.028
T61C0.048
T60C0.038
T59C0.025
T58C0.032
T57C0.129
%
T64
X013000Y013500
X013850Y016100
X012100Y018200
X011950Y019550
X012000Y007800
X011350Y013300
X010850Y013300
X014850Y012650
X015350Y012650
X024650Y015000
X024650Y013450
X022900Y014500
X027050Y012050
X023750Y009100
X026700Y006850
X024400Y007750
X029050Y013550
X023650Y018550
X025050Y018550
X023650Y018000
X024100Y006350
X021750Y007750
X001600Y006550
X018900Y006150
X013700Y006650
X008100Y004150
X013100Y001050
X011700Y004500
X013600Y003500
X012400Y003950
X006050Y003750
X016650Y003250
X017150Y003600
X015400Y005300
X017650Y003950
X015250Y008350
X016900Y007150
X019200Y005300
X001600Y007000
X006300Y009650
X004250Y018100
X003750Y018100
X005150Y008950
X009600Y016000
X009600Y016500
X009600Y017000
X009600Y017550
X010350Y013300
X009850Y013300
X009350Y013300
X008100Y009500
X009450Y018050
X009950Y018050
X009450Y018550
X010950Y019050
X010450Y019050
X009950Y018550
X009950Y019050
X009450Y019050
X008950Y019050
X008950Y019550
X009450Y019550
X009950Y019550
X010450Y019550
X010950Y019550
X011450Y019550
X011450Y018500
X011450Y018000
T59
X017629Y002100
X019550Y002100
T62
X002500Y004650
X002500Y007650
X003500Y004650
X003500Y007650
X004500Y004650
X005500Y004650
X005500Y007650
X004500Y007650
T58
X024350Y019261
X023562Y019261
X022775Y019261
X021987Y019261
X021200Y019261
X020413Y019261
X024350Y010600
X023562Y010600
X022775Y010600
X021987Y010600
X021200Y010600
X020413Y010600
X019625Y019261
X018838Y019261
X018050Y019261
X017263Y019261
X019625Y010600
X018838Y010600
X018050Y010600
X017263Y010600
T60
X009700Y002250
X008700Y002250
X007700Y002250
X011700Y002250
X009700Y001250
X009350Y007300
X009350Y006300
X008700Y001250
X007700Y001250
X007350Y007300
X007350Y006300
X011700Y001250
X013200Y010600
X013200Y011600
T63
X010600Y014650
X009600Y014650
X008600Y014650
T61
X002650Y009600
X002650Y011600
X002650Y015600
X002650Y013600
T57
X028300Y018300
X028300Y001700
X001700Y001700
X001700Y018300
M30
