G04 start of page 3 for group 1 idx 1 *
G04 Title: (unknown), solder *
G04 Creator: pcb 20110918 *
G04 CreationDate: Thu 28 Mar 2013 10:59:42 PM GMT UTC *
G04 For: railfan *
G04 Format: Gerber/RS-274X *
G04 PCB-Dimensions: 300000 200000 *
G04 PCB-Coordinate-Origin: lower left *
%MOIN*%
%FSLAX25Y25*%
%LNBOTTOM*%
%ADD56C,0.0450*%
%ADD55C,0.0280*%
%ADD54C,0.0480*%
%ADD53C,0.0380*%
%ADD52C,0.0250*%
%ADD51C,0.0320*%
%ADD50C,0.1285*%
%ADD49C,0.0787*%
%ADD48C,0.0700*%
%ADD47C,0.0640*%
%ADD46C,0.2937*%
%ADD45C,0.0500*%
%ADD44C,0.0400*%
%ADD43C,0.0600*%
%ADD42C,0.0800*%
%ADD41C,0.0200*%
%ADD40C,0.0150*%
%ADD39C,0.0100*%
%ADD38C,0.0001*%
G54D38*G36*
X170065Y194526D02*X170083Y194551D01*
X170268Y194772D01*
X170472Y194976D01*
X170693Y195161D01*
X170930Y195325D01*
X171181Y195467D01*
X171444Y195586D01*
X171551Y195636D01*
X171647Y195704D01*
X171731Y195787D01*
X171802Y195881D01*
X171857Y195986D01*
X171862Y196000D01*
X173395D01*
X173400Y195984D01*
X173455Y195880D01*
X173526Y195784D01*
X173611Y195702D01*
X173708Y195633D01*
X173815Y195583D01*
X174079Y195467D01*
X174330Y195325D01*
X174500Y195208D01*
Y190021D01*
X174330Y189903D01*
X174079Y189761D01*
X173816Y189642D01*
X173709Y189592D01*
X173613Y189524D01*
X173529Y189441D01*
X173458Y189347D01*
X173403Y189242D01*
X173365Y189130D01*
X173345Y189014D01*
X173344Y188896D01*
X173360Y188779D01*
X173395Y188667D01*
X173448Y188561D01*
X173516Y188464D01*
X173598Y188380D01*
X173693Y188309D01*
X173797Y188254D01*
X173909Y188216D01*
X174025Y188196D01*
X174144Y188195D01*
X174260Y188212D01*
X174372Y188249D01*
X174500Y188305D01*
Y161000D01*
X170065D01*
Y188673D01*
X170131Y188628D01*
X170500Y188419D01*
X170886Y188244D01*
X170999Y188208D01*
X171116Y188191D01*
X171235Y188193D01*
X171352Y188213D01*
X171464Y188251D01*
X171569Y188306D01*
X171664Y188377D01*
X171747Y188462D01*
X171815Y188559D01*
X171868Y188665D01*
X171903Y188779D01*
X171920Y188896D01*
X171918Y189014D01*
X171898Y189131D01*
X171860Y189244D01*
X171805Y189349D01*
X171734Y189444D01*
X171649Y189526D01*
X171552Y189595D01*
X171445Y189645D01*
X171181Y189761D01*
X170930Y189903D01*
X170693Y190067D01*
X170472Y190252D01*
X170268Y190456D01*
X170083Y190677D01*
X170065Y190702D01*
Y194526D01*
G37*
G36*
X111000Y196000D02*X169369D01*
X169157Y195788D01*
X168885Y195462D01*
X168644Y195113D01*
X168435Y194744D01*
X168260Y194358D01*
X168224Y194245D01*
X168207Y194128D01*
X168209Y194009D01*
X168229Y193892D01*
X168267Y193780D01*
X168322Y193675D01*
X168393Y193580D01*
X168478Y193497D01*
X168575Y193429D01*
X168681Y193376D01*
X168795Y193341D01*
X168912Y193324D01*
X169030Y193326D01*
X169147Y193346D01*
X169260Y193384D01*
X169364Y193439D01*
X169460Y193510D01*
X169542Y193595D01*
X169611Y193692D01*
X169661Y193799D01*
X169777Y194063D01*
X169919Y194314D01*
X170065Y194526D01*
Y190702D01*
X169919Y190914D01*
X169777Y191165D01*
X169658Y191428D01*
X169608Y191535D01*
X169540Y191631D01*
X169457Y191715D01*
X169363Y191786D01*
X169258Y191841D01*
X169146Y191879D01*
X169030Y191899D01*
X168912Y191900D01*
X168795Y191884D01*
X168683Y191849D01*
X168577Y191796D01*
X168480Y191728D01*
X168396Y191646D01*
X168325Y191551D01*
X168270Y191447D01*
X168232Y191335D01*
X168212Y191219D01*
X168211Y191100D01*
X168228Y190984D01*
X168265Y190872D01*
X168435Y190484D01*
X168644Y190115D01*
X168885Y189766D01*
X169157Y189440D01*
X169456Y189141D01*
X169782Y188869D01*
X170065Y188673D01*
Y161000D01*
X141500D01*
X141472Y161471D01*
X141362Y161930D01*
X141181Y162366D01*
X140935Y162769D01*
X140628Y163128D01*
X140269Y163435D01*
X139866Y163681D01*
X139430Y163862D01*
X138971Y163972D01*
X138500Y164009D01*
X138029Y163972D01*
X137570Y163862D01*
X137134Y163681D01*
X136731Y163435D01*
X136372Y163128D01*
X136065Y162769D01*
X135819Y162366D01*
X135638Y161930D01*
X135528Y161471D01*
X135491Y161000D01*
X111000D01*
Y196000D01*
G37*
G36*
X174500Y198000D02*Y196927D01*
X174374Y196984D01*
X174261Y197020D01*
X174144Y197037D01*
X174025Y197035D01*
X173908Y197015D01*
X173796Y196977D01*
X173691Y196922D01*
X173596Y196851D01*
X173513Y196766D01*
X173445Y196669D01*
X173392Y196563D01*
X173357Y196449D01*
X173340Y196332D01*
X173342Y196214D01*
X173362Y196097D01*
X173400Y195984D01*
X173455Y195880D01*
X173526Y195784D01*
X173611Y195702D01*
X173708Y195633D01*
X173815Y195583D01*
X174079Y195467D01*
X174330Y195325D01*
X174500Y195208D01*
Y190021D01*
X174330Y189903D01*
X174079Y189761D01*
X173816Y189642D01*
X173709Y189592D01*
X173613Y189524D01*
X173529Y189441D01*
X173458Y189347D01*
X173403Y189242D01*
X173365Y189130D01*
X173345Y189014D01*
X173344Y188896D01*
X173360Y188779D01*
X173395Y188667D01*
X173448Y188561D01*
X173516Y188464D01*
X173598Y188380D01*
X173693Y188309D01*
X173797Y188254D01*
X173909Y188216D01*
X174025Y188196D01*
X174144Y188195D01*
X174260Y188212D01*
X174372Y188249D01*
X174500Y188305D01*
Y186500D01*
X170062D01*
Y188676D01*
X170131Y188628D01*
X170500Y188419D01*
X170886Y188244D01*
X170999Y188208D01*
X171116Y188191D01*
X171235Y188193D01*
X171352Y188213D01*
X171464Y188251D01*
X171569Y188306D01*
X171664Y188377D01*
X171747Y188462D01*
X171815Y188559D01*
X171868Y188665D01*
X171903Y188779D01*
X171920Y188896D01*
X171918Y189014D01*
X171898Y189131D01*
X171860Y189244D01*
X171805Y189349D01*
X171734Y189444D01*
X171649Y189526D01*
X171552Y189595D01*
X171445Y189645D01*
X171181Y189761D01*
X170930Y189903D01*
X170693Y190067D01*
X170472Y190252D01*
X170268Y190456D01*
X170083Y190677D01*
X170062Y190707D01*
Y194521D01*
X170083Y194551D01*
X170268Y194772D01*
X170472Y194976D01*
X170693Y195161D01*
X170930Y195325D01*
X171181Y195467D01*
X171444Y195586D01*
X171551Y195636D01*
X171647Y195704D01*
X171731Y195787D01*
X171802Y195881D01*
X171857Y195986D01*
X171895Y196098D01*
X171915Y196214D01*
X171916Y196332D01*
X171900Y196449D01*
X171865Y196561D01*
X171812Y196667D01*
X171744Y196764D01*
X171662Y196848D01*
X171567Y196919D01*
X171463Y196974D01*
X171351Y197012D01*
X171235Y197032D01*
X171116Y197033D01*
X171000Y197016D01*
X170888Y196979D01*
X170500Y196809D01*
X170131Y196600D01*
X170062Y196552D01*
Y198000D01*
X174500D01*
G37*
G36*
X170062Y186500D02*X32803D01*
X32439Y188017D01*
X31465Y190370D01*
X30134Y192542D01*
X28479Y194479D01*
X26542Y196134D01*
X24370Y197465D01*
X23077Y198000D01*
X170062D01*
Y196552D01*
X169782Y196359D01*
X169456Y196087D01*
X169157Y195788D01*
X168885Y195462D01*
X168644Y195113D01*
X168435Y194744D01*
X168260Y194358D01*
X168224Y194245D01*
X168207Y194128D01*
X168209Y194009D01*
X168229Y193892D01*
X168267Y193780D01*
X168322Y193675D01*
X168393Y193580D01*
X168478Y193497D01*
X168575Y193429D01*
X168681Y193376D01*
X168795Y193341D01*
X168912Y193324D01*
X169030Y193326D01*
X169147Y193346D01*
X169260Y193384D01*
X169364Y193439D01*
X169460Y193510D01*
X169542Y193595D01*
X169611Y193692D01*
X169661Y193799D01*
X169777Y194063D01*
X169919Y194314D01*
X170062Y194521D01*
Y190707D01*
X169919Y190914D01*
X169777Y191165D01*
X169658Y191428D01*
X169608Y191535D01*
X169540Y191631D01*
X169457Y191715D01*
X169363Y191786D01*
X169258Y191841D01*
X169146Y191879D01*
X169030Y191899D01*
X168912Y191900D01*
X168795Y191884D01*
X168683Y191849D01*
X168577Y191796D01*
X168480Y191728D01*
X168396Y191646D01*
X168325Y191551D01*
X168270Y191447D01*
X168232Y191335D01*
X168212Y191219D01*
X168211Y191100D01*
X168228Y190984D01*
X168265Y190872D01*
X168435Y190484D01*
X168644Y190115D01*
X168885Y189766D01*
X169157Y189440D01*
X169456Y189141D01*
X169782Y188869D01*
X170062Y188676D01*
Y186500D01*
G37*
G36*
X96000Y196000D02*X116500D01*
Y122000D01*
X96000D01*
Y136608D01*
X96932Y136681D01*
X97840Y136899D01*
X98704Y137257D01*
X99500Y137745D01*
X100211Y138352D01*
X100818Y139063D01*
X101000Y139360D01*
X101182Y139063D01*
X101789Y138352D01*
X102500Y137745D01*
X103296Y137257D01*
X104160Y136899D01*
X105068Y136681D01*
X106000Y136608D01*
X106932Y136681D01*
X107840Y136899D01*
X108704Y137257D01*
X109500Y137745D01*
X110211Y138352D01*
X110818Y139063D01*
X111306Y139859D01*
X111664Y140723D01*
X111882Y141631D01*
X111937Y142563D01*
Y150437D01*
X111882Y151369D01*
X111664Y152277D01*
X111306Y153141D01*
X110818Y153937D01*
X110211Y154648D01*
X109500Y155255D01*
X108704Y155743D01*
X107840Y156101D01*
X106932Y156319D01*
X106000Y156392D01*
X105068Y156319D01*
X104160Y156101D01*
X103296Y155743D01*
X102500Y155255D01*
X101789Y154648D01*
X101182Y153937D01*
X101000Y153640D01*
X100818Y153937D01*
X100211Y154648D01*
X99500Y155255D01*
X98704Y155743D01*
X97840Y156101D01*
X96932Y156319D01*
X96000Y156392D01*
Y196000D01*
G37*
G36*
X30993Y174860D02*X31465Y175630D01*
X32439Y177983D01*
X33034Y180460D01*
X33184Y183000D01*
X33034Y185540D01*
X32439Y188017D01*
X31465Y190370D01*
X30993Y191140D01*
Y196000D01*
X96000D01*
Y156392D01*
X95068Y156319D01*
X94160Y156101D01*
X93296Y155743D01*
X92500Y155255D01*
X91789Y154648D01*
X91182Y153937D01*
X91000Y153640D01*
X90818Y153937D01*
X90211Y154648D01*
X89500Y155255D01*
X88704Y155743D01*
X87840Y156101D01*
X86932Y156319D01*
X86000Y156392D01*
X85068Y156319D01*
X84160Y156101D01*
X83296Y155743D01*
X82500Y155255D01*
X81789Y154648D01*
X81182Y153937D01*
X80694Y153141D01*
X80336Y152277D01*
X80118Y151369D01*
X80063Y150437D01*
Y142563D01*
X80118Y141631D01*
X80336Y140723D01*
X80694Y139859D01*
X81182Y139063D01*
X81789Y138352D01*
X82500Y137745D01*
X83296Y137257D01*
X84160Y136899D01*
X85068Y136681D01*
X86000Y136608D01*
X86932Y136681D01*
X87840Y136899D01*
X88704Y137257D01*
X89500Y137745D01*
X90211Y138352D01*
X90818Y139063D01*
X91000Y139360D01*
X91182Y139063D01*
X91789Y138352D01*
X92500Y137745D01*
X93296Y137257D01*
X94160Y136899D01*
X95068Y136681D01*
X96000Y136608D01*
Y122000D01*
X30993D01*
Y133145D01*
X31078Y133181D01*
X31179Y133243D01*
X31269Y133319D01*
X31345Y133409D01*
X31405Y133511D01*
X31622Y133980D01*
X31789Y134469D01*
X31909Y134972D01*
X31982Y135484D01*
X32006Y136000D01*
X31982Y136516D01*
X31909Y137028D01*
X31789Y137531D01*
X31622Y138020D01*
X31410Y138492D01*
X31349Y138593D01*
X31272Y138684D01*
X31182Y138761D01*
X31080Y138823D01*
X30993Y138860D01*
Y150580D01*
X31183Y150659D01*
X31384Y150783D01*
X31564Y150936D01*
X31717Y151116D01*
X31841Y151317D01*
X31931Y151535D01*
X31986Y151765D01*
X32000Y152000D01*
X31986Y160235D01*
X31931Y160465D01*
X31841Y160683D01*
X31717Y160884D01*
X31564Y161064D01*
X31384Y161217D01*
X31183Y161341D01*
X30993Y161420D01*
Y174860D01*
G37*
G36*
Y122000D02*X26500D01*
Y130494D01*
X27016Y130518D01*
X27528Y130591D01*
X28031Y130711D01*
X28520Y130878D01*
X28992Y131090D01*
X29093Y131151D01*
X29184Y131228D01*
X29261Y131318D01*
X29323Y131420D01*
X29369Y131529D01*
X29397Y131645D01*
X29406Y131763D01*
X29397Y131881D01*
X29370Y131997D01*
X29324Y132107D01*
X29262Y132208D01*
X29186Y132298D01*
X29095Y132376D01*
X28994Y132438D01*
X28885Y132484D01*
X28769Y132511D01*
X28651Y132521D01*
X28532Y132512D01*
X28417Y132484D01*
X28308Y132437D01*
X27968Y132279D01*
X27612Y132158D01*
X27247Y132070D01*
X26875Y132018D01*
X26500Y132000D01*
Y140000D01*
X26875Y139982D01*
X27247Y139930D01*
X27612Y139842D01*
X27968Y139721D01*
X28310Y139567D01*
X28418Y139520D01*
X28533Y139493D01*
X28651Y139483D01*
X28768Y139493D01*
X28883Y139521D01*
X28992Y139566D01*
X29093Y139628D01*
X29182Y139705D01*
X29259Y139795D01*
X29320Y139895D01*
X29365Y140004D01*
X29393Y140119D01*
X29402Y140237D01*
X29392Y140355D01*
X29365Y140469D01*
X29319Y140578D01*
X29257Y140679D01*
X29181Y140769D01*
X29091Y140845D01*
X28989Y140905D01*
X28520Y141122D01*
X28031Y141289D01*
X27528Y141409D01*
X27016Y141482D01*
X26500Y141506D01*
Y150507D01*
X30735Y150514D01*
X30965Y150569D01*
X30993Y150580D01*
Y138860D01*
X30971Y138869D01*
X30855Y138897D01*
X30737Y138906D01*
X30619Y138897D01*
X30503Y138870D01*
X30393Y138824D01*
X30292Y138762D01*
X30202Y138686D01*
X30124Y138595D01*
X30062Y138494D01*
X30016Y138385D01*
X29989Y138269D01*
X29979Y138151D01*
X29988Y138032D01*
X30016Y137917D01*
X30063Y137808D01*
X30221Y137468D01*
X30342Y137112D01*
X30430Y136747D01*
X30482Y136375D01*
X30500Y136000D01*
X30482Y135625D01*
X30430Y135253D01*
X30342Y134888D01*
X30221Y134532D01*
X30067Y134190D01*
X30020Y134082D01*
X29993Y133967D01*
X29983Y133849D01*
X29993Y133732D01*
X30021Y133617D01*
X30066Y133508D01*
X30128Y133407D01*
X30205Y133318D01*
X30295Y133241D01*
X30395Y133180D01*
X30504Y133135D01*
X30619Y133107D01*
X30737Y133098D01*
X30855Y133108D01*
X30969Y133135D01*
X30993Y133145D01*
Y122000D01*
G37*
G36*
Y191140D02*X30134Y192542D01*
X28479Y194479D01*
X26698Y196000D01*
X30993D01*
Y191140D01*
G37*
G36*
X26500Y169841D02*X26542Y169866D01*
X28479Y171521D01*
X30134Y173458D01*
X30993Y174860D01*
Y161420D01*
X30965Y161431D01*
X30735Y161486D01*
X30500Y161500D01*
X26500Y161493D01*
Y169841D01*
G37*
G36*
X22007Y150580D02*X22035Y150569D01*
X22265Y150514D01*
X22500Y150500D01*
X26500Y150507D01*
Y141506D01*
X26500D01*
X25984Y141482D01*
X25472Y141409D01*
X24969Y141289D01*
X24480Y141122D01*
X24008Y140910D01*
X23907Y140849D01*
X23816Y140772D01*
X23739Y140682D01*
X23677Y140580D01*
X23631Y140471D01*
X23603Y140355D01*
X23594Y140237D01*
X23603Y140119D01*
X23630Y140003D01*
X23676Y139893D01*
X23738Y139792D01*
X23814Y139702D01*
X23905Y139624D01*
X24006Y139562D01*
X24115Y139516D01*
X24231Y139489D01*
X24349Y139479D01*
X24468Y139488D01*
X24583Y139516D01*
X24692Y139563D01*
X25032Y139721D01*
X25388Y139842D01*
X25753Y139930D01*
X26125Y139982D01*
X26500Y140000D01*
Y132000D01*
X26125Y132018D01*
X25753Y132070D01*
X25388Y132158D01*
X25032Y132279D01*
X24690Y132433D01*
X24582Y132480D01*
X24467Y132507D01*
X24349Y132517D01*
X24232Y132507D01*
X24117Y132479D01*
X24008Y132434D01*
X23907Y132372D01*
X23818Y132295D01*
X23741Y132205D01*
X23680Y132105D01*
X23635Y131996D01*
X23607Y131881D01*
X23598Y131763D01*
X23608Y131645D01*
X23635Y131531D01*
X23681Y131422D01*
X23743Y131321D01*
X23819Y131231D01*
X23909Y131155D01*
X24011Y131095D01*
X24480Y130878D01*
X24969Y130711D01*
X25472Y130591D01*
X25984Y130518D01*
X26500Y130494D01*
X26500D01*
Y122000D01*
X22007D01*
Y133140D01*
X22029Y133131D01*
X22145Y133103D01*
X22263Y133094D01*
X22381Y133103D01*
X22497Y133130D01*
X22607Y133176D01*
X22708Y133238D01*
X22798Y133314D01*
X22876Y133405D01*
X22938Y133506D01*
X22984Y133615D01*
X23011Y133731D01*
X23021Y133849D01*
X23012Y133968D01*
X22984Y134083D01*
X22937Y134192D01*
X22779Y134532D01*
X22658Y134888D01*
X22570Y135253D01*
X22518Y135625D01*
X22500Y136000D01*
X22518Y136375D01*
X22570Y136747D01*
X22658Y137112D01*
X22779Y137468D01*
X22933Y137810D01*
X22980Y137918D01*
X23007Y138033D01*
X23017Y138151D01*
X23007Y138268D01*
X22979Y138383D01*
X22934Y138492D01*
X22872Y138593D01*
X22795Y138682D01*
X22705Y138759D01*
X22605Y138820D01*
X22496Y138865D01*
X22381Y138893D01*
X22263Y138902D01*
X22145Y138892D01*
X22031Y138865D01*
X22007Y138855D01*
Y150580D01*
G37*
G36*
Y167558D02*X22017Y167561D01*
X24370Y168535D01*
X26500Y169841D01*
Y161493D01*
X22265Y161486D01*
X22035Y161431D01*
X22007Y161420D01*
Y167558D01*
G37*
G36*
X12500Y122000D02*Y167437D01*
X14460Y166966D01*
X17000Y166766D01*
X19540Y166966D01*
X22007Y167558D01*
Y161420D01*
X21817Y161341D01*
X21616Y161217D01*
X21436Y161064D01*
X21283Y160884D01*
X21159Y160683D01*
X21069Y160465D01*
X21014Y160235D01*
X21000Y160000D01*
X21014Y151765D01*
X21069Y151535D01*
X21159Y151317D01*
X21283Y151116D01*
X21436Y150936D01*
X21616Y150783D01*
X21817Y150659D01*
X22007Y150580D01*
Y138855D01*
X21922Y138819D01*
X21821Y138757D01*
X21731Y138681D01*
X21655Y138591D01*
X21595Y138489D01*
X21378Y138020D01*
X21211Y137531D01*
X21091Y137028D01*
X21018Y136516D01*
X20994Y136000D01*
X21018Y135484D01*
X21091Y134972D01*
X21211Y134469D01*
X21378Y133980D01*
X21590Y133508D01*
X21651Y133407D01*
X21728Y133316D01*
X21818Y133239D01*
X21920Y133177D01*
X22007Y133140D01*
Y122000D01*
X12500D01*
G37*
G36*
X135613Y132500D02*X174000D01*
Y110505D01*
X173368Y110656D01*
X172630Y110714D01*
X171892Y110656D01*
X171173Y110484D01*
X170490Y110201D01*
X169859Y109814D01*
X169296Y109334D01*
X168816Y108771D01*
X168429Y108140D01*
X168146Y107457D01*
X167974Y106738D01*
X167916Y106000D01*
X167974Y105262D01*
X168146Y104543D01*
X168429Y103860D01*
X168816Y103229D01*
X169296Y102666D01*
X169859Y102186D01*
X170490Y101799D01*
X171173Y101516D01*
X171892Y101344D01*
X172630Y101286D01*
X173368Y101344D01*
X174000Y101495D01*
Y50750D01*
X135613D01*
Y101630D01*
X135683Y101659D01*
X135884Y101783D01*
X136064Y101936D01*
X136217Y102116D01*
X136341Y102317D01*
X136431Y102535D01*
X136486Y102765D01*
X136500Y103000D01*
X136486Y109235D01*
X136431Y109465D01*
X136341Y109683D01*
X136217Y109884D01*
X136064Y110064D01*
X135884Y110217D01*
X135683Y110341D01*
X135613Y110370D01*
Y113853D01*
X135656Y113860D01*
X135768Y113897D01*
X135873Y113952D01*
X135968Y114022D01*
X136051Y114106D01*
X136119Y114202D01*
X136170Y114308D01*
X136318Y114716D01*
X136422Y115137D01*
X136484Y115567D01*
X136505Y116000D01*
X136484Y116433D01*
X136422Y116863D01*
X136318Y117284D01*
X136175Y117694D01*
X136122Y117800D01*
X136053Y117896D01*
X135970Y117981D01*
X135875Y118051D01*
X135769Y118106D01*
X135657Y118143D01*
X135613Y118151D01*
Y132500D01*
G37*
G36*
Y50750D02*X132000D01*
Y101507D01*
X135235Y101514D01*
X135465Y101569D01*
X135613Y101630D01*
Y50750D01*
G37*
G36*
X132000Y132500D02*X135613D01*
Y118151D01*
X135540Y118163D01*
X135421Y118164D01*
X135304Y118146D01*
X135191Y118110D01*
X135085Y118057D01*
X134988Y117988D01*
X134904Y117905D01*
X134833Y117809D01*
X134779Y117704D01*
X134741Y117592D01*
X134722Y117475D01*
X134721Y117356D01*
X134739Y117239D01*
X134777Y117126D01*
X134876Y116855D01*
X134944Y116575D01*
X134986Y116289D01*
X135000Y116000D01*
X134986Y115711D01*
X134944Y115425D01*
X134876Y115145D01*
X134780Y114872D01*
X134742Y114761D01*
X134725Y114644D01*
X134725Y114526D01*
X134745Y114409D01*
X134782Y114297D01*
X134836Y114193D01*
X134906Y114098D01*
X134991Y114015D01*
X135087Y113946D01*
X135192Y113893D01*
X135305Y113857D01*
X135421Y113840D01*
X135539Y113841D01*
X135613Y113853D01*
Y110370D01*
X135465Y110431D01*
X135235Y110486D01*
X135000Y110500D01*
X132000Y110493D01*
Y111495D01*
X132433Y111516D01*
X132863Y111578D01*
X133284Y111682D01*
X133694Y111825D01*
X133800Y111878D01*
X133896Y111947D01*
X133981Y112030D01*
X134051Y112125D01*
X134106Y112231D01*
X134143Y112343D01*
X134163Y112460D01*
X134164Y112579D01*
X134146Y112696D01*
X134110Y112809D01*
X134057Y112915D01*
X133988Y113012D01*
X133905Y113096D01*
X133809Y113167D01*
X133704Y113221D01*
X133592Y113259D01*
X133475Y113278D01*
X133356Y113279D01*
X133239Y113261D01*
X133126Y113223D01*
X132855Y113124D01*
X132575Y113056D01*
X132289Y113014D01*
X132000Y113000D01*
Y119000D01*
X132289Y118986D01*
X132575Y118944D01*
X132855Y118876D01*
X133128Y118780D01*
X133239Y118742D01*
X133356Y118725D01*
X133474Y118725D01*
X133591Y118745D01*
X133703Y118782D01*
X133807Y118836D01*
X133902Y118906D01*
X133985Y118991D01*
X134054Y119087D01*
X134107Y119192D01*
X134143Y119305D01*
X134160Y119421D01*
X134159Y119539D01*
X134140Y119656D01*
X134103Y119768D01*
X134048Y119873D01*
X133978Y119968D01*
X133894Y120051D01*
X133798Y120119D01*
X133692Y120170D01*
X133284Y120318D01*
X132863Y120422D01*
X132433Y120484D01*
X132000Y120505D01*
Y132500D01*
G37*
G36*
X128387Y101630D02*X128535Y101569D01*
X128765Y101514D01*
X129000Y101500D01*
X132000Y101507D01*
Y50750D01*
X128387D01*
Y101630D01*
G37*
G36*
Y132470D02*X128634Y132319D01*
X129070Y132138D01*
X129529Y132028D01*
X130000Y131991D01*
X130471Y132028D01*
X130930Y132138D01*
X131366Y132319D01*
X131662Y132500D01*
X132000D01*
Y120505D01*
X131567Y120484D01*
X131137Y120422D01*
X130716Y120318D01*
X130306Y120175D01*
X130200Y120122D01*
X130104Y120053D01*
X130019Y119970D01*
X129949Y119875D01*
X129894Y119769D01*
X129857Y119657D01*
X129837Y119540D01*
X129836Y119421D01*
X129854Y119304D01*
X129890Y119191D01*
X129943Y119085D01*
X130012Y118988D01*
X130095Y118904D01*
X130191Y118833D01*
X130296Y118779D01*
X130408Y118741D01*
X130525Y118722D01*
X130644Y118721D01*
X130761Y118739D01*
X130874Y118777D01*
X131145Y118876D01*
X131425Y118944D01*
X131711Y118986D01*
X132000Y119000D01*
Y113000D01*
X131711Y113014D01*
X131425Y113056D01*
X131145Y113124D01*
X130872Y113220D01*
X130761Y113258D01*
X130644Y113275D01*
X130526Y113275D01*
X130409Y113255D01*
X130297Y113218D01*
X130193Y113164D01*
X130098Y113094D01*
X130015Y113009D01*
X129946Y112913D01*
X129893Y112808D01*
X129857Y112695D01*
X129840Y112579D01*
X129841Y112461D01*
X129860Y112344D01*
X129897Y112232D01*
X129952Y112127D01*
X130022Y112032D01*
X130106Y111949D01*
X130202Y111881D01*
X130308Y111830D01*
X130716Y111682D01*
X131137Y111578D01*
X131567Y111516D01*
X132000Y111495D01*
Y110493D01*
X128765Y110486D01*
X128535Y110431D01*
X128387Y110370D01*
Y113849D01*
X128460Y113837D01*
X128579Y113836D01*
X128696Y113854D01*
X128809Y113890D01*
X128915Y113943D01*
X129012Y114012D01*
X129096Y114095D01*
X129167Y114191D01*
X129221Y114296D01*
X129259Y114408D01*
X129278Y114525D01*
X129279Y114644D01*
X129261Y114761D01*
X129223Y114874D01*
X129124Y115145D01*
X129056Y115425D01*
X129014Y115711D01*
X129000Y116000D01*
X129014Y116289D01*
X129056Y116575D01*
X129124Y116855D01*
X129220Y117128D01*
X129258Y117239D01*
X129275Y117356D01*
X129275Y117474D01*
X129255Y117591D01*
X129218Y117703D01*
X129164Y117807D01*
X129094Y117902D01*
X129009Y117985D01*
X128913Y118054D01*
X128808Y118107D01*
X128695Y118143D01*
X128579Y118160D01*
X128461Y118159D01*
X128387Y118147D01*
Y132470D01*
G37*
G36*
X106000Y132500D02*X128338D01*
X128387Y132470D01*
Y118147D01*
X128344Y118140D01*
X128232Y118103D01*
X128127Y118048D01*
X128032Y117978D01*
X127949Y117894D01*
X127881Y117798D01*
X127830Y117692D01*
X127682Y117284D01*
X127578Y116863D01*
X127516Y116433D01*
X127495Y116000D01*
X127516Y115567D01*
X127578Y115137D01*
X127682Y114716D01*
X127825Y114306D01*
X127878Y114200D01*
X127947Y114104D01*
X128030Y114019D01*
X128125Y113949D01*
X128231Y113894D01*
X128343Y113857D01*
X128387Y113849D01*
Y110370D01*
X128317Y110341D01*
X128116Y110217D01*
X127936Y110064D01*
X127783Y109884D01*
X127659Y109683D01*
X127569Y109465D01*
X127514Y109235D01*
X127500Y109000D01*
X127514Y102765D01*
X127569Y102535D01*
X127659Y102317D01*
X127783Y102116D01*
X127936Y101936D01*
X128116Y101783D01*
X128317Y101659D01*
X128387Y101630D01*
Y50750D01*
X107569D01*
X107500Y50755D01*
X107225Y50734D01*
X106958Y50669D01*
X106703Y50564D01*
X106468Y50420D01*
X106259Y50241D01*
X106214Y50189D01*
X106025Y50000D01*
X106000D01*
Y76500D01*
X117401D01*
X117565Y76231D01*
X117872Y75872D01*
X118231Y75565D01*
X118634Y75319D01*
X119070Y75138D01*
X119529Y75028D01*
X120000Y74991D01*
X120471Y75028D01*
X120930Y75138D01*
X121366Y75319D01*
X121769Y75565D01*
X122128Y75872D01*
X122435Y76231D01*
X122681Y76634D01*
X122862Y77070D01*
X122972Y77529D01*
X123000Y78000D01*
X122972Y78471D01*
X122862Y78930D01*
X122681Y79366D01*
X122435Y79769D01*
X122128Y80128D01*
X121769Y80435D01*
X121366Y80681D01*
X120930Y80862D01*
X120471Y80972D01*
X120000Y81009D01*
X119529Y80972D01*
X119070Y80862D01*
X118634Y80681D01*
X118231Y80435D01*
X117872Y80128D01*
X117565Y79769D01*
X117401Y79500D01*
X106000D01*
Y132500D01*
G37*
G36*
X39000Y128000D02*X111500D01*
Y98500D01*
X84621D01*
X83602Y99519D01*
X83564Y99564D01*
X83384Y99717D01*
X83183Y99841D01*
X82965Y99931D01*
X82735Y99986D01*
X82735Y99986D01*
X82500Y100005D01*
X82441Y100000D01*
X65059D01*
X65000Y100005D01*
X64765Y99986D01*
X64535Y99931D01*
X64317Y99841D01*
X64116Y99717D01*
X64115Y99717D01*
X63936Y99564D01*
X63898Y99519D01*
X63777Y99399D01*
X63471Y99472D01*
X63000Y99509D01*
X62529Y99472D01*
X62070Y99362D01*
X61634Y99181D01*
X61231Y98935D01*
X60872Y98628D01*
X60763Y98500D01*
X39000D01*
Y128000D01*
G37*
G36*
X91000Y153500D02*Y157500D01*
X101000D01*
Y153500D01*
X91000D01*
G37*
G36*
X59000Y53000D02*Y61000D01*
X67000D01*
Y60000D01*
X60000Y53000D01*
X59000D01*
G37*
G36*
X12500Y122000D02*Y131500D01*
X22000D01*
Y122000D01*
X12500D01*
G37*
G36*
X59000Y70500D02*X60000D01*
X64500Y66000D01*
Y65000D01*
X59000D01*
Y70500D01*
G37*
G36*
X15995Y124000D02*X20500D01*
Y76676D01*
X20486Y76500D01*
X20500Y76324D01*
Y65646D01*
X20254Y65358D01*
X19925Y64822D01*
X19684Y64240D01*
X19537Y63628D01*
X19488Y63000D01*
X19537Y62372D01*
X19684Y61760D01*
X19925Y61178D01*
X20254Y60642D01*
X20500Y60354D01*
Y53000D01*
X15995D01*
Y62491D01*
X16000Y62491D01*
X16471Y62528D01*
X16930Y62638D01*
X17366Y62819D01*
X17769Y63065D01*
X18128Y63372D01*
X18435Y63731D01*
X18681Y64134D01*
X18862Y64570D01*
X18972Y65029D01*
X19000Y65500D01*
X18972Y65971D01*
X18862Y66430D01*
X18681Y66866D01*
X18435Y67269D01*
X18128Y67628D01*
X17769Y67935D01*
X17366Y68181D01*
X16930Y68362D01*
X16471Y68472D01*
X16000Y68509D01*
X15995Y68509D01*
Y124000D01*
G37*
G36*
X12500D02*X15995D01*
Y68509D01*
X15529Y68472D01*
X15070Y68362D01*
X14634Y68181D01*
X14231Y67935D01*
X13872Y67628D01*
X13565Y67269D01*
X13319Y66866D01*
X13138Y66430D01*
X13028Y65971D01*
X12991Y65500D01*
X13028Y65029D01*
X13138Y64570D01*
X13319Y64134D01*
X13565Y63731D01*
X13872Y63372D01*
X14231Y63065D01*
X14634Y62819D01*
X15070Y62638D01*
X15529Y62528D01*
X15995Y62491D01*
Y53000D01*
X12500D01*
Y124000D01*
G37*
G36*
Y53000D02*Y70500D01*
X60000D01*
Y53000D01*
X12500D01*
G37*
G36*
X17000D02*X3000D01*
Y174872D01*
X3866Y173458D01*
X5521Y171521D01*
X7458Y169866D01*
X9630Y168535D01*
X11983Y167561D01*
X14460Y166966D01*
X17000Y166766D01*
Y68333D01*
X16930Y68362D01*
X16471Y68472D01*
X16000Y68509D01*
X15529Y68472D01*
X15070Y68362D01*
X14634Y68181D01*
X14231Y67935D01*
X13872Y67628D01*
X13565Y67269D01*
X13319Y66866D01*
X13138Y66430D01*
X13028Y65971D01*
X12991Y65500D01*
X13028Y65029D01*
X13138Y64570D01*
X13319Y64134D01*
X13565Y63731D01*
X13872Y63372D01*
X14231Y63065D01*
X14634Y62819D01*
X15070Y62638D01*
X15529Y62528D01*
X16000Y62491D01*
X16471Y62528D01*
X16930Y62638D01*
X17000Y62667D01*
Y53000D01*
G37*
G54D39*X84500Y96500D02*X82500Y98500D01*
G54D40*X138500Y143500D02*X130000Y135000D01*
X138500Y161000D02*Y143500D01*
G54D39*X120000Y78000D02*X88000D01*
X84500Y81500D01*
Y96500D01*
X82500Y98500D02*X65000D01*
G54D41*X77000Y91000D02*X81000Y95000D01*
G54D42*X96000Y146500D02*Y160000D01*
G54D39*X217500Y43000D02*Y77500D01*
X180500Y105996D02*X180504Y106000D01*
X184500Y86500D02*X180500Y90500D01*
Y105996D01*
G54D40*X192000Y53000D02*X184500D01*
G54D39*X189000Y61500D02*X203500D01*
X206000Y64000D01*
Y79000D01*
G54D40*X184500Y53000D02*X180500Y49000D01*
G54D39*X176500Y39500D02*X214000D01*
X217500Y43000D01*
X206000Y79000D02*X209000Y82000D01*
X239500D01*
X244000Y77500D01*
X246000Y86500D02*X184500D01*
X241000Y63500D02*X245500D01*
X248500Y66500D01*
Y84000D01*
X246000Y86500D01*
X65000Y98500D02*X63000Y96500D01*
G54D43*X55000Y76500D02*Y63000D01*
G54D41*X77000Y75000D02*Y91000D01*
Y75000D02*X73500Y71500D01*
X93500Y61500D02*Y43500D01*
X87500Y37500D01*
X60500D01*
X73500Y63000D02*X79000D01*
X81000Y61000D01*
Y41500D01*
G54D40*X53500Y32500D02*X91000D01*
X107500Y49000D02*X91000Y32500D01*
G54D39*X82000Y10000D02*X84500Y7500D01*
G54D44*X71000Y12500D02*X77000D01*
G54D39*Y22500D02*X82000Y17500D01*
Y10000D01*
G54D40*X102000Y17500D02*X97000Y22500D01*
G54D44*X59000Y24500D02*X71000Y12500D01*
G54D40*X45000Y46500D02*Y41000D01*
G54D44*X48500Y24500D02*X59000D01*
G54D40*X25000Y46500D02*Y40500D01*
X36000Y29500D01*
X45000Y41000D02*X53500Y32500D01*
G54D44*X48500Y24500D02*X35000Y38000D01*
G54D40*X36000Y29500D02*Y13000D01*
X44500Y4500D01*
G54D43*X73500Y63000D02*X23500D01*
G54D44*X35000Y38000D02*Y50000D01*
G54D43*Y63000D02*Y46500D01*
G54D41*X51500Y89500D02*X33000D01*
X26500Y96000D01*
G54D44*X117000Y22500D02*Y45000D01*
G54D40*X136000Y23000D02*X130500Y17500D01*
X166500Y33500D02*Y11500D01*
X136000Y35000D02*Y23000D01*
X166500Y11500D02*X159500Y4500D01*
G54D39*X128000Y7500D02*X131000Y10500D01*
G54D40*X130500Y17500D02*X102000D01*
G54D45*X97000Y12500D02*X117000D01*
G54D40*X159500Y4500D02*X44500D01*
G54D39*X84500Y7500D02*X128000D01*
G54D40*X168000Y39500D02*X124000D01*
X171500Y36000D02*X168000Y39500D01*
X180500Y49000D02*X107500D01*
G54D41*X236500Y180000D02*X246000D01*
G54D40*X236500Y185500D02*X250500D01*
G54D39*X228000Y164500D02*Y192362D01*
X227748Y192614D01*
X232000Y154000D02*Y188992D01*
X235622Y192614D01*
G54D41*X246000Y180000D02*X290500Y135500D01*
X270500Y140000D02*X265500Y145000D01*
G54D39*X267000Y135500D02*X262500Y140000D01*
G54D41*X270500Y120500D02*Y140000D01*
G54D39*X237500Y91000D02*X247000D01*
X250500Y94500D01*
Y130500D01*
X246500Y134500D01*
G54D41*X265500Y145000D02*X229000D01*
G54D39*X267000Y68500D02*Y135500D01*
X262500Y140000D02*X227000D01*
X222500Y144500D01*
Y159000D01*
X228000Y164500D01*
X246500Y150000D02*X236000D01*
X232000Y154000D01*
G54D46*X283000Y183000D03*
G54D38*G36*
X240296Y195814D02*Y189414D01*
X246696D01*
Y195814D01*
X240296D01*
G37*
G54D47*X235622Y192614D03*
X227748D03*
X219874D03*
X212000D03*
X204126D03*
X243496Y106000D03*
X235622D03*
X227748D03*
X219874D03*
X212000D03*
X204126D03*
G54D38*G36*
X172788Y24500D02*Y17500D01*
X179788D01*
Y24500D01*
X172788D01*
G37*
G54D48*X195500Y21000D03*
G54D38*G36*
X94000Y25500D02*Y19500D01*
X100000D01*
Y25500D01*
X94000D01*
G37*
G54D43*X87000Y22500D03*
X77000D03*
G54D38*G36*
X114000Y25500D02*Y19500D01*
X120000D01*
Y25500D01*
X114000D01*
G37*
G54D43*X97000Y12500D03*
G54D38*G36*
X90500Y76000D02*Y70000D01*
X96500D01*
Y76000D01*
X90500D01*
G37*
G54D43*X93500Y63000D03*
X87000Y12500D03*
X77000D03*
G54D38*G36*
X70500Y76000D02*Y70000D01*
X76500D01*
Y76000D01*
X70500D01*
G37*
G54D43*X73500Y63000D03*
G54D46*X283000Y17000D03*
G54D43*X117000Y12500D03*
G54D47*X196252Y192614D03*
X188378D03*
X180504D03*
X172630D03*
X196252Y106000D03*
X188378D03*
X180504D03*
G54D46*X17000Y17000D03*
G54D42*X26500Y96000D03*
G54D38*G36*
X22000Y49500D02*Y43500D01*
X28000D01*
Y49500D01*
X22000D01*
G37*
G54D43*X25000Y76500D03*
X35000Y46500D03*
Y76500D03*
X45000Y46500D03*
X55000D03*
Y76500D03*
X45000D03*
G54D47*X172630Y106000D03*
G54D38*G36*
X129000Y109000D02*Y103000D01*
X135000D01*
Y109000D01*
X129000D01*
G37*
G54D43*X132000Y116000D03*
G54D49*X106000Y146500D03*
X96000D03*
G54D38*G36*
X82063Y150437D02*Y142563D01*
X89937D01*
Y150437D01*
X82063D01*
G37*
G54D46*X17000Y183000D03*
G54D38*G36*
X22500Y120000D02*Y112000D01*
X30500D01*
Y120000D01*
X22500D01*
G37*
G36*
Y160000D02*Y152000D01*
X30500D01*
Y160000D01*
X22500D01*
G37*
G54D42*X26500Y136000D03*
G54D49*X96000Y150437D02*Y142563D01*
X106000Y150437D02*Y142563D01*
X86000Y150437D02*Y142563D01*
G54D44*X130000Y135000D03*
X138500Y161000D03*
X121000Y182000D03*
X119500Y195500D03*
X120000Y78000D03*
X113500Y133000D03*
X108500D03*
X148500Y126500D03*
X153500D03*
X246500Y150000D03*
Y134500D03*
X229000Y145000D03*
X270500Y120500D03*
X237500Y91000D03*
X267000Y68500D03*
X244000Y77500D03*
X290500Y135500D03*
X236500Y185500D03*
X250500D03*
X236500Y180000D03*
X241000Y63500D03*
X217500Y77500D03*
X16000Y65500D03*
X189000Y61500D03*
X137000Y66500D03*
X81000Y41500D03*
X131000Y10500D03*
X117000Y45000D03*
X136000Y35000D03*
X124000Y39500D03*
X60500Y37500D03*
X166500Y32500D03*
X171500Y36000D03*
X154000Y53000D03*
X176500Y39500D03*
X152500Y83500D03*
X169000Y71500D03*
X192000Y53000D03*
X16000Y70000D03*
X63000Y96500D03*
X42500Y181000D03*
X37500D03*
X51500Y89500D03*
X96000Y160000D03*
Y165000D03*
Y170000D03*
Y175500D03*
X103500Y133000D03*
X98500D03*
X93500D03*
X81000Y95000D03*
X94500Y180500D03*
X99500D03*
X94500Y185500D03*
X109500Y190500D03*
X104500D03*
X99500Y185500D03*
Y190500D03*
X94500D03*
X89500D03*
Y195500D03*
X94500D03*
X99500D03*
X104500D03*
X109500D03*
X114500D03*
Y185000D03*
Y180000D03*
G54D41*G54D50*G54D51*G54D52*G54D53*G54D50*G54D53*G54D51*G54D50*G54D54*G54D55*G54D51*G54D53*G54D56*G54D50*G54D54*M02*
