G04 start of page 2 for group 0 idx 0 *
G04 Title: (unknown), component *
G04 Creator: pcb 20110918 *
G04 CreationDate: Thu 28 Mar 2013 10:59:42 PM GMT UTC *
G04 For: railfan *
G04 Format: Gerber/RS-274X *
G04 PCB-Dimensions: 300000 200000 *
G04 PCB-Coordinate-Origin: lower left *
%MOIN*%
%FSLAX25Y25*%
%LNTOP*%
%ADD37C,0.0280*%
%ADD36C,0.0480*%
%ADD35C,0.0380*%
%ADD34C,0.0250*%
%ADD33C,0.0320*%
%ADD32C,0.1285*%
%ADD31R,0.0340X0.0340*%
%ADD30R,0.0945X0.0945*%
%ADD29R,0.0378X0.0378*%
%ADD28R,0.0360X0.0360*%
%ADD27R,0.0630X0.0630*%
%ADD26R,0.0157X0.0157*%
%ADD25R,0.0512X0.0512*%
%ADD24C,0.0787*%
%ADD23C,0.0600*%
%ADD22C,0.0700*%
%ADD21C,0.0640*%
%ADD20C,0.2937*%
%ADD19C,0.0400*%
%ADD18C,0.0500*%
%ADD17C,0.0200*%
%ADD16C,0.0300*%
%ADD15C,0.0800*%
%ADD14C,0.0450*%
%ADD13C,0.0100*%
%ADD12C,0.0150*%
%ADD11C,0.0001*%
G54D11*G36*
X24998Y83000D02*X30500D01*
Y77500D01*
X29388D01*
X29318Y77784D01*
X29175Y78194D01*
X29122Y78300D01*
X29053Y78396D01*
X28970Y78481D01*
X28875Y78551D01*
X28769Y78606D01*
X28657Y78643D01*
X28540Y78663D01*
X28421Y78664D01*
X28304Y78646D01*
X28191Y78610D01*
X28085Y78557D01*
X27988Y78488D01*
X27904Y78405D01*
X27833Y78309D01*
X27779Y78204D01*
X27741Y78092D01*
X27722Y77975D01*
X27721Y77856D01*
X27739Y77739D01*
X27777Y77626D01*
X27823Y77500D01*
X24998D01*
Y79500D01*
X25000Y79500D01*
X25289Y79486D01*
X25575Y79444D01*
X25855Y79376D01*
X26128Y79280D01*
X26239Y79242D01*
X26356Y79225D01*
X26474Y79225D01*
X26591Y79245D01*
X26703Y79282D01*
X26807Y79336D01*
X26902Y79406D01*
X26985Y79491D01*
X27054Y79587D01*
X27107Y79692D01*
X27143Y79805D01*
X27160Y79921D01*
X27159Y80039D01*
X27140Y80156D01*
X27103Y80268D01*
X27048Y80373D01*
X26978Y80468D01*
X26894Y80551D01*
X26798Y80619D01*
X26692Y80670D01*
X26284Y80818D01*
X25863Y80922D01*
X25433Y80984D01*
X25000Y81005D01*
X24998Y81005D01*
Y83000D01*
G37*
G36*
X16000D02*X24998D01*
Y81005D01*
X24567Y80984D01*
X24137Y80922D01*
X23716Y80818D01*
X23306Y80675D01*
X23200Y80622D01*
X23104Y80553D01*
X23019Y80470D01*
X22949Y80375D01*
X22894Y80269D01*
X22857Y80157D01*
X22837Y80040D01*
X22836Y79921D01*
X22854Y79804D01*
X22890Y79691D01*
X22943Y79585D01*
X23012Y79488D01*
X23095Y79404D01*
X23191Y79333D01*
X23296Y79279D01*
X23408Y79241D01*
X23525Y79222D01*
X23644Y79221D01*
X23761Y79239D01*
X23874Y79277D01*
X24145Y79376D01*
X24425Y79444D01*
X24711Y79486D01*
X24998Y79500D01*
Y77500D01*
X22175D01*
X22220Y77628D01*
X22258Y77739D01*
X22275Y77856D01*
X22275Y77974D01*
X22255Y78091D01*
X22218Y78203D01*
X22164Y78307D01*
X22094Y78402D01*
X22009Y78485D01*
X21913Y78554D01*
X21808Y78607D01*
X21695Y78643D01*
X21579Y78660D01*
X21461Y78659D01*
X21344Y78640D01*
X21232Y78603D01*
X21127Y78548D01*
X21032Y78478D01*
X20949Y78394D01*
X20881Y78298D01*
X20830Y78192D01*
X20682Y77784D01*
X20612Y77500D01*
X16000D01*
Y83000D01*
G37*
G36*
X97113Y68630D02*X97183Y68659D01*
X97384Y68783D01*
X97564Y68936D01*
X97717Y69116D01*
X97841Y69317D01*
X97931Y69535D01*
X97986Y69765D01*
X98000Y70000D01*
X97998Y71000D01*
X105000D01*
Y53000D01*
X97113D01*
Y60853D01*
X97156Y60860D01*
X97268Y60897D01*
X97373Y60952D01*
X97468Y61022D01*
X97551Y61106D01*
X97619Y61202D01*
X97670Y61308D01*
X97818Y61716D01*
X97922Y62137D01*
X97984Y62567D01*
X98005Y63000D01*
X97984Y63433D01*
X97922Y63863D01*
X97818Y64284D01*
X97675Y64694D01*
X97622Y64800D01*
X97553Y64896D01*
X97470Y64981D01*
X97375Y65051D01*
X97269Y65106D01*
X97157Y65143D01*
X97113Y65151D01*
Y68630D01*
G37*
G36*
X93502Y68507D02*X96735Y68514D01*
X96965Y68569D01*
X97113Y68630D01*
Y65151D01*
X97040Y65163D01*
X96921Y65164D01*
X96804Y65146D01*
X96691Y65110D01*
X96585Y65057D01*
X96488Y64988D01*
X96404Y64905D01*
X96333Y64809D01*
X96279Y64704D01*
X96241Y64592D01*
X96222Y64475D01*
X96221Y64356D01*
X96239Y64239D01*
X96277Y64126D01*
X96376Y63855D01*
X96444Y63575D01*
X96486Y63289D01*
X96500Y63000D01*
X96486Y62711D01*
X96444Y62425D01*
X96376Y62145D01*
X96280Y61872D01*
X96242Y61761D01*
X96225Y61644D01*
X96225Y61526D01*
X96245Y61409D01*
X96282Y61297D01*
X96336Y61193D01*
X96406Y61098D01*
X96491Y61015D01*
X96587Y60946D01*
X96692Y60893D01*
X96805Y60857D01*
X96921Y60840D01*
X97039Y60841D01*
X97113Y60853D01*
Y53000D01*
X93502D01*
Y58495D01*
X93933Y58516D01*
X94363Y58578D01*
X94784Y58682D01*
X95194Y58825D01*
X95300Y58878D01*
X95396Y58947D01*
X95481Y59030D01*
X95551Y59125D01*
X95606Y59231D01*
X95643Y59343D01*
X95663Y59460D01*
X95664Y59579D01*
X95646Y59696D01*
X95610Y59809D01*
X95557Y59915D01*
X95488Y60012D01*
X95405Y60096D01*
X95309Y60167D01*
X95204Y60221D01*
X95092Y60259D01*
X94975Y60278D01*
X94856Y60279D01*
X94739Y60261D01*
X94626Y60223D01*
X94355Y60124D01*
X94075Y60056D01*
X93789Y60014D01*
X93502Y60000D01*
Y66000D01*
X93789Y65986D01*
X94075Y65944D01*
X94355Y65876D01*
X94628Y65780D01*
X94739Y65742D01*
X94856Y65725D01*
X94974Y65725D01*
X95091Y65745D01*
X95203Y65782D01*
X95307Y65836D01*
X95402Y65906D01*
X95485Y65991D01*
X95554Y66087D01*
X95607Y66192D01*
X95643Y66305D01*
X95660Y66421D01*
X95659Y66539D01*
X95640Y66656D01*
X95603Y66768D01*
X95548Y66873D01*
X95478Y66968D01*
X95394Y67051D01*
X95298Y67119D01*
X95192Y67170D01*
X94784Y67318D01*
X94363Y67422D01*
X93933Y67484D01*
X93502Y67505D01*
Y68507D01*
G37*
G36*
X89887Y68630D02*X90035Y68569D01*
X90265Y68514D01*
X90500Y68500D01*
X93502Y68507D01*
Y67505D01*
X93500Y67505D01*
X93067Y67484D01*
X92637Y67422D01*
X92216Y67318D01*
X91806Y67175D01*
X91700Y67122D01*
X91604Y67053D01*
X91519Y66970D01*
X91449Y66875D01*
X91394Y66769D01*
X91357Y66657D01*
X91337Y66540D01*
X91336Y66421D01*
X91354Y66304D01*
X91390Y66191D01*
X91443Y66085D01*
X91512Y65988D01*
X91595Y65904D01*
X91691Y65833D01*
X91796Y65779D01*
X91908Y65741D01*
X92025Y65722D01*
X92144Y65721D01*
X92261Y65739D01*
X92374Y65777D01*
X92645Y65876D01*
X92925Y65944D01*
X93211Y65986D01*
X93500Y66000D01*
X93502Y66000D01*
Y60000D01*
X93500Y60000D01*
X93211Y60014D01*
X92925Y60056D01*
X92645Y60124D01*
X92372Y60220D01*
X92261Y60258D01*
X92144Y60275D01*
X92026Y60275D01*
X91909Y60255D01*
X91797Y60218D01*
X91693Y60164D01*
X91598Y60094D01*
X91515Y60009D01*
X91446Y59913D01*
X91393Y59808D01*
X91357Y59695D01*
X91340Y59579D01*
X91341Y59461D01*
X91360Y59344D01*
X91397Y59232D01*
X91452Y59127D01*
X91522Y59032D01*
X91606Y58949D01*
X91702Y58881D01*
X91808Y58830D01*
X92216Y58682D01*
X92637Y58578D01*
X93067Y58516D01*
X93500Y58495D01*
X93502Y58495D01*
Y53000D01*
X89887D01*
Y60849D01*
X89960Y60837D01*
X90079Y60836D01*
X90196Y60854D01*
X90309Y60890D01*
X90415Y60943D01*
X90512Y61012D01*
X90596Y61095D01*
X90667Y61191D01*
X90721Y61296D01*
X90759Y61408D01*
X90778Y61525D01*
X90779Y61644D01*
X90761Y61761D01*
X90723Y61874D01*
X90624Y62145D01*
X90556Y62425D01*
X90514Y62711D01*
X90500Y63000D01*
X90514Y63289D01*
X90556Y63575D01*
X90624Y63855D01*
X90720Y64128D01*
X90758Y64239D01*
X90775Y64356D01*
X90775Y64474D01*
X90755Y64591D01*
X90718Y64703D01*
X90664Y64807D01*
X90594Y64902D01*
X90509Y64985D01*
X90413Y65054D01*
X90308Y65107D01*
X90195Y65143D01*
X90079Y65160D01*
X89961Y65159D01*
X89887Y65147D01*
Y68630D01*
G37*
G36*
X73493Y68507D02*X76735Y68514D01*
X76965Y68569D01*
X77183Y68659D01*
X77384Y68783D01*
X77564Y68936D01*
X77717Y69116D01*
X77841Y69317D01*
X77931Y69535D01*
X77986Y69765D01*
X78000Y70000D01*
X77998Y71000D01*
X89011D01*
X89014Y69765D01*
X89069Y69535D01*
X89159Y69317D01*
X89283Y69116D01*
X89436Y68936D01*
X89616Y68783D01*
X89817Y68659D01*
X89887Y68630D01*
Y65147D01*
X89844Y65140D01*
X89732Y65103D01*
X89627Y65048D01*
X89532Y64978D01*
X89449Y64894D01*
X89381Y64798D01*
X89330Y64692D01*
X89182Y64284D01*
X89078Y63863D01*
X89016Y63433D01*
X88995Y63000D01*
X89016Y62567D01*
X89078Y62137D01*
X89182Y61716D01*
X89325Y61306D01*
X89378Y61200D01*
X89447Y61104D01*
X89530Y61019D01*
X89625Y60949D01*
X89731Y60894D01*
X89843Y60857D01*
X89887Y60849D01*
Y53000D01*
X73493D01*
Y58487D01*
X73500Y58486D01*
X74206Y58542D01*
X74895Y58707D01*
X75549Y58978D01*
X76153Y59348D01*
X76692Y59808D01*
X77152Y60347D01*
X77522Y60951D01*
X77793Y61605D01*
X77958Y62294D01*
X78000Y63000D01*
X77958Y63706D01*
X77793Y64395D01*
X77522Y65049D01*
X77152Y65653D01*
X76692Y66192D01*
X76153Y66652D01*
X75549Y67022D01*
X74895Y67293D01*
X74206Y67458D01*
X73500Y67514D01*
X73493Y67513D01*
Y68507D01*
G37*
G36*
X19500Y71000D02*X69011D01*
X69014Y69765D01*
X69069Y69535D01*
X69159Y69317D01*
X69283Y69116D01*
X69436Y68936D01*
X69616Y68783D01*
X69817Y68659D01*
X70035Y68569D01*
X70265Y68514D01*
X70500Y68500D01*
X73493Y68507D01*
Y67513D01*
X72794Y67458D01*
X72105Y67293D01*
X71451Y67022D01*
X70847Y66652D01*
X70308Y66192D01*
X69848Y65653D01*
X69478Y65049D01*
X69207Y64395D01*
X69042Y63706D01*
X68986Y63000D01*
X69042Y62294D01*
X69207Y61605D01*
X69478Y60951D01*
X69848Y60347D01*
X70308Y59808D01*
X70847Y59348D01*
X71451Y58978D01*
X72105Y58707D01*
X72794Y58542D01*
X73493Y58487D01*
Y53000D01*
X63828D01*
X59970Y56859D01*
X59919Y56919D01*
X59679Y57123D01*
X59411Y57288D01*
X59120Y57408D01*
X58814Y57481D01*
X58814Y57481D01*
X58500Y57506D01*
X58422Y57500D01*
X48578D01*
X48500Y57506D01*
X48186Y57481D01*
X47880Y57408D01*
X47589Y57288D01*
X47321Y57123D01*
X47321Y57123D01*
X47081Y56919D01*
X47030Y56859D01*
X43641Y53470D01*
X43581Y53419D01*
X43377Y53179D01*
X43267Y53000D01*
X19500D01*
Y71000D01*
G37*
G36*
X28613Y83000D02*X30500D01*
Y76676D01*
X30486Y76500D01*
X30500Y76324D01*
Y66000D01*
X28613D01*
Y74353D01*
X28656Y74360D01*
X28768Y74397D01*
X28873Y74452D01*
X28968Y74522D01*
X29051Y74606D01*
X29119Y74702D01*
X29170Y74808D01*
X29318Y75216D01*
X29422Y75637D01*
X29484Y76067D01*
X29505Y76500D01*
X29484Y76933D01*
X29422Y77363D01*
X29318Y77784D01*
X29175Y78194D01*
X29122Y78300D01*
X29053Y78396D01*
X28970Y78481D01*
X28875Y78551D01*
X28769Y78606D01*
X28657Y78643D01*
X28613Y78651D01*
Y83000D01*
G37*
G36*
X25002D02*X28613D01*
Y78651D01*
X28540Y78663D01*
X28421Y78664D01*
X28304Y78646D01*
X28191Y78610D01*
X28085Y78557D01*
X27988Y78488D01*
X27904Y78405D01*
X27833Y78309D01*
X27779Y78204D01*
X27741Y78092D01*
X27722Y77975D01*
X27721Y77856D01*
X27739Y77739D01*
X27777Y77626D01*
X27876Y77355D01*
X27944Y77075D01*
X27986Y76789D01*
X28000Y76500D01*
X27986Y76211D01*
X27944Y75925D01*
X27876Y75645D01*
X27780Y75372D01*
X27742Y75261D01*
X27725Y75144D01*
X27725Y75026D01*
X27745Y74909D01*
X27782Y74797D01*
X27836Y74693D01*
X27906Y74598D01*
X27991Y74515D01*
X28087Y74446D01*
X28192Y74393D01*
X28305Y74357D01*
X28421Y74340D01*
X28539Y74341D01*
X28613Y74353D01*
Y66000D01*
X25002D01*
Y71995D01*
X25433Y72016D01*
X25863Y72078D01*
X26284Y72182D01*
X26694Y72325D01*
X26800Y72378D01*
X26896Y72447D01*
X26981Y72530D01*
X27051Y72625D01*
X27106Y72731D01*
X27143Y72843D01*
X27163Y72960D01*
X27164Y73079D01*
X27146Y73196D01*
X27110Y73309D01*
X27057Y73415D01*
X26988Y73512D01*
X26905Y73596D01*
X26809Y73667D01*
X26704Y73721D01*
X26592Y73759D01*
X26475Y73778D01*
X26356Y73779D01*
X26239Y73761D01*
X26126Y73723D01*
X25855Y73624D01*
X25575Y73556D01*
X25289Y73514D01*
X25002Y73500D01*
Y79500D01*
X25289Y79486D01*
X25575Y79444D01*
X25855Y79376D01*
X26128Y79280D01*
X26239Y79242D01*
X26356Y79225D01*
X26474Y79225D01*
X26591Y79245D01*
X26703Y79282D01*
X26807Y79336D01*
X26902Y79406D01*
X26985Y79491D01*
X27054Y79587D01*
X27107Y79692D01*
X27143Y79805D01*
X27160Y79921D01*
X27159Y80039D01*
X27140Y80156D01*
X27103Y80268D01*
X27048Y80373D01*
X26978Y80468D01*
X26894Y80551D01*
X26798Y80619D01*
X26692Y80670D01*
X26284Y80818D01*
X25863Y80922D01*
X25433Y80984D01*
X25002Y81005D01*
Y83000D01*
G37*
G36*
X21387D02*X25002D01*
Y81005D01*
X25000Y81005D01*
X24567Y80984D01*
X24137Y80922D01*
X23716Y80818D01*
X23306Y80675D01*
X23200Y80622D01*
X23104Y80553D01*
X23019Y80470D01*
X22949Y80375D01*
X22894Y80269D01*
X22857Y80157D01*
X22837Y80040D01*
X22836Y79921D01*
X22854Y79804D01*
X22890Y79691D01*
X22943Y79585D01*
X23012Y79488D01*
X23095Y79404D01*
X23191Y79333D01*
X23296Y79279D01*
X23408Y79241D01*
X23525Y79222D01*
X23644Y79221D01*
X23761Y79239D01*
X23874Y79277D01*
X24145Y79376D01*
X24425Y79444D01*
X24711Y79486D01*
X25000Y79500D01*
X25002Y79500D01*
Y73500D01*
X25000Y73500D01*
X24711Y73514D01*
X24425Y73556D01*
X24145Y73624D01*
X23872Y73720D01*
X23761Y73758D01*
X23644Y73775D01*
X23526Y73775D01*
X23409Y73755D01*
X23297Y73718D01*
X23193Y73664D01*
X23098Y73594D01*
X23015Y73509D01*
X22946Y73413D01*
X22893Y73308D01*
X22857Y73195D01*
X22840Y73079D01*
X22841Y72961D01*
X22860Y72844D01*
X22897Y72732D01*
X22952Y72627D01*
X23022Y72532D01*
X23106Y72449D01*
X23202Y72381D01*
X23308Y72330D01*
X23716Y72182D01*
X24137Y72078D01*
X24567Y72016D01*
X25000Y71995D01*
X25002Y71995D01*
Y66000D01*
X21387D01*
Y74349D01*
X21460Y74337D01*
X21579Y74336D01*
X21696Y74354D01*
X21809Y74390D01*
X21915Y74443D01*
X22012Y74512D01*
X22096Y74595D01*
X22167Y74691D01*
X22221Y74796D01*
X22259Y74908D01*
X22278Y75025D01*
X22279Y75144D01*
X22261Y75261D01*
X22223Y75374D01*
X22124Y75645D01*
X22056Y75925D01*
X22014Y76211D01*
X22000Y76500D01*
X22014Y76789D01*
X22056Y77075D01*
X22124Y77355D01*
X22220Y77628D01*
X22258Y77739D01*
X22275Y77856D01*
X22275Y77974D01*
X22255Y78091D01*
X22218Y78203D01*
X22164Y78307D01*
X22094Y78402D01*
X22009Y78485D01*
X21913Y78554D01*
X21808Y78607D01*
X21695Y78643D01*
X21579Y78660D01*
X21461Y78659D01*
X21387Y78647D01*
Y83000D01*
G37*
G36*
X19500D02*X21387D01*
Y78647D01*
X21344Y78640D01*
X21232Y78603D01*
X21127Y78548D01*
X21032Y78478D01*
X20949Y78394D01*
X20881Y78298D01*
X20830Y78192D01*
X20682Y77784D01*
X20578Y77363D01*
X20516Y76933D01*
X20495Y76500D01*
X20516Y76067D01*
X20578Y75637D01*
X20682Y75216D01*
X20825Y74806D01*
X20878Y74700D01*
X20947Y74604D01*
X21030Y74519D01*
X21125Y74449D01*
X21231Y74394D01*
X21343Y74357D01*
X21387Y74349D01*
Y66000D01*
X19500D01*
Y83000D01*
G37*
G36*
X18500D02*Y77500D01*
X6000D01*
Y83000D01*
X18500D01*
G37*
G36*
X66000Y130500D02*X87500D01*
Y119000D01*
X66000D01*
Y130500D01*
G37*
G36*
X112500Y102000D02*X127881D01*
X127936Y101936D01*
X128116Y101783D01*
X128317Y101659D01*
X128535Y101569D01*
X128765Y101514D01*
X129000Y101500D01*
X130250Y101503D01*
Y100568D01*
X130245Y100500D01*
X130266Y100226D01*
X130266Y100225D01*
X130331Y99958D01*
X130436Y99703D01*
X130580Y99468D01*
X130759Y99259D01*
X130811Y99214D01*
X132214Y97811D01*
X132259Y97759D01*
X132468Y97580D01*
X132703Y97436D01*
X132958Y97331D01*
X133225Y97266D01*
X133226Y97266D01*
X133500Y97245D01*
X133569Y97250D01*
X137500D01*
Y96681D01*
X136230Y96671D01*
X136000Y96616D01*
X135782Y96526D01*
X135581Y96402D01*
X135401Y96249D01*
X135248Y96069D01*
X135124Y95868D01*
X135034Y95650D01*
X134979Y95420D01*
X134965Y95185D01*
X134979Y88950D01*
X135034Y88720D01*
X135124Y88502D01*
X135248Y88301D01*
X135401Y88121D01*
X135581Y87968D01*
X135782Y87844D01*
X136000Y87754D01*
X136230Y87699D01*
X136465Y87685D01*
X137500Y87693D01*
Y83000D01*
X132811D01*
X132801Y84270D01*
X132746Y84500D01*
X132656Y84718D01*
X132532Y84919D01*
X132379Y85099D01*
X132199Y85252D01*
X131998Y85376D01*
X131780Y85466D01*
X131550Y85521D01*
X131315Y85535D01*
X125080Y85521D01*
X124850Y85466D01*
X124632Y85376D01*
X124431Y85252D01*
X124251Y85099D01*
X124098Y84919D01*
X123974Y84718D01*
X123884Y84500D01*
X123829Y84270D01*
X123815Y84035D01*
X123823Y83000D01*
X112500D01*
Y102000D01*
G37*
G36*
X102500Y73500D02*Y128500D01*
X117500D01*
Y79662D01*
X117319Y79366D01*
X117138Y78930D01*
X117028Y78471D01*
X116991Y78000D01*
X117028Y77529D01*
X117138Y77070D01*
X117319Y76634D01*
X117500Y76338D01*
Y76055D01*
X113891Y76050D01*
X113738Y76013D01*
X113593Y75953D01*
X113458Y75871D01*
X113339Y75768D01*
X113236Y75649D01*
X113154Y75514D01*
X113148Y75500D01*
X109000D01*
X108529Y75472D01*
X108070Y75362D01*
X107634Y75181D01*
X107231Y74935D01*
X106872Y74628D01*
X106565Y74269D01*
X106319Y73866D01*
X106167Y73500D01*
X102500D01*
G37*
G36*
X100291Y122858D02*X106000D01*
Y72618D01*
X105991Y72500D01*
X106000Y72382D01*
Y70000D01*
X98000D01*
X97993Y73165D01*
X98902Y74073D01*
X98962Y74124D01*
X99166Y74363D01*
X99166Y74364D01*
X99331Y74632D01*
X99451Y74923D01*
X99524Y75229D01*
X99549Y75543D01*
X99543Y75621D01*
Y84556D01*
X100259Y84557D01*
X100412Y84594D01*
X100557Y84654D01*
X100692Y84736D01*
X100811Y84839D01*
X100914Y84958D01*
X100996Y85093D01*
X101056Y85238D01*
X101093Y85391D01*
X101102Y85548D01*
X101093Y91609D01*
X101056Y91762D01*
X100996Y91907D01*
X100914Y92042D01*
X100811Y92161D01*
X100692Y92264D01*
X100557Y92346D01*
X100412Y92406D01*
X100259Y92443D01*
X100102Y92452D01*
X97906Y92448D01*
Y117927D01*
X99453Y117930D01*
X99606Y117967D01*
X99751Y118027D01*
X99886Y118109D01*
X100005Y118212D01*
X100108Y118331D01*
X100190Y118466D01*
X100250Y118611D01*
X100287Y118764D01*
X100296Y118921D01*
X100291Y122858D01*
G37*
G36*
X96500Y120000D02*X103500D01*
Y116500D01*
X99000D01*
X96500Y119000D01*
Y120000D01*
G37*
G36*
X95500Y128500D02*X108000D01*
Y119000D01*
X95500D01*
Y128500D01*
G37*
G36*
X121500Y100000D02*Y122445D01*
X125109Y122450D01*
X125262Y122487D01*
X125407Y122547D01*
X125542Y122629D01*
X125661Y122732D01*
X125764Y122851D01*
X125846Y122986D01*
X125906Y123131D01*
X125943Y123284D01*
X125952Y123441D01*
X125948Y125597D01*
X125968Y125580D01*
X126203Y125436D01*
X126458Y125331D01*
X126725Y125266D01*
X127000Y125245D01*
X127275Y125266D01*
X127542Y125331D01*
X127797Y125436D01*
X128032Y125580D01*
X128237Y125763D01*
X128500Y126025D01*
Y118160D01*
X128461Y118159D01*
X128344Y118140D01*
X128232Y118103D01*
X128127Y118048D01*
X128032Y117978D01*
X127949Y117894D01*
X127881Y117798D01*
X127830Y117692D01*
X127682Y117284D01*
X127578Y116863D01*
X127516Y116433D01*
X127495Y116000D01*
X127516Y115567D01*
X127578Y115137D01*
X127682Y114716D01*
X127825Y114306D01*
X127878Y114200D01*
X127947Y114104D01*
X128030Y114019D01*
X128125Y113949D01*
X128231Y113894D01*
X128343Y113857D01*
X128460Y113837D01*
X128500Y113837D01*
Y110416D01*
X128317Y110341D01*
X128116Y110217D01*
X127936Y110064D01*
X127783Y109884D01*
X127659Y109683D01*
X127569Y109465D01*
X127514Y109235D01*
X127500Y109000D01*
X127514Y102765D01*
X127569Y102535D01*
X127659Y102317D01*
X127783Y102116D01*
X127936Y101936D01*
X128116Y101783D01*
X128317Y101659D01*
X128500Y101584D01*
Y100000D01*
X121500D01*
G37*
G36*
X116500Y121500D02*Y128500D01*
X128500D01*
Y121500D01*
X116500D01*
G37*
G36*
X116000Y100500D02*Y124000D01*
X125500D01*
Y100500D01*
X116000D01*
G37*
G36*
X102500Y42500D02*Y51500D01*
X120000D01*
Y42500D01*
X102500D01*
G37*
G36*
X112000Y78500D02*Y42500D01*
X102500D01*
Y78500D01*
X112000D01*
G37*
G36*
X115338Y42500D02*X109000D01*
Y54000D01*
X123828D01*
X123829Y53880D01*
X123884Y53650D01*
X123974Y53432D01*
X124039Y53327D01*
X123974Y53222D01*
X123884Y53004D01*
X123829Y52774D01*
X123815Y52539D01*
X123829Y50730D01*
X123884Y50500D01*
X123974Y50282D01*
X124098Y50081D01*
X124251Y49901D01*
X124431Y49748D01*
X124632Y49624D01*
X124850Y49534D01*
X125080Y49479D01*
X125315Y49465D01*
X131550Y49479D01*
X131780Y49534D01*
X131998Y49624D01*
X132199Y49748D01*
X132379Y49901D01*
X132532Y50081D01*
X132656Y50282D01*
X132746Y50500D01*
X132801Y50730D01*
X132815Y50965D01*
X132801Y52774D01*
X132746Y53004D01*
X132656Y53222D01*
X132591Y53327D01*
X132656Y53432D01*
X132746Y53650D01*
X132801Y53880D01*
X132808Y54000D01*
X137000D01*
Y47307D01*
X136230Y47301D01*
X136000Y47246D01*
X135782Y47156D01*
X135581Y47032D01*
X135401Y46879D01*
X135248Y46699D01*
X135124Y46498D01*
X135034Y46280D01*
X134979Y46050D01*
X134965Y45815D01*
X134968Y44565D01*
X133384D01*
X133315Y44570D01*
X133040Y44549D01*
X132773Y44484D01*
X132518Y44379D01*
X132283Y44235D01*
X132074Y44056D01*
X132029Y44004D01*
X130525Y42500D01*
X124118D01*
X124000Y42509D01*
X123882Y42500D01*
X118662D01*
X118769Y42565D01*
X119128Y42872D01*
X119435Y43231D01*
X119681Y43634D01*
X119862Y44070D01*
X119972Y44529D01*
X120000Y45000D01*
X119972Y45471D01*
X119862Y45930D01*
X119681Y46366D01*
X119435Y46769D01*
X119128Y47128D01*
X118769Y47435D01*
X118366Y47681D01*
X117930Y47862D01*
X117471Y47972D01*
X117000Y48009D01*
X116529Y47972D01*
X116070Y47862D01*
X115634Y47681D01*
X115231Y47435D01*
X114872Y47128D01*
X114565Y46769D01*
X114319Y46366D01*
X114138Y45930D01*
X114028Y45471D01*
X113991Y45000D01*
X114028Y44529D01*
X114138Y44070D01*
X114319Y43634D01*
X114565Y43231D01*
X114872Y42872D01*
X115231Y42565D01*
X115338Y42500D01*
G37*
G36*
X85000Y45000D02*Y55500D01*
X90500D01*
Y45000D01*
X85000D01*
G37*
G36*
X110000Y63500D02*X113056D01*
X113057Y62698D01*
X113094Y62545D01*
X113154Y62400D01*
X113236Y62265D01*
X113339Y62146D01*
X113458Y62043D01*
X113593Y61961D01*
X113738Y61901D01*
X113891Y61864D01*
X114048Y61855D01*
X120109Y61864D01*
X120262Y61901D01*
X120407Y61961D01*
X120542Y62043D01*
X120661Y62146D01*
X120764Y62265D01*
X120846Y62400D01*
X120906Y62545D01*
X120943Y62698D01*
X120952Y62855D01*
X120951Y63500D01*
X123828D01*
X123829Y63329D01*
X123884Y63099D01*
X123974Y62881D01*
X124039Y62776D01*
X123974Y62671D01*
X123884Y62453D01*
X123829Y62223D01*
X123815Y61988D01*
X123829Y60179D01*
X123884Y59949D01*
X123974Y59731D01*
X124038Y59627D01*
X123974Y59522D01*
X123884Y59304D01*
X123829Y59074D01*
X123815Y58839D01*
X123829Y57030D01*
X123884Y56800D01*
X123974Y56582D01*
X124039Y56477D01*
X123974Y56372D01*
X123884Y56154D01*
X123829Y55924D01*
X123815Y55689D01*
X123829Y53880D01*
X123884Y53650D01*
X123974Y53432D01*
X124039Y53327D01*
X123974Y53222D01*
X123884Y53004D01*
X123829Y52774D01*
X123815Y52539D01*
X123829Y50730D01*
X123884Y50500D01*
X123974Y50282D01*
X124098Y50081D01*
X124251Y49901D01*
X124431Y49748D01*
X124632Y49624D01*
X124850Y49534D01*
X125000Y49498D01*
Y49000D01*
X110000D01*
Y63500D01*
G37*
G36*
X158368Y52632D02*X156715Y54285D01*
X156681Y54366D01*
X156435Y54769D01*
X156128Y55128D01*
X155769Y55435D01*
X155366Y55681D01*
X154930Y55862D01*
X154471Y55972D01*
X154000Y56009D01*
X153529Y55972D01*
X153070Y55862D01*
X152634Y55681D01*
X152231Y55435D01*
X151872Y55128D01*
X151565Y54769D01*
X151319Y54366D01*
X151138Y53930D01*
X151028Y53471D01*
X150991Y53000D01*
X151028Y52529D01*
X151138Y52070D01*
X151250Y51800D01*
Y47185D01*
X151102Y47246D01*
X150872Y47301D01*
X150637Y47315D01*
X148828Y47301D01*
X148598Y47246D01*
X148380Y47156D01*
X148275Y47091D01*
X148170Y47156D01*
X147952Y47246D01*
X147722Y47301D01*
X147487Y47315D01*
X145678Y47301D01*
X145448Y47246D01*
X145230Y47156D01*
X145125Y47092D01*
X145021Y47156D01*
X144803Y47246D01*
X144573Y47301D01*
X144338Y47315D01*
X142529Y47301D01*
X142299Y47246D01*
X142081Y47156D01*
X141976Y47091D01*
X141871Y47156D01*
X141653Y47246D01*
X141423Y47301D01*
X141188Y47315D01*
X139379Y47301D01*
X139149Y47246D01*
X138931Y47156D01*
X138826Y47092D01*
X138722Y47156D01*
X138504Y47246D01*
X138274Y47301D01*
X138039Y47315D01*
X136230Y47301D01*
X136000Y47246D01*
X135782Y47156D01*
X135581Y47032D01*
X135543Y47000D01*
X132500D01*
Y50043D01*
X132532Y50081D01*
X132656Y50282D01*
X132746Y50500D01*
X132801Y50730D01*
X132815Y50965D01*
X132801Y52774D01*
X132746Y53004D01*
X132656Y53222D01*
X132591Y53327D01*
X132656Y53432D01*
X132746Y53650D01*
X132801Y53880D01*
X132815Y54115D01*
X132801Y55924D01*
X132746Y56154D01*
X132656Y56372D01*
X132591Y56477D01*
X132656Y56582D01*
X132746Y56800D01*
X132801Y57030D01*
X132815Y57265D01*
X132801Y59074D01*
X132746Y59304D01*
X132656Y59522D01*
X132592Y59626D01*
X132656Y59731D01*
X132746Y59949D01*
X132801Y60179D01*
X132815Y60414D01*
X132801Y62223D01*
X132746Y62453D01*
X132656Y62671D01*
X132591Y62776D01*
X132656Y62881D01*
X132746Y63099D01*
X132801Y63329D01*
X132815Y63564D01*
X132801Y65373D01*
X132746Y65603D01*
X132685Y65750D01*
X134095D01*
X134138Y65570D01*
X134319Y65134D01*
X134565Y64731D01*
X134872Y64372D01*
X135231Y64065D01*
X135634Y63819D01*
X136070Y63638D01*
X136529Y63528D01*
X137000Y63491D01*
X137471Y63528D01*
X137930Y63638D01*
X138366Y63819D01*
X138769Y64065D01*
X139128Y64372D01*
X139435Y64731D01*
X139681Y65134D01*
X139862Y65570D01*
X139972Y66029D01*
X140000Y66500D01*
X139972Y66971D01*
X139862Y67430D01*
X139681Y67866D01*
X139435Y68269D01*
X139128Y68628D01*
X138769Y68935D01*
X138366Y69181D01*
X137930Y69362D01*
X137471Y69472D01*
X137000Y69509D01*
X136529Y69472D01*
X136070Y69362D01*
X135800Y69250D01*
X132685D01*
X132746Y69398D01*
X132801Y69628D01*
X132815Y69863D01*
X132801Y71672D01*
X132746Y71902D01*
X132656Y72120D01*
X132591Y72225D01*
X132656Y72330D01*
X132746Y72548D01*
X132801Y72778D01*
X132815Y73013D01*
X132801Y74822D01*
X132746Y75052D01*
X132656Y75270D01*
X132592Y75374D01*
X132656Y75479D01*
X132746Y75697D01*
X132801Y75927D01*
X132815Y76162D01*
X132801Y77971D01*
X132746Y78201D01*
X132656Y78419D01*
X132591Y78524D01*
X132656Y78629D01*
X132746Y78847D01*
X132801Y79077D01*
X132815Y79312D01*
X132801Y81121D01*
X132746Y81351D01*
X132656Y81569D01*
X132592Y81674D01*
X132656Y81778D01*
X132746Y81996D01*
X132801Y82226D01*
X132815Y82461D01*
X132801Y84270D01*
X132746Y84500D01*
X132656Y84718D01*
X132532Y84919D01*
X132500Y84957D01*
Y88000D01*
X135543D01*
X135581Y87968D01*
X135782Y87844D01*
X136000Y87754D01*
X136230Y87699D01*
X136465Y87685D01*
X138274Y87699D01*
X138504Y87754D01*
X138722Y87844D01*
X138827Y87909D01*
X138932Y87844D01*
X139150Y87754D01*
X139380Y87699D01*
X139615Y87685D01*
X141424Y87699D01*
X141654Y87754D01*
X141872Y87844D01*
X141977Y87909D01*
X142082Y87844D01*
X142300Y87754D01*
X142530Y87699D01*
X142765Y87685D01*
X144574Y87699D01*
X144804Y87754D01*
X145022Y87844D01*
X145105Y87895D01*
X149491Y83509D01*
X149491Y83500D01*
X149528Y83029D01*
X149638Y82570D01*
X149819Y82134D01*
X150065Y81731D01*
X150372Y81372D01*
X150731Y81065D01*
X151134Y80819D01*
X151570Y80638D01*
X152029Y80528D01*
X152500Y80491D01*
X152971Y80528D01*
X153430Y80638D01*
X153866Y80819D01*
X154269Y81065D01*
X154628Y81372D01*
X154935Y81731D01*
X155181Y82134D01*
X155362Y82570D01*
X155472Y83029D01*
X155500Y83500D01*
X155472Y83971D01*
X155362Y84430D01*
X155181Y84866D01*
X154935Y85269D01*
X154750Y85485D01*
Y87815D01*
X154898Y87754D01*
X155128Y87699D01*
X155363Y87685D01*
X157172Y87699D01*
X157402Y87754D01*
X157620Y87844D01*
X157725Y87909D01*
X157830Y87844D01*
X158048Y87754D01*
X158278Y87699D01*
X158513Y87685D01*
X160322Y87699D01*
X160552Y87754D01*
X160770Y87844D01*
X160874Y87908D01*
X160979Y87844D01*
X161197Y87754D01*
X161427Y87699D01*
X161662Y87685D01*
X163471Y87699D01*
X163701Y87754D01*
X163919Y87844D01*
X164024Y87909D01*
X164129Y87844D01*
X164347Y87754D01*
X164577Y87699D01*
X164812Y87685D01*
X166621Y87699D01*
X166851Y87754D01*
X167069Y87844D01*
X167173Y87908D01*
X167278Y87844D01*
X167496Y87754D01*
X167726Y87699D01*
X167961Y87685D01*
X169770Y87699D01*
X170000Y87754D01*
X170218Y87844D01*
X170419Y87968D01*
X170457Y88000D01*
X173500D01*
Y84957D01*
X173468Y84919D01*
X173344Y84718D01*
X173254Y84500D01*
X173199Y84270D01*
X173185Y84035D01*
X173199Y82226D01*
X173254Y81996D01*
X173344Y81778D01*
X173409Y81673D01*
X173344Y81568D01*
X173254Y81350D01*
X173199Y81120D01*
X173185Y80885D01*
X173199Y79076D01*
X173254Y78846D01*
X173344Y78628D01*
X173409Y78523D01*
X173344Y78418D01*
X173254Y78200D01*
X173199Y77970D01*
X173185Y77735D01*
X173199Y75926D01*
X173254Y75696D01*
X173344Y75478D01*
X173408Y75374D01*
X173344Y75269D01*
X173254Y75051D01*
X173199Y74821D01*
X173185Y74586D01*
X173199Y72777D01*
X173254Y72547D01*
X173315Y72399D01*
X171869D01*
X171862Y72430D01*
X171681Y72866D01*
X171435Y73269D01*
X171128Y73628D01*
X170769Y73935D01*
X170366Y74181D01*
X169930Y74362D01*
X169471Y74472D01*
X169000Y74509D01*
X168529Y74472D01*
X168070Y74362D01*
X167634Y74181D01*
X167231Y73935D01*
X166872Y73628D01*
X166565Y73269D01*
X166319Y72866D01*
X166138Y72430D01*
X166028Y71971D01*
X165991Y71500D01*
X166028Y71029D01*
X166138Y70570D01*
X166319Y70134D01*
X166565Y69731D01*
X166872Y69372D01*
X167231Y69065D01*
X167634Y68819D01*
X168070Y68638D01*
X168529Y68528D01*
X169000Y68491D01*
X169471Y68528D01*
X169930Y68638D01*
X170366Y68819D01*
X170497Y68899D01*
X173315D01*
X173254Y68752D01*
X173199Y68522D01*
X173185Y68287D01*
X173199Y66478D01*
X173254Y66248D01*
X173344Y66030D01*
X173409Y65925D01*
X173344Y65820D01*
X173254Y65602D01*
X173199Y65372D01*
X173185Y65137D01*
X173199Y63328D01*
X173254Y63098D01*
X173344Y62880D01*
X173409Y62775D01*
X173344Y62670D01*
X173254Y62452D01*
X173199Y62222D01*
X173185Y61987D01*
X173199Y60178D01*
X173254Y59948D01*
X173344Y59730D01*
X173408Y59626D01*
X173344Y59521D01*
X173254Y59303D01*
X173199Y59073D01*
X173185Y58838D01*
X173199Y57029D01*
X173254Y56799D01*
X173344Y56581D01*
X173409Y56476D01*
X173344Y56371D01*
X173254Y56153D01*
X173199Y55923D01*
X173185Y55688D01*
X173199Y53879D01*
X173254Y53649D01*
X173344Y53431D01*
X173408Y53327D01*
X173344Y53222D01*
X173254Y53004D01*
X173199Y52774D01*
X173185Y52539D01*
X173191Y51784D01*
X172786Y52189D01*
X172741Y52241D01*
X172532Y52420D01*
X172297Y52564D01*
X172042Y52669D01*
X171775Y52734D01*
X171774Y52734D01*
X171500Y52755D01*
X171432Y52750D01*
X159069D01*
X159000Y52755D01*
X158725Y52734D01*
X158458Y52669D01*
X158368Y52632D01*
G37*
G36*
X31250Y165000D02*X57500D01*
Y156117D01*
X57390Y156212D01*
X57255Y156294D01*
X57110Y156354D01*
X56957Y156391D01*
X56800Y156400D01*
X53043Y156391D01*
X52890Y156354D01*
X52745Y156294D01*
X52610Y156212D01*
X52491Y156109D01*
X52388Y155990D01*
X52306Y155855D01*
X52246Y155710D01*
X52209Y155557D01*
X52200Y155400D01*
X52209Y150443D01*
X52246Y150290D01*
X52306Y150145D01*
X52388Y150010D01*
X52491Y149891D01*
X52610Y149788D01*
X52745Y149706D01*
X52890Y149646D01*
X53043Y149609D01*
X53200Y149600D01*
X56957Y149609D01*
X57110Y149646D01*
X57255Y149706D01*
X57390Y149788D01*
X57500Y149883D01*
Y146000D01*
X31250D01*
Y152748D01*
X31368Y152757D01*
X31482Y152785D01*
X31592Y152830D01*
X31692Y152891D01*
X31782Y152968D01*
X31859Y153058D01*
X31920Y153158D01*
X31965Y153268D01*
X31993Y153382D01*
X32000Y153500D01*
Y158500D01*
X31993Y158618D01*
X31965Y158732D01*
X31920Y158842D01*
X31859Y158942D01*
X31782Y159032D01*
X31692Y159109D01*
X31592Y159170D01*
X31482Y159215D01*
X31368Y159243D01*
X31250Y159252D01*
Y165000D01*
G37*
G36*
X26500D02*X31250D01*
Y159252D01*
X31132Y159243D01*
X31018Y159215D01*
X30908Y159170D01*
X30808Y159109D01*
X30718Y159032D01*
X30641Y158942D01*
X30580Y158842D01*
X30535Y158732D01*
X30507Y158618D01*
X30500Y158500D01*
Y153500D01*
X30507Y153382D01*
X30535Y153268D01*
X30580Y153158D01*
X30641Y153058D01*
X30718Y152968D01*
X30808Y152891D01*
X30908Y152830D01*
X31018Y152785D01*
X31132Y152757D01*
X31250Y152748D01*
Y146000D01*
X26500D01*
Y150500D01*
X29000D01*
X29118Y150507D01*
X29232Y150535D01*
X29342Y150580D01*
X29442Y150641D01*
X29532Y150718D01*
X29609Y150808D01*
X29670Y150908D01*
X29715Y151018D01*
X29743Y151132D01*
X29752Y151250D01*
X29743Y151368D01*
X29715Y151482D01*
X29670Y151592D01*
X29609Y151692D01*
X29532Y151782D01*
X29442Y151859D01*
X29342Y151920D01*
X29232Y151965D01*
X29118Y151993D01*
X29000Y152000D01*
X26500D01*
Y160000D01*
X29000D01*
X29118Y160007D01*
X29232Y160035D01*
X29342Y160080D01*
X29442Y160141D01*
X29532Y160218D01*
X29609Y160308D01*
X29670Y160408D01*
X29715Y160518D01*
X29743Y160632D01*
X29752Y160750D01*
X29743Y160868D01*
X29715Y160982D01*
X29670Y161092D01*
X29609Y161192D01*
X29532Y161282D01*
X29442Y161359D01*
X29342Y161420D01*
X29232Y161465D01*
X29118Y161493D01*
X29000Y161500D01*
X26500D01*
Y165000D01*
G37*
G36*
X21750D02*X26500D01*
Y161500D01*
X24000D01*
X23882Y161493D01*
X23768Y161465D01*
X23658Y161420D01*
X23558Y161359D01*
X23468Y161282D01*
X23391Y161192D01*
X23330Y161092D01*
X23285Y160982D01*
X23257Y160868D01*
X23248Y160750D01*
X23257Y160632D01*
X23285Y160518D01*
X23330Y160408D01*
X23391Y160308D01*
X23468Y160218D01*
X23558Y160141D01*
X23658Y160080D01*
X23768Y160035D01*
X23882Y160007D01*
X24000Y160000D01*
X26500D01*
Y152000D01*
X24000D01*
X23882Y151993D01*
X23768Y151965D01*
X23658Y151920D01*
X23558Y151859D01*
X23468Y151782D01*
X23391Y151692D01*
X23330Y151592D01*
X23285Y151482D01*
X23257Y151368D01*
X23248Y151250D01*
X23257Y151132D01*
X23285Y151018D01*
X23330Y150908D01*
X23391Y150808D01*
X23468Y150718D01*
X23558Y150641D01*
X23658Y150580D01*
X23768Y150535D01*
X23882Y150507D01*
X24000Y150500D01*
X26500D01*
Y146000D01*
X21750D01*
Y152748D01*
X21868Y152757D01*
X21982Y152785D01*
X22092Y152830D01*
X22192Y152891D01*
X22282Y152968D01*
X22359Y153058D01*
X22420Y153158D01*
X22465Y153268D01*
X22493Y153382D01*
X22500Y153500D01*
Y158500D01*
X22493Y158618D01*
X22465Y158732D01*
X22420Y158842D01*
X22359Y158942D01*
X22282Y159032D01*
X22192Y159109D01*
X22092Y159170D01*
X21982Y159215D01*
X21868Y159243D01*
X21750Y159252D01*
Y165000D01*
G37*
G36*
X17500D02*X21750D01*
Y159252D01*
X21632Y159243D01*
X21518Y159215D01*
X21408Y159170D01*
X21308Y159109D01*
X21218Y159032D01*
X21141Y158942D01*
X21080Y158842D01*
X21035Y158732D01*
X21007Y158618D01*
X21000Y158500D01*
Y153500D01*
X21007Y153382D01*
X21035Y153268D01*
X21080Y153158D01*
X21141Y153058D01*
X21218Y152968D01*
X21308Y152891D01*
X21408Y152830D01*
X21518Y152785D01*
X21632Y152757D01*
X21750Y152748D01*
Y146000D01*
X17500D01*
Y165000D01*
G37*
G36*
X57500D02*Y146000D01*
X47500D01*
Y165000D01*
X57500D01*
G37*
G36*
X34500Y184500D02*X59500D01*
Y177500D01*
X34500D01*
Y184500D01*
G37*
G36*
X66000Y165000D02*X78500D01*
Y146000D01*
X66000D01*
Y165000D01*
G37*
G36*
X92000Y151500D02*Y180000D01*
X100000D01*
Y151500D01*
X92000D01*
G37*
G36*
X66000Y184500D02*X81000D01*
Y172000D01*
X66000D01*
Y184500D01*
G37*
G36*
X91000Y158500D02*X66000D01*
Y173500D01*
X91000D01*
Y158500D01*
G37*
G36*
X81063Y165000D02*X87500D01*
Y152437D01*
X84063D01*
X83906Y152428D01*
X83753Y152391D01*
X83608Y152331D01*
X83473Y152249D01*
X83354Y152146D01*
X83251Y152027D01*
X83169Y151892D01*
X83109Y151747D01*
X83072Y151594D01*
X83060Y151437D01*
X83072Y151280D01*
X83109Y151127D01*
X83169Y150982D01*
X83251Y150847D01*
X83354Y150728D01*
X83473Y150625D01*
X83608Y150543D01*
X83753Y150483D01*
X83906Y150446D01*
X84063Y150437D01*
X87500D01*
Y142563D01*
X84063D01*
X83906Y142554D01*
X83753Y142517D01*
X83608Y142457D01*
X83473Y142375D01*
X83354Y142272D01*
X83251Y142153D01*
X83169Y142018D01*
X83109Y141873D01*
X83072Y141720D01*
X83060Y141563D01*
X83072Y141406D01*
X83109Y141253D01*
X83169Y141108D01*
X83251Y140973D01*
X83354Y140854D01*
X83473Y140751D01*
X83608Y140669D01*
X83753Y140609D01*
X83906Y140572D01*
X84063Y140563D01*
X87500D01*
Y127794D01*
X87484Y127795D01*
X83547Y127786D01*
X83394Y127749D01*
X83249Y127689D01*
X83114Y127607D01*
X82995Y127504D01*
X82892Y127385D01*
X82810Y127250D01*
X82750Y127105D01*
X82713Y126952D01*
X82704Y126795D01*
X82713Y119000D01*
X81063D01*
Y143560D01*
X81220Y143572D01*
X81373Y143609D01*
X81518Y143669D01*
X81653Y143751D01*
X81772Y143854D01*
X81875Y143973D01*
X81957Y144108D01*
X82017Y144253D01*
X82054Y144406D01*
X82063Y144563D01*
Y148437D01*
X82054Y148594D01*
X82017Y148747D01*
X81957Y148892D01*
X81875Y149027D01*
X81772Y149146D01*
X81653Y149249D01*
X81518Y149331D01*
X81373Y149391D01*
X81220Y149428D01*
X81063Y149440D01*
Y165000D01*
G37*
G36*
X66000D02*X81063D01*
Y149440D01*
X80906Y149428D01*
X80753Y149391D01*
X80608Y149331D01*
X80473Y149249D01*
X80354Y149146D01*
X80251Y149027D01*
X80169Y148892D01*
X80109Y148747D01*
X80072Y148594D01*
X80063Y148437D01*
Y144563D01*
X80072Y144406D01*
X80109Y144253D01*
X80169Y144108D01*
X80251Y143973D01*
X80354Y143854D01*
X80473Y143751D01*
X80608Y143669D01*
X80753Y143609D01*
X80906Y143572D01*
X81063Y143560D01*
Y119000D01*
X66000D01*
Y119336D01*
X66914D01*
X67189Y119352D01*
X67456Y119417D01*
X67711Y119522D01*
X67946Y119666D01*
X68155Y119845D01*
X68334Y120054D01*
X68478Y120289D01*
X68583Y120544D01*
X68648Y120811D01*
X68669Y121086D01*
X68648Y121361D01*
X68583Y121628D01*
X68478Y121883D01*
X68334Y122118D01*
X68155Y122327D01*
X67946Y122506D01*
X67711Y122650D01*
X67456Y122755D01*
X67189Y122820D01*
X66914Y122836D01*
X66000D01*
Y149606D01*
X66100Y149600D01*
X69857Y149609D01*
X70010Y149646D01*
X70155Y149706D01*
X70290Y149788D01*
X70409Y149891D01*
X70512Y150010D01*
X70594Y150145D01*
X70654Y150290D01*
X70691Y150443D01*
X70700Y150600D01*
X70691Y155557D01*
X70654Y155710D01*
X70594Y155855D01*
X70512Y155990D01*
X70409Y156109D01*
X70290Y156212D01*
X70155Y156294D01*
X70010Y156354D01*
X69857Y156391D01*
X69700Y156400D01*
X66000Y156391D01*
Y165000D01*
G37*
G36*
X86000D02*X91000D01*
Y149703D01*
X90834Y149432D01*
X90780Y149428D01*
X90627Y149391D01*
X90482Y149331D01*
X90347Y149249D01*
X90228Y149146D01*
X90125Y149027D01*
X90043Y148892D01*
X89983Y148747D01*
X89946Y148594D01*
X89937Y148437D01*
Y144563D01*
X89946Y144406D01*
X89983Y144253D01*
X90043Y144108D01*
X90125Y143973D01*
X90228Y143854D01*
X90347Y143751D01*
X90482Y143669D01*
X90627Y143609D01*
X90780Y143572D01*
X90834Y143568D01*
X91000Y143297D01*
Y139000D01*
X87500Y135500D01*
X86000D01*
Y140563D01*
X87937D01*
X88094Y140572D01*
X88247Y140609D01*
X88392Y140669D01*
X88527Y140751D01*
X88646Y140854D01*
X88749Y140973D01*
X88831Y141108D01*
X88891Y141253D01*
X88928Y141406D01*
X88940Y141563D01*
X88928Y141720D01*
X88891Y141873D01*
X88831Y142018D01*
X88749Y142153D01*
X88646Y142272D01*
X88527Y142375D01*
X88392Y142457D01*
X88247Y142517D01*
X88094Y142554D01*
X87937Y142563D01*
X86000D01*
Y150437D01*
X87937D01*
X88094Y150446D01*
X88247Y150483D01*
X88392Y150543D01*
X88527Y150625D01*
X88646Y150728D01*
X88749Y150847D01*
X88831Y150982D01*
X88891Y151127D01*
X88928Y151280D01*
X88940Y151437D01*
X88928Y151594D01*
X88891Y151747D01*
X88831Y151892D01*
X88749Y152027D01*
X88646Y152146D01*
X88527Y152249D01*
X88392Y152331D01*
X88247Y152391D01*
X88094Y152428D01*
X87937Y152437D01*
X86000D01*
Y165000D01*
G37*
G36*
X81063D02*X86000D01*
Y152437D01*
X84063D01*
X83906Y152428D01*
X83753Y152391D01*
X83608Y152331D01*
X83473Y152249D01*
X83354Y152146D01*
X83251Y152027D01*
X83169Y151892D01*
X83109Y151747D01*
X83072Y151594D01*
X83060Y151437D01*
X83072Y151280D01*
X83109Y151127D01*
X83169Y150982D01*
X83251Y150847D01*
X83354Y150728D01*
X83473Y150625D01*
X83608Y150543D01*
X83753Y150483D01*
X83906Y150446D01*
X84063Y150437D01*
X86000D01*
Y142563D01*
X84063D01*
X83906Y142554D01*
X83753Y142517D01*
X83608Y142457D01*
X83473Y142375D01*
X83354Y142272D01*
X83251Y142153D01*
X83169Y142018D01*
X83109Y141873D01*
X83072Y141720D01*
X83060Y141563D01*
X83072Y141406D01*
X83109Y141253D01*
X83169Y141108D01*
X83251Y140973D01*
X83354Y140854D01*
X83473Y140751D01*
X83608Y140669D01*
X83753Y140609D01*
X83906Y140572D01*
X84063Y140563D01*
X86000D01*
Y135500D01*
X81063D01*
Y143560D01*
X81220Y143572D01*
X81373Y143609D01*
X81518Y143669D01*
X81653Y143751D01*
X81772Y143854D01*
X81875Y143973D01*
X81957Y144108D01*
X82017Y144253D01*
X82054Y144406D01*
X82063Y144563D01*
Y148437D01*
X82054Y148594D01*
X82017Y148747D01*
X81957Y148892D01*
X81875Y149027D01*
X81772Y149146D01*
X81653Y149249D01*
X81518Y149331D01*
X81373Y149391D01*
X81220Y149428D01*
X81063Y149440D01*
Y165000D01*
G37*
G36*
X77500D02*X81063D01*
Y149440D01*
X80906Y149428D01*
X80753Y149391D01*
X80608Y149331D01*
X80473Y149249D01*
X80354Y149146D01*
X80251Y149027D01*
X80169Y148892D01*
X80109Y148747D01*
X80072Y148594D01*
X80063Y148437D01*
Y144563D01*
X80072Y144406D01*
X80109Y144253D01*
X80169Y144108D01*
X80251Y143973D01*
X80354Y143854D01*
X80473Y143751D01*
X80608Y143669D01*
X80753Y143609D01*
X80906Y143572D01*
X81063Y143560D01*
Y135500D01*
X77500D01*
Y165000D01*
G37*
G36*
X121500Y164000D02*X126500D01*
Y153000D01*
X121500D01*
Y164000D01*
G37*
G36*
X85000Y198000D02*X124000D01*
Y175500D01*
X85000D01*
Y198000D01*
G37*
G36*
X110761Y155500D02*X146500D01*
Y137500D01*
X131662D01*
X131366Y137681D01*
X130930Y137862D01*
X130471Y137972D01*
X130000Y138009D01*
X129529Y137972D01*
X129070Y137862D01*
X128634Y137681D01*
X128338Y137500D01*
X110761D01*
Y143683D01*
X110831Y143695D01*
X110980Y143746D01*
X111119Y143819D01*
X111245Y143913D01*
X111355Y144025D01*
X111446Y144154D01*
X111513Y144296D01*
X111704Y144828D01*
X111837Y145377D01*
X111917Y145936D01*
X111944Y146500D01*
X111917Y147064D01*
X111837Y147623D01*
X111704Y148172D01*
X111519Y148706D01*
X111450Y148848D01*
X111358Y148977D01*
X111248Y149091D01*
X111121Y149185D01*
X110981Y149259D01*
X110832Y149309D01*
X110761Y149321D01*
Y155500D01*
G37*
G36*
X106000D02*X110761D01*
Y149321D01*
X110676Y149336D01*
X110518Y149338D01*
X110361Y149315D01*
X110210Y149268D01*
X110069Y149198D01*
X109939Y149107D01*
X109826Y148996D01*
X109732Y148870D01*
X109658Y148730D01*
X109608Y148580D01*
X109581Y148424D01*
X109579Y148266D01*
X109602Y148110D01*
X109652Y147960D01*
X109778Y147608D01*
X109866Y147244D01*
X109919Y146874D01*
X109937Y146500D01*
X109919Y146126D01*
X109866Y145756D01*
X109778Y145392D01*
X109656Y145039D01*
X109606Y144889D01*
X109583Y144734D01*
X109585Y144576D01*
X109612Y144421D01*
X109662Y144272D01*
X109736Y144133D01*
X109830Y144007D01*
X109942Y143897D01*
X110071Y143806D01*
X110212Y143736D01*
X110362Y143689D01*
X110518Y143667D01*
X110675Y143668D01*
X110761Y143683D01*
Y137500D01*
X106000D01*
Y140556D01*
X106564Y140583D01*
X107123Y140663D01*
X107672Y140796D01*
X108206Y140981D01*
X108348Y141050D01*
X108477Y141142D01*
X108591Y141252D01*
X108685Y141379D01*
X108759Y141519D01*
X108809Y141668D01*
X108836Y141824D01*
X108838Y141982D01*
X108815Y142139D01*
X108768Y142290D01*
X108698Y142431D01*
X108607Y142561D01*
X108496Y142674D01*
X108370Y142768D01*
X108230Y142842D01*
X108080Y142892D01*
X107924Y142919D01*
X107766Y142921D01*
X107610Y142898D01*
X107460Y142848D01*
X107108Y142722D01*
X106744Y142634D01*
X106374Y142581D01*
X106000Y142563D01*
Y150437D01*
X106374Y150419D01*
X106744Y150366D01*
X107108Y150278D01*
X107461Y150156D01*
X107611Y150106D01*
X107766Y150083D01*
X107924Y150085D01*
X108079Y150112D01*
X108228Y150162D01*
X108367Y150236D01*
X108493Y150330D01*
X108603Y150442D01*
X108694Y150571D01*
X108764Y150712D01*
X108811Y150862D01*
X108833Y151018D01*
X108832Y151175D01*
X108805Y151331D01*
X108754Y151480D01*
X108681Y151619D01*
X108587Y151745D01*
X108475Y151855D01*
X108346Y151946D01*
X108204Y152013D01*
X107672Y152204D01*
X107123Y152337D01*
X106564Y152417D01*
X106000Y152444D01*
Y155500D01*
G37*
G36*
X106002Y163500D02*X109500D01*
Y137500D01*
X106002D01*
Y140556D01*
X106564Y140583D01*
X107123Y140663D01*
X107672Y140796D01*
X108206Y140981D01*
X108348Y141050D01*
X108477Y141142D01*
X108591Y141252D01*
X108685Y141379D01*
X108759Y141519D01*
X108809Y141668D01*
X108836Y141824D01*
X108838Y141982D01*
X108815Y142139D01*
X108768Y142290D01*
X108698Y142431D01*
X108607Y142561D01*
X108496Y142674D01*
X108370Y142768D01*
X108230Y142842D01*
X108080Y142892D01*
X107924Y142919D01*
X107766Y142921D01*
X107610Y142898D01*
X107460Y142848D01*
X107108Y142722D01*
X106744Y142634D01*
X106374Y142581D01*
X106002Y142563D01*
Y150437D01*
X106374Y150419D01*
X106744Y150366D01*
X107108Y150278D01*
X107461Y150156D01*
X107611Y150106D01*
X107766Y150083D01*
X107924Y150085D01*
X108079Y150112D01*
X108228Y150162D01*
X108367Y150236D01*
X108493Y150330D01*
X108603Y150442D01*
X108694Y150571D01*
X108764Y150712D01*
X108811Y150862D01*
X108833Y151018D01*
X108832Y151175D01*
X108805Y151331D01*
X108754Y151480D01*
X108681Y151619D01*
X108587Y151745D01*
X108475Y151855D01*
X108346Y151946D01*
X108204Y152013D01*
X107672Y152204D01*
X107123Y152337D01*
X106564Y152417D01*
X106002Y152444D01*
Y163500D01*
G37*
G36*
X102500Y137500D02*Y163500D01*
X106002D01*
Y152444D01*
X106000Y152444D01*
X105436Y152417D01*
X104877Y152337D01*
X104328Y152204D01*
X103794Y152019D01*
X103652Y151950D01*
X103523Y151858D01*
X103409Y151748D01*
X103315Y151621D01*
X103241Y151481D01*
X103191Y151332D01*
X103164Y151176D01*
X103162Y151018D01*
X103185Y150861D01*
X103232Y150710D01*
X103302Y150569D01*
X103393Y150439D01*
X103504Y150326D01*
X103630Y150232D01*
X103770Y150158D01*
X103920Y150108D01*
X104076Y150081D01*
X104234Y150079D01*
X104390Y150102D01*
X104540Y150152D01*
X104892Y150278D01*
X105256Y150366D01*
X105626Y150419D01*
X106000Y150437D01*
X106002Y150437D01*
Y142563D01*
X106000Y142563D01*
X105626Y142581D01*
X105256Y142634D01*
X104892Y142722D01*
X104539Y142844D01*
X104389Y142894D01*
X104234Y142917D01*
X104076Y142915D01*
X103921Y142888D01*
X103772Y142838D01*
X103633Y142764D01*
X103507Y142670D01*
X103397Y142558D01*
X103306Y142429D01*
X103236Y142288D01*
X103189Y142138D01*
X103167Y141982D01*
X103168Y141825D01*
X103195Y141669D01*
X103246Y141520D01*
X103319Y141381D01*
X103413Y141255D01*
X103525Y141145D01*
X103654Y141054D01*
X103796Y140987D01*
X104328Y140796D01*
X104877Y140663D01*
X105436Y140583D01*
X106000Y140556D01*
X106002Y140556D01*
Y137500D01*
X102500D01*
G37*
G36*
Y173500D02*X109500D01*
Y159500D01*
X102500D01*
Y173500D01*
G37*
G36*
X154602Y164952D02*X153750Y164951D01*
Y175500D01*
X194550D01*
X194548Y175473D01*
X194557Y170198D01*
X194594Y170045D01*
X194654Y169900D01*
X194736Y169765D01*
X194839Y169646D01*
X194958Y169543D01*
X195093Y169461D01*
X195238Y169401D01*
X195391Y169364D01*
X195548Y169355D01*
X201609Y169364D01*
X201762Y169401D01*
X201907Y169461D01*
X202042Y169543D01*
X202161Y169646D01*
X202264Y169765D01*
X202346Y169900D01*
X202406Y170045D01*
X202443Y170198D01*
X202452Y170355D01*
X202443Y175500D01*
X210050D01*
X210048Y175473D01*
X210057Y170198D01*
X210094Y170045D01*
X210154Y169900D01*
X210236Y169765D01*
X210339Y169646D01*
X210458Y169543D01*
X210593Y169461D01*
X210738Y169401D01*
X210891Y169364D01*
X211048Y169355D01*
X217109Y169364D01*
X217262Y169401D01*
X217407Y169461D01*
X217542Y169543D01*
X217661Y169646D01*
X217764Y169765D01*
X217846Y169900D01*
X217906Y170045D01*
X217943Y170198D01*
X217952Y170355D01*
X217943Y175500D01*
X247000D01*
Y157000D01*
X227500Y137500D01*
X142500D01*
Y157048D01*
X147673Y157057D01*
X147826Y157094D01*
X147971Y157154D01*
X148106Y157236D01*
X148225Y157339D01*
X148328Y157458D01*
X148410Y157593D01*
X148470Y157738D01*
X148500Y157863D01*
X148530Y157738D01*
X148590Y157593D01*
X148672Y157458D01*
X148775Y157339D01*
X148894Y157236D01*
X149029Y157154D01*
X149174Y157094D01*
X149327Y157057D01*
X149484Y157048D01*
X154759Y157057D01*
X154912Y157094D01*
X155057Y157154D01*
X155192Y157236D01*
X155311Y157339D01*
X155414Y157458D01*
X155496Y157593D01*
X155556Y157738D01*
X155593Y157891D01*
X155602Y158048D01*
X155593Y164109D01*
X155556Y164262D01*
X155496Y164407D01*
X155414Y164542D01*
X155311Y164661D01*
X155192Y164764D01*
X155057Y164846D01*
X154912Y164906D01*
X154759Y164943D01*
X154602Y164952D01*
G37*
G36*
X247000Y162500D02*X240000D01*
Y196000D01*
X247000D01*
Y162500D01*
G37*
G36*
X189500Y175500D02*X223500D01*
Y164500D01*
X189500D01*
Y175500D01*
G37*
G54D12*X130000Y130000D02*X127000Y127000D01*
X204126Y120126D02*X211000Y127000D01*
X220457D01*
G54D13*X212000Y106000D02*Y100500D01*
G54D12*X132000D02*Y106000D01*
X144500Y99000D02*X133500D01*
X132000Y100500D01*
X153000Y101500D02*X150500Y104000D01*
Y109000D01*
X149851Y99649D02*X144500Y105000D01*
Y128000D01*
G54D14*X105457Y178000D02*X105500Y178043D01*
G54D12*X148500Y189000D02*X152000Y185500D01*
X133500Y174905D02*X133405Y175000D01*
Y189000D02*X148500D01*
G54D15*X96000Y146500D02*Y155000D01*
G54D12*X131043Y160000D02*Y166043D01*
X133500Y168500D01*
Y174905D01*
X152000Y185500D02*Y161043D01*
X152043Y161000D01*
X144957D02*X138500D01*
X41000Y136000D02*X26500D01*
G54D16*X37500Y116000D02*X26500D01*
G54D12*X55500Y139000D02*X44000D01*
X55414Y132000D02*X55500Y131914D01*
X50000Y132000D02*X55414D01*
X44000Y139000D02*X41000Y136000D01*
X48000Y98500D02*Y130000D01*
G54D16*X45000Y76500D02*Y95500D01*
X41000Y99500D01*
Y112500D01*
X37500Y116000D01*
G54D12*X48000Y130000D02*X50000Y132000D01*
X55500Y121086D02*X66914D01*
X55500Y103500D02*Y114000D01*
G54D17*X81000Y95000D02*X78500D01*
X77000Y93500D01*
G54D18*X172630Y192614D02*Y184870D01*
X177500Y180000D01*
X214000D02*X177500D01*
G54D17*X214000D02*X236500D01*
G54D12*X204126Y192614D02*Y187374D01*
X206000Y185500D01*
X236500D01*
X250500D02*Y174457D01*
X253957Y171000D01*
X254000D02*Y166543D01*
G54D18*X91500Y131000D02*X93500Y133000D01*
X91500Y131000D02*Y122000D01*
G54D12*X157500Y128000D02*Y120086D01*
G54D19*X148500Y126500D02*X153500D01*
G54D12*X144500Y128000D02*X147000Y130500D01*
G54D19*X121914Y133000D02*X122000Y133086D01*
G54D12*X147000Y130500D02*X155000D01*
G54D18*X93500Y133000D02*X121914D01*
G54D12*X130000Y135000D02*Y130000D01*
X274000Y127000D02*X227543D01*
G54D17*X270500Y109000D02*Y120500D01*
G54D13*X215000Y97500D02*X257000D01*
G54D12*X155000Y130500D02*X157500Y128000D01*
G54D17*X290500Y151405D02*X290405Y151500D01*
G54D13*X246500Y134500D02*Y150000D01*
G54D12*X204126Y106000D02*Y120126D01*
G54D17*X290500Y151405D02*Y114595D01*
X290405Y114500D01*
X283500Y96000D02*X270500Y109000D01*
G54D12*X274000Y127000D02*X278500Y122500D01*
Y114595D01*
X268000Y151500D02*X278595D01*
X278500Y114595D02*X278595Y114500D01*
X268000Y151500D02*X260043Y159457D01*
X254000D01*
G54D16*X150500Y120000D02*Y126500D01*
G54D12*X153000Y84000D02*Y101500D01*
X156064Y96650D02*X157414Y98000D01*
X153000Y84000D02*X152500Y83500D01*
X149851Y92185D02*Y99649D01*
X146701Y92185D02*Y96799D01*
X144500Y99000D01*
X162448Y42815D02*Y36552D01*
X149850Y49650D02*X149500Y50000D01*
X153000Y39000D02*Y53000D01*
Y39000D02*X154500Y37500D01*
X165598Y38902D02*X168500Y36000D01*
X171500D01*
G54D13*X168748Y42815D02*X170185D01*
G54D12*X140401D02*Y39401D01*
X133315Y42815D02*X131500Y41000D01*
X137252Y42815D02*X133315D01*
X175000Y47500D02*X179500D01*
X178788Y43712D02*X181000Y41500D01*
Y35500D01*
X174788Y43712D02*X178788D01*
G54D13*X173500Y39500D02*X176500D01*
X170185Y42815D02*X173500Y39500D01*
G54D12*X165598Y42815D02*Y38902D01*
X123850Y70650D02*X122000Y72500D01*
X124500Y67500D02*X137000D01*
X124500D02*X122500Y65500D01*
X128315Y70650D02*X123850D01*
X135150D02*X135500Y71000D01*
G54D13*X117586Y65500D02*X117500Y65414D01*
G54D12*X122500Y65500D02*X117586D01*
G54D19*X117500Y72500D02*X109000D01*
G54D12*X122000D02*X117500D01*
G54D13*X177685Y54901D02*X190099D01*
X183748Y51752D02*X186500Y49000D01*
G54D12*X177685Y67500D02*X188957D01*
X185000Y74500D02*X188500D01*
X188957Y67500D02*X189000Y67457D01*
X157414Y98000D02*X157543Y109000D01*
X156150Y92185D02*Y96650D01*
X181149Y70649D02*X185000Y74500D01*
X156150Y86350D02*X156500Y86000D01*
X156150Y92185D02*Y86350D01*
X157500Y120086D02*X157586Y120000D01*
X177685Y67500D02*X171500D01*
X189000Y67457D02*X202371D01*
X202414Y67500D01*
Y76995D01*
G54D13*X252500Y51500D02*Y59500D01*
G54D12*X234200Y55600D02*X244100D01*
X245500Y57000D01*
Y73500D01*
G54D13*X240900Y63400D02*X241000Y63500D01*
X234500Y63400D02*X240900D01*
X244000Y77500D02*X252500D01*
G54D12*X274100Y73600D02*X234200D01*
G54D13*X250000Y49000D02*X252500Y51500D01*
G54D12*X274500Y74000D02*X283500D01*
X274100Y73600D02*X274500Y74000D01*
X274400Y55600D02*X274500Y55500D01*
X273686Y63400D02*X274500Y62586D01*
X267000Y68500D02*Y63500D01*
X260700Y81400D02*X274186D01*
X274500Y81086D01*
X260700Y63400D02*X273686D01*
G54D13*X260500Y81600D02*X260700Y81400D01*
G54D12*X274400Y55600D02*X260700D01*
G54D17*X274500Y55500D02*X281000D01*
X283500Y58000D01*
Y96000D01*
G54D13*X234500Y81400D02*Y88000D01*
X237500Y91000D01*
X217500Y77500D02*X226000D01*
X190099Y54901D02*X192000Y53000D01*
X177685Y51752D02*X183748D01*
X186500Y49000D02*X250000D01*
X177685Y58051D02*X207551D01*
X209500Y60000D01*
Y67500D01*
X209000Y59500D02*X226000D01*
X177685Y61200D02*X188700D01*
X189000Y61500D01*
G54D12*X202414Y76995D02*X202601Y77182D01*
X217182D02*X217500Y77500D01*
G54D13*X209687Y77182D02*X217182D01*
X212000Y100500D02*X215000Y97500D01*
X257000D02*X260500Y94000D01*
Y81600D01*
G54D12*X45414Y11000D02*X45457Y10957D01*
X37500Y11000D02*X45414D01*
G54D17*X52543Y10957D02*X59000Y4500D01*
G54D12*X34500Y29500D02*Y14000D01*
X37500Y11000D01*
G54D17*X59000Y4500D02*X104000D01*
X106500Y7500D02*Y19000D01*
X104000Y4500D02*X106500Y7500D01*
G54D12*X83500Y12500D02*X87000D01*
Y26000D02*Y22500D01*
X84500Y30500D02*X84000D01*
X82000Y28500D01*
G54D17*X35000Y35500D02*X36957Y33543D01*
X42000D01*
G54D12*X4000Y38000D02*X6500Y35500D01*
X28500D01*
X34500Y29500D01*
G54D16*X35000Y88500D02*Y76500D01*
G54D19*X13086Y72914D02*X16000Y70000D01*
X9043Y72914D02*X13086D01*
X16000Y70000D02*Y65500D01*
G54D16*X26500Y97000D02*X35000Y88500D01*
G54D17*X45000Y52000D02*Y46500D01*
X10500Y47638D02*X23862D01*
X25000Y46500D01*
G54D12*X10500Y59448D02*X5948D01*
X4000Y57500D01*
Y38000D01*
G54D17*X42000Y26457D02*X73000Y26500D01*
X63500Y45000D02*X62000Y46500D01*
X56957Y37500D02*X53000Y33543D01*
X63500Y41500D02*Y45000D01*
X60500Y37500D02*X56957D01*
X63500Y41500D02*X68000Y37000D01*
X58500Y55500D02*X66000Y48000D01*
X45000Y52000D02*X48500Y55500D01*
X58500D01*
X62000Y46500D02*X55000D01*
X35000Y35500D02*Y46500D01*
X73000Y26500D02*X77000Y22500D01*
X76043Y23457D02*X77000Y22500D01*
Y93500D02*Y88543D01*
X63500Y81000D02*X61000Y83500D01*
X45000D01*
X69957Y89500D02*X51500D01*
X77000Y88543D02*X77043Y88500D01*
X82500Y81000D02*X63500D01*
G54D13*X128315Y73800D02*X124200D01*
X120000Y78000D01*
G54D17*X45000Y81500D02*Y76500D01*
G54D12*X50086Y96414D02*X48000Y98500D01*
X55586Y96500D02*X55500Y96414D01*
G54D13*X63000Y96500D02*X55586D01*
G54D12*X55500Y96414D02*X50086D01*
X128315Y70650D02*X135150D01*
G54D17*X66000Y48000D02*X69957D01*
X68000Y37000D02*X90500D01*
X82500Y81000D02*X84500Y83000D01*
Y87000D01*
X86000Y88500D01*
X90457D01*
X97543D02*Y75543D01*
X93500Y71500D01*
X77043Y48000D02*Y42957D01*
X78500Y41500D01*
X81000D01*
G54D19*X88000Y48043D02*X87957Y48000D01*
G54D17*X90500Y37000D02*X95000Y41500D01*
Y47957D01*
X95043Y48000D01*
G54D12*X97000Y39500D02*X95000Y41500D01*
X176500Y21212D02*X176288Y21000D01*
X155000D02*X176288D01*
X155043Y10000D02*X184500D01*
X195500Y21000D01*
G54D13*X142500Y22000D02*Y25000D01*
X131000Y10500D02*X142500Y22000D01*
G54D12*X143551Y32051D02*X139000Y27500D01*
X140401Y39401D02*X136000Y35000D01*
X148172Y21000D02*Y10000D01*
X131500Y33000D02*X129000Y30500D01*
X131500Y41000D02*Y33000D01*
X124000Y39500D02*X97000D01*
X82000Y28500D02*Y14000D01*
X88500Y27500D02*X87000Y26000D01*
X82000Y14000D02*X83500Y12500D01*
X139000Y27500D02*X88500D01*
G54D17*X106500Y19000D02*X110000Y22500D01*
X117000D01*
G54D12*X84000Y30500D02*X129000D01*
X176500Y31000D02*Y21212D01*
X181000Y35500D02*X176500Y31000D01*
X186500Y40500D02*Y30000D01*
G54D13*X142500Y25000D02*X146700Y29200D01*
G54D12*X148000Y25000D02*Y21000D01*
X149500Y26500D02*X148000Y25000D01*
X149850Y33564D02*X151414Y32000D01*
X158500Y28500D02*X156500Y26500D01*
X149500D01*
X158500Y36000D02*Y28500D01*
X186500Y30000D02*X195500Y21000D01*
G54D13*X146700Y29200D02*Y42815D01*
G54D12*X143551D02*Y32051D01*
X149850Y42815D02*Y49650D01*
Y42815D02*Y33564D01*
X162448Y36552D02*X166500Y32500D01*
X170500Y48000D02*X160500D01*
X159000Y51000D02*X171500D01*
X154500Y37500D02*X157000D01*
X158500Y36000D01*
X156149Y42815D02*Y48149D01*
X159000Y51000D01*
X159299Y42815D02*Y46799D01*
X160500Y48000D01*
X179500Y47500D02*X186500Y40500D01*
X169149Y70649D02*X181149D01*
X174788Y43712D02*X170500Y48000D01*
X171500Y51000D02*X175000Y47500D01*
G54D20*X283000Y183000D03*
G54D11*G36*
X240296Y195814D02*Y189414D01*
X246696D01*
Y195814D01*
X240296D01*
G37*
G54D21*X235622Y192614D03*
X227748D03*
X219874D03*
X212000D03*
X204126D03*
X243496Y106000D03*
X235622D03*
X227748D03*
X219874D03*
X212000D03*
X204126D03*
G54D11*G36*
X172788Y24500D02*Y17500D01*
X179788D01*
Y24500D01*
X172788D01*
G37*
G54D22*X195500Y21000D03*
G54D11*G36*
X94000Y25500D02*Y19500D01*
X100000D01*
Y25500D01*
X94000D01*
G37*
G54D23*X87000Y22500D03*
X77000D03*
G54D11*G36*
X114000Y25500D02*Y19500D01*
X120000D01*
Y25500D01*
X114000D01*
G37*
G54D23*X97000Y12500D03*
G54D11*G36*
X90500Y76000D02*Y70000D01*
X96500D01*
Y76000D01*
X90500D01*
G37*
G54D23*X93500Y63000D03*
X87000Y12500D03*
X77000D03*
G54D11*G36*
X70500Y76000D02*Y70000D01*
X76500D01*
Y76000D01*
X70500D01*
G37*
G54D23*X73500Y63000D03*
G54D20*X283000Y17000D03*
G54D23*X117000Y12500D03*
G54D21*X196252Y192614D03*
X188378D03*
X180504D03*
X172630D03*
X196252Y106000D03*
X188378D03*
X180504D03*
G54D20*X17000Y17000D03*
G54D15*X26500Y96000D03*
G54D11*G36*
X22000Y49500D02*Y43500D01*
X28000D01*
Y49500D01*
X22000D01*
G37*
G54D23*X25000Y76500D03*
X35000Y46500D03*
Y76500D03*
X45000Y46500D03*
X55000D03*
Y76500D03*
X45000D03*
G54D21*X172630Y106000D03*
G54D11*G36*
X129000Y109000D02*Y103000D01*
X135000D01*
Y109000D01*
X129000D01*
G37*
G54D23*X132000Y116000D03*
G54D24*X106000Y146500D03*
X96000D03*
G54D11*G36*
X82063Y150437D02*Y142563D01*
X89937D01*
Y150437D01*
X82063D01*
G37*
G54D20*X17000Y183000D03*
G54D11*G36*
X22500Y120000D02*Y112000D01*
X30500D01*
Y120000D01*
X22500D01*
G37*
G36*
Y160000D02*Y152000D01*
X30500D01*
Y160000D01*
X22500D01*
G37*
G54D15*X26500Y136000D03*
G54D25*X151414Y32393D02*Y31607D01*
X158500Y32393D02*Y31607D01*
X155000Y21393D02*Y20607D01*
X147914Y21393D02*Y20607D01*
G54D26*X137252Y45028D02*Y40602D01*
X140401Y45028D02*Y40602D01*
X143551Y45028D02*Y40602D01*
X146700Y45028D02*Y40602D01*
X149850Y45028D02*Y40602D01*
G54D25*X155043Y10393D02*Y9607D01*
X147957Y10393D02*Y9607D01*
G54D26*X146701Y94398D02*Y89972D01*
X143552Y94398D02*Y89972D01*
X140402Y94398D02*Y89972D01*
X137252Y94398D02*Y89972D01*
X126102Y83248D02*X130528D01*
X126102Y80099D02*X130528D01*
X126102Y76949D02*X130528D01*
X126102Y73800D02*X130528D01*
G54D25*X116607Y72500D02*X117393D01*
X116607Y65414D02*X117393D01*
G54D26*X126102Y70650D02*X130528D01*
X126102Y67500D02*X130528D01*
X126102Y64351D02*X130528D01*
X126102Y61201D02*X130528D01*
X126102Y58052D02*X130528D01*
X126102Y54902D02*X130528D01*
X126102Y51752D02*X130528D01*
G54D25*X95043Y48393D02*Y47607D01*
X87957Y48393D02*Y47607D01*
X77043Y48393D02*Y47607D01*
X69957Y48393D02*Y47607D01*
X55107Y96414D02*X55893D01*
X55107Y103500D02*X55893D01*
X90457Y88893D02*Y88107D01*
X77043Y88893D02*Y88107D01*
X69957Y88893D02*Y88107D01*
X97543Y88893D02*Y88107D01*
X8650Y80000D02*X9436D01*
X8650Y72914D02*X9436D01*
X9319Y47638D02*X11681D01*
X9319Y59448D02*X11681D01*
X52607Y26457D02*X53393D01*
X52607Y33543D02*X53393D01*
X45457Y11350D02*Y10564D01*
X52543Y11350D02*Y10564D01*
X41607Y26457D02*X42393D01*
X41607Y33543D02*X42393D01*
X121595Y176181D02*Y173819D01*
X133405Y176181D02*Y173819D01*
X152043Y161393D02*Y160607D01*
X144957Y161393D02*Y160607D01*
X131043Y161393D02*Y160607D01*
X123957Y161393D02*Y160607D01*
X105107Y170957D02*X105893D01*
X105107Y178043D02*X105893D01*
X121595Y190181D02*Y187819D01*
X133405Y190181D02*Y187819D01*
G54D27*X69193Y181000D02*X75492D01*
G54D28*X67900Y153600D02*Y152400D01*
G54D27*X49508Y181000D02*X55807D01*
G54D28*X55000Y153600D02*Y152400D01*
G54D25*X87607Y170957D02*X88393D01*
X87607Y178043D02*X88393D01*
G54D26*X168748Y94398D02*Y89972D01*
X165599Y94398D02*Y89972D01*
X162449Y94398D02*Y89972D01*
X159300Y94398D02*Y89972D01*
X156150Y94398D02*Y89972D01*
X153000Y94398D02*Y89972D01*
X149851Y94398D02*Y89972D01*
G54D25*X157586Y120393D02*Y119607D01*
Y109393D02*Y108607D01*
X227543Y127393D02*Y126607D01*
X220457Y127393D02*Y126607D01*
X290405Y115681D02*Y113319D01*
X278595Y115681D02*Y113319D01*
X150500Y120393D02*Y119607D01*
X121607Y126000D02*X122393D01*
X121607Y133086D02*X122393D01*
X150500Y109393D02*Y108607D01*
G54D29*X97406Y124905D02*Y120811D01*
X91500Y124905D02*Y113095D01*
G54D30*Y111361D02*Y109471D01*
G54D11*G36*
X93385Y118926D02*X96225Y116086D01*
X94805Y114666D01*
X91965Y117506D01*
X93385Y118926D01*
G37*
G36*
X86775Y116086D02*X89615Y118926D01*
X91035Y117506D01*
X88195Y114666D01*
X86775Y116086D01*
G37*
G54D25*X55107Y114000D02*X55893D01*
X55107Y121086D02*X55893D01*
G54D29*X85594Y124905D02*Y120811D01*
G54D25*X55107Y139000D02*X55893D01*
X55107Y131914D02*X55893D01*
X213607Y172914D02*X214393D01*
X213607Y180000D02*X214393D01*
X198107Y172914D02*X198893D01*
X198107Y180000D02*X198893D01*
X253607Y159457D02*X254393D01*
X253607Y166543D02*X254393D01*
X290405Y152681D02*Y150319D01*
X278595Y152681D02*Y150319D01*
G54D26*X153000Y45028D02*Y40602D01*
X156149Y45028D02*Y40602D01*
X159299Y45028D02*Y40602D01*
X162448Y45028D02*Y40602D01*
X165598Y45028D02*Y40602D01*
X168748Y45028D02*Y40602D01*
X175472Y51752D02*X179898D01*
X175472Y54901D02*X179898D01*
X175472Y58051D02*X179898D01*
X175472Y61200D02*X179898D01*
X175472Y64350D02*X179898D01*
G54D31*X233900Y55600D02*X234500D01*
X260400D02*X261000D01*
X252200Y59500D02*X252800D01*
G54D25*X274107Y55500D02*X274893D01*
G54D31*X233900Y63400D02*X234500D01*
X260400D02*X261000D01*
G54D25*X274107Y62586D02*X274893D01*
G54D31*X225700Y59500D02*X226300D01*
G54D26*X175472Y67500D02*X179898D01*
X175472Y70649D02*X179898D01*
X175472Y73799D02*X179898D01*
X175472Y76948D02*X179898D01*
X175472Y80098D02*X179898D01*
X175472Y83248D02*X179898D01*
G54D25*X188607Y67457D02*X189393D01*
X202414Y67893D02*Y67107D01*
X209500Y67893D02*Y67107D01*
X188607Y74543D02*X189393D01*
X202601Y77575D02*Y76789D01*
X209687Y77575D02*Y76789D01*
G54D31*X260400Y73600D02*X261000D01*
X260400Y81400D02*X261000D01*
X252200Y77500D02*X252800D01*
G54D25*X274107Y81086D02*X274893D01*
X274107Y74000D02*X274893D01*
G54D31*X233900Y73600D02*X234500D01*
X233900Y81400D02*X234500D01*
X225700Y77500D02*X226300D01*
G54D19*X130000Y135000D03*
X138500Y161000D03*
X121000Y182000D03*
X119500Y195500D03*
X120000Y78000D03*
X113500Y133000D03*
X108500D03*
X148500Y126500D03*
X153500D03*
X246500Y150000D03*
Y134500D03*
X229000Y145000D03*
X270500Y120500D03*
X237500Y91000D03*
X267000Y68500D03*
X244000Y77500D03*
X290500Y135500D03*
X236500Y185500D03*
X250500D03*
X236500Y180000D03*
X241000Y63500D03*
X217500Y77500D03*
X16000Y65500D03*
X189000Y61500D03*
X137000Y66500D03*
X81000Y41500D03*
X131000Y10500D03*
X117000Y45000D03*
X136000Y35000D03*
X124000Y39500D03*
X60500Y37500D03*
X166500Y32500D03*
X171500Y36000D03*
X154000Y53000D03*
X176500Y39500D03*
X152500Y83500D03*
X169000Y71500D03*
X192000Y53000D03*
X16000Y70000D03*
X63000Y96500D03*
X42500Y181000D03*
X37500D03*
X51500Y89500D03*
X96000Y160000D03*
Y165000D03*
Y170000D03*
Y175500D03*
X103500Y133000D03*
X98500D03*
X93500D03*
X81000Y95000D03*
X94500Y180500D03*
X99500D03*
X94500Y185500D03*
X109500Y190500D03*
X104500D03*
X99500Y185500D03*
Y190500D03*
X94500D03*
X89500D03*
Y195500D03*
X94500D03*
X99500D03*
X104500D03*
X109500D03*
X114500D03*
Y185000D03*
Y180000D03*
G54D17*G54D32*G54D33*G54D34*G54D35*G54D32*G54D35*G54D33*G54D32*G54D36*G54D37*G54D33*G54D35*G54D14*G54D32*G54D36*M02*
