G04 start of page 11 for group -3984 idx -3984 *
G04 Title: (unknown), fab *
G04 Creator: pcb 20110918 *
G04 CreationDate: Thu 28 Mar 2013 10:59:42 PM GMT UTC *
G04 For: railfan *
G04 Format: Gerber/RS-274X *
G04 PCB-Dimensions: 300000 200000 *
G04 PCB-Coordinate-Origin: lower left *
%MOIN*%
%FSLAX25Y25*%
%LNFAB*%
%ADD99C,0.0100*%
%ADD98C,0.0060*%
%ADD97R,0.0080X0.0080*%
%ADD96C,0.0001*%
G54D96*G36*
X14600Y19966D02*X19966Y14600D01*
X19400Y14034D01*
X14034Y19400D01*
X14600Y19966D01*
G37*
G36*
X14034Y14600D02*X19400Y19966D01*
X19966Y19400D01*
X14600Y14034D01*
X14034Y14600D01*
G37*
G54D97*X15400Y18600D02*X18600D01*
X15400D02*Y15400D01*
X18600D01*
Y18600D02*Y15400D01*
G54D96*G36*
X14600Y185966D02*X19966Y180600D01*
X19400Y180034D01*
X14034Y185400D01*
X14600Y185966D01*
G37*
G36*
X14034Y180600D02*X19400Y185966D01*
X19966Y185400D01*
X14600Y180034D01*
X14034Y180600D01*
G37*
G54D97*X15400Y184600D02*X18600D01*
X15400D02*Y181400D01*
X18600D01*
Y184600D02*Y181400D01*
G54D96*G36*
X280600Y185966D02*X285966Y180600D01*
X285400Y180034D01*
X280034Y185400D01*
X280600Y185966D01*
G37*
G36*
X280034Y180600D02*X285400Y185966D01*
X285966Y185400D01*
X280600Y180034D01*
X280034Y180600D01*
G37*
G54D97*X281400Y184600D02*X284600D01*
X281400D02*Y181400D01*
X284600D01*
Y184600D02*Y181400D01*
G54D96*G36*
X280600Y19966D02*X285966Y14600D01*
X285400Y14034D01*
X280034Y19400D01*
X280600Y19966D01*
G37*
G36*
X280034Y14600D02*X285400Y19966D01*
X285966Y19400D01*
X280600Y14034D01*
X280034Y14600D01*
G37*
G54D97*X281400Y18600D02*X284600D01*
X281400D02*Y15400D01*
X284600D01*
Y18600D02*Y15400D01*
G54D96*G36*
X12600Y214216D02*X17966Y208850D01*
X17400Y208284D01*
X12034Y213650D01*
X12600Y214216D01*
G37*
G36*
X12034Y208850D02*X17400Y214216D01*
X17966Y213650D01*
X12600Y208284D01*
X12034Y208850D01*
G37*
G54D97*X13400Y212850D02*X16600D01*
X13400D02*Y209650D01*
X16600D01*
Y212850D02*Y209650D01*
G54D98*X135000Y213500D02*Y212750D01*
X136500Y211250D01*
X138000Y212750D01*
Y213500D02*Y212750D01*
X136500Y211250D02*Y207500D01*
X139800Y210500D02*X142050D01*
X139800Y207500D02*X142800D01*
X139800Y213500D02*Y207500D01*
Y213500D02*X142800D01*
X147600D02*X148350Y212750D01*
X145350Y213500D02*X147600D01*
X144600Y212750D02*X145350Y213500D01*
X144600Y212750D02*Y211250D01*
X145350Y210500D01*
X147600D01*
X148350Y209750D01*
Y208250D01*
X147600Y207500D02*X148350Y208250D01*
X145350Y207500D02*X147600D01*
X144600Y208250D02*X145350Y207500D01*
X98000Y210500D02*X101000Y213500D01*
X98000Y210500D02*X101750D01*
X101000Y213500D02*Y207500D01*
X45000Y208250D02*X45750Y207500D01*
X45000Y212750D02*Y208250D01*
Y212750D02*X45750Y213500D01*
X47250D01*
X48000Y212750D01*
Y208250D01*
X47250Y207500D02*X48000Y208250D01*
X45750Y207500D02*X47250D01*
X45000Y209000D02*X48000Y212000D01*
X49800Y207500D02*X50550D01*
X53100D02*X54600D01*
X53850Y213500D02*Y207500D01*
X52350Y212000D02*X53850Y213500D01*
X56400Y212750D02*X57150Y213500D01*
X59400D01*
X60150Y212750D01*
Y211250D01*
X56400Y207500D02*X60150Y211250D01*
X56400Y207500D02*X60150D01*
X61950D02*X64950Y210500D01*
Y212750D02*Y210500D01*
X64200Y213500D02*X64950Y212750D01*
X62700Y213500D02*X64200D01*
X61950Y212750D02*X62700Y213500D01*
X61950Y212750D02*Y211250D01*
X62700Y210500D01*
X64950D01*
X26500Y119200D02*Y112800D01*
X23300Y116000D02*X29700D01*
X24900Y117600D02*X28100D01*
X24900D02*Y114400D01*
X28100D01*
Y117600D02*Y114400D01*
X26500Y99200D02*Y92800D01*
X23300Y96000D02*X29700D01*
X24900Y97600D02*X28100D01*
X24900D02*Y94400D01*
X28100D01*
Y97600D02*Y94400D01*
X26500Y159200D02*Y152800D01*
X23300Y156000D02*X29700D01*
X24900Y157600D02*X28100D01*
X24900D02*Y154400D01*
X28100D01*
Y157600D02*Y154400D01*
X26500Y139200D02*Y132800D01*
X23300Y136000D02*X29700D01*
X24900Y137600D02*X28100D01*
X24900D02*Y134400D01*
X28100D01*
Y137600D02*Y134400D01*
X15000Y229450D02*Y223050D01*
X11800Y226250D02*X18200D01*
X13400Y227850D02*X16600D01*
X13400D02*Y224650D01*
X16600D01*
Y227850D02*Y224650D01*
X135000Y228500D02*Y227750D01*
X136500Y226250D01*
X138000Y227750D01*
Y228500D02*Y227750D01*
X136500Y226250D02*Y222500D01*
X139800Y225500D02*X142050D01*
X139800Y222500D02*X142800D01*
X139800Y228500D02*Y222500D01*
Y228500D02*X142800D01*
X147600D02*X148350Y227750D01*
X145350Y228500D02*X147600D01*
X144600Y227750D02*X145350Y228500D01*
X144600Y227750D02*Y226250D01*
X145350Y225500D01*
X147600D01*
X148350Y224750D01*
Y223250D01*
X147600Y222500D02*X148350Y223250D01*
X145350Y222500D02*X147600D01*
X144600Y223250D02*X145350Y222500D01*
X98000Y225500D02*X101000Y228500D01*
X98000Y225500D02*X101750D01*
X101000Y228500D02*Y222500D01*
X45000Y223250D02*X45750Y222500D01*
X45000Y227750D02*Y223250D01*
Y227750D02*X45750Y228500D01*
X47250D01*
X48000Y227750D01*
Y223250D01*
X47250Y222500D02*X48000Y223250D01*
X45750Y222500D02*X47250D01*
X45000Y224000D02*X48000Y227000D01*
X49800Y222500D02*X50550D01*
X52350Y223250D02*X53100Y222500D01*
X52350Y227750D02*Y223250D01*
Y227750D02*X53100Y228500D01*
X54600D01*
X55350Y227750D01*
Y223250D01*
X54600Y222500D02*X55350Y223250D01*
X53100Y222500D02*X54600D01*
X52350Y224000D02*X55350Y227000D01*
X57150Y225500D02*X60150Y228500D01*
X57150Y225500D02*X60900D01*
X60150Y228500D02*Y222500D01*
X62700Y223250D02*X63450Y222500D01*
X62700Y224750D02*Y223250D01*
Y224750D02*X63450Y225500D01*
X64950D01*
X65700Y224750D01*
Y223250D01*
X64950Y222500D02*X65700Y223250D01*
X63450Y222500D02*X64950D01*
X62700Y226250D02*X63450Y225500D01*
X62700Y227750D02*Y226250D01*
Y227750D02*X63450Y228500D01*
X64950D01*
X65700Y227750D01*
Y226250D01*
X64950Y225500D02*X65700Y226250D01*
X106000Y146500D02*Y143300D01*
Y146500D02*X108773Y148100D01*
X106000Y146500D02*X103227Y148100D01*
X104400Y146500D02*G75*G03X107600Y146500I1600J0D01*G01*
G75*G03X104400Y146500I-1600J0D01*G01*
X96000D02*Y143300D01*
Y146500D02*X98773Y148100D01*
X96000Y146500D02*X93227Y148100D01*
X94400Y146500D02*G75*G03X97600Y146500I1600J0D01*G01*
G75*G03X94400Y146500I-1600J0D01*G01*
X86000D02*Y143300D01*
Y146500D02*X88773Y148100D01*
X86000Y146500D02*X83227Y148100D01*
X84400Y146500D02*G75*G03X87600Y146500I1600J0D01*G01*
G75*G03X84400Y146500I-1600J0D01*G01*
X15000Y241250D02*Y238050D01*
Y241250D02*X17773Y242850D01*
X15000Y241250D02*X12227Y242850D01*
X13400Y241250D02*G75*G03X16600Y241250I1600J0D01*G01*
G75*G03X13400Y241250I-1600J0D01*G01*
X135000Y243500D02*Y242750D01*
X136500Y241250D01*
X138000Y242750D01*
Y243500D02*Y242750D01*
X136500Y241250D02*Y237500D01*
X139800Y240500D02*X142050D01*
X139800Y237500D02*X142800D01*
X139800Y243500D02*Y237500D01*
Y243500D02*X142800D01*
X147600D02*X148350Y242750D01*
X145350Y243500D02*X147600D01*
X144600Y242750D02*X145350Y243500D01*
X144600Y242750D02*Y241250D01*
X145350Y240500D01*
X147600D01*
X148350Y239750D01*
Y238250D01*
X147600Y237500D02*X148350Y238250D01*
X145350Y237500D02*X147600D01*
X144600Y238250D02*X145350Y237500D01*
X98000Y242750D02*X98750Y243500D01*
X100250D01*
X101000Y242750D01*
Y238250D01*
X100250Y237500D02*X101000Y238250D01*
X98750Y237500D02*X100250D01*
X98000Y238250D02*X98750Y237500D01*
Y240500D02*X101000D01*
X45000Y238250D02*X45750Y237500D01*
X45000Y242750D02*Y238250D01*
Y242750D02*X45750Y243500D01*
X47250D01*
X48000Y242750D01*
Y238250D01*
X47250Y237500D02*X48000Y238250D01*
X45750Y237500D02*X47250D01*
X45000Y239000D02*X48000Y242000D01*
X49800Y237500D02*X50550D01*
X52350Y238250D02*X53100Y237500D01*
X52350Y242750D02*Y238250D01*
Y242750D02*X53100Y243500D01*
X54600D01*
X55350Y242750D01*
Y238250D01*
X54600Y237500D02*X55350Y238250D01*
X53100Y237500D02*X54600D01*
X52350Y239000D02*X55350Y242000D01*
X57150Y240500D02*X60150Y243500D01*
X57150Y240500D02*X60900D01*
X60150Y243500D02*Y237500D01*
X62700Y243500D02*X65700D01*
X62700D02*Y240500D01*
X63450Y241250D01*
X64950D01*
X65700Y240500D01*
Y238250D01*
X64950Y237500D02*X65700Y238250D01*
X63450Y237500D02*X64950D01*
X62700Y238250D02*X63450Y237500D01*
X95400Y24100D02*X98600D01*
X95400D02*Y20900D01*
X98600D01*
Y24100D02*Y20900D01*
X85400Y24100D02*X88600D01*
X85400D02*Y20900D01*
X88600D01*
Y24100D02*Y20900D01*
X75400Y24100D02*X78600D01*
X75400D02*Y20900D01*
X78600D01*
Y24100D02*Y20900D01*
X95400Y14100D02*X98600D01*
X95400D02*Y10900D01*
X98600D01*
Y14100D02*Y10900D01*
X85400Y14100D02*X88600D01*
X85400D02*Y10900D01*
X88600D01*
Y14100D02*Y10900D01*
X75400Y14100D02*X78600D01*
X75400D02*Y10900D01*
X78600D01*
Y14100D02*Y10900D01*
X130400Y107600D02*X133600D01*
X130400D02*Y104400D01*
X133600D01*
Y107600D02*Y104400D01*
X130400Y117600D02*X133600D01*
X130400D02*Y114400D01*
X133600D01*
Y117600D02*Y114400D01*
X91900Y74600D02*X95100D01*
X91900D02*Y71400D01*
X95100D01*
Y74600D02*Y71400D01*
X91900Y64600D02*X95100D01*
X91900D02*Y61400D01*
X95100D01*
Y64600D02*Y61400D01*
X71900Y74600D02*X75100D01*
X71900D02*Y71400D01*
X75100D01*
Y74600D02*Y71400D01*
X71900Y64600D02*X75100D01*
X71900D02*Y61400D01*
X75100D01*
Y64600D02*Y61400D01*
X115400Y24100D02*X118600D01*
X115400D02*Y20900D01*
X118600D01*
Y24100D02*Y20900D01*
X115400Y14100D02*X118600D01*
X115400D02*Y10900D01*
X118600D01*
Y14100D02*Y10900D01*
X13400Y257850D02*X16600D01*
X13400D02*Y254650D01*
X16600D01*
Y257850D02*Y254650D01*
X135000Y258500D02*Y257750D01*
X136500Y256250D01*
X138000Y257750D01*
Y258500D02*Y257750D01*
X136500Y256250D02*Y252500D01*
X139800Y255500D02*X142050D01*
X139800Y252500D02*X142800D01*
X139800Y258500D02*Y252500D01*
Y258500D02*X142800D01*
X147600D02*X148350Y257750D01*
X145350Y258500D02*X147600D01*
X144600Y257750D02*X145350Y258500D01*
X144600Y257750D02*Y256250D01*
X145350Y255500D01*
X147600D01*
X148350Y254750D01*
Y253250D01*
X147600Y252500D02*X148350Y253250D01*
X145350Y252500D02*X147600D01*
X144600Y253250D02*X145350Y252500D01*
X98750D02*X100250D01*
X99500Y258500D02*Y252500D01*
X98000Y257000D02*X99500Y258500D01*
X102050Y255500D02*X105050Y258500D01*
X102050Y255500D02*X105800D01*
X105050Y258500D02*Y252500D01*
X45000Y253250D02*X45750Y252500D01*
X45000Y257750D02*Y253250D01*
Y257750D02*X45750Y258500D01*
X47250D01*
X48000Y257750D01*
Y253250D01*
X47250Y252500D02*X48000Y253250D01*
X45750Y252500D02*X47250D01*
X45000Y254000D02*X48000Y257000D01*
X49800Y252500D02*X50550D01*
X52350Y253250D02*X53100Y252500D01*
X52350Y257750D02*Y253250D01*
Y257750D02*X53100Y258500D01*
X54600D01*
X55350Y257750D01*
Y253250D01*
X54600Y252500D02*X55350Y253250D01*
X53100Y252500D02*X54600D01*
X52350Y254000D02*X55350Y257000D01*
X57150Y257750D02*X57900Y258500D01*
X59400D01*
X60150Y257750D01*
Y253250D01*
X59400Y252500D02*X60150Y253250D01*
X57900Y252500D02*X59400D01*
X57150Y253250D02*X57900Y252500D01*
Y255500D02*X60150D01*
X61950Y253250D02*X62700Y252500D01*
X61950Y254750D02*Y253250D01*
Y254750D02*X62700Y255500D01*
X64200D01*
X64950Y254750D01*
Y253250D01*
X64200Y252500D02*X64950Y253250D01*
X62700Y252500D02*X64200D01*
X61950Y256250D02*X62700Y255500D01*
X61950Y257750D02*Y256250D01*
Y257750D02*X62700Y258500D01*
X64200D01*
X64950Y257750D01*
Y256250D01*
X64200Y255500D02*X64950Y256250D01*
X242696Y192614D02*G75*G03X244296Y192614I800J0D01*G01*
G75*G03X242696Y192614I-800J0D01*G01*
X234822D02*G75*G03X236422Y192614I800J0D01*G01*
G75*G03X234822Y192614I-800J0D01*G01*
X226948D02*G75*G03X228548Y192614I800J0D01*G01*
G75*G03X226948Y192614I-800J0D01*G01*
X219074D02*G75*G03X220674Y192614I800J0D01*G01*
G75*G03X219074Y192614I-800J0D01*G01*
X211200D02*G75*G03X212800Y192614I800J0D01*G01*
G75*G03X211200Y192614I-800J0D01*G01*
X203326D02*G75*G03X204926Y192614I800J0D01*G01*
G75*G03X203326Y192614I-800J0D01*G01*
X195452D02*G75*G03X197052Y192614I800J0D01*G01*
G75*G03X195452Y192614I-800J0D01*G01*
X187578D02*G75*G03X189178Y192614I800J0D01*G01*
G75*G03X187578Y192614I-800J0D01*G01*
X179704D02*G75*G03X181304Y192614I800J0D01*G01*
G75*G03X179704Y192614I-800J0D01*G01*
X171830D02*G75*G03X173430Y192614I800J0D01*G01*
G75*G03X171830Y192614I-800J0D01*G01*
X242696Y106000D02*G75*G03X244296Y106000I800J0D01*G01*
G75*G03X242696Y106000I-800J0D01*G01*
X234822D02*G75*G03X236422Y106000I800J0D01*G01*
G75*G03X234822Y106000I-800J0D01*G01*
X226948D02*G75*G03X228548Y106000I800J0D01*G01*
G75*G03X226948Y106000I-800J0D01*G01*
X219074D02*G75*G03X220674Y106000I800J0D01*G01*
G75*G03X219074Y106000I-800J0D01*G01*
X211200D02*G75*G03X212800Y106000I800J0D01*G01*
G75*G03X211200Y106000I-800J0D01*G01*
X203326D02*G75*G03X204926Y106000I800J0D01*G01*
G75*G03X203326Y106000I-800J0D01*G01*
X195452D02*G75*G03X197052Y106000I800J0D01*G01*
G75*G03X195452Y106000I-800J0D01*G01*
X187578D02*G75*G03X189178Y106000I800J0D01*G01*
G75*G03X187578Y106000I-800J0D01*G01*
X179704D02*G75*G03X181304Y106000I800J0D01*G01*
G75*G03X179704Y106000I-800J0D01*G01*
X171830D02*G75*G03X173430Y106000I800J0D01*G01*
G75*G03X171830Y106000I-800J0D01*G01*
X14200Y271250D02*G75*G03X15800Y271250I800J0D01*G01*
G75*G03X14200Y271250I-800J0D01*G01*
X135000Y273500D02*Y272750D01*
X136500Y271250D01*
X138000Y272750D01*
Y273500D02*Y272750D01*
X136500Y271250D02*Y267500D01*
X139800Y270500D02*X142050D01*
X139800Y267500D02*X142800D01*
X139800Y273500D02*Y267500D01*
Y273500D02*X142800D01*
X147600D02*X148350Y272750D01*
X145350Y273500D02*X147600D01*
X144600Y272750D02*X145350Y273500D01*
X144600Y272750D02*Y271250D01*
X145350Y270500D01*
X147600D01*
X148350Y269750D01*
Y268250D01*
X147600Y267500D02*X148350Y268250D01*
X145350Y267500D02*X147600D01*
X144600Y268250D02*X145350Y267500D01*
X98000Y272750D02*X98750Y273500D01*
X101000D01*
X101750Y272750D01*
Y271250D01*
X98000Y267500D02*X101750Y271250D01*
X98000Y267500D02*X101750D01*
X103550Y268250D02*X104300Y267500D01*
X103550Y272750D02*Y268250D01*
Y272750D02*X104300Y273500D01*
X105800D01*
X106550Y272750D01*
Y268250D01*
X105800Y267500D02*X106550Y268250D01*
X104300Y267500D02*X105800D01*
X103550Y269000D02*X106550Y272000D01*
X45000Y268250D02*X45750Y267500D01*
X45000Y272750D02*Y268250D01*
Y272750D02*X45750Y273500D01*
X47250D01*
X48000Y272750D01*
Y268250D01*
X47250Y267500D02*X48000Y268250D01*
X45750Y267500D02*X47250D01*
X45000Y269000D02*X48000Y272000D01*
X49800Y267500D02*X50550D01*
X52350Y268250D02*X53100Y267500D01*
X52350Y272750D02*Y268250D01*
Y272750D02*X53100Y273500D01*
X54600D01*
X55350Y272750D01*
Y268250D01*
X54600Y267500D02*X55350Y268250D01*
X53100Y267500D02*X54600D01*
X52350Y269000D02*X55350Y272000D01*
X57150Y272750D02*X57900Y273500D01*
X59400D01*
X60150Y272750D01*
Y268250D01*
X59400Y267500D02*X60150Y268250D01*
X57900Y267500D02*X59400D01*
X57150Y268250D02*X57900Y267500D01*
Y270500D02*X60150D01*
X61950Y272750D02*X62700Y273500D01*
X64950D01*
X65700Y272750D01*
Y271250D01*
X61950Y267500D02*X65700Y271250D01*
X61950Y267500D02*X65700D01*
X23800Y47700D02*X26200Y45300D01*
X23800D02*X26200Y47700D01*
X33800D02*X36200Y45300D01*
X33800D02*X36200Y47700D01*
X43800D02*X46200Y45300D01*
X43800D02*X46200Y47700D01*
X53800D02*X56200Y45300D01*
X53800D02*X56200Y47700D01*
X53800Y77700D02*X56200Y75300D01*
X53800D02*X56200Y77700D01*
X43800D02*X46200Y75300D01*
X43800D02*X46200Y77700D01*
X33800D02*X36200Y75300D01*
X33800D02*X36200Y77700D01*
X23800D02*X26200Y75300D01*
X23800D02*X26200Y77700D01*
X13800Y287450D02*X16200Y285050D01*
X13800D02*X16200Y287450D01*
X135000Y288500D02*Y287750D01*
X136500Y286250D01*
X138000Y287750D01*
Y288500D02*Y287750D01*
X136500Y286250D02*Y282500D01*
X139800Y285500D02*X142050D01*
X139800Y282500D02*X142800D01*
X139800Y288500D02*Y282500D01*
Y288500D02*X142800D01*
X147600D02*X148350Y287750D01*
X145350Y288500D02*X147600D01*
X144600Y287750D02*X145350Y288500D01*
X144600Y287750D02*Y286250D01*
X145350Y285500D01*
X147600D01*
X148350Y284750D01*
Y283250D01*
X147600Y282500D02*X148350Y283250D01*
X145350Y282500D02*X147600D01*
X144600Y283250D02*X145350Y282500D01*
X98000Y283250D02*X98750Y282500D01*
X98000Y284750D02*Y283250D01*
Y284750D02*X98750Y285500D01*
X100250D01*
X101000Y284750D01*
Y283250D01*
X100250Y282500D02*X101000Y283250D01*
X98750Y282500D02*X100250D01*
X98000Y286250D02*X98750Y285500D01*
X98000Y287750D02*Y286250D01*
Y287750D02*X98750Y288500D01*
X100250D01*
X101000Y287750D01*
Y286250D01*
X100250Y285500D02*X101000Y286250D01*
X45000Y283250D02*X45750Y282500D01*
X45000Y287750D02*Y283250D01*
Y287750D02*X45750Y288500D01*
X47250D01*
X48000Y287750D01*
Y283250D01*
X47250Y282500D02*X48000Y283250D01*
X45750Y282500D02*X47250D01*
X45000Y284000D02*X48000Y287000D01*
X49800Y282500D02*X50550D01*
X52350Y283250D02*X53100Y282500D01*
X52350Y287750D02*Y283250D01*
Y287750D02*X53100Y288500D01*
X54600D01*
X55350Y287750D01*
Y283250D01*
X54600Y282500D02*X55350Y283250D01*
X53100Y282500D02*X54600D01*
X52350Y284000D02*X55350Y287000D01*
X57150Y287750D02*X57900Y288500D01*
X60150D01*
X60900Y287750D01*
Y286250D01*
X57150Y282500D02*X60900Y286250D01*
X57150Y282500D02*X60900D01*
X62700Y283250D02*X63450Y282500D01*
X62700Y284750D02*Y283250D01*
Y284750D02*X63450Y285500D01*
X64950D01*
X65700Y284750D01*
Y283250D01*
X64950Y282500D02*X65700Y283250D01*
X63450Y282500D02*X64950D01*
X62700Y286250D02*X63450Y285500D01*
X62700Y287750D02*Y286250D01*
Y287750D02*X63450Y288500D01*
X64950D01*
X65700Y287750D01*
Y286250D01*
X64950Y285500D02*X65700Y286250D01*
X176288Y22600D02*Y19400D01*
X174688Y21000D02*X177888D01*
X195500Y22600D02*Y19400D01*
X193900Y21000D02*X197100D01*
X15000Y302850D02*Y299650D01*
X13400Y301250D02*X16600D01*
X135000Y303500D02*Y302750D01*
X136500Y301250D01*
X138000Y302750D01*
Y303500D02*Y302750D01*
X136500Y301250D02*Y297500D01*
X139800Y300500D02*X142050D01*
X139800Y297500D02*X142800D01*
X139800Y303500D02*Y297500D01*
Y303500D02*X142800D01*
X147600D02*X148350Y302750D01*
X145350Y303500D02*X147600D01*
X144600Y302750D02*X145350Y303500D01*
X144600Y302750D02*Y301250D01*
X145350Y300500D01*
X147600D01*
X148350Y299750D01*
Y298250D01*
X147600Y297500D02*X148350Y298250D01*
X145350Y297500D02*X147600D01*
X144600Y298250D02*X145350Y297500D01*
X98000Y302750D02*X98750Y303500D01*
X101000D01*
X101750Y302750D01*
Y301250D01*
X98000Y297500D02*X101750Y301250D01*
X98000Y297500D02*X101750D01*
X45000Y298250D02*X45750Y297500D01*
X45000Y302750D02*Y298250D01*
Y302750D02*X45750Y303500D01*
X47250D01*
X48000Y302750D01*
Y298250D01*
X47250Y297500D02*X48000Y298250D01*
X45750Y297500D02*X47250D01*
X45000Y299000D02*X48000Y302000D01*
X49800Y297500D02*X50550D01*
X52350Y298250D02*X53100Y297500D01*
X52350Y302750D02*Y298250D01*
Y302750D02*X53100Y303500D01*
X54600D01*
X55350Y302750D01*
Y298250D01*
X54600Y297500D02*X55350Y298250D01*
X53100Y297500D02*X54600D01*
X52350Y299000D02*X55350Y302000D01*
X57150Y302750D02*X57900Y303500D01*
X60150D01*
X60900Y302750D01*
Y301250D01*
X57150Y297500D02*X60900Y301250D01*
X57150Y297500D02*X60900D01*
X62700Y303500D02*X65700D01*
X62700D02*Y300500D01*
X63450Y301250D01*
X64950D01*
X65700Y300500D01*
Y298250D01*
X64950Y297500D02*X65700Y298250D01*
X63450Y297500D02*X64950D01*
X62700Y298250D02*X63450Y297500D01*
X130000Y135000D02*Y133400D01*
Y135000D02*X131387Y135800D01*
X130000Y135000D02*X128613Y135800D01*
X16000Y70000D02*Y68400D01*
Y70000D02*X17387Y70800D01*
X16000Y70000D02*X14613Y70800D01*
X138500Y161000D02*Y159400D01*
Y161000D02*X139887Y161800D01*
X138500Y161000D02*X137113Y161800D01*
X121000Y182000D02*Y180400D01*
Y182000D02*X122387Y182800D01*
X121000Y182000D02*X119613Y182800D01*
X119500Y195500D02*Y193900D01*
Y195500D02*X120887Y196300D01*
X119500Y195500D02*X118113Y196300D01*
X246500Y150000D02*Y148400D01*
Y150000D02*X247887Y150800D01*
X246500Y150000D02*X245113Y150800D01*
X246500Y134500D02*Y132900D01*
Y134500D02*X247887Y135300D01*
X246500Y134500D02*X245113Y135300D01*
X237500Y91000D02*Y89400D01*
Y91000D02*X238887Y91800D01*
X237500Y91000D02*X236113Y91800D01*
X16000Y65500D02*Y63900D01*
Y65500D02*X17387Y66300D01*
X16000Y65500D02*X14613Y66300D01*
X81000Y41500D02*Y39900D01*
Y41500D02*X82387Y42300D01*
X81000Y41500D02*X79613Y42300D01*
X60500Y37500D02*Y35900D01*
Y37500D02*X61887Y38300D01*
X60500Y37500D02*X59113Y38300D01*
X63000Y96500D02*Y94900D01*
Y96500D02*X64387Y97300D01*
X63000Y96500D02*X61613Y97300D01*
X267000Y68500D02*Y66900D01*
Y68500D02*X268387Y69300D01*
X267000Y68500D02*X265613Y69300D01*
X229000Y145000D02*Y143400D01*
Y145000D02*X230387Y145800D01*
X229000Y145000D02*X227613Y145800D01*
X131000Y10500D02*Y8900D01*
Y10500D02*X132387Y11300D01*
X131000Y10500D02*X129613Y11300D01*
X270500Y120500D02*Y118900D01*
Y120500D02*X271887Y121300D01*
X270500Y120500D02*X269113Y121300D01*
X244000Y77500D02*Y75900D01*
Y77500D02*X245387Y78300D01*
X244000Y77500D02*X242613Y78300D01*
X189000Y61500D02*Y59900D01*
Y61500D02*X190387Y62300D01*
X189000Y61500D02*X187613Y62300D01*
X290500Y135500D02*Y133900D01*
Y135500D02*X291887Y136300D01*
X290500Y135500D02*X289113Y136300D01*
X236500Y185500D02*Y183900D01*
Y185500D02*X237887Y186300D01*
X236500Y185500D02*X235113Y186300D01*
X42500Y181000D02*Y179400D01*
Y181000D02*X43887Y181800D01*
X42500Y181000D02*X41113Y181800D01*
X37500Y181000D02*Y179400D01*
Y181000D02*X38887Y181800D01*
X37500Y181000D02*X36113Y181800D01*
X250500Y185500D02*Y183900D01*
Y185500D02*X251887Y186300D01*
X250500Y185500D02*X249113Y186300D01*
X236500Y180000D02*Y178400D01*
Y180000D02*X237887Y180800D01*
X236500Y180000D02*X235113Y180800D01*
X166500Y32500D02*Y30900D01*
Y32500D02*X167887Y33300D01*
X166500Y32500D02*X165113Y33300D01*
X117000Y45000D02*Y43400D01*
Y45000D02*X118387Y45800D01*
X117000Y45000D02*X115613Y45800D01*
X171500Y36000D02*Y34400D01*
Y36000D02*X172887Y36800D01*
X171500Y36000D02*X170113Y36800D01*
X120000Y78000D02*Y76400D01*
Y78000D02*X121387Y78800D01*
X120000Y78000D02*X118613Y78800D01*
X152500Y83500D02*Y81900D01*
Y83500D02*X153887Y84300D01*
X152500Y83500D02*X151113Y84300D01*
X137000Y66500D02*Y64900D01*
Y66500D02*X138387Y67300D01*
X137000Y66500D02*X135613Y67300D01*
X169000Y71500D02*Y69900D01*
Y71500D02*X170387Y72300D01*
X169000Y71500D02*X167613Y72300D01*
X154000Y53000D02*Y51400D01*
Y53000D02*X155387Y53800D01*
X154000Y53000D02*X152613Y53800D01*
X241000Y63500D02*Y61900D01*
Y63500D02*X242387Y64300D01*
X241000Y63500D02*X239613Y64300D01*
X136000Y35000D02*Y33400D01*
Y35000D02*X137387Y35800D01*
X136000Y35000D02*X134613Y35800D01*
X176500Y39500D02*Y37900D01*
Y39500D02*X177887Y40300D01*
X176500Y39500D02*X175113Y40300D01*
X192000Y53000D02*Y51400D01*
Y53000D02*X193387Y53800D01*
X192000Y53000D02*X190613Y53800D01*
X217500Y77500D02*Y75900D01*
Y77500D02*X218887Y78300D01*
X217500Y77500D02*X216113Y78300D01*
X124000Y39500D02*Y37900D01*
Y39500D02*X125387Y40300D01*
X124000Y39500D02*X122613Y40300D01*
X96000Y160000D02*Y158400D01*
Y160000D02*X97387Y160800D01*
X96000Y160000D02*X94613Y160800D01*
X96000Y165000D02*Y163400D01*
Y165000D02*X97387Y165800D01*
X96000Y165000D02*X94613Y165800D01*
X96000Y170000D02*Y168400D01*
Y170000D02*X97387Y170800D01*
X96000Y170000D02*X94613Y170800D01*
X94500Y180500D02*Y178900D01*
Y180500D02*X95887Y181300D01*
X94500Y180500D02*X93113Y181300D01*
X109500Y190500D02*Y188900D01*
Y190500D02*X110887Y191300D01*
X109500Y190500D02*X108113Y191300D01*
X99500Y185500D02*Y183900D01*
Y185500D02*X100887Y186300D01*
X99500Y185500D02*X98113Y186300D01*
X94500Y190500D02*Y188900D01*
Y190500D02*X95887Y191300D01*
X94500Y190500D02*X93113Y191300D01*
X99500Y180500D02*Y178900D01*
Y180500D02*X100887Y181300D01*
X99500Y180500D02*X98113Y181300D01*
X94500Y185500D02*Y183900D01*
Y185500D02*X95887Y186300D01*
X94500Y185500D02*X93113Y186300D01*
X104500Y190500D02*Y188900D01*
Y190500D02*X105887Y191300D01*
X104500Y190500D02*X103113Y191300D01*
X89500Y190500D02*Y188900D01*
Y190500D02*X90887Y191300D01*
X89500Y190500D02*X88113Y191300D01*
X99500Y190500D02*Y188900D01*
Y190500D02*X100887Y191300D01*
X99500Y190500D02*X98113Y191300D01*
X96000Y175500D02*Y173900D01*
Y175500D02*X97387Y176300D01*
X96000Y175500D02*X94613Y176300D01*
X89500Y195500D02*Y193900D01*
Y195500D02*X90887Y196300D01*
X89500Y195500D02*X88113Y196300D01*
X94500Y195500D02*Y193900D01*
Y195500D02*X95887Y196300D01*
X94500Y195500D02*X93113Y196300D01*
X99500Y195500D02*Y193900D01*
Y195500D02*X100887Y196300D01*
X99500Y195500D02*X98113Y196300D01*
X104500Y195500D02*Y193900D01*
Y195500D02*X105887Y196300D01*
X104500Y195500D02*X103113Y196300D01*
X109500Y195500D02*Y193900D01*
Y195500D02*X110887Y196300D01*
X109500Y195500D02*X108113Y196300D01*
X114500Y195500D02*Y193900D01*
Y195500D02*X115887Y196300D01*
X114500Y195500D02*X113113Y196300D01*
X114500Y185000D02*Y183400D01*
Y185000D02*X115887Y185800D01*
X114500Y185000D02*X113113Y185800D01*
X114500Y180000D02*Y178400D01*
Y180000D02*X115887Y180800D01*
X114500Y180000D02*X113113Y180800D01*
X113500Y133000D02*Y131400D01*
Y133000D02*X114887Y133800D01*
X113500Y133000D02*X112113Y133800D01*
X108500Y133000D02*Y131400D01*
Y133000D02*X109887Y133800D01*
X108500Y133000D02*X107113Y133800D01*
X103500Y133000D02*Y131400D01*
Y133000D02*X104887Y133800D01*
X103500Y133000D02*X102113Y133800D01*
X98500Y133000D02*Y131400D01*
Y133000D02*X99887Y133800D01*
X98500Y133000D02*X97113Y133800D01*
X93500Y133000D02*Y131400D01*
Y133000D02*X94887Y133800D01*
X93500Y133000D02*X92113Y133800D01*
X81000Y95000D02*Y93400D01*
Y95000D02*X82387Y95800D01*
X81000Y95000D02*X79613Y95800D01*
X148500Y126500D02*Y124900D01*
Y126500D02*X149887Y127300D01*
X148500Y126500D02*X147113Y127300D01*
X153500Y126500D02*Y124900D01*
Y126500D02*X154887Y127300D01*
X153500Y126500D02*X152113Y127300D01*
X51500Y89500D02*Y87900D01*
Y89500D02*X52887Y90300D01*
X51500Y89500D02*X50113Y90300D01*
X15000Y316250D02*Y314650D01*
Y316250D02*X16387Y317050D01*
X15000Y316250D02*X13613Y317050D01*
X135000Y318500D02*Y317750D01*
X136500Y316250D01*
X138000Y317750D01*
Y318500D02*Y317750D01*
X136500Y316250D02*Y312500D01*
X139800Y315500D02*X142050D01*
X139800Y312500D02*X142800D01*
X139800Y318500D02*Y312500D01*
Y318500D02*X142800D01*
X147600D02*X148350Y317750D01*
X145350Y318500D02*X147600D01*
X144600Y317750D02*X145350Y318500D01*
X144600Y317750D02*Y316250D01*
X145350Y315500D01*
X147600D01*
X148350Y314750D01*
Y313250D01*
X147600Y312500D02*X148350Y313250D01*
X145350Y312500D02*X147600D01*
X144600Y313250D02*X145350Y312500D01*
X100250Y318500D02*X101000Y317750D01*
X98750Y318500D02*X100250D01*
X98000Y317750D02*X98750Y318500D01*
X98000Y317750D02*Y313250D01*
X98750Y312500D01*
X100250Y315500D02*X101000Y314750D01*
X98000Y315500D02*X100250D01*
X98750Y312500D02*X100250D01*
X101000Y313250D01*
Y314750D02*Y313250D01*
X102800D02*X103550Y312500D01*
X102800Y314750D02*Y313250D01*
Y314750D02*X103550Y315500D01*
X105050D01*
X105800Y314750D01*
Y313250D01*
X105050Y312500D02*X105800Y313250D01*
X103550Y312500D02*X105050D01*
X102800Y316250D02*X103550Y315500D01*
X102800Y317750D02*Y316250D01*
Y317750D02*X103550Y318500D01*
X105050D01*
X105800Y317750D01*
Y316250D01*
X105050Y315500D02*X105800Y316250D01*
X45000Y313250D02*X45750Y312500D01*
X45000Y317750D02*Y313250D01*
Y317750D02*X45750Y318500D01*
X47250D01*
X48000Y317750D01*
Y313250D01*
X47250Y312500D02*X48000Y313250D01*
X45750Y312500D02*X47250D01*
X45000Y314000D02*X48000Y317000D01*
X49800Y312500D02*X50550D01*
X52350Y313250D02*X53100Y312500D01*
X52350Y317750D02*Y313250D01*
Y317750D02*X53100Y318500D01*
X54600D01*
X55350Y317750D01*
Y313250D01*
X54600Y312500D02*X55350Y313250D01*
X53100Y312500D02*X54600D01*
X52350Y314000D02*X55350Y317000D01*
X57150Y317750D02*X57900Y318500D01*
X60150D01*
X60900Y317750D01*
Y316250D01*
X57150Y312500D02*X60900Y316250D01*
X57150Y312500D02*X60900D01*
X62700Y313250D02*X63450Y312500D01*
X62700Y317750D02*Y313250D01*
Y317750D02*X63450Y318500D01*
X64950D01*
X65700Y317750D01*
Y313250D01*
X64950Y312500D02*X65700Y313250D01*
X63450Y312500D02*X64950D01*
X62700Y314000D02*X65700Y317000D01*
X3000Y333500D02*X3750Y332750D01*
X750Y333500D02*X3000D01*
X0Y332750D02*X750Y333500D01*
X0Y332750D02*Y331250D01*
X750Y330500D01*
X3000D01*
X3750Y329750D01*
Y328250D01*
X3000Y327500D02*X3750Y328250D01*
X750Y327500D02*X3000D01*
X0Y328250D02*X750Y327500D01*
X5550Y330500D02*Y328250D01*
X6300Y327500D01*
X8550Y330500D02*Y326000D01*
X7800Y325250D02*X8550Y326000D01*
X6300Y325250D02*X7800D01*
X5550Y326000D02*X6300Y325250D01*
Y327500D02*X7800D01*
X8550Y328250D01*
X11100Y329750D02*Y327500D01*
Y329750D02*X11850Y330500D01*
X12600D01*
X13350Y329750D01*
Y327500D01*
Y329750D02*X14100Y330500D01*
X14850D01*
X15600Y329750D01*
Y327500D01*
X10350Y330500D02*X11100Y329750D01*
X17400Y333500D02*Y327500D01*
Y328250D02*X18150Y327500D01*
X19650D01*
X20400Y328250D01*
Y329750D02*Y328250D01*
X19650Y330500D02*X20400Y329750D01*
X18150Y330500D02*X19650D01*
X17400Y329750D02*X18150Y330500D01*
X22200Y329750D02*Y328250D01*
Y329750D02*X22950Y330500D01*
X24450D01*
X25200Y329750D01*
Y328250D01*
X24450Y327500D02*X25200Y328250D01*
X22950Y327500D02*X24450D01*
X22200Y328250D02*X22950Y327500D01*
X27000Y333500D02*Y328250D01*
X27750Y327500D01*
X0Y324250D02*X29250D01*
X41750Y333500D02*Y327500D01*
X44000Y333500D02*X44750Y332750D01*
Y328250D01*
X44000Y327500D02*X44750Y328250D01*
X41000Y327500D02*X44000D01*
X41000Y333500D02*X44000D01*
X46550Y332000D02*Y331250D01*
Y329750D02*Y327500D01*
X50300Y330500D02*X51050Y329750D01*
X48800Y330500D02*X50300D01*
X48050Y329750D02*X48800Y330500D01*
X48050Y329750D02*Y328250D01*
X48800Y327500D01*
X51050Y330500D02*Y328250D01*
X51800Y327500D01*
X48800D02*X50300D01*
X51050Y328250D01*
X54350Y329750D02*Y327500D01*
Y329750D02*X55100Y330500D01*
X55850D01*
X56600Y329750D01*
Y327500D01*
Y329750D02*X57350Y330500D01*
X58100D01*
X58850Y329750D01*
Y327500D01*
X53600Y330500D02*X54350Y329750D01*
X60650Y327500D02*X61400D01*
X65900Y328250D02*X66650Y327500D01*
X65900Y332750D02*X66650Y333500D01*
X65900Y332750D02*Y328250D01*
X68450Y333500D02*X69950D01*
X69200D02*Y327500D01*
X68450D02*X69950D01*
X72500Y329750D02*Y327500D01*
Y329750D02*X73250Y330500D01*
X74000D01*
X74750Y329750D01*
Y327500D01*
X71750Y330500D02*X72500Y329750D01*
X77300Y330500D02*X79550D01*
X76550Y329750D02*X77300Y330500D01*
X76550Y329750D02*Y328250D01*
X77300Y327500D01*
X79550D01*
X81350Y333500D02*Y327500D01*
Y329750D02*X82100Y330500D01*
X83600D01*
X84350Y329750D01*
Y327500D01*
X86150Y333500D02*X86900Y332750D01*
Y328250D01*
X86150Y327500D02*X86900Y328250D01*
X41000Y324250D02*X88700D01*
X95750Y327500D02*X98000D01*
X95000Y328250D02*X95750Y327500D01*
X95000Y332750D02*Y328250D01*
Y332750D02*X95750Y333500D01*
X98000D01*
X99800Y329750D02*Y328250D01*
Y329750D02*X100550Y330500D01*
X102050D01*
X102800Y329750D01*
Y328250D01*
X102050Y327500D02*X102800Y328250D01*
X100550Y327500D02*X102050D01*
X99800Y328250D02*X100550Y327500D01*
X104600Y330500D02*Y328250D01*
X105350Y327500D01*
X106850D01*
X107600Y328250D01*
Y330500D02*Y328250D01*
X110150Y329750D02*Y327500D01*
Y329750D02*X110900Y330500D01*
X111650D01*
X112400Y329750D01*
Y327500D01*
X109400Y330500D02*X110150Y329750D01*
X114950Y333500D02*Y328250D01*
X115700Y327500D01*
X114200Y331250D02*X115700D01*
X95000Y324250D02*X117200D01*
X130750Y333500D02*Y327500D01*
X130000Y333500D02*X133000D01*
X133750Y332750D01*
Y331250D01*
X133000Y330500D02*X133750Y331250D01*
X130750Y330500D02*X133000D01*
X135550Y333500D02*Y328250D01*
X136300Y327500D01*
X140050Y330500D02*X140800Y329750D01*
X138550Y330500D02*X140050D01*
X137800Y329750D02*X138550Y330500D01*
X137800Y329750D02*Y328250D01*
X138550Y327500D01*
X140800Y330500D02*Y328250D01*
X141550Y327500D01*
X138550D02*X140050D01*
X140800Y328250D01*
X144100Y333500D02*Y328250D01*
X144850Y327500D01*
X143350Y331250D02*X144850D01*
X147100Y327500D02*X149350D01*
X146350Y328250D02*X147100Y327500D01*
X146350Y329750D02*Y328250D01*
Y329750D02*X147100Y330500D01*
X148600D01*
X149350Y329750D01*
X146350Y329000D02*X149350D01*
Y329750D02*Y329000D01*
X154150Y333500D02*Y327500D01*
X153400D02*X154150Y328250D01*
X151900Y327500D02*X153400D01*
X151150Y328250D02*X151900Y327500D01*
X151150Y329750D02*Y328250D01*
Y329750D02*X151900Y330500D01*
X153400D01*
X154150Y329750D01*
X157450Y330500D02*Y329750D01*
Y328250D02*Y327500D01*
X155950Y332750D02*Y332000D01*
Y332750D02*X156700Y333500D01*
X158200D01*
X158950Y332750D01*
Y332000D01*
X157450Y330500D02*X158950Y332000D01*
X130000Y324250D02*X160750D01*
X0Y348500D02*X3000D01*
X1500D02*Y342500D01*
X4800Y348500D02*Y342500D01*
Y344750D02*X5550Y345500D01*
X7050D01*
X7800Y344750D01*
Y342500D01*
X10350D02*X12600D01*
X9600Y343250D02*X10350Y342500D01*
X9600Y344750D02*Y343250D01*
Y344750D02*X10350Y345500D01*
X11850D01*
X12600Y344750D01*
X9600Y344000D02*X12600D01*
Y344750D02*Y344000D01*
X15150Y344750D02*Y342500D01*
Y344750D02*X15900Y345500D01*
X17400D01*
X14400D02*X15150Y344750D01*
X19950Y342500D02*X22200D01*
X19200Y343250D02*X19950Y342500D01*
X19200Y344750D02*Y343250D01*
Y344750D02*X19950Y345500D01*
X21450D01*
X22200Y344750D01*
X19200Y344000D02*X22200D01*
Y344750D02*Y344000D01*
X28950Y345500D02*X29700Y344750D01*
X27450Y345500D02*X28950D01*
X26700Y344750D02*X27450Y345500D01*
X26700Y344750D02*Y343250D01*
X27450Y342500D01*
X29700Y345500D02*Y343250D01*
X30450Y342500D01*
X27450D02*X28950D01*
X29700Y343250D01*
X33000Y344750D02*Y342500D01*
Y344750D02*X33750Y345500D01*
X35250D01*
X32250D02*X33000Y344750D01*
X37800Y342500D02*X40050D01*
X37050Y343250D02*X37800Y342500D01*
X37050Y344750D02*Y343250D01*
Y344750D02*X37800Y345500D01*
X39300D01*
X40050Y344750D01*
X37050Y344000D02*X40050D01*
Y344750D02*Y344000D01*
X44550Y343250D02*X45300Y342500D01*
X44550Y344750D02*Y343250D01*
Y344750D02*X45300Y345500D01*
X46800D01*
X47550Y344750D01*
Y343250D01*
X46800Y342500D02*X47550Y343250D01*
X45300Y342500D02*X46800D01*
X44550Y346250D02*X45300Y345500D01*
X44550Y347750D02*Y346250D01*
Y347750D02*X45300Y348500D01*
X46800D01*
X47550Y347750D01*
Y346250D01*
X46800Y345500D02*X47550Y346250D01*
X55050Y348500D02*Y342500D01*
X54300D02*X55050Y343250D01*
X52800Y342500D02*X54300D01*
X52050Y343250D02*X52800Y342500D01*
X52050Y344750D02*Y343250D01*
Y344750D02*X52800Y345500D01*
X54300D01*
X55050Y344750D01*
X56850Y347000D02*Y346250D01*
Y344750D02*Y342500D01*
X59100Y347750D02*Y342500D01*
Y347750D02*X59850Y348500D01*
X60600D01*
X58350Y345500D02*X59850D01*
X62850Y347750D02*Y342500D01*
Y347750D02*X63600Y348500D01*
X64350D01*
X62100Y345500D02*X63600D01*
X66600Y342500D02*X68850D01*
X65850Y343250D02*X66600Y342500D01*
X65850Y344750D02*Y343250D01*
Y344750D02*X66600Y345500D01*
X68100D01*
X68850Y344750D01*
X65850Y344000D02*X68850D01*
Y344750D02*Y344000D01*
X71400Y344750D02*Y342500D01*
Y344750D02*X72150Y345500D01*
X73650D01*
X70650D02*X71400Y344750D01*
X76200Y342500D02*X78450D01*
X75450Y343250D02*X76200Y342500D01*
X75450Y344750D02*Y343250D01*
Y344750D02*X76200Y345500D01*
X77700D01*
X78450Y344750D01*
X75450Y344000D02*X78450D01*
Y344750D02*Y344000D01*
X81000Y344750D02*Y342500D01*
Y344750D02*X81750Y345500D01*
X82500D01*
X83250Y344750D01*
Y342500D01*
X80250Y345500D02*X81000Y344750D01*
X85800Y348500D02*Y343250D01*
X86550Y342500D01*
X85050Y346250D02*X86550D01*
X93750Y348500D02*Y342500D01*
X93000D02*X93750Y343250D01*
X91500Y342500D02*X93000D01*
X90750Y343250D02*X91500Y342500D01*
X90750Y344750D02*Y343250D01*
Y344750D02*X91500Y345500D01*
X93000D01*
X93750Y344750D01*
X96300D02*Y342500D01*
Y344750D02*X97050Y345500D01*
X98550D01*
X95550D02*X96300Y344750D01*
X100350Y347000D02*Y346250D01*
Y344750D02*Y342500D01*
X101850Y348500D02*Y343250D01*
X102600Y342500D01*
X104100Y348500D02*Y343250D01*
X104850Y342500D01*
X109800D02*X112050D01*
X112800Y343250D01*
X112050Y344000D02*X112800Y343250D01*
X109800Y344000D02*X112050D01*
X109050Y344750D02*X109800Y344000D01*
X109050Y344750D02*X109800Y345500D01*
X112050D01*
X112800Y344750D01*
X109050Y343250D02*X109800Y342500D01*
X114600Y347000D02*Y346250D01*
Y344750D02*Y342500D01*
X116100Y345500D02*X119100D01*
X116100Y342500D02*X119100Y345500D01*
X116100Y342500D02*X119100D01*
X121650D02*X123900D01*
X120900Y343250D02*X121650Y342500D01*
X120900Y344750D02*Y343250D01*
Y344750D02*X121650Y345500D01*
X123150D01*
X123900Y344750D01*
X120900Y344000D02*X123900D01*
Y344750D02*Y344000D01*
X126450Y342500D02*X128700D01*
X129450Y343250D01*
X128700Y344000D02*X129450Y343250D01*
X126450Y344000D02*X128700D01*
X125700Y344750D02*X126450Y344000D01*
X125700Y344750D02*X126450Y345500D01*
X128700D01*
X129450Y344750D01*
X125700Y343250D02*X126450Y342500D01*
X133950Y345500D02*Y343250D01*
X134700Y342500D01*
X136200D01*
X136950Y343250D01*
Y345500D02*Y343250D01*
X139500Y342500D02*X141750D01*
X142500Y343250D01*
X141750Y344000D02*X142500Y343250D01*
X139500Y344000D02*X141750D01*
X138750Y344750D02*X139500Y344000D01*
X138750Y344750D02*X139500Y345500D01*
X141750D01*
X142500Y344750D01*
X138750Y343250D02*X139500Y342500D01*
X145050D02*X147300D01*
X144300Y343250D02*X145050Y342500D01*
X144300Y344750D02*Y343250D01*
Y344750D02*X145050Y345500D01*
X146550D01*
X147300Y344750D01*
X144300Y344000D02*X147300D01*
Y344750D02*Y344000D01*
X152100Y348500D02*Y342500D01*
X151350D02*X152100Y343250D01*
X149850Y342500D02*X151350D01*
X149100Y343250D02*X149850Y342500D01*
X149100Y344750D02*Y343250D01*
Y344750D02*X149850Y345500D01*
X151350D01*
X152100Y344750D01*
X156600Y347000D02*Y346250D01*
Y344750D02*Y342500D01*
X158850Y344750D02*Y342500D01*
Y344750D02*X159600Y345500D01*
X160350D01*
X161100Y344750D01*
Y342500D01*
X158100Y345500D02*X158850Y344750D01*
X166350Y348500D02*Y343250D01*
X167100Y342500D01*
X165600Y346250D02*X167100D01*
X168600Y348500D02*Y342500D01*
Y344750D02*X169350Y345500D01*
X170850D01*
X171600Y344750D01*
Y342500D01*
X173400Y347000D02*Y346250D01*
Y344750D02*Y342500D01*
X175650D02*X177900D01*
X178650Y343250D01*
X177900Y344000D02*X178650Y343250D01*
X175650Y344000D02*X177900D01*
X174900Y344750D02*X175650Y344000D01*
X174900Y344750D02*X175650Y345500D01*
X177900D01*
X178650Y344750D01*
X174900Y343250D02*X175650Y342500D01*
X183150Y348500D02*Y343250D01*
X183900Y342500D01*
X187650Y345500D02*X188400Y344750D01*
X186150Y345500D02*X187650D01*
X185400Y344750D02*X186150Y345500D01*
X185400Y344750D02*Y343250D01*
X186150Y342500D01*
X188400Y345500D02*Y343250D01*
X189150Y342500D01*
X186150D02*X187650D01*
X188400Y343250D01*
X190950Y345500D02*Y343250D01*
X191700Y342500D01*
X193950Y345500D02*Y341000D01*
X193200Y340250D02*X193950Y341000D01*
X191700Y340250D02*X193200D01*
X190950Y341000D02*X191700Y340250D01*
Y342500D02*X193200D01*
X193950Y343250D01*
X195750Y344750D02*Y343250D01*
Y344750D02*X196500Y345500D01*
X198000D01*
X198750Y344750D01*
Y343250D01*
X198000Y342500D02*X198750Y343250D01*
X196500Y342500D02*X198000D01*
X195750Y343250D02*X196500Y342500D01*
X200550Y345500D02*Y343250D01*
X201300Y342500D01*
X202800D01*
X203550Y343250D01*
Y345500D02*Y343250D01*
X206100Y348500D02*Y343250D01*
X206850Y342500D01*
X205350Y346250D02*X206850D01*
X208350Y341000D02*X209850Y342500D01*
X215100D02*X216600D01*
X215850Y348500D02*Y342500D01*
X214350Y347000D02*X215850Y348500D01*
X218400Y347750D02*X219150Y348500D01*
X221400D01*
X222150Y347750D01*
Y346250D01*
X218400Y342500D02*X222150Y346250D01*
X218400Y342500D02*X222150D01*
X223950Y347750D02*X224700Y348500D01*
X226200D01*
X226950Y347750D01*
Y343250D01*
X226200Y342500D02*X226950Y343250D01*
X224700Y342500D02*X226200D01*
X223950Y343250D02*X224700Y342500D01*
Y345500D02*X226950D01*
X231450Y348500D02*Y342500D01*
Y344750D02*X232200Y345500D01*
X233700D01*
X234450Y344750D01*
Y342500D01*
X236250Y344750D02*Y343250D01*
Y344750D02*X237000Y345500D01*
X238500D01*
X239250Y344750D01*
Y343250D01*
X238500Y342500D02*X239250Y343250D01*
X237000Y342500D02*X238500D01*
X236250Y343250D02*X237000Y342500D01*
X241050Y348500D02*Y343250D01*
X241800Y342500D01*
X244050D02*X246300D01*
X243300Y343250D02*X244050Y342500D01*
X243300Y344750D02*Y343250D01*
Y344750D02*X244050Y345500D01*
X245550D01*
X246300Y344750D01*
X243300Y344000D02*X246300D01*
Y344750D02*Y344000D01*
X248850Y342500D02*X251100D01*
X251850Y343250D01*
X251100Y344000D02*X251850Y343250D01*
X248850Y344000D02*X251100D01*
X248100Y344750D02*X248850Y344000D01*
X248100Y344750D02*X248850Y345500D01*
X251100D01*
X251850Y344750D01*
X248100Y343250D02*X248850Y342500D01*
X257100Y348500D02*Y343250D01*
X257850Y342500D01*
X256350Y346250D02*X257850D01*
X259350Y344750D02*Y343250D01*
Y344750D02*X260100Y345500D01*
X261600D01*
X262350Y344750D01*
Y343250D01*
X261600Y342500D02*X262350Y343250D01*
X260100Y342500D02*X261600D01*
X259350Y343250D02*X260100Y342500D01*
X264900Y348500D02*Y343250D01*
X265650Y342500D01*
X264150Y346250D02*X265650D01*
X269400Y345500D02*X270150Y344750D01*
X267900Y345500D02*X269400D01*
X267150Y344750D02*X267900Y345500D01*
X267150Y344750D02*Y343250D01*
X267900Y342500D01*
X270150Y345500D02*Y343250D01*
X270900Y342500D01*
X267900D02*X269400D01*
X270150Y343250D01*
X272700Y348500D02*Y343250D01*
X273450Y342500D01*
G54D99*X0Y200000D02*X300000D01*
X0D02*Y0D01*
X300000Y200000D02*Y0D01*
X0D02*X300000D01*
G54D98*X200000Y213500D02*Y207500D01*
Y213500D02*X202250Y211250D01*
X204500Y213500D01*
Y207500D01*
X208550Y210500D02*X209300Y209750D01*
X207050Y210500D02*X208550D01*
X206300Y209750D02*X207050Y210500D01*
X206300Y209750D02*Y208250D01*
X207050Y207500D01*
X209300Y210500D02*Y208250D01*
X210050Y207500D01*
X207050D02*X208550D01*
X209300Y208250D01*
X211850Y210500D02*X214850Y207500D01*
X211850D02*X214850Y210500D01*
X216650Y212000D02*Y211250D01*
Y209750D02*Y207500D01*
X218900Y209750D02*Y207500D01*
Y209750D02*X219650Y210500D01*
X220400D01*
X221150Y209750D01*
Y207500D01*
Y209750D02*X221900Y210500D01*
X222650D01*
X223400Y209750D01*
Y207500D01*
X218150Y210500D02*X218900Y209750D01*
X225200Y210500D02*Y208250D01*
X225950Y207500D01*
X227450D01*
X228200Y208250D01*
Y210500D02*Y208250D01*
X230750Y209750D02*Y207500D01*
Y209750D02*X231500Y210500D01*
X232250D01*
X233000Y209750D01*
Y207500D01*
Y209750D02*X233750Y210500D01*
X234500D01*
X235250Y209750D01*
Y207500D01*
X230000Y210500D02*X230750Y209750D01*
X240500Y213500D02*Y207500D01*
X242750Y213500D02*X243500Y212750D01*
Y208250D01*
X242750Y207500D02*X243500Y208250D01*
X239750Y207500D02*X242750D01*
X239750Y213500D02*X242750D01*
X245300Y212000D02*Y211250D01*
Y209750D02*Y207500D01*
X247550Y209750D02*Y207500D01*
Y209750D02*X248300Y210500D01*
X249050D01*
X249800Y209750D01*
Y207500D01*
Y209750D02*X250550Y210500D01*
X251300D01*
X252050Y209750D01*
Y207500D01*
X246800Y210500D02*X247550Y209750D01*
X254600Y207500D02*X256850D01*
X253850Y208250D02*X254600Y207500D01*
X253850Y209750D02*Y208250D01*
Y209750D02*X254600Y210500D01*
X256100D01*
X256850Y209750D01*
X253850Y209000D02*X256850D01*
Y209750D02*Y209000D01*
X259400Y209750D02*Y207500D01*
Y209750D02*X260150Y210500D01*
X260900D01*
X261650Y209750D01*
Y207500D01*
X258650Y210500D02*X259400Y209750D01*
X264200Y207500D02*X266450D01*
X267200Y208250D01*
X266450Y209000D02*X267200Y208250D01*
X264200Y209000D02*X266450D01*
X263450Y209750D02*X264200Y209000D01*
X263450Y209750D02*X264200Y210500D01*
X266450D01*
X267200Y209750D01*
X263450Y208250D02*X264200Y207500D01*
X269000Y212000D02*Y211250D01*
Y209750D02*Y207500D01*
X270500Y209750D02*Y208250D01*
Y209750D02*X271250Y210500D01*
X272750D01*
X273500Y209750D01*
Y208250D01*
X272750Y207500D02*X273500Y208250D01*
X271250Y207500D02*X272750D01*
X270500Y208250D02*X271250Y207500D01*
X276050Y209750D02*Y207500D01*
Y209750D02*X276800Y210500D01*
X277550D01*
X278300Y209750D01*
Y207500D01*
X275300Y210500D02*X276050Y209750D01*
X280850Y207500D02*X283100D01*
X283850Y208250D01*
X283100Y209000D02*X283850Y208250D01*
X280850Y209000D02*X283100D01*
X280100Y209750D02*X280850Y209000D01*
X280100Y209750D02*X280850Y210500D01*
X283100D01*
X283850Y209750D01*
X280100Y208250D02*X280850Y207500D01*
X285650Y211250D02*X286400D01*
X285650Y209750D02*X286400D01*
X290900Y212750D02*X291650Y213500D01*
X293150D01*
X293900Y212750D01*
Y208250D01*
X293150Y207500D02*X293900Y208250D01*
X291650Y207500D02*X293150D01*
X290900Y208250D02*X291650Y207500D01*
Y210500D02*X293900D01*
X295700Y208250D02*X296450Y207500D01*
X295700Y212750D02*Y208250D01*
Y212750D02*X296450Y213500D01*
X297950D01*
X298700Y212750D01*
Y208250D01*
X297950Y207500D02*X298700Y208250D01*
X296450Y207500D02*X297950D01*
X295700Y209000D02*X298700Y212000D01*
X300500Y208250D02*X301250Y207500D01*
X300500Y212750D02*Y208250D01*
Y212750D02*X301250Y213500D01*
X302750D01*
X303500Y212750D01*
Y208250D01*
X302750Y207500D02*X303500Y208250D01*
X301250Y207500D02*X302750D01*
X300500Y209000D02*X303500Y212000D01*
X305300Y208250D02*X306050Y207500D01*
X305300Y212750D02*Y208250D01*
Y212750D02*X306050Y213500D01*
X307550D01*
X308300Y212750D01*
Y208250D01*
X307550Y207500D02*X308300Y208250D01*
X306050Y207500D02*X307550D01*
X305300Y209000D02*X308300Y212000D01*
X310100Y207500D02*X310850D01*
X312650Y208250D02*X313400Y207500D01*
X312650Y212750D02*Y208250D01*
Y212750D02*X313400Y213500D01*
X314900D01*
X315650Y212750D01*
Y208250D01*
X314900Y207500D02*X315650Y208250D01*
X313400Y207500D02*X314900D01*
X312650Y209000D02*X315650Y212000D01*
X317450Y208250D02*X318200Y207500D01*
X317450Y212750D02*Y208250D01*
Y212750D02*X318200Y213500D01*
X319700D01*
X320450Y212750D01*
Y208250D01*
X319700Y207500D02*X320450Y208250D01*
X318200Y207500D02*X319700D01*
X317450Y209000D02*X320450Y212000D01*
X322250Y208250D02*X323000Y207500D01*
X322250Y212750D02*Y208250D01*
Y212750D02*X323000Y213500D01*
X324500D01*
X325250Y212750D01*
Y208250D01*
X324500Y207500D02*X325250Y208250D01*
X323000Y207500D02*X324500D01*
X322250Y209000D02*X325250Y212000D01*
X327050Y208250D02*X327800Y207500D01*
X327050Y212750D02*Y208250D01*
Y212750D02*X327800Y213500D01*
X329300D01*
X330050Y212750D01*
Y208250D01*
X329300Y207500D02*X330050Y208250D01*
X327800Y207500D02*X329300D01*
X327050Y209000D02*X330050Y212000D01*
X331850Y208250D02*X332600Y207500D01*
X331850Y212750D02*Y208250D01*
Y212750D02*X332600Y213500D01*
X334100D01*
X334850Y212750D01*
Y208250D01*
X334100Y207500D02*X334850Y208250D01*
X332600Y207500D02*X334100D01*
X331850Y209000D02*X334850Y212000D01*
X336650Y208250D02*X337400Y207500D01*
X336650Y212750D02*Y208250D01*
Y212750D02*X337400Y213500D01*
X338900D01*
X339650Y212750D01*
Y208250D01*
X338900Y207500D02*X339650Y208250D01*
X337400Y207500D02*X338900D01*
X336650Y209000D02*X339650Y212000D01*
X344900Y209750D02*Y207500D01*
Y209750D02*X345650Y210500D01*
X346400D01*
X347150Y209750D01*
Y207500D01*
Y209750D02*X347900Y210500D01*
X348650D01*
X349400Y209750D01*
Y207500D01*
X344150Y210500D02*X344900Y209750D01*
X351200Y212000D02*Y211250D01*
Y209750D02*Y207500D01*
X352700Y213500D02*Y208250D01*
X353450Y207500D01*
X355700D02*X357950D01*
X358700Y208250D01*
X357950Y209000D02*X358700Y208250D01*
X355700Y209000D02*X357950D01*
X354950Y209750D02*X355700Y209000D01*
X354950Y209750D02*X355700Y210500D01*
X357950D01*
X358700Y209750D01*
X354950Y208250D02*X355700Y207500D01*
X363200Y210500D02*Y208250D01*
X363950Y207500D01*
X364700D01*
X365450Y208250D01*
Y210500D02*Y208250D01*
X366200Y207500D01*
X366950D01*
X367700Y208250D01*
Y210500D02*Y208250D01*
X369500Y212000D02*Y211250D01*
Y209750D02*Y207500D01*
X374000Y213500D02*Y207500D01*
X373250D02*X374000Y208250D01*
X371750Y207500D02*X373250D01*
X371000Y208250D02*X371750Y207500D01*
X371000Y209750D02*Y208250D01*
Y209750D02*X371750Y210500D01*
X373250D01*
X374000Y209750D01*
X376550Y207500D02*X378800D01*
X375800Y208250D02*X376550Y207500D01*
X375800Y209750D02*Y208250D01*
Y209750D02*X376550Y210500D01*
X378050D01*
X378800Y209750D01*
X375800Y209000D02*X378800D01*
Y209750D02*Y209000D01*
X380600Y206000D02*X382100Y207500D01*
X386600Y212750D02*X387350Y213500D01*
X389600D01*
X390350Y212750D01*
Y211250D01*
X386600Y207500D02*X390350Y211250D01*
X386600Y207500D02*X390350D01*
X392150Y208250D02*X392900Y207500D01*
X392150Y212750D02*Y208250D01*
Y212750D02*X392900Y213500D01*
X394400D01*
X395150Y212750D01*
Y208250D01*
X394400Y207500D02*X395150Y208250D01*
X392900Y207500D02*X394400D01*
X392150Y209000D02*X395150Y212000D01*
X396950Y208250D02*X397700Y207500D01*
X396950Y212750D02*Y208250D01*
Y212750D02*X397700Y213500D01*
X399200D01*
X399950Y212750D01*
Y208250D01*
X399200Y207500D02*X399950Y208250D01*
X397700Y207500D02*X399200D01*
X396950Y209000D02*X399950Y212000D01*
X401750Y208250D02*X402500Y207500D01*
X401750Y212750D02*Y208250D01*
Y212750D02*X402500Y213500D01*
X404000D01*
X404750Y212750D01*
Y208250D01*
X404000Y207500D02*X404750Y208250D01*
X402500Y207500D02*X404000D01*
X401750Y209000D02*X404750Y212000D01*
X406550Y207500D02*X407300D01*
X409100Y208250D02*X409850Y207500D01*
X409100Y212750D02*Y208250D01*
Y212750D02*X409850Y213500D01*
X411350D01*
X412100Y212750D01*
Y208250D01*
X411350Y207500D02*X412100Y208250D01*
X409850Y207500D02*X411350D01*
X409100Y209000D02*X412100Y212000D01*
X413900Y208250D02*X414650Y207500D01*
X413900Y212750D02*Y208250D01*
Y212750D02*X414650Y213500D01*
X416150D01*
X416900Y212750D01*
Y208250D01*
X416150Y207500D02*X416900Y208250D01*
X414650Y207500D02*X416150D01*
X413900Y209000D02*X416900Y212000D01*
X418700Y208250D02*X419450Y207500D01*
X418700Y212750D02*Y208250D01*
Y212750D02*X419450Y213500D01*
X420950D01*
X421700Y212750D01*
Y208250D01*
X420950Y207500D02*X421700Y208250D01*
X419450Y207500D02*X420950D01*
X418700Y209000D02*X421700Y212000D01*
X423500Y208250D02*X424250Y207500D01*
X423500Y212750D02*Y208250D01*
Y212750D02*X424250Y213500D01*
X425750D01*
X426500Y212750D01*
Y208250D01*
X425750Y207500D02*X426500Y208250D01*
X424250Y207500D02*X425750D01*
X423500Y209000D02*X426500Y212000D01*
X428300Y208250D02*X429050Y207500D01*
X428300Y212750D02*Y208250D01*
Y212750D02*X429050Y213500D01*
X430550D01*
X431300Y212750D01*
Y208250D01*
X430550Y207500D02*X431300Y208250D01*
X429050Y207500D02*X430550D01*
X428300Y209000D02*X431300Y212000D01*
X433100Y208250D02*X433850Y207500D01*
X433100Y212750D02*Y208250D01*
Y212750D02*X433850Y213500D01*
X435350D01*
X436100Y212750D01*
Y208250D01*
X435350Y207500D02*X436100Y208250D01*
X433850Y207500D02*X435350D01*
X433100Y209000D02*X436100Y212000D01*
X441350Y209750D02*Y207500D01*
Y209750D02*X442100Y210500D01*
X442850D01*
X443600Y209750D01*
Y207500D01*
Y209750D02*X444350Y210500D01*
X445100D01*
X445850Y209750D01*
Y207500D01*
X440600Y210500D02*X441350Y209750D01*
X447650Y212000D02*Y211250D01*
Y209750D02*Y207500D01*
X449150Y213500D02*Y208250D01*
X449900Y207500D01*
X452150D02*X454400D01*
X455150Y208250D01*
X454400Y209000D02*X455150Y208250D01*
X452150Y209000D02*X454400D01*
X451400Y209750D02*X452150Y209000D01*
X451400Y209750D02*X452150Y210500D01*
X454400D01*
X455150Y209750D01*
X451400Y208250D02*X452150Y207500D01*
X459650Y213500D02*Y207500D01*
Y209750D02*X460400Y210500D01*
X461900D01*
X462650Y209750D01*
Y207500D01*
X464450Y212000D02*Y211250D01*
Y209750D02*Y207500D01*
X468200Y210500D02*X468950Y209750D01*
X466700Y210500D02*X468200D01*
X465950Y209750D02*X466700Y210500D01*
X465950Y209750D02*Y208250D01*
X466700Y207500D01*
X468200D01*
X468950Y208250D01*
X465950Y206000D02*X466700Y205250D01*
X468200D01*
X468950Y206000D01*
Y210500D02*Y206000D01*
X470750Y213500D02*Y207500D01*
Y209750D02*X471500Y210500D01*
X473000D01*
X473750Y209750D01*
Y207500D01*
X0Y-9500D02*X3000D01*
X3750Y-8750D01*
Y-7250D02*Y-8750D01*
X3000Y-6500D02*X3750Y-7250D01*
X750Y-6500D02*X3000D01*
X750Y-3500D02*Y-9500D01*
X0Y-3500D02*X3000D01*
X3750Y-4250D01*
Y-5750D01*
X3000Y-6500D02*X3750Y-5750D01*
X5550Y-7250D02*Y-8750D01*
Y-7250D02*X6300Y-6500D01*
X7800D01*
X8550Y-7250D01*
Y-8750D01*
X7800Y-9500D02*X8550Y-8750D01*
X6300Y-9500D02*X7800D01*
X5550Y-8750D02*X6300Y-9500D01*
X12600Y-6500D02*X13350Y-7250D01*
X11100Y-6500D02*X12600D01*
X10350Y-7250D02*X11100Y-6500D01*
X10350Y-7250D02*Y-8750D01*
X11100Y-9500D01*
X13350Y-6500D02*Y-8750D01*
X14100Y-9500D01*
X11100D02*X12600D01*
X13350Y-8750D01*
X16650Y-7250D02*Y-9500D01*
Y-7250D02*X17400Y-6500D01*
X18900D01*
X15900D02*X16650Y-7250D01*
X23700Y-3500D02*Y-9500D01*
X22950D02*X23700Y-8750D01*
X21450Y-9500D02*X22950D01*
X20700Y-8750D02*X21450Y-9500D01*
X20700Y-7250D02*Y-8750D01*
Y-7250D02*X21450Y-6500D01*
X22950D01*
X23700Y-7250D01*
X28200D02*Y-8750D01*
Y-7250D02*X28950Y-6500D01*
X30450D01*
X31200Y-7250D01*
Y-8750D01*
X30450Y-9500D02*X31200Y-8750D01*
X28950Y-9500D02*X30450D01*
X28200Y-8750D02*X28950Y-9500D01*
X33000Y-6500D02*Y-8750D01*
X33750Y-9500D01*
X35250D01*
X36000Y-8750D01*
Y-6500D02*Y-8750D01*
X38550Y-3500D02*Y-8750D01*
X39300Y-9500D01*
X37800Y-5750D02*X39300D01*
X40800Y-3500D02*Y-8750D01*
X41550Y-9500D01*
X43050Y-5000D02*Y-5750D01*
Y-7250D02*Y-9500D01*
X45300Y-7250D02*Y-9500D01*
Y-7250D02*X46050Y-6500D01*
X46800D01*
X47550Y-7250D01*
Y-9500D01*
X44550Y-6500D02*X45300Y-7250D01*
X50100Y-9500D02*X52350D01*
X49350Y-8750D02*X50100Y-9500D01*
X49350Y-7250D02*Y-8750D01*
Y-7250D02*X50100Y-6500D01*
X51600D01*
X52350Y-7250D01*
X49350Y-8000D02*X52350D01*
Y-7250D02*Y-8000D01*
X56850Y-5000D02*Y-5750D01*
Y-7250D02*Y-9500D01*
X59100D02*X61350D01*
X62100Y-8750D01*
X61350Y-8000D02*X62100Y-8750D01*
X59100Y-8000D02*X61350D01*
X58350Y-7250D02*X59100Y-8000D01*
X58350Y-7250D02*X59100Y-6500D01*
X61350D01*
X62100Y-7250D01*
X58350Y-8750D02*X59100Y-9500D01*
X67350Y-3500D02*Y-8750D01*
X68100Y-9500D01*
X66600Y-5750D02*X68100D01*
X69600Y-3500D02*Y-9500D01*
Y-7250D02*X70350Y-6500D01*
X71850D01*
X72600Y-7250D01*
Y-9500D01*
X75150D02*X77400D01*
X74400Y-8750D02*X75150Y-9500D01*
X74400Y-7250D02*Y-8750D01*
Y-7250D02*X75150Y-6500D01*
X76650D01*
X77400Y-7250D01*
X74400Y-8000D02*X77400D01*
Y-7250D02*Y-8000D01*
X82650Y-6500D02*X84900D01*
X81900Y-7250D02*X82650Y-6500D01*
X81900Y-7250D02*Y-8750D01*
X82650Y-9500D01*
X84900D01*
X87450D02*X89700D01*
X86700Y-8750D02*X87450Y-9500D01*
X86700Y-7250D02*Y-8750D01*
Y-7250D02*X87450Y-6500D01*
X88950D01*
X89700Y-7250D01*
X86700Y-8000D02*X89700D01*
Y-7250D02*Y-8000D01*
X92250Y-7250D02*Y-9500D01*
Y-7250D02*X93000Y-6500D01*
X93750D01*
X94500Y-7250D01*
Y-9500D01*
X91500Y-6500D02*X92250Y-7250D01*
X97050Y-3500D02*Y-8750D01*
X97800Y-9500D01*
X96300Y-5750D02*X97800D01*
X100050Y-9500D02*X102300D01*
X99300Y-8750D02*X100050Y-9500D01*
X99300Y-7250D02*Y-8750D01*
Y-7250D02*X100050Y-6500D01*
X101550D01*
X102300Y-7250D01*
X99300Y-8000D02*X102300D01*
Y-7250D02*Y-8000D01*
X104850Y-7250D02*Y-9500D01*
Y-7250D02*X105600Y-6500D01*
X107100D01*
X104100D02*X104850Y-7250D01*
X108900Y-3500D02*Y-8750D01*
X109650Y-9500D01*
X111150Y-5000D02*Y-5750D01*
Y-7250D02*Y-9500D01*
X113400Y-7250D02*Y-9500D01*
Y-7250D02*X114150Y-6500D01*
X114900D01*
X115650Y-7250D01*
Y-9500D01*
X112650Y-6500D02*X113400Y-7250D01*
X118200Y-9500D02*X120450D01*
X117450Y-8750D02*X118200Y-9500D01*
X117450Y-7250D02*Y-8750D01*
Y-7250D02*X118200Y-6500D01*
X119700D01*
X120450Y-7250D01*
X117450Y-8000D02*X120450D01*
Y-7250D02*Y-8000D01*
X124950Y-7250D02*Y-8750D01*
Y-7250D02*X125700Y-6500D01*
X127200D01*
X127950Y-7250D01*
Y-8750D01*
X127200Y-9500D02*X127950Y-8750D01*
X125700Y-9500D02*X127200D01*
X124950Y-8750D02*X125700Y-9500D01*
X130500Y-4250D02*Y-9500D01*
Y-4250D02*X131250Y-3500D01*
X132000D01*
X129750Y-6500D02*X131250D01*
X136950Y-3500D02*Y-8750D01*
X137700Y-9500D01*
X136200Y-5750D02*X137700D01*
X139200Y-3500D02*Y-9500D01*
Y-7250D02*X139950Y-6500D01*
X141450D01*
X142200Y-7250D01*
Y-9500D01*
X144000Y-5000D02*Y-5750D01*
Y-7250D02*Y-9500D01*
X146250D02*X148500D01*
X149250Y-8750D01*
X148500Y-8000D02*X149250Y-8750D01*
X146250Y-8000D02*X148500D01*
X145500Y-7250D02*X146250Y-8000D01*
X145500Y-7250D02*X146250Y-6500D01*
X148500D01*
X149250Y-7250D01*
X145500Y-8750D02*X146250Y-9500D01*
X153750Y-8750D02*X154500Y-9500D01*
X153750Y-7250D02*Y-8750D01*
Y-7250D02*X154500Y-6500D01*
X156000D01*
X156750Y-7250D01*
Y-8750D01*
X156000Y-9500D02*X156750Y-8750D01*
X154500Y-9500D02*X156000D01*
X153750Y-5750D02*X154500Y-6500D01*
X153750Y-4250D02*Y-5750D01*
Y-4250D02*X154500Y-3500D01*
X156000D01*
X156750Y-4250D01*
Y-5750D01*
X156000Y-6500D02*X156750Y-5750D01*
X158550Y-9500D02*X159300D01*
X161100Y-8750D02*X161850Y-9500D01*
X161100Y-4250D02*Y-8750D01*
Y-4250D02*X161850Y-3500D01*
X163350D01*
X164100Y-4250D01*
Y-8750D01*
X163350Y-9500D02*X164100Y-8750D01*
X161850Y-9500D02*X163350D01*
X161100Y-8000D02*X164100Y-5000D01*
X165900Y-8750D02*X166650Y-9500D01*
X165900Y-4250D02*Y-8750D01*
Y-4250D02*X166650Y-3500D01*
X168150D01*
X168900Y-4250D01*
Y-8750D01*
X168150Y-9500D02*X168900Y-8750D01*
X166650Y-9500D02*X168150D01*
X165900Y-8000D02*X168900Y-5000D01*
X170700Y-8750D02*X171450Y-9500D01*
X170700Y-4250D02*Y-8750D01*
Y-4250D02*X171450Y-3500D01*
X172950D01*
X173700Y-4250D01*
Y-8750D01*
X172950Y-9500D02*X173700Y-8750D01*
X171450Y-9500D02*X172950D01*
X170700Y-8000D02*X173700Y-5000D01*
X175500Y-8750D02*X176250Y-9500D01*
X175500Y-4250D02*Y-8750D01*
Y-4250D02*X176250Y-3500D01*
X177750D01*
X178500Y-4250D01*
Y-8750D01*
X177750Y-9500D02*X178500Y-8750D01*
X176250Y-9500D02*X177750D01*
X175500Y-8000D02*X178500Y-5000D01*
X180300Y-8750D02*X181050Y-9500D01*
X180300Y-4250D02*Y-8750D01*
Y-4250D02*X181050Y-3500D01*
X182550D01*
X183300Y-4250D01*
Y-8750D01*
X182550Y-9500D02*X183300Y-8750D01*
X181050Y-9500D02*X182550D01*
X180300Y-8000D02*X183300Y-5000D01*
X185100Y-8750D02*X185850Y-9500D01*
X185100Y-4250D02*Y-8750D01*
Y-4250D02*X185850Y-3500D01*
X187350D01*
X188100Y-4250D01*
Y-8750D01*
X187350Y-9500D02*X188100Y-8750D01*
X185850Y-9500D02*X187350D01*
X185100Y-8000D02*X188100Y-5000D01*
X193350Y-7250D02*Y-9500D01*
Y-7250D02*X194100Y-6500D01*
X194850D01*
X195600Y-7250D01*
Y-9500D01*
Y-7250D02*X196350Y-6500D01*
X197100D01*
X197850Y-7250D01*
Y-9500D01*
X192600Y-6500D02*X193350Y-7250D01*
X199650Y-5000D02*Y-5750D01*
Y-7250D02*Y-9500D01*
X201150Y-3500D02*Y-8750D01*
X201900Y-9500D01*
X206850Y-7250D02*Y-9500D01*
Y-7250D02*X207600Y-6500D01*
X209100D01*
X206100D02*X206850Y-7250D01*
X211650Y-9500D02*X213900D01*
X210900Y-8750D02*X211650Y-9500D01*
X210900Y-7250D02*Y-8750D01*
Y-7250D02*X211650Y-6500D01*
X213150D01*
X213900Y-7250D01*
X210900Y-8000D02*X213900D01*
Y-7250D02*Y-8000D01*
X216450Y-6500D02*X218700D01*
X215700Y-7250D02*X216450Y-6500D01*
X215700Y-7250D02*Y-8750D01*
X216450Y-9500D01*
X218700D01*
X221250Y-3500D02*Y-8750D01*
X222000Y-9500D01*
X220500Y-5750D02*X222000D01*
X225750Y-6500D02*X226500Y-7250D01*
X224250Y-6500D02*X225750D01*
X223500Y-7250D02*X224250Y-6500D01*
X223500Y-7250D02*Y-8750D01*
X224250Y-9500D01*
X226500Y-6500D02*Y-8750D01*
X227250Y-9500D01*
X224250D02*X225750D01*
X226500Y-8750D01*
X229800Y-7250D02*Y-9500D01*
Y-7250D02*X230550Y-6500D01*
X231300D01*
X232050Y-7250D01*
Y-9500D01*
X229050Y-6500D02*X229800Y-7250D01*
X236100Y-6500D02*X236850Y-7250D01*
X234600Y-6500D02*X236100D01*
X233850Y-7250D02*X234600Y-6500D01*
X233850Y-7250D02*Y-8750D01*
X234600Y-9500D01*
X236100D01*
X236850Y-8750D01*
X233850Y-11000D02*X234600Y-11750D01*
X236100D01*
X236850Y-11000D01*
Y-6500D02*Y-11000D01*
X238650Y-3500D02*Y-8750D01*
X239400Y-9500D01*
X241650D02*X243900D01*
X240900Y-8750D02*X241650Y-9500D01*
X240900Y-7250D02*Y-8750D01*
Y-7250D02*X241650Y-6500D01*
X243150D01*
X243900Y-7250D01*
X240900Y-8000D02*X243900D01*
Y-7250D02*Y-8000D01*
X248400Y-6500D02*X251400D01*
X255900Y-8750D02*X256650Y-9500D01*
X255900Y-4250D02*Y-8750D01*
Y-4250D02*X256650Y-3500D01*
X258150D01*
X258900Y-4250D01*
Y-8750D01*
X258150Y-9500D02*X258900Y-8750D01*
X256650Y-9500D02*X258150D01*
X255900Y-8000D02*X258900Y-5000D01*
X260700Y-11000D02*X262200Y-9500D01*
X264000Y-8750D02*X264750Y-9500D01*
X264000Y-4250D02*Y-8750D01*
Y-4250D02*X264750Y-3500D01*
X266250D01*
X267000Y-4250D01*
Y-8750D01*
X266250Y-9500D02*X267000Y-8750D01*
X264750Y-9500D02*X266250D01*
X264000Y-8000D02*X267000Y-5000D01*
X272250Y-3500D02*Y-8750D01*
X273000Y-9500D01*
X271500Y-5750D02*X273000D01*
X274500Y-7250D02*Y-8750D01*
Y-7250D02*X275250Y-6500D01*
X276750D01*
X277500Y-7250D01*
Y-8750D01*
X276750Y-9500D02*X277500Y-8750D01*
X275250Y-9500D02*X276750D01*
X274500Y-8750D02*X275250Y-9500D01*
X282000Y-4250D02*X282750Y-3500D01*
X284250D01*
X285000Y-4250D01*
Y-8750D01*
X284250Y-9500D02*X285000Y-8750D01*
X282750Y-9500D02*X284250D01*
X282000Y-8750D02*X282750Y-9500D01*
Y-6500D02*X285000D01*
X286800Y-8750D02*X287550Y-9500D01*
X286800Y-4250D02*Y-8750D01*
Y-4250D02*X287550Y-3500D01*
X289050D01*
X289800Y-4250D01*
Y-8750D01*
X289050Y-9500D02*X289800Y-8750D01*
X287550Y-9500D02*X289050D01*
X286800Y-8000D02*X289800Y-5000D01*
X291600Y-8750D02*X292350Y-9500D01*
X291600Y-4250D02*Y-8750D01*
Y-4250D02*X292350Y-3500D01*
X293850D01*
X294600Y-4250D01*
Y-8750D01*
X293850Y-9500D02*X294600Y-8750D01*
X292350Y-9500D02*X293850D01*
X291600Y-8000D02*X294600Y-5000D01*
X296400Y-8750D02*X297150Y-9500D01*
X296400Y-4250D02*Y-8750D01*
Y-4250D02*X297150Y-3500D01*
X298650D01*
X299400Y-4250D01*
Y-8750D01*
X298650Y-9500D02*X299400Y-8750D01*
X297150Y-9500D02*X298650D01*
X296400Y-8000D02*X299400Y-5000D01*
X301200Y-9500D02*X301950D01*
X303750Y-8750D02*X304500Y-9500D01*
X303750Y-4250D02*Y-8750D01*
Y-4250D02*X304500Y-3500D01*
X306000D01*
X306750Y-4250D01*
Y-8750D01*
X306000Y-9500D02*X306750Y-8750D01*
X304500Y-9500D02*X306000D01*
X303750Y-8000D02*X306750Y-5000D01*
X308550Y-8750D02*X309300Y-9500D01*
X308550Y-4250D02*Y-8750D01*
Y-4250D02*X309300Y-3500D01*
X310800D01*
X311550Y-4250D01*
Y-8750D01*
X310800Y-9500D02*X311550Y-8750D01*
X309300Y-9500D02*X310800D01*
X308550Y-8000D02*X311550Y-5000D01*
X313350Y-8750D02*X314100Y-9500D01*
X313350Y-4250D02*Y-8750D01*
Y-4250D02*X314100Y-3500D01*
X315600D01*
X316350Y-4250D01*
Y-8750D01*
X315600Y-9500D02*X316350Y-8750D01*
X314100Y-9500D02*X315600D01*
X313350Y-8000D02*X316350Y-5000D01*
X318150Y-8750D02*X318900Y-9500D01*
X318150Y-4250D02*Y-8750D01*
Y-4250D02*X318900Y-3500D01*
X320400D01*
X321150Y-4250D01*
Y-8750D01*
X320400Y-9500D02*X321150Y-8750D01*
X318900Y-9500D02*X320400D01*
X318150Y-8000D02*X321150Y-5000D01*
X322950Y-8750D02*X323700Y-9500D01*
X322950Y-4250D02*Y-8750D01*
Y-4250D02*X323700Y-3500D01*
X325200D01*
X325950Y-4250D01*
Y-8750D01*
X325200Y-9500D02*X325950Y-8750D01*
X323700Y-9500D02*X325200D01*
X322950Y-8000D02*X325950Y-5000D01*
X327750Y-8750D02*X328500Y-9500D01*
X327750Y-4250D02*Y-8750D01*
Y-4250D02*X328500Y-3500D01*
X330000D01*
X330750Y-4250D01*
Y-8750D01*
X330000Y-9500D02*X330750Y-8750D01*
X328500Y-9500D02*X330000D01*
X327750Y-8000D02*X330750Y-5000D01*
X332550Y-11000D02*X334050Y-9500D01*
X335850Y-4250D02*X336600Y-3500D01*
X338850D01*
X339600Y-4250D01*
Y-5750D01*
X335850Y-9500D02*X339600Y-5750D01*
X335850Y-9500D02*X339600D01*
X341400Y-8750D02*X342150Y-9500D01*
X341400Y-4250D02*Y-8750D01*
Y-4250D02*X342150Y-3500D01*
X343650D01*
X344400Y-4250D01*
Y-8750D01*
X343650Y-9500D02*X344400Y-8750D01*
X342150Y-9500D02*X343650D01*
X341400Y-8000D02*X344400Y-5000D01*
X346200Y-8750D02*X346950Y-9500D01*
X346200Y-4250D02*Y-8750D01*
Y-4250D02*X346950Y-3500D01*
X348450D01*
X349200Y-4250D01*
Y-8750D01*
X348450Y-9500D02*X349200Y-8750D01*
X346950Y-9500D02*X348450D01*
X346200Y-8000D02*X349200Y-5000D01*
X351000Y-8750D02*X351750Y-9500D01*
X351000Y-4250D02*Y-8750D01*
Y-4250D02*X351750Y-3500D01*
X353250D01*
X354000Y-4250D01*
Y-8750D01*
X353250Y-9500D02*X354000Y-8750D01*
X351750Y-9500D02*X353250D01*
X351000Y-8000D02*X354000Y-5000D01*
X355800Y-9500D02*X356550D01*
X358350Y-8750D02*X359100Y-9500D01*
X358350Y-4250D02*Y-8750D01*
Y-4250D02*X359100Y-3500D01*
X360600D01*
X361350Y-4250D01*
Y-8750D01*
X360600Y-9500D02*X361350Y-8750D01*
X359100Y-9500D02*X360600D01*
X358350Y-8000D02*X361350Y-5000D01*
X363150Y-8750D02*X363900Y-9500D01*
X363150Y-4250D02*Y-8750D01*
Y-4250D02*X363900Y-3500D01*
X365400D01*
X366150Y-4250D01*
Y-8750D01*
X365400Y-9500D02*X366150Y-8750D01*
X363900Y-9500D02*X365400D01*
X363150Y-8000D02*X366150Y-5000D01*
X367950Y-8750D02*X368700Y-9500D01*
X367950Y-4250D02*Y-8750D01*
Y-4250D02*X368700Y-3500D01*
X370200D01*
X370950Y-4250D01*
Y-8750D01*
X370200Y-9500D02*X370950Y-8750D01*
X368700Y-9500D02*X370200D01*
X367950Y-8000D02*X370950Y-5000D01*
X372750Y-8750D02*X373500Y-9500D01*
X372750Y-4250D02*Y-8750D01*
Y-4250D02*X373500Y-3500D01*
X375000D01*
X375750Y-4250D01*
Y-8750D01*
X375000Y-9500D02*X375750Y-8750D01*
X373500Y-9500D02*X375000D01*
X372750Y-8000D02*X375750Y-5000D01*
X377550Y-8750D02*X378300Y-9500D01*
X377550Y-4250D02*Y-8750D01*
Y-4250D02*X378300Y-3500D01*
X379800D01*
X380550Y-4250D01*
Y-8750D01*
X379800Y-9500D02*X380550Y-8750D01*
X378300Y-9500D02*X379800D01*
X377550Y-8000D02*X380550Y-5000D01*
X382350Y-8750D02*X383100Y-9500D01*
X382350Y-4250D02*Y-8750D01*
Y-4250D02*X383100Y-3500D01*
X384600D01*
X385350Y-4250D01*
Y-8750D01*
X384600Y-9500D02*X385350Y-8750D01*
X383100Y-9500D02*X384600D01*
X382350Y-8000D02*X385350Y-5000D01*
X390600Y-7250D02*Y-9500D01*
Y-7250D02*X391350Y-6500D01*
X392100D01*
X392850Y-7250D01*
Y-9500D01*
Y-7250D02*X393600Y-6500D01*
X394350D01*
X395100Y-7250D01*
Y-9500D01*
X389850Y-6500D02*X390600Y-7250D01*
X396900Y-5000D02*Y-5750D01*
Y-7250D02*Y-9500D01*
X398400Y-3500D02*Y-8750D01*
X399150Y-9500D01*
X401400D02*X403650D01*
X404400Y-8750D01*
X403650Y-8000D02*X404400Y-8750D01*
X401400Y-8000D02*X403650D01*
X400650Y-7250D02*X401400Y-8000D01*
X400650Y-7250D02*X401400Y-6500D01*
X403650D01*
X404400Y-7250D01*
X400650Y-8750D02*X401400Y-9500D01*
X200750Y228500D02*Y222500D01*
X203000Y228500D02*X203750Y227750D01*
Y223250D01*
X203000Y222500D02*X203750Y223250D01*
X200000Y222500D02*X203000D01*
X200000Y228500D02*X203000D01*
X207800Y225500D02*X208550Y224750D01*
X206300Y225500D02*X207800D01*
X205550Y224750D02*X206300Y225500D01*
X205550Y224750D02*Y223250D01*
X206300Y222500D01*
X208550Y225500D02*Y223250D01*
X209300Y222500D01*
X206300D02*X207800D01*
X208550Y223250D01*
X211850Y228500D02*Y223250D01*
X212600Y222500D01*
X211100Y226250D02*X212600D01*
X214850Y222500D02*X217100D01*
X214100Y223250D02*X214850Y222500D01*
X214100Y224750D02*Y223250D01*
Y224750D02*X214850Y225500D01*
X216350D01*
X217100Y224750D01*
X214100Y224000D02*X217100D01*
Y224750D02*Y224000D01*
X218900Y226250D02*X219650D01*
X218900Y224750D02*X219650D01*
X224150Y228500D02*X227150D01*
X225650D02*Y222500D01*
X228950Y228500D02*Y222500D01*
Y224750D02*X229700Y225500D01*
X231200D01*
X231950Y224750D01*
Y222500D01*
X233750Y225500D02*Y223250D01*
X234500Y222500D01*
X236000D01*
X236750Y223250D01*
Y225500D02*Y223250D01*
X241250Y227750D02*X242000Y228500D01*
X244250D01*
X245000Y227750D01*
Y226250D01*
X241250Y222500D02*X245000Y226250D01*
X241250Y222500D02*X245000D01*
X246800Y223250D02*X247550Y222500D01*
X246800Y224750D02*Y223250D01*
Y224750D02*X247550Y225500D01*
X249050D01*
X249800Y224750D01*
Y223250D01*
X249050Y222500D02*X249800Y223250D01*
X247550Y222500D02*X249050D01*
X246800Y226250D02*X247550Y225500D01*
X246800Y227750D02*Y226250D01*
Y227750D02*X247550Y228500D01*
X249050D01*
X249800Y227750D01*
Y226250D01*
X249050Y225500D02*X249800Y226250D01*
X254300Y228500D02*Y222500D01*
Y228500D02*X256550Y226250D01*
X258800Y228500D01*
Y222500D01*
X262850Y225500D02*X263600Y224750D01*
X261350Y225500D02*X262850D01*
X260600Y224750D02*X261350Y225500D01*
X260600Y224750D02*Y223250D01*
X261350Y222500D01*
X263600Y225500D02*Y223250D01*
X264350Y222500D01*
X261350D02*X262850D01*
X263600Y223250D01*
X266900Y224750D02*Y222500D01*
Y224750D02*X267650Y225500D01*
X269150D01*
X266150D02*X266900Y224750D01*
X273650Y227750D02*X274400Y228500D01*
X276650D01*
X277400Y227750D01*
Y226250D01*
X273650Y222500D02*X277400Y226250D01*
X273650Y222500D02*X277400D01*
X279200Y223250D02*X279950Y222500D01*
X279200Y227750D02*Y223250D01*
Y227750D02*X279950Y228500D01*
X281450D01*
X282200Y227750D01*
Y223250D01*
X281450Y222500D02*X282200Y223250D01*
X279950Y222500D02*X281450D01*
X279200Y224000D02*X282200Y227000D01*
X284750Y222500D02*X286250D01*
X285500Y228500D02*Y222500D01*
X284000Y227000D02*X285500Y228500D01*
X288050Y227750D02*X288800Y228500D01*
X290300D01*
X291050Y227750D01*
Y223250D01*
X290300Y222500D02*X291050Y223250D01*
X288800Y222500D02*X290300D01*
X288050Y223250D02*X288800Y222500D01*
Y225500D02*X291050D01*
X296300Y222500D02*X297800D01*
X297050Y228500D02*Y222500D01*
X295550Y227000D02*X297050Y228500D01*
X299600Y223250D02*X300350Y222500D01*
X299600Y227750D02*Y223250D01*
Y227750D02*X300350Y228500D01*
X301850D01*
X302600Y227750D01*
Y223250D01*
X301850Y222500D02*X302600Y223250D01*
X300350Y222500D02*X301850D01*
X299600Y224000D02*X302600Y227000D01*
X304400Y226250D02*X305150D01*
X304400Y224750D02*X305150D01*
X306950Y228500D02*X309950D01*
X306950D02*Y225500D01*
X307700Y226250D01*
X309200D01*
X309950Y225500D01*
Y223250D01*
X309200Y222500D02*X309950Y223250D01*
X307700Y222500D02*X309200D01*
X306950Y223250D02*X307700Y222500D01*
X311750D02*X314750Y225500D01*
Y227750D02*Y225500D01*
X314000Y228500D02*X314750Y227750D01*
X312500Y228500D02*X314000D01*
X311750Y227750D02*X312500Y228500D01*
X311750Y227750D02*Y226250D01*
X312500Y225500D01*
X314750D01*
X316550Y226250D02*X317300D01*
X316550Y224750D02*X317300D01*
X319100Y225500D02*X322100Y228500D01*
X319100Y225500D02*X322850D01*
X322100Y228500D02*Y222500D01*
X324650Y227750D02*X325400Y228500D01*
X327650D01*
X328400Y227750D01*
Y226250D01*
X324650Y222500D02*X328400Y226250D01*
X324650Y222500D02*X328400D01*
X333650Y228500D02*Y222500D01*
X332900Y228500D02*X335900D01*
X336650Y227750D01*
Y226250D01*
X335900Y225500D02*X336650Y226250D01*
X333650Y225500D02*X335900D01*
X338450Y228500D02*Y222500D01*
Y228500D02*X340700Y226250D01*
X342950Y228500D01*
Y222500D01*
X350450Y228500D02*X351200Y227750D01*
X348200Y228500D02*X350450D01*
X347450Y227750D02*X348200Y228500D01*
X347450Y227750D02*Y223250D01*
X348200Y222500D01*
X350450D01*
X351200Y223250D01*
Y224750D02*Y223250D01*
X350450Y225500D02*X351200Y224750D01*
X348950Y225500D02*X350450D01*
X353000Y228500D02*Y222500D01*
Y228500D02*X355250Y226250D01*
X357500Y228500D01*
Y222500D01*
X359300Y228500D02*X362300D01*
X360800D02*Y222500D01*
X366800Y228500D02*Y223250D01*
X367550Y222500D01*
X369050D01*
X369800Y223250D01*
Y228500D02*Y223250D01*
X371600Y228500D02*X374600D01*
X373100D02*Y222500D01*
X377150D02*X379400D01*
X376400Y223250D02*X377150Y222500D01*
X376400Y227750D02*Y223250D01*
Y227750D02*X377150Y228500D01*
X379400D01*
X200000Y242750D02*Y237500D01*
Y242750D02*X200750Y243500D01*
X203000D01*
X203750Y242750D01*
Y237500D01*
X200000Y240500D02*X203750D01*
X205550D02*Y238250D01*
X206300Y237500D01*
X207800D01*
X208550Y238250D01*
Y240500D02*Y238250D01*
X211100Y243500D02*Y238250D01*
X211850Y237500D01*
X210350Y241250D02*X211850D01*
X213350Y243500D02*Y237500D01*
Y239750D02*X214100Y240500D01*
X215600D01*
X216350Y239750D01*
Y237500D01*
X218150Y239750D02*Y238250D01*
Y239750D02*X218900Y240500D01*
X220400D01*
X221150Y239750D01*
Y238250D01*
X220400Y237500D02*X221150Y238250D01*
X218900Y237500D02*X220400D01*
X218150Y238250D02*X218900Y237500D01*
X223700Y239750D02*Y237500D01*
Y239750D02*X224450Y240500D01*
X225950D01*
X222950D02*X223700Y239750D01*
X227750Y241250D02*X228500D01*
X227750Y239750D02*X228500D01*
X233000Y243500D02*Y237500D01*
Y243500D02*X235250Y241250D01*
X237500Y243500D01*
Y237500D01*
X239300Y242000D02*Y241250D01*
Y239750D02*Y237500D01*
X241550Y240500D02*X243800D01*
X240800Y239750D02*X241550Y240500D01*
X240800Y239750D02*Y238250D01*
X241550Y237500D01*
X243800D01*
X245600Y243500D02*Y237500D01*
Y239750D02*X246350Y240500D01*
X247850D01*
X248600Y239750D01*
Y237500D01*
X252650Y240500D02*X253400Y239750D01*
X251150Y240500D02*X252650D01*
X250400Y239750D02*X251150Y240500D01*
X250400Y239750D02*Y238250D01*
X251150Y237500D01*
X253400Y240500D02*Y238250D01*
X254150Y237500D01*
X251150D02*X252650D01*
X253400Y238250D01*
X256700Y237500D02*X258950D01*
X255950Y238250D02*X256700Y237500D01*
X255950Y239750D02*Y238250D01*
Y239750D02*X256700Y240500D01*
X258200D01*
X258950Y239750D01*
X255950Y239000D02*X258950D01*
Y239750D02*Y239000D01*
X260750Y243500D02*Y238250D01*
X261500Y237500D01*
X266450Y243500D02*Y237500D01*
X265700Y243500D02*X268700D01*
X269450Y242750D01*
Y241250D01*
X268700Y240500D02*X269450Y241250D01*
X266450Y240500D02*X268700D01*
X272000Y237500D02*X274250D01*
X271250Y238250D02*X272000Y237500D01*
X271250Y239750D02*Y238250D01*
Y239750D02*X272000Y240500D01*
X273500D01*
X274250Y239750D01*
X271250Y239000D02*X274250D01*
Y239750D02*Y239000D01*
X276800Y243500D02*Y238250D01*
X277550Y237500D01*
X276050Y241250D02*X277550D01*
X279800Y237500D02*X282050D01*
X279050Y238250D02*X279800Y237500D01*
X279050Y239750D02*Y238250D01*
Y239750D02*X279800Y240500D01*
X281300D01*
X282050Y239750D01*
X279050Y239000D02*X282050D01*
Y239750D02*Y239000D01*
X284600Y239750D02*Y237500D01*
Y239750D02*X285350Y240500D01*
X286850D01*
X283850D02*X284600Y239750D01*
X289400Y237500D02*X291650D01*
X292400Y238250D01*
X291650Y239000D02*X292400Y238250D01*
X289400Y239000D02*X291650D01*
X288650Y239750D02*X289400Y239000D01*
X288650Y239750D02*X289400Y240500D01*
X291650D01*
X292400Y239750D01*
X288650Y238250D02*X289400Y237500D01*
X294950D02*X297200D01*
X294200Y238250D02*X294950Y237500D01*
X294200Y239750D02*Y238250D01*
Y239750D02*X294950Y240500D01*
X296450D01*
X297200Y239750D01*
X294200Y239000D02*X297200D01*
Y239750D02*Y239000D01*
X299750Y239750D02*Y237500D01*
Y239750D02*X300500Y240500D01*
X301250D01*
X302000Y239750D01*
Y237500D01*
X299000Y240500D02*X299750Y239750D01*
X200000Y258500D02*X203000D01*
X201500D02*Y252500D01*
X204800Y257000D02*Y256250D01*
Y254750D02*Y252500D01*
X207050Y258500D02*Y253250D01*
X207800Y252500D01*
X206300Y256250D02*X207800D01*
X209300Y258500D02*Y253250D01*
X210050Y252500D01*
X212300D02*X214550D01*
X211550Y253250D02*X212300Y252500D01*
X211550Y254750D02*Y253250D01*
Y254750D02*X212300Y255500D01*
X213800D01*
X214550Y254750D01*
X211550Y254000D02*X214550D01*
Y254750D02*Y254000D01*
X216350Y256250D02*X217100D01*
X216350Y254750D02*X217100D01*
X221600Y253250D02*X222350Y252500D01*
X221600Y257750D02*X222350Y258500D01*
X221600Y257750D02*Y253250D01*
X224150Y255500D02*Y253250D01*
X224900Y252500D01*
X226400D01*
X227150Y253250D01*
Y255500D02*Y253250D01*
X229700Y254750D02*Y252500D01*
Y254750D02*X230450Y255500D01*
X231200D01*
X231950Y254750D01*
Y252500D01*
X228950Y255500D02*X229700Y254750D01*
X233750Y258500D02*Y252500D01*
Y254750D02*X236000Y252500D01*
X233750Y254750D02*X235250Y256250D01*
X238550Y254750D02*Y252500D01*
Y254750D02*X239300Y255500D01*
X240050D01*
X240800Y254750D01*
Y252500D01*
X237800Y255500D02*X238550Y254750D01*
X242600D02*Y253250D01*
Y254750D02*X243350Y255500D01*
X244850D01*
X245600Y254750D01*
Y253250D01*
X244850Y252500D02*X245600Y253250D01*
X243350Y252500D02*X244850D01*
X242600Y253250D02*X243350Y252500D01*
X247400Y255500D02*Y253250D01*
X248150Y252500D01*
X248900D01*
X249650Y253250D01*
Y255500D02*Y253250D01*
X250400Y252500D01*
X251150D01*
X251900Y253250D01*
Y255500D02*Y253250D01*
X254450Y254750D02*Y252500D01*
Y254750D02*X255200Y255500D01*
X255950D01*
X256700Y254750D01*
Y252500D01*
X253700Y255500D02*X254450Y254750D01*
X258500Y258500D02*X259250Y257750D01*
Y253250D01*
X258500Y252500D02*X259250Y253250D01*
X263750Y255500D02*X266750D01*
X271250Y258500D02*Y252500D01*
Y258500D02*X274250D01*
X271250Y255500D02*X273500D01*
X278300D02*X279050Y254750D01*
X276800Y255500D02*X278300D01*
X276050Y254750D02*X276800Y255500D01*
X276050Y254750D02*Y253250D01*
X276800Y252500D01*
X279050Y255500D02*Y253250D01*
X279800Y252500D01*
X276800D02*X278300D01*
X279050Y253250D01*
X281600Y258500D02*Y252500D01*
Y253250D02*X282350Y252500D01*
X283850D01*
X284600Y253250D01*
Y254750D02*Y253250D01*
X283850Y255500D02*X284600Y254750D01*
X282350Y255500D02*X283850D01*
X281600Y254750D02*X282350Y255500D01*
X287150Y254750D02*Y252500D01*
Y254750D02*X287900Y255500D01*
X289400D01*
X286400D02*X287150Y254750D01*
X291200Y257000D02*Y256250D01*
Y254750D02*Y252500D01*
X293450Y255500D02*X295700D01*
X292700Y254750D02*X293450Y255500D01*
X292700Y254750D02*Y253250D01*
X293450Y252500D01*
X295700D01*
X299750Y255500D02*X300500Y254750D01*
X298250Y255500D02*X299750D01*
X297500Y254750D02*X298250Y255500D01*
X297500Y254750D02*Y253250D01*
X298250Y252500D01*
X300500Y255500D02*Y253250D01*
X301250Y252500D01*
X298250D02*X299750D01*
X300500Y253250D01*
X303800Y258500D02*Y253250D01*
X304550Y252500D01*
X303050Y256250D02*X304550D01*
X306050Y257000D02*Y256250D01*
Y254750D02*Y252500D01*
X307550Y254750D02*Y253250D01*
Y254750D02*X308300Y255500D01*
X309800D01*
X310550Y254750D01*
Y253250D01*
X309800Y252500D02*X310550Y253250D01*
X308300Y252500D02*X309800D01*
X307550Y253250D02*X308300Y252500D01*
X313100Y254750D02*Y252500D01*
Y254750D02*X313850Y255500D01*
X314600D01*
X315350Y254750D01*
Y252500D01*
X312350Y255500D02*X313100Y254750D01*
X320600Y258500D02*Y252500D01*
X322850Y258500D02*X323600Y257750D01*
Y253250D01*
X322850Y252500D02*X323600Y253250D01*
X319850Y252500D02*X322850D01*
X319850Y258500D02*X322850D01*
X326150Y254750D02*Y252500D01*
Y254750D02*X326900Y255500D01*
X328400D01*
X325400D02*X326150Y254750D01*
X332450Y255500D02*X333200Y254750D01*
X330950Y255500D02*X332450D01*
X330200Y254750D02*X330950Y255500D01*
X330200Y254750D02*Y253250D01*
X330950Y252500D01*
X333200Y255500D02*Y253250D01*
X333950Y252500D01*
X330950D02*X332450D01*
X333200Y253250D01*
X335750Y255500D02*Y253250D01*
X336500Y252500D01*
X337250D01*
X338000Y253250D01*
Y255500D02*Y253250D01*
X338750Y252500D01*
X339500D01*
X340250Y253250D01*
Y255500D02*Y253250D01*
X342050Y257000D02*Y256250D01*
Y254750D02*Y252500D01*
X344300Y254750D02*Y252500D01*
Y254750D02*X345050Y255500D01*
X345800D01*
X346550Y254750D01*
Y252500D01*
X343550Y255500D02*X344300Y254750D01*
X350600Y255500D02*X351350Y254750D01*
X349100Y255500D02*X350600D01*
X348350Y254750D02*X349100Y255500D01*
X348350Y254750D02*Y253250D01*
X349100Y252500D01*
X350600D01*
X351350Y253250D01*
X348350Y251000D02*X349100Y250250D01*
X350600D01*
X351350Y251000D01*
Y255500D02*Y251000D01*
M02*
